<?xml version="1.0" encoding="UTF-8" standalone="no"?>
<!DOCTYPE svg PUBLIC "-//W3C//DTD SVG 1.1//EN" "http://www.w3.org/Graphics/SVG/1.1/DTD/svg11.dtd">
<svg width="100%" height="100%" viewBox="0 0 4000 2000" version="1.1" xmlns="http://www.w3.org/2000/svg" xmlns:xlink="http://www.w3.org/1999/xlink" xml:space="preserve" xmlns:serif="http://www.serif.com/" style="fill-rule:evenodd;clip-rule:evenodd;stroke-linejoin:round;stroke-miterlimit:2;">
    <path d="M1500.92,1853.66L521.424,1853.66L28.565,1000L521.424,146.344L1507.14,146.344L1753.57,573.172L1504.03,573.172L1382.37,362.45L646.193,362.45L278.103,1000L646.193,1637.55L1382.37,1637.55L1500.92,1432.21L1500.92,1853.66Z"/>
    <g transform="matrix(6.21914e-17,-1,0.578453,3.47152e-17,428.672,2875.23)">
        <rect x="1750.46" y="1000" width="249.538" height="853.656"/>
    </g>
    <path d="M2072.03,875.231L2321.57,875.231L2249.54,1000L2617.63,1637.55L3353.81,1637.55L3478.58,1853.66L2492.86,1853.66L2000,1000L2072.03,875.231ZM2361.53,635.556L2361.53,373.808L2492.86,146.344L3478.58,146.344L3353.81,362.45L2617.63,362.45L2459.95,635.556L2361.53,635.556Z"/>
    <path d="M3478.58,573.172L3601.79,359.758L3971.43,1000L3601.79,1640.24L3478.58,1426.83L3478.58,1421.44L3721.9,1000L3478.58,578.556L3478.58,573.172Z"/>
    <g transform="matrix(0.608731,0,0,0.566297,1228.05,414.826)">
        <path d="M3478.58,573.172L3601.79,359.758L3971.43,1000L3601.79,1640.24L3478.58,1426.83L3478.58,1421.44L3721.9,1000L3478.58,578.556L3478.58,573.172Z"/>
    </g>
    <path d="M3313.7,815.518L3409.31,981.123L3313.7,1146.73L3218.09,981.123L3313.7,815.518Z"/>
    <path d="M2617.63,1637.55L2739.29,1853.66L2492.86,1853.66L2000,1000L2249.54,1000L2617.63,1637.55Z" style="fill:rgb(255,0,0);"/>
    <g transform="matrix(6.26924e-17,-1,0.880626,5.32179e-17,620.299,2875.23)">
        <rect x="1750.46" y="1000" width="249.538" height="853.656" style="fill:rgb(255,0,0);"/>
    </g>
    <path d="M1500.92,635.556L1500.92,146.344L2122.09,146.344C2392.04,146.344 2610.87,365.177 2610.87,635.123L2610.87,638.876C2610.87,907.227 2393.33,1124.77 2124.98,1124.77L1500.92,1124.77L1500.92,875.231L2121.66,875.231C2185.23,875.231 2246.19,849.98 2291.14,805.032C2336.08,760.085 2361.34,699.123 2361.34,635.557L2361.34,635.555C2361.34,571.99 2336.08,511.028 2291.14,466.08C2246.19,421.133 2185.23,395.881 2121.66,395.881L1753.57,395.881L1753.57,635.556L1500.92,635.556Z" style="fill:rgb(255,0,0);"/>
    <rect x="1500.92" y="875.231" width="249.538" height="978.425" style="fill:rgb(255,0,0);"/>
</svg>
