<?xml version="1.0" encoding="UTF-8" standalone="no"?>
<!DOCTYPE svg PUBLIC "-//W3C//DTD SVG 1.1//EN" "http://www.w3.org/Graphics/SVG/1.1/DTD/svg11.dtd">
<svg width="100%" height="100%" viewBox="0 0 3840 2160" version="1.1" xmlns="http://www.w3.org/2000/svg" xmlns:xlink="http://www.w3.org/1999/xlink" xml:space="preserve" xmlns:serif="http://www.serif.com/" style="fill-rule:evenodd;clip-rule:evenodd;stroke-linejoin:round;stroke-miterlimit:2;">
    <g transform="matrix(1.23884,0,0,1.23884,-211.513,-429.498)">
        <g transform="matrix(107.966,0,0,107.966,788.154,1999.51)">
            <path d="M0.553,-0.441C0.553,-0.434 0.551,-0.428 0.546,-0.423C0.541,-0.418 0.535,-0.416 0.527,-0.416L0.19,-0.416L0.19,-0.519L0.553,-0.519L0.553,-0.441ZM0.553,-0.156L0.19,-0.156L0.19,-0.26L0.527,-0.26C0.535,-0.26 0.541,-0.257 0.546,-0.252C0.551,-0.247 0.553,-0.241 0.553,-0.233L0.553,-0.156ZM0.709,-0.675L0.034,-0.675L0.034,-0L0.709,-0L0.709,-0.233C0.709,-0.271 0.698,-0.306 0.676,-0.337C0.698,-0.369 0.709,-0.403 0.709,-0.441L0.709,-0.675Z" style="fill:rgb(23,119,227);fill-rule:nonzero;"/>
        </g>
        <g transform="matrix(107.966,0,0,107.966,868.39,1999.51)">
            <path d="M0.553,-0.675L0.553,-0.156L0.19,-0.156L0.19,-0.675L0.034,-0.675L0.034,-0L0.709,-0L0.709,-0.675L0.553,-0.675Z" style="fill:rgb(23,119,227);fill-rule:nonzero;"/>
        </g>
        <g transform="matrix(107.966,0,0,107.966,948.627,1999.51)">
            <rect x="0.034" y="-0.675" width="0.156" height="0.675" style="fill:rgb(23,119,227);fill-rule:nonzero;"/>
        </g>
        <g transform="matrix(107.966,0,0,107.966,972.825,1999.51)">
            <path d="M0.034,-0.675L0.034,-0L0.709,-0L0.709,-0.156L0.19,-0.156L0.19,-0.675L0.034,-0.675Z" style="fill:rgb(23,119,227);fill-rule:nonzero;"/>
        </g>
        <g transform="matrix(107.966,0,0,107.966,1053.06,1999.51)">
            <path d="M0.19,-0.156L0.553,-0.156L0.553,-0.519L0.19,-0.519L0.19,-0.156ZM0.034,-0L0.034,-0.675L0.579,-0.675C0.615,-0.675 0.646,-0.662 0.671,-0.637C0.696,-0.611 0.709,-0.581 0.709,-0.545L0.709,-0.13C0.709,-0.094 0.696,-0.063 0.671,-0.038C0.646,-0.013 0.615,-0 0.579,-0L0.034,-0Z" style="fill:rgb(23,119,227);fill-rule:nonzero;"/>
        </g>
        <g transform="matrix(107.966,0,0,107.966,1133.3,1999.51)">
            <rect x="0.034" y="-0.675" width="0.156" height="0.675" style="fill:rgb(23,119,227);fill-rule:nonzero;"/>
        </g>
        <g transform="matrix(107.966,0,0,107.966,1157.5,1999.51)">
            <path d="M0.553,-0.675L0.553,-0.241L0.192,-0.675L0.034,-0.675L0.034,-0L0.19,-0L0.19,-0.434L0.551,-0L0.709,-0L0.709,-0.675L0.553,-0.675Z" style="fill:rgb(23,119,227);fill-rule:nonzero;"/>
        </g>
        <g transform="matrix(107.966,0,0,107.966,1237.73,1999.51)">
            <path d="M0.034,-0.675L0.034,-0L0.709,-0L0.709,-0.416L0.294,-0.416L0.294,-0.26L0.553,-0.26L0.553,-0.156L0.19,-0.156L0.19,-0.519L0.709,-0.519L0.709,-0.675L0.034,-0.675Z" style="fill:rgb(23,119,227);fill-rule:nonzero;"/>
        </g>
        <g transform="matrix(107.966,0,0,107.966,1344.75,1999.51)">
            <path d="M0.034,-0.675L0.034,-0L0.19,-0L0.19,-0.26L0.553,-0.26L0.553,-0L0.709,-0L0.709,-0.675L0.034,-0.675ZM0.19,-0.519L0.553,-0.519L0.553,-0.416L0.19,-0.416L0.19,-0.519Z" style="fill:rgb(23,119,227);fill-rule:nonzero;"/>
        </g>
        <g transform="matrix(107.966,0,0,107.966,1451.77,1999.51)">
            <path d="M0.553,-0.441C0.553,-0.434 0.551,-0.428 0.546,-0.423C0.541,-0.418 0.535,-0.416 0.527,-0.416L0.19,-0.416L0.19,-0.519L0.553,-0.519L0.553,-0.441ZM0.553,-0.156L0.19,-0.156L0.19,-0.26L0.527,-0.26C0.535,-0.26 0.541,-0.257 0.546,-0.252C0.551,-0.247 0.553,-0.241 0.553,-0.233L0.553,-0.156ZM0.709,-0.675L0.034,-0.675L0.034,-0L0.709,-0L0.709,-0.233C0.709,-0.271 0.698,-0.306 0.676,-0.337C0.698,-0.369 0.709,-0.403 0.709,-0.441L0.709,-0.675Z" style="fill:rgb(23,119,227);fill-rule:nonzero;"/>
        </g>
        <g transform="matrix(107.966,0,0,107.966,1532,1999.51)">
            <path d="M0.034,-0.675L0.034,-0L0.709,-0L0.709,-0.156L0.19,-0.156L0.19,-0.26L0.709,-0.26L0.709,-0.416L0.19,-0.416L0.19,-0.519L0.709,-0.519L0.709,-0.675L0.034,-0.675Z" style="fill:rgb(23,119,227);fill-rule:nonzero;"/>
        </g>
        <g transform="matrix(107.966,0,0,107.966,1612.24,1999.51)">
            <path d="M0.034,-0.675L0.034,-0.519L0.294,-0.519L0.294,-0L0.45,-0L0.45,-0.519L0.709,-0.519L0.709,-0.675L0.034,-0.675Z" style="fill:rgb(23,119,227);fill-rule:nonzero;"/>
        </g>
        <g transform="matrix(107.966,0,0,107.966,1692.48,1999.51)">
            <path d="M0.034,-0.675L0.034,-0.519L0.294,-0.519L0.294,-0L0.45,-0L0.45,-0.519L0.709,-0.519L0.709,-0.675L0.034,-0.675Z" style="fill:rgb(23,119,227);fill-rule:nonzero;"/>
        </g>
        <g transform="matrix(107.966,0,0,107.966,1772.71,1999.51)">
            <path d="M0.034,-0.675L0.034,-0L0.709,-0L0.709,-0.156L0.19,-0.156L0.19,-0.26L0.709,-0.26L0.709,-0.416L0.19,-0.416L0.19,-0.519L0.709,-0.519L0.709,-0.675L0.034,-0.675Z" style="fill:rgb(23,119,227);fill-rule:nonzero;"/>
        </g>
        <g transform="matrix(107.966,0,0,107.966,1852.95,1999.51)">
            <path d="M0.19,-0.416L0.19,-0.519L0.553,-0.519L0.553,-0.441C0.553,-0.434 0.551,-0.428 0.546,-0.423C0.541,-0.418 0.535,-0.416 0.527,-0.416L0.19,-0.416ZM0.709,-0.675L0.034,-0.675L0.034,-0L0.19,-0L0.19,-0.26L0.476,-0.26C0.497,-0.26 0.515,-0.252 0.53,-0.237C0.546,-0.222 0.553,-0.203 0.553,-0.182L0.553,-0L0.709,-0L0.709,-0.182C0.709,-0.233 0.694,-0.279 0.663,-0.321C0.694,-0.355 0.709,-0.396 0.709,-0.441L0.709,-0.675Z" style="fill:rgb(23,119,227);fill-rule:nonzero;"/>
        </g>
        <g transform="matrix(107.966,0,0,107.966,1959.97,1999.51)">
            <path d="M0.034,-0.675L0.034,-0.519L0.294,-0.519L0.294,-0L0.45,-0L0.45,-0.519L0.709,-0.519L0.709,-0.675L0.034,-0.675Z" style="fill:rgb(23,119,227);fill-rule:nonzero;"/>
        </g>
        <g transform="matrix(107.966,0,0,107.966,2040.2,1999.51)">
            <path d="M0.034,-0L0.709,-0L0.709,-0.675L0.034,-0.675L0.034,-0ZM0.19,-0.519L0.553,-0.519L0.553,-0.156L0.19,-0.156L0.19,-0.519Z" style="fill:rgb(23,119,227);fill-rule:nonzero;"/>
        </g>
        <g transform="matrix(107.966,0,0,107.966,2120.44,1999.51)">
            <path d="M0.676,-0.675L0.423,-0.465L0.171,-0.675L0.034,-0.675L0.034,-0L0.19,-0L0.19,-0.457L0.423,-0.262L0.657,-0.457L0.657,-0L0.813,-0L0.813,-0.675L0.676,-0.675Z" style="fill:rgb(23,119,227);fill-rule:nonzero;"/>
        </g>
        <g transform="matrix(107.966,0,0,107.966,2211.91,1999.51)">
            <path d="M0.034,-0L0.709,-0L0.709,-0.675L0.034,-0.675L0.034,-0ZM0.19,-0.519L0.553,-0.519L0.553,-0.156L0.19,-0.156L0.19,-0.519Z" style="fill:rgb(23,119,227);fill-rule:nonzero;"/>
        </g>
        <g transform="matrix(107.966,0,0,107.966,2292.14,1999.51)">
            <path d="M0.19,-0.416L0.19,-0.519L0.553,-0.519L0.553,-0.441C0.553,-0.434 0.551,-0.428 0.546,-0.423C0.541,-0.418 0.535,-0.416 0.527,-0.416L0.19,-0.416ZM0.709,-0.675L0.034,-0.675L0.034,-0L0.19,-0L0.19,-0.26L0.476,-0.26C0.497,-0.26 0.515,-0.252 0.53,-0.237C0.546,-0.222 0.553,-0.203 0.553,-0.182L0.553,-0L0.709,-0L0.709,-0.182C0.709,-0.233 0.694,-0.279 0.663,-0.321C0.694,-0.355 0.709,-0.396 0.709,-0.441L0.709,-0.675Z" style="fill:rgb(23,119,227);fill-rule:nonzero;"/>
        </g>
        <g transform="matrix(107.966,0,0,107.966,2372.38,1999.51)">
            <path d="M0.19,-0.416L0.19,-0.519L0.553,-0.519L0.553,-0.441C0.553,-0.434 0.551,-0.428 0.546,-0.423C0.541,-0.418 0.535,-0.416 0.527,-0.416L0.19,-0.416ZM0.709,-0.675L0.034,-0.675L0.034,-0L0.19,-0L0.19,-0.26L0.476,-0.26C0.497,-0.26 0.515,-0.252 0.53,-0.237C0.546,-0.222 0.553,-0.203 0.553,-0.182L0.553,-0L0.709,-0L0.709,-0.182C0.709,-0.233 0.694,-0.279 0.663,-0.321C0.694,-0.355 0.709,-0.396 0.709,-0.441L0.709,-0.675Z" style="fill:rgb(23,119,227);fill-rule:nonzero;"/>
        </g>
        <g transform="matrix(107.966,0,0,107.966,2452.62,1999.51)">
            <path d="M0.034,-0L0.709,-0L0.709,-0.675L0.034,-0.675L0.034,-0ZM0.19,-0.519L0.553,-0.519L0.553,-0.156L0.19,-0.156L0.19,-0.519Z" style="fill:rgb(23,119,227);fill-rule:nonzero;"/>
        </g>
        <g transform="matrix(107.966,0,0,107.966,2532.85,1999.51)">
            <path d="M0.912,-0.675L0.72,-0.18L0.62,-0.416L0.517,-0.416L0.413,-0.173L0.203,-0.675L0.034,-0.675L0.317,-0L0.508,-0L0.568,-0.14L0.628,-0L0.817,-0L1.079,-0.675L0.912,-0.675Z" style="fill:rgb(23,119,227);fill-rule:nonzero;"/>
        </g>
    </g>
    <g transform="matrix(0.496033,0,0,0.496033,267.858,1350.64)">
        <g transform="matrix(596.78,0,0,596.78,307.029,1080)">
            <path d="M0.034,-0.675L0.034,-0.519L0.294,-0.519L0.294,-0L0.45,-0L0.45,-0.519L0.709,-0.519L0.709,-0.675L0.034,-0.675Z" style="fill:rgb(23,119,227);fill-rule:nonzero;"/>
        </g>
        <g transform="matrix(596.78,0,0,596.78,750.535,1080)">
            <path d="M0.553,-0.675L0.553,-0.416L0.19,-0.416L0.19,-0.675L0.034,-0.675L0.034,-0L0.19,-0L0.19,-0.26L0.553,-0.26L0.553,-0L0.709,-0L0.709,-0.675L0.553,-0.675Z" style="fill:rgb(23,119,227);fill-rule:nonzero;"/>
        </g>
        <g transform="matrix(596.78,0,0,596.78,1194.04,1080)">
            <path d="M0.034,-0.675L0.034,-0L0.709,-0L0.709,-0.156L0.19,-0.156L0.19,-0.26L0.709,-0.26L0.709,-0.416L0.19,-0.416L0.19,-0.519L0.709,-0.519L0.709,-0.675L0.034,-0.675Z" style="fill:rgb(23,119,227);fill-rule:nonzero;"/>
        </g>
        <g transform="matrix(596.78,0,0,596.78,1785.58,1080)">
            <path d="M0.034,-0.675L0.034,-0L0.709,-0L0.709,-0.156L0.19,-0.156L0.19,-0.519L0.709,-0.519L0.709,-0.675L0.034,-0.675Z" style="fill:rgb(23,119,227);fill-rule:nonzero;"/>
        </g>
        <g transform="matrix(596.78,0,0,596.78,2229.08,1080)">
            <path d="M0.034,-0L0.709,-0L0.709,-0.675L0.034,-0.675L0.034,-0ZM0.19,-0.519L0.553,-0.519L0.553,-0.156L0.19,-0.156L0.19,-0.519Z" style="fill:rgb(23,119,227);fill-rule:nonzero;"/>
        </g>
        <g transform="matrix(596.78,0,0,596.78,2672.59,1080)">
            <path d="M0.19,-0.416L0.19,-0.519L0.553,-0.519L0.553,-0.441C0.553,-0.434 0.551,-0.428 0.546,-0.423C0.541,-0.418 0.535,-0.416 0.527,-0.416L0.19,-0.416ZM0.709,-0.675L0.034,-0.675L0.034,-0L0.19,-0L0.19,-0.26L0.476,-0.26C0.497,-0.26 0.515,-0.252 0.53,-0.237C0.546,-0.222 0.553,-0.203 0.553,-0.182L0.553,-0L0.709,-0L0.709,-0.182C0.709,-0.233 0.694,-0.279 0.663,-0.321C0.694,-0.355 0.709,-0.396 0.709,-0.441L0.709,-0.675Z" style="fill:rgb(23,119,227);fill-rule:nonzero;"/>
        </g>
        <g transform="matrix(596.78,0,0,596.78,3116.09,1080)">
            <path d="M0.034,-0.675L0.034,-0L0.19,-0L0.19,-0.26L0.709,-0.26L0.709,-0.675L0.034,-0.675ZM0.19,-0.519L0.553,-0.519L0.553,-0.416L0.19,-0.416L0.19,-0.519Z" style="fill:rgb(23,119,227);fill-rule:nonzero;"/>
        </g>
        <g transform="matrix(596.78,0,0,596.78,3559.6,1080)">
            <path d="M0.034,-0L0.709,-0L0.709,-0.675L0.034,-0.675L0.034,-0ZM0.19,-0.519L0.553,-0.519L0.553,-0.156L0.19,-0.156L0.19,-0.519Z" style="fill:rgb(23,119,227);fill-rule:nonzero;"/>
        </g>
        <g transform="matrix(596.78,0,0,596.78,4003.1,1080)">
            <path d="M0.19,-0.416L0.19,-0.519L0.553,-0.519L0.553,-0.441C0.553,-0.434 0.551,-0.428 0.546,-0.423C0.541,-0.418 0.535,-0.416 0.527,-0.416L0.19,-0.416ZM0.709,-0.675L0.034,-0.675L0.034,-0L0.19,-0L0.19,-0.26L0.476,-0.26C0.497,-0.26 0.515,-0.252 0.53,-0.237C0.546,-0.222 0.553,-0.203 0.553,-0.182L0.553,-0L0.709,-0L0.709,-0.182C0.709,-0.233 0.694,-0.279 0.663,-0.321C0.694,-0.355 0.709,-0.396 0.709,-0.441L0.709,-0.675Z" style="fill:rgb(23,119,227);fill-rule:nonzero;"/>
        </g>
        <g transform="matrix(596.78,0,0,596.78,4446.61,1080)">
            <path d="M0.034,-0.675L0.034,-0L0.19,-0L0.19,-0.26L0.553,-0.26L0.553,-0L0.709,-0L0.709,-0.675L0.034,-0.675ZM0.19,-0.519L0.553,-0.519L0.553,-0.416L0.19,-0.416L0.19,-0.519Z" style="fill:rgb(23,119,227);fill-rule:nonzero;"/>
        </g>
        <g transform="matrix(596.78,0,0,596.78,4890.12,1080)">
            <path d="M0.034,-0.675L0.034,-0.519L0.294,-0.519L0.294,-0L0.45,-0L0.45,-0.519L0.709,-0.519L0.709,-0.675L0.034,-0.675Z" style="fill:rgb(23,119,227);fill-rule:nonzero;"/>
        </g>
        <g transform="matrix(596.78,0,0,596.78,5333.62,1080)">
            <rect x="0.034" y="-0.675" width="0.156" height="0.675" style="fill:rgb(23,119,227);fill-rule:nonzero;"/>
        </g>
        <g transform="matrix(596.78,0,0,596.78,5467.37,1080)">
            <path d="M0.034,-0L0.709,-0L0.709,-0.675L0.034,-0.675L0.034,-0ZM0.19,-0.519L0.553,-0.519L0.553,-0.156L0.19,-0.156L0.19,-0.519Z" style="fill:rgb(23,119,227);fill-rule:nonzero;"/>
        </g>
        <g transform="matrix(596.78,0,0,596.78,5910.88,1080)">
            <path d="M0.553,-0.675L0.553,-0.241L0.192,-0.675L0.034,-0.675L0.034,-0L0.19,-0L0.19,-0.434L0.551,-0L0.709,-0L0.709,-0.675L0.553,-0.675Z" style="fill:rgb(23,119,227);fill-rule:nonzero;"/>
        </g>
    </g>
    <g transform="matrix(0.577508,0,0,0.577508,1049,-50.0487)">
        <path d="M2909.76,1500L2204.88,2720.89L795.118,2720.89L90.235,1500L795.118,279.108L2204.88,279.108L2909.76,1500ZM2594.38,1500L2047.19,2447.76L952.808,2447.76L405.616,1500L952.808,552.236L2047.19,552.236L2594.38,1500Z" style="fill:rgb(0,120,255);"/>
    </g>
    <g transform="matrix(0.577508,0,0,0.577508,1049,-50.0487)">
        <path d="M968.127,590.893L2005.22,590.893L1847.53,864.02L1125.82,864.02L760.615,1500L1125.82,2132.55L1838.05,2132.55L1995.74,2405.68L968.127,2405.68L443.254,1500L968.127,590.893Z" style="fill:rgb(255,250,0);"/>
    </g>
    <g transform="matrix(0.577508,0,0,0.577508,1049,-50.0487)">
        <path d="M1874.04,878.789L2031.73,605.661L2549.07,1498.29L2031.73,2394.34L1874.04,2121.21L2233.68,1498.29L1874.04,878.789ZM1695.2,1188.54L1852.89,915.409L2190.41,1496.57L1851.9,2082.88L1694.21,1809.75L1875.03,1496.57L1695.2,1188.54ZM1673.48,1226.16L1832.08,1497.43L1672.99,1772.99L1515.38,1500L1673.48,1226.16Z" style="fill:rgb(0,120,255);"/>
    </g>
    <g transform="matrix(1.04293,-1.88268e-17,2.35628e-17,-1.49769,-88.6583,4757.87)">
        <rect x="708.587" y="1888.87" width="2434.91" height="9.063" style="fill:rgb(254,234,23);"/>
    </g>
</svg>
