<?xml version="1.0" encoding="UTF-8" standalone="no"?><!DOCTYPE svg PUBLIC "-//W3C//DTD SVG 1.1//EN" "http://www.w3.org/Graphics/SVG/1.1/DTD/svg11.dtd"><svg width="100%" height="100%" viewBox="0 0 3000 3000" version="1.1" xmlns="http://www.w3.org/2000/svg" xmlns:xlink="http://www.w3.org/1999/xlink" xml:space="preserve" xmlns:serif="http://www.serif.com/" style="fill-rule:evenodd;clip-rule:evenodd;stroke-linejoin:round;stroke-miterlimit:2;"><g><path d="M2900.3,1500l-700.151,1212.7c-0,-0 -1400.3,-0 -1400.3,-0c0,-0 -700.151,-1212.7 -700.151,-1212.7c42.963,-74.413 657.189,-1138.28 700.151,-1212.7c0,0 1400.3,0 1400.3,0l700.151,1212.7Zm-848.379,955.959l551.924,-955.959l-551.924,-955.959l-1103.85,-0l-551.924,955.959l551.924,955.959l1103.85,0Z" style="fill:#0078ff;"/><path d="M972.859,599.088l1018.17,-0c-0,-0 -148.228,256.737 -148.228,256.737c0,0 -716.985,0 -716.985,0c-2.927,0 -5.633,1.562 -7.097,4.098l-367.183,635.979c-1.467,2.542 -1.463,5.674 0.01,8.212l367.183,632.549c1.466,2.526 4.167,4.081 7.087,4.081l707.499,-0c0,-0 117.81,204.054 148.228,256.737c-0,0 -1008.69,0 -1008.69,0c-0,0.001 -520.129,-897.489 -520.129,-897.489l520.138,-900.904Z" style="fill:#fcff00;"/><path d="M2031.73,2377.95l-148.234,-256.749c30.858,-53.743 355.317,-618.835 355.317,-618.835c1.454,-2.533 1.45,-5.648 -0.01,-8.178c-0,0 -324.345,-561.782 -355.301,-615.398c0,-0 117.846,-204.115 148.241,-256.762c0,0 507.857,876.266 507.857,876.266c-0,-0 -507.87,879.656 -507.87,879.656l-0,-0Zm-327.048,-1189.43c0,-0 117.799,-204.034 148.215,-256.715c-0,0 296.563,513.662 326.077,564.782c-0,0 -327.089,569.868 -327.089,569.868c0,0 -148.206,-256.701 -148.206,-256.701c-0,0 178.448,-309.081 178.448,-309.081c1.471,-2.548 1.463,-5.689 -0.02,-8.229c0,-0 -156.114,-267.42 -177.425,-303.924l0,-0Zm-31.151,53.956l149.076,254.983c-0,-0 -149.616,259.142 -149.616,259.142c-0,-0 -148.145,-256.595 -148.145,-256.595l148.685,-257.53Z" style="fill:#0083ff;"/></g></svg>