<?xml version="1.0" encoding="UTF-8" standalone="no"?><!DOCTYPE svg PUBLIC "-//W3C//DTD SVG 1.1//EN" "http://www.w3.org/Graphics/SVG/1.1/DTD/svg11.dtd"><svg width="100%" height="100%" viewBox="0 0 3000 3000" version="1.1" xmlns="http://www.w3.org/2000/svg" xmlns:xlink="http://www.w3.org/1999/xlink" xml:space="preserve" xmlns:serif="http://www.serif.com/" style="fill-rule:evenodd;clip-rule:evenodd;stroke-linejoin:round;stroke-miterlimit:2;"><path d="M37.762,1500l731.119,-1266.34l1462.24,0l731.119,1266.34l-731.119,1266.34l-1462.24,-0l-731.119,-1266.34Zm2017.55,961.833l-1110.63,0l-555.314,-961.833l555.314,-961.833l1110.63,-0l555.314,961.833l-555.314,961.833Z" style="fill:#fff;"/><path d="M1993.72,573.015l-171.984,297.885l-685.191,-0l-363.459,629.529l363.459,629.529l679.917,-0l171.983,297.884l-1023.88,0l-535.443,-927.413l535.443,-927.414l1029.16,0Z" style="fill:#fff;"/><path d="M2570.89,1500.43l-519.694,900.136l-171.984,-297.885l347.711,-602.251l-345.073,-597.684l171.984,-297.884l517.056,895.568Z" style="fill:#fff;"/><path d="M2191.14,1500.43l-329.824,571.271l-126.137,-218.477l203.686,-352.794l-201.049,-348.227l126.138,-218.477l327.186,566.704Z" style="fill:#fff;"/><path d="M1900.18,1500.43l-184.34,319.286l-181.702,-314.718l184.34,-319.286l181.702,314.718Z" style="fill:#fff;"/></svg>