<?xml version="1.0" encoding="UTF-8" standalone="no"?>
<!DOCTYPE svg PUBLIC "-//W3C//DTD SVG 1.1//EN" "http://www.w3.org/Graphics/SVG/1.1/DTD/svg11.dtd">
<svg width="100%" height="100%" viewBox="0 0 3000 3000" version="1.1" xmlns="http://www.w3.org/2000/svg" xmlns:xlink="http://www.w3.org/1999/xlink" xml:space="preserve" xmlns:serif="http://www.serif.com/" style="fill-rule:evenodd;clip-rule:evenodd;stroke-linejoin:round;stroke-miterlimit:2;">
    <path d="M37.762,1500L768.881,233.665L2231.12,233.665L2962.24,1500L2231.12,2766.34L768.881,2766.34L37.762,1500ZM389.371,1500L944.685,538.167L2055.32,538.167L2610.63,1500L2055.32,2461.83L944.685,2461.83L389.371,1500Z" style="fill:rgb(0,131,255);"/>
    <path d="M2003.14,581.407L1840.84,862.508C1840.84,862.508 1131.7,862.508 1131.7,862.508L763.393,1500.43L1131.7,2138.35L1839.89,2138.35C1839.89,2138.35 2002.18,2419.45 2002.18,2419.45C2002.18,2419.45 969.402,2419.45 969.402,2419.45C932.104,2354.85 476.103,1565.03 438.805,1500.43C438.805,1500.43 969.402,581.407 969.402,581.407L2003.14,581.407Z" style="fill:rgb(252,255,0);"/>
    <path d="M2561.2,1500.43L2048.18,2388.99C2048.18,2388.99 1885.89,2107.89 1885.89,2107.89L2236.61,1500.43L1886.37,893.791C1886.37,893.791 2048.66,612.689 2048.66,612.689L2561.2,1500.43Z" style="fill:rgb(0,131,255);"/>
    <path d="M2181.45,1500.43L1858.31,2060.13C1858.31,2060.13 1758.76,1887.7 1741.87,1858.43C1765.01,1818.35 1946.14,1504.62 1946.14,1504.62L1948.56,1500.43L1742.34,1143.25C1742.34,1143.25 1858.79,941.554 1858.79,941.554L2181.45,1500.43Z" style="fill:rgb(0,131,255);"/>
    <path d="M1890.49,1500.43C1871.37,1533.55 1744.7,1752.94 1712.83,1808.14C1681.01,1753.04 1554.74,1534.32 1535.65,1501.25C1535.65,1501.25 1713.31,1193.54 1713.31,1193.54C1747.47,1252.72 1890.49,1500.43 1890.49,1500.43L1890.49,1500.43Z" style="fill:rgb(0,131,255);"/>
</svg>
