<svg xmlns="http://www.w3.org/2000/svg" viewBox="0 0 800 600"><path d="M515.9 412.1l19.9-31.3-.7-1.5h-33.2l14 32.8zm-77.1-181l47.8 112.2h32.6L407 89.5v253.8h31.8V231.1zM407 523.2l31.8-56.2v-87.7H407v143.9zM361.5 467l30.4 56.2V379.3h-30.4V467zm-97.2-86.2l19.9 31.3 14-32.8H265l-.7 1.5zm97.2-149.7v112.2h30.4V89.5L280.8 343.3h32.8l47.9-112.2zm-61.4 161.5l-11 26.3c17.5 19 39.7 33.5 64.9 41.6l-.2-27.2c-21.4-8.4-39.9-22.6-53.7-40.7zm153.4-215.7l16.1 36.8c33.1 22.5 54.9 60.4 54.9 103.4 0 6.3-.6 12.4-1.5 18.4l16.2 37c6.9-17.1 10.7-35.8 10.7-55.4 0-63.9-40.1-118.5-96.4-140.2zm-124.2 36.8l16.1-36.8c-56.3 21.7-96.4 76.3-96.4 140.2 0 19.6 3.9 38.2 10.7 55.4l16.2-37c-.9-6-1.5-12.1-1.5-18.4 0-42.9 21.8-80.9 54.9-103.4zm115.9 219.6l-.2 27.1c25.2-8 47.4-22.6 64.9-41.6l-11-26.2c-13.8 18.1-32.3 32.3-53.7 40.7z"/><path d="M399.5 47.3l51.1 117.8C515.3 186.5 562 247.5 562 319.4c0 74.5-50.2 137.3-118.6 156.5l-43.8 82.7-44-82.7C287.2 456.7 237 394 237 319.4c0-71.9 46.7-132.8 111.4-154.3l51.1-117.8zm0-35l-12.8 29.5L338 154.1c-69 25.6-114.9 91.3-114.9 165.4 0 76.7 50.3 145 123 168.2l41.3 77.6 12.2 23 12.3-23.2 41.1-77.5c72.7-23.1 123-91.4 123-168.2 0-74.1-45.9-139.8-115-165.4L412.3 41.8l-12.8-29.5z"/><path d="M286.9 351.6h-4.6l-13.6 19.8-.2.6h4.9l2.3-3.6h7v3.6h4.9l.1-.4-.8-19.7v-.3zm-4.3 13h-4.4l4.4-6.8v6.8zm21.5-1.5l-4.3-11.3-.1-.2h-4.5l-6 20.4h4.9l3.2-11.6 4.5 11.6h4.7l5-20.4H307l-2.9 11.5zm15.2 2l-1.3-13.5h-4.2l-.4.1-.1.4 2.2 19.7v.3h4.6l10.9-19.9.1-.6h-4.6l-7.2 13.5zm9.7 6.9h4.9l3.5-20.4h-4.6L329 372zm16-20.4h-4.6L337 372h14.3l.5-4.1h-9.4l2.6-16.3zm28.1 0h-4.6l-8.8 19.8-.1.6h4.8l1.5-3.6h7l.9 3.6h4.9v-.4l-5.5-19.7-.1-.3zm-1.2 13h-4.4l2.7-6.8 1.7 6.8zm13.8-1h8.2l.1-3.9h-8.1l.1-4.1h9.9v-4h-14.4l-1 20.4h15.3v-4h-10.3l.2-4.4zm26.5.5c1.4 0 2.2-.9 2.1-2.2l-.3-8.1c0-1.4-.9-2.2-2.2-2.2h-13.5l-.1 20.4h4.9l-.1-16.5h6.5l.1 5.1h-5.9v2.6l6.7 8.8h5.3v-.7l-5.7-7.2h2.2zm18.8-12.5h-12.1c-1.3 0-2.1.9-2 2.2l.7 16c.1 1.4 1 2.2 2.4 2.2h12.8c1.4 0 2.2-.9 2.1-2.2l-1.5-16c-.1-1.4-1-2.2-2.4-2.2zm-2.1 3.9l1 12.6h-7.5l-.8-12.6h7.3zm20.6-3.9h-11.1c-1.3 0-2.1.9-2 2.2l.5 4.7c.1 1 .5 1.6 1.4 2l10.7 5 .3 2.6h-6.6l-.4-3.6h-4.8l.5 5.3c.1 1.4 1.1 2.2 2.6 2.2h11.8c1.4 0 2.2-.9 2-2.2l-.8-5.1c-.1-1-.6-1.6-1.5-2l-10.6-5-.3-2.3h6.3l.4 3.2h4.7l-.6-4.8c-.2-1.3-1.2-2.2-2.5-2.2zm21 2.2c-.3-1.4-1.3-2.2-2.6-2.2h-13.3l3.1 20.4h4.9l-1.1-6.7h9c1.4 0 2.1-.9 1.8-2.2l-1.8-9.3zm-4.3 1.7l1.1 5.9h-6.4l-1-5.9h6.3zm15.2-3.9h-4.6l-2.8 19.8.1.6h4.9l.4-3.6h7l2 3.6h4.8l-.1-.5-11.5-19.6-.2-.3zm2.8 13h-4.4l.6-6.8 3.8 6.8zm19.6-13h-11.9c-1.3 0-1.9.9-1.6 2.2l4 15.9c.4 1.4 1.4 2.2 2.8 2.2h12.6c1.4 0 2.1-.9 1.7-2.2l-1.7-5.6h-4.8l1.1 3.9h-7.3l-3.3-12.5h7l1 3.7h4.7l-1.5-5.4c-.4-1.3-1.5-2.2-2.8-2.2zm15 16.4l-1.4-4.4h8.2l-1.4-3.9h-8.1l-1.3-4.1h9.9l-1.4-4h-14.4l6.3 20.4h15.3l-1.4-4h-10.3z"/></svg>