<svg xmlns="http://www.w3.org/2000/svg" viewBox="0 0 500 500"><title>AopoA</title><path d="M326.89,384.44V365.83l-17.58-9.28-17.58,9.26v18.67l17.59,9.21Zm-30.08-2.71V368.51l12.48-6.6,12.43,6.55v13.35l-12.46,6.52Z" style="fill:#757575"/><path d="M337.38,360.71l-24.49-14.12a17.2,17.2,0,0,0,0,6.34l18.93,11V386.3l-18.95,11v6.42l24.55-14.25Z" style="fill:#757575"/><path d="M223.25,360.71l-24.36-14.09a19.81,19.81,0,0,0-.14,6.34l19,11v22.28l-19.05,11.11v6.38l24.57-14.17Z" style="fill:#757575"/><path d="M192,352.91a19.1,19.1,0,0,0-.24-6.25l-24.36,14.08v28.78l24.44,14.11a18.63,18.63,0,0,0,.15-6.31l-18.95-11v-22.4Z" style="fill:#757575"/><path d="M110.21,411.68l9-15.52h31.7l9.12,15.7h68.47a15.55,15.55,0,0,0,0-6.07H165.84l-30.76-53.23-34,59A59,59,0,0,0,110.21,411.68Zm24.85-43,12,20.8h-24Z" style="fill:#757575"/><path d="M212.92,384.44V365.83l-17.58-9.28-17.58,9.26v18.67l17.59,9.21Zm-30.08-2.71V368.51l12.48-6.6,12.43,6.55v13.35l-12.46,6.52Z" style="fill:#757575"/><path d="M241,403.21v-13.5l33.53-19.4-40.8-23.53v65Zm.12-42.87,17.29,10-17.29,10Z" style="fill:#757575"/><path d="M305.94,353v-6.39l-24.43,14.14v28.86L306,403.7v-6.37l-19-11.06V364Z" style="fill:#757575"/><path d="M163.88,206.84,152.41,223l24.9,76.57L196.09,306l-32.21,44.36a3.42,3.42,0,0,0,2.29,1.46l32.16-44.2,11.82,15.85h80.6l11.8-15.86L335,352.17c.74-.8,1.55-1,1.94-1.95L304.78,306l18.79-6.35L348.45,223,337,206.85l52.08-17a3.64,3.64,0,0,0-.88-2.58L336,204.25V184.49l-65.29-47.43L251.69,143V88.2a2.94,2.94,0,0,0-2.66.17V143l-18.92-5.89L164.67,184.6V204.2l-52.11-16.9a3.54,3.54,0,0,0-.69,2.63Zm134,89.55L286.3,280.58l19.09-58.77L255.49,238a11.83,11.83,0,0,1-2.53-3.84l72.8-23.65Zm-46-141.57,73,53.05-18.66,6.06-54.37-39.49Zm-1.45,81,45.05,62H284.12l-33.69-46.32L216.74,297.9h-11.4Zm-1.59-80.95v19.64l-54.23,39.41L176,207.88Zm-1,79.23c-.38,1.62-1.54,2.5-2.37,3.91l-50-16.23,19.06,58.75L203,296.41,175.1,210.48Z" style="fill:#757575"/><path d="M364.8,352.59l-30.71,53.12H245.25c-1.94,2-4.16,3.61-6,6.12H339.84l9.08-15.65h31.74l9.07,15.64a42.25,42.25,0,0,0,9.22-.1Zm-12,37,12-21,12.12,21Z" style="fill:#757575"/></svg>