<?xml version="1.0" encoding="utf-8"?>
<!-- Generator: Adobe Illustrator 24.0.1, SVG Export Plug-In . SVG Version: 6.00 Build 0)  -->
<svg version="1.1" id="Layer_1" xmlns="http://www.w3.org/2000/svg" xmlns:xlink="http://www.w3.org/1999/xlink" x="0px" y="0px"
	 viewBox="0 0 512 294.8" style="enable-background:new 0 0 512 294.8;" xml:space="preserve">
<path d="M336.4,115.8h106.3l27.7-34h-168l-35.3,154h162l26.6-33H317.2C317.1,202.7,336.4,115.8,336.4,115.8z M265.2,23.8l-223.6,247
	h54l158.9-187l-42.6,119h-49.3l-27.8,33h122.9l48.6-212H265.2z M138.8,243c-0.9-0.5-2.1-0.9-3.4-0.9c-1.4,0-2.6,0.3-3.5,0.9
	c-0.9,0.6-1.7,1.3-2.3,2.2l-18.7,24.7h10.7l13.6-18l5.2,7.2c0.5,0.6,1,1.3,1.5,2.1c0.5,0.7,1,1.3,1.4,1.9c-0.7-0.1-1.5-0.1-2.4-0.1
	h-10l-5.4,7h33.9L141,245.1C140.4,244.3,139.7,243.6,138.8,243z M200,263.1c-0.6-0.5-1.2-0.9-1.6-1.2c1.2-0.2,2.2-0.6,3.1-1.1
	c0.9-0.5,1.7-1.1,2.4-1.8c0.7-0.7,1.2-1.5,1.5-2.4c0.3-0.9,0.5-1.8,0.5-2.8c0-1.8-0.5-3.3-1.4-4.4c-0.9-1.2-2.1-2.1-3.5-2.7
	s-3-1.2-4.8-1.4c-1.7-0.2-3.5-0.4-5-0.4H172l-5.3,6h26.2c1.6,0,2.8,0.3,3.8,0.8c0.9,0.5,1.4,1.3,1.4,2.3c0,0.9-0.5,1.6-1.5,2.1
	c-0.9,0.5-2.1,0.8-3.6,0.8h-26v13h9v-7h13.8l6.5,7h11.5l-5.3-4.9C201.4,264.3,200.6,263.5,200,263.1z M225.5,252.4
	c0.7-0.5,1.6-1,2.6-1.2c1.1-0.3,2.1-0.4,3.4-0.4h14.6l6.1-7h-20.4c-2.6,0-5,0.3-7.2,0.9c-2.2,0.6-4.1,1.5-5.7,2.6
	c-1.6,1.1-2.8,2.5-3.8,4c-0.9,1.5-1.4,3.3-1.4,5.2c0,1.9,0.4,3.7,1.4,5.2c0.9,1.6,2.1,3,3.8,4.2c1.6,1.2,3.5,2.1,5.7,2.7
	c2.2,0.7,4.6,1,7.2,1h14.2l6.2-7h-20.7c-1.2,0-2.3-0.2-3.4-0.4c-1.1-0.2-1.9-0.7-2.7-1.2c-0.7-0.5-1.3-1.2-1.7-1.9
	c-0.4-0.7-0.7-1.6-0.7-2.5c0-0.9,0.2-1.7,0.7-2.5C224.2,253.7,224.8,253,225.5,252.4z M289.2,252.4c0.7-0.5,1.6-1,2.6-1.2
	c1.1-0.3,2.1-0.4,3.4-0.4h14.6l6.1-7h-20.4c-2.6,0-5,0.3-7.2,0.9c-2.2,0.6-4.1,1.5-5.7,2.6c-1.6,1.1-2.8,2.5-3.8,4
	c-0.9,1.5-1.4,3.3-1.4,5.2c0,1.9,0.4,3.7,1.4,5.2c0.9,1.6,2.1,3,3.8,4.2c1.6,1.2,3.5,2.1,5.7,2.7c2.2,0.7,4.6,1,7.2,1h14.2l6.2-7
	h-20.7c-1.2,0-2.3-0.2-3.4-0.4c-1.1-0.2-1.9-0.7-2.7-1.2c-0.7-0.5-1.3-1.2-1.7-1.9s-0.7-1.6-0.7-2.5c0-0.9,0.2-1.7,0.7-2.5
	C287.9,253.7,288.5,253,289.2,252.4z M357.4,247.1c-3.5-2.1-8.9-3.2-16-3.2c-7.1,0-12.5,1.1-16,3.2c-3.5,2.1-5.3,5.4-5.3,10
	s1.8,7.9,5.3,10c3.5,2.1,8.9,3.2,16,3.2c7.1,0,12.5-1.1,16-3.2c3.5-2.1,5.3-5.4,5.3-10C362.8,252.5,361,249.2,357.4,247.1z
	 M353.2,260.4c-0.4,0.8-1.2,1.5-2.1,2c-1,0.5-2.3,0.8-3.9,1s-3.5,0.3-5.8,0.3s-4.2-0.1-5.8-0.3c-1.6-0.2-2.8-0.5-3.9-1
	c-1-0.5-1.7-1.2-2.1-2c-0.4-0.8-0.7-1.9-0.7-3.3c0-1.3,0.3-2.5,0.7-3.3c0.4-0.8,1.2-1.5,2.1-2c1-0.5,2.3-0.8,3.9-0.9
	c1.6-0.2,3.5-0.3,5.8-0.3c2.3,0,4.2,0.1,5.8,0.3c1.6,0.2,2.8,0.5,3.9,0.9c1,0.5,1.7,1.1,2.1,2c0.4,0.8,0.7,1.9,0.7,3.3
	S353.6,259.6,353.2,260.4z M403.1,263.1c-0.6-0.5-1.2-0.9-1.6-1.2c1.2-0.2,2.2-0.6,3.1-1.1c0.9-0.5,1.7-1.1,2.4-1.8
	c0.7-0.7,1.2-1.5,1.5-2.4s0.5-1.8,0.5-2.8c0-1.8-0.5-3.3-1.4-4.4s-2.1-2.1-3.5-2.7s-3-1.2-4.8-1.4c-1.7-0.2-3.5-0.4-5-0.4h-19.2
	l-5.3,6h26.1c1.6,0,2.8,0.3,3.8,0.8c0.9,0.5,1.4,1.3,1.4,2.3c0,0.9-0.5,1.6-1.5,2.1c-0.9,0.5-2.1,0.8-3.6,0.8h-26v13h9v-7h13.8
	l6.5,7H411l-5.3-4.9C404.5,264.3,403.7,263.5,403.1,263.1z M451.1,246.4c-1.3-0.8-2.7-1.5-4.6-1.9c-1.8-0.5-3.8-0.7-6.1-0.7h-18.1
	l-6.3,7h25.2c1.5,0,2.6,0.3,3.4,0.8c0.8,0.5,1.2,1.3,1.2,2.2c0,1-0.4,1.7-1.2,2.2c-0.8,0.5-1.9,0.9-3.4,0.9H416v13h9v-7h15.4
	c2.3,0,4.3-0.3,6.1-0.7c1.8-0.4,3.3-1.1,4.6-1.9c1.3-0.8,2.2-1.8,2.9-3c0.7-1.2,0.9-2.4,0.9-3.9s-0.3-2.7-0.9-3.9
	C453.3,248.3,452.3,247.3,451.1,246.4z"/>
</svg>
