<svg xmlns="http://www.w3.org/2000/svg" width="111" height="115"><g fill="none" fill-rule="evenodd"><path d="M55.473 108.7L30.109 81.82h-5.274l30.638 32.47 30.638-32.47h-5.274L55.473 108.7zM33.14 51.996l-2.44-.665-.125.033-.131.034-.143.037-.143-.04-.223-.067a5.992 5.992 0 00-.468-.13l-.014-.003c-.179-.038-.4-.086-.615-.233-.022-.009-.081-.019-.125-.027l-.048-.009-.242.227.035.063-.084.236c-.104.29-.347.469-.633.469a.695.695 0 01-.125-.012l-3.618 3.385h5.618l3.524-3.298zm50.065-.075c-.286 0-.529-.18-.632-.47l-.085-.235.035-.063-.242-.227-.048.01a.936.936 0 00-.125.026c-.215.147-.436.195-.615.233l-.014.004c-.15.032-.304.079-.468.129l-.223.066-.143.041-.143-.037-.145-.038-.11-.029-2.44.665 3.523 3.298h5.618l-3.618-3.385a.696.696 0 01-.125.012zm-4.925-4.738l-1.225-1.147a2.067 2.067 0 00-.36-.16l-.032.002c-.07.002-.137.005-.185.014a1.617 1.617 0 00-.167.045 2.96 2.96 0 01-.222.06c-.443.1-.945.213-1.417.36-.289.09-.578.155-.858.218-.107.024-.215.048-.322.074a.714.714 0 01-.388-.017c-.073-.024-.13-.055-.173-.077l-.028-.015-.243-.12-.05-.269-.009-.038c-.013-.059-.031-.138-.034-.234-.003-.099.01-.182.02-.237l.004-.024.027-.217.168-.138c.521-.43 1.178-.777 1.756-.926.144-.037.293-.079.438-.119l.102-.028-5.356-5.012-2.129 3.265 6.978 6.53 3.705-1.79zm-41.909 1.79l-3.705-1.79 1.225-1.147c.12-.065.24-.121.36-.16l.032.002c.07.002.137.005.185.014.046.008.105.026.167.045.065.02.14.043.221.06.444.1.946.213 1.418.36.289.09.578.155.858.218.107.024.215.048.322.074a.71.71 0 00.388-.017c.073-.024.13-.055.173-.077l.028-.015.242-.12.051-.269a.786.786 0 01.009-.038c.013-.059.031-.138.034-.234a1.147 1.147 0 00-.02-.237l-.004-.024-.028-.215-.167-.14c-.521-.43-1.178-.777-1.756-.926-.144-.037-.293-.079-.438-.119l-.102-.028 5.356-5.013 2.129 3.266-6.978 6.53z" fill="#b4975a"/><path fill="#002d56" d="M104.026 64.258l6.318-6.634H.602l6.318 6.634h7.137l.625.83H7.71l6.318 6.634h12.118l.73.967H14.95l6.318 6.635h68.41l6.319-6.635H84.07l.73-.967h12.118l6.318-6.635h-6.972l.625-.829z"/><path d="M74.757 52.827l-9.046 2.466h11.68l-2.634-2.466zm-2.78-2.601l-5.872-5.495-6.884 10.562h2.262l10.494-5.067zm-15.795 5.067l3.152-14.672-.31-.504-.085-.136-.02-.16-.253-2.051-.035-.033-.592 2.186-.001.004.073.144v.158l.077.054.001.38.002.571.002.732-.726.001-.608.001h-.141l-.13-.053-.569-.23-.883.001-.57.235-.13.055h-.142l-.606.002-.724.002-.002-.731-.002-.571v-.38l.076-.055v-.158l.072-.144-.001-.005-.626-2.262-.257 2.169-.019.159-.083.137-.454.744 3.096 14.41h1.418zm-19.993-2.466l-2.635 2.466h11.681l-9.046-2.466zm15.536 2.466l-6.884-10.562-5.872 5.495 10.494 5.067h2.262zM33.43 81.82h44.088l-22.044 23.362L33.429 81.82z" fill="#797A7D"/><path d="M84.374 66.546c.022.503.076.623.336.722.163.066.781.11 1.476.11 2.549 0 2.853-.077 2.853-.68 0-.295-.141-.513-.37-.59-.238-.077-.238-.077-1.377-.088h-1.996c-1.334 0-1.887-.076-2.354-.317-.52-.273-.76-.853-.76-1.85 0-1.312.37-1.87 1.41-2.122.587-.153 1.433-.208 3.017-.208 2.538 0 3.124.066 3.645.405.499.34.662.788.662 1.882h-2.148c0-.635-.217-.722-1.638-.722-.706 0-1.65.022-1.997.044-.585.043-.78.197-.78.612 0 .307.151.504.466.58.13.033.173.044.89.055h2.05c.195 0 1.171.033 1.54.055 1.378.065 1.92.678 1.92 2.145 0 1.345-.39 1.936-1.453 2.166-.543.12-1.617.186-3.19.186-2.506 0-3.059-.055-3.699-.383-.445-.219-.673-.777-.673-1.641 0-.066 0-.208.011-.361h2.159zm-10.925-4.968v3.611c0 .799 0 .82.033 1.018.108.82.466.984 2.115.984 1.65 0 2.105-.043 2.376-.251.217-.165.326-.482.336-1.04.011-.164.011-.164.011-.974v-3.348h2.202v3.83c.022 1.805-.13 2.341-.77 2.921-.52.405-1.171.58-2.115.591-.337.011-.532.011-.966.011l-.824.011c-2.04-.01-2.441-.033-2.973-.175-1.312-.405-1.66-1.094-1.627-3.26v-3.93h2.202zm-9.015 1.805h-3.222v-1.805h8.646v1.805h-3.222v5.493h-2.202v-5.493zm-4.492 2.747c-.01 1.061-.043 1.422-.195 1.75-.282.625-.868.92-1.996.996-.445.044-1.313.055-2.755.055-2.083 0-2.756-.098-3.342-.481-.716-.46-.922-1.226-.922-3.393 0-1.925.217-2.615.977-3.053.65-.383 1.345-.481 3.373-.481 2.702 0 3.288.055 3.906.361.586.296.857.941.857 2.014v.24H57.74c-.043-.799-.206-.864-2.115-.864-1.801 0-2.126.044-2.398.284-.26.241-.314.537-.314 1.718 0 1.751.162 1.883 2.278 1.883 1.638 0 1.877-.011 2.18-.143.315-.131.434-.36.434-.886h2.137zm-13.148 2.746h2.202v-7.298h-2.202v7.298zm-11.988-7.298h2.43l2.853 5.515 2.919-5.515h2.451l-4.003 7.298h-2.788l-3.862-7.298zm-10.99 0h3.505l4.382 5.548-.054-5.548h2.083v7.298h-3.537l-4.317-5.493.054 5.493h-2.115v-7.298zm-4.09 7.298h2.203v-7.298h-2.202v7.298zm59.091 6.862l-1.714-1.5v1.5h-.856V72.09h.856v1.413l1.5-1.413h1.09v.028l-1.89 1.719 2.154 1.871v.029h-1.14zm-6.891 0V72.09h3.512v.701h-2.656v.769h2.111v.654h-2.11v.821h2.692v.702h-3.55zm-4.32 0V72.09h3.51v.701h-2.654v.769h2.11v.654h-2.11v.821h2.693v.702h-3.55zm-2.093 0h-.838l-.993-2.588-.994 2.588h-.838l-1.458-3.647h.914l.984 2.568.975-2.568h.828l.98 2.568.984-2.568h.914l-1.458 3.647zm-8.33 0V74.29h-2.181v1.447h-.857V72.09h.857v1.456h2.182V72.09h.856v3.647h-.856zm-4.076-.093a.312.312 0 01-.24.093h-3.25a.297.297 0 01-.235-.093.363.363 0 01-.083-.251v-2.96c0-.105.028-.188.083-.25a.297.297 0 01.234-.093h3.252c.1 0 .18.03.239.093a.35.35 0 01.087.25v.998h-.856v-.659h-2.182v2.282h2.182v-.697h.856v1.036a.35.35 0 01-.087.25zm-5.606.093L45.31 73.23v2.507h-.857V72.09h.842l2.192 2.434V72.09h.86v3.647h-.846zm-4.087-.093a.312.312 0 01-.239.093h-3.237a.318.318 0 01-.244-.093.35.35 0 01-.087-.251v-3.303h.856v2.945h2.182v-2.945h.857v3.303a.35.35 0 01-.088.25zm-6.633-2.796l-.719 1.595h1.443l-.724-1.595zm1.307 2.889l-.29-.65h-2.03l-.298.65h-.885v-.01l1.747-3.637h.904l1.746 3.637v.01h-.894zm-7.1 0V72.09h.857v2.945h2.428v.702H30.99zM61.69 91.347l-.645-1 .92-.637 1.852-1.283-2.013-.813-.22-.463c-1.118-2.369-3.517-3.9-6.111-3.9s-4.993 1.53-6.112 3.897l-.22.467-2.012.812 2.024 1.401.002.001.746.517-.645 1.001-2.167 3.36 2.878-1.175.572 2.623 4.934 1.288 4.933-1.289.573-2.622 2.878 1.175-2.167-3.36z" fill="#FFF"/><path d="M61.69 91.347h0l-.645-1 .92-.637 1.852-1.283-2.013-.813-.22-.463c-1.118-2.369-3.517-3.9-6.111-3.9s-4.993 1.53-6.112 3.897l-.22.467-2.012.812 2.024 1.401.002.001.746.517-.645 1.001h0l-2.167 3.36 2.878-1.175.572 2.623 4.934 1.288 4.933-1.289.573-2.622 2.878 1.175-2.167-3.36z" stroke="#FFF" stroke-width="1.029" stroke-linecap="round" stroke-linejoin="round"/><path d="M61.69 91.347l-.645-1 .92-.637 1.852-1.283-2.013-.813-.22-.463c-1.118-2.369-3.517-3.9-6.111-3.9s-4.993 1.53-6.112 3.897l-.22.467-2.012.812 2.024 1.401.002.001.746.517-.645 1.001-2.167 3.36 2.878-1.175.572 2.623 4.934 1.288 4.933-1.289.573-2.622 2.878 1.175-2.167-3.36z" fill="#002d56"/><path d="M61.69 91.347h0l-.645-1 .92-.637 1.852-1.283-2.013-.813-.22-.463c-1.118-2.369-3.517-3.9-6.111-3.9s-4.993 1.53-6.112 3.897l-.22.467-2.012.812 2.024 1.401.002.001.746.517-.645 1.001h0l-2.167 3.36 2.878-1.175.572 2.623 4.934 1.288 4.933-1.289.573-2.622 2.878 1.175-2.167-3.36z" stroke="#002d56" stroke-width=".5" stroke-linecap="round" stroke-linejoin="round"/><path d="M61.178 89.727l-2.152-.881a3.62 3.62 0 01-.179 1.433l2.205.876-.598-.927.724-.501zm-9.078.555a3.62 3.62 0 01-.18-1.433l-2.151.878.724.501-.599.927 2.206-.873zm3.585 2.864l2.702.97.52-1.428-.97-.396a3.958 3.958 0 01-2.252.854m-3.645-.458l.523 1.439 2.684-.982a3.956 3.956 0 01-2.237-.853l-.97.396z" fill="#C7C8CA"/><path d="M52.225 90.6l-2.681 1.1-1.345 2.084 4.887-1.995a3.6 3.6 0 01-.861-1.19m6.497.001a3.604 3.604 0 01-.862 1.189l4.887 1.995-1.345-2.085-2.68-1.1zm.258-2.119l2.531 1.014.038-.026 1.36-.94-4.979-2.01a3.596 3.596 0 011.05 1.962m-9.545 1.013l2.531-1.013a3.595 3.595 0 011.047-1.96l-4.975 2.008 1.359.94.038.025zm3.272 4.753l2.766 1.553 2.777-1.56-2.787-1.002z" fill="#939598"/><path d="M57.6 87.929a2.264 2.264 0 00-.493-.61v1.504h1.3c.01.096.015.194.015.292 0 .088-.004.17-.01.257h-1.305v1.525a2.531 2.531 0 00.677-1.033h.543a3.041 3.041 0 01-.18.5 2.954 2.954 0 01-1.594 1.507v-5.507a2.927 2.927 0 011.79 2.081h-.521a2.451 2.451 0 00-.222-.516zm-1.332 4.036c-.257.096-.523.112-.798.112-.263 0-.516-.043-.76-.103v-5.711a2.95 2.95 0 01.76-.098c.275 0 .54.036.798.107v2.174h-.554v-1.727a2.23 2.23 0 00-.244-.013c-.07 0-.137.004-.206.008v2.109h1.004v.55h-1.004v2.152c.07.005.135.007.206.007.085 0 .166 0 .244-.007v-1.661h.554v2.101zm-1.84-.094a2.98 2.98 0 01-1.601-1.517v-2.48c.141-.304.327-.574.553-.81v3.224c.131.237.297.446.494.623v-4.259c.173-.114.36-.214.554-.29v5.509zm1.045-5.988a3.223 3.223 0 00-3.212 3.238 3.248 3.248 0 001.194 2.517 3.18 3.18 0 004.036 0 3.251 3.251 0 001.095-3.314 3.223 3.223 0 00-3.113-2.441zm-.73-1.731l-.236.418.563-.068z" fill="#b4975a"/><path d="M52.094 85.003l.982.225-.37-.605.284-.178.466.761-.487.304-.983-.226.372.606-.283.177-.466-.761.485-.303zm2.38-.958l.544-.066.78.806-.414.05-.16-.17-.829.1-.115.204-.376.046.57-.97zm2.157.018l.263.83.646-.58.355.098-.784.711-.557-.153-.317-1.015.394.109zm1.86.647l.345.269.098.618.626-.052.303.237-.92.07-.164.215-.292-.229.164-.214-.16-.914zm-6.393 1.731l.045-.04a4.894 4.894 0 013.23-1.303l.1-.002.107.002a4.894 4.894 0 013.219 1.3l.05.045 1.114.425 1.232.47c-1.018-2.157-3.2-3.652-5.722-3.652-2.522 0-4.703 1.494-5.722 3.65l1.36-.519.987-.376zm7.188 6.474l-.569 1.563-3.244 1.737-3.244-1.737-.388-1.065-.18-.498-.041-.05-1.246.508.53 2.427 4.57 1.193 4.568-1.193.53-2.427-1.246-.509z" fill="#b4975a"/><path d="M26.865 44.287c.133.214.293.397.534.453.255.059.464.196.675.332.45.29.894.591 1.34.89.066.045.122.1.112.222-.138.169-.366.252-.548.395-.057.045-.154.048-.135.17l.648.415c.806-.547 1.614-1.091 2.415-1.646.243-.168.466-.366.74-.584l-1.97-.461-1.97-.456-1.95-.448c.042.14.087.238.1.34.016.125.007.253.009.378m-.696 5.397c-.07.029-.108.054-.114.12.429.466.998.738 1.567 1.026l.24.434c-.046.13-.129.116-.203.09-.386-.136-.77-.275-1.155-.415-.207-.075-.419-.142-.619-.233-.2-.092-.388-.209-.603-.326l-.155-.248c-.04-.025-.065-.045-.093-.058-.803-.377-1.663-.583-2.502-.853-.314-.101-.626-.208-.948-.288-.241-.06-.487-.134-.696-.287-.184-.133-.412-.154-.616-.238-.16-.065-.326-.114-.504-.175a.7.7 0 00-.542-.402c-.17-.025-.291-.19-.48-.196-.16.04-.27.156-.368.28-.225.285-.454.568-.655.87-.297.45-.575.912-.853 1.373-.115.191-.237.374-.405.54a2.823 2.823 0 01-1.143-.139c-.547.343-1.733 1.33-2.57 2.135-.039.112-.077.232-.123.35-.017.043-.052.078-.074.11-.127.112-.286.032-.42.095-.09.056-.19.107-.204.257.24.284.678.212.928.47.016.108-.04.166-.1.217a2.31 2.31 0 01-.728.415l-1.783-.61c-.203-.398-.282-.805-.401-1.171.034-.288.185-.5.272-.733-.03-.114-.127-.14-.21-.176-.288-.128-.595-.211-.847-.376-.088-.122-.066-.22.013-.34.412.156.792.383 1.233.49.28-.553.551-1.089.754-1.656.21-.582.417-1.164.616-1.75.122-.36.229-.725.334-1.09.021-.072.006-.156.007-.224-.145-.158-.337-.11-.499-.158a6.304 6.304 0 00-.964-.216 3.753 3.753 0 01-.953-.258c-.409-.166-.816-.337-1.192-.493-.102-.128-.073-.243-.07-.352.02-.685.127-1.356.305-2.017.026-.094.032-.188-.041-.29-.086-.102-.233-.13-.362-.179-.651-.245-1.26-.583-1.884-.885-.216-.105-.4-.25-.55-.441a2.151 2.151 0 00-.592-.54c-.188-.111-.348-.272-.507-.425-.3-.289-.356-.658-.299-1.051.02-.14.068-.276.117-.47l1.213-1.073c.494.041.984-.001 1.455.167.015.006.03.01.046.01.476.004.93.155 1.4.206.845.092 1.695.106 2.543.167.38.028.748.086 1.106.221.13.05.27.08.402.118.305-.542.332-.56.92-.745.556-.175 1.113-.35 1.662-.542.343-.12.707-.165 1.004-.322.336.066.585.244.859.362.274.12.536.27.799.413.11.06.23.12.31.213.22.251.475.465.703.705.176.185.366.347.604.53.514.034 1.066.113 1.614.097.513-.016 1.03-.039 1.54-.178 1.094-.297 2.2-.547 3.302-.818.12-.03.241-.066.375-.103-.006-.174-.202-.137-.251-.25-.006-.12.046-.208.17-.272.147.067.306.134.46.21.238.12.476.125.734.056.624-.165 1.256-.3 1.88-.47.402-.108.777-.07 1.148.107.227.108.46.205.686.318.21.105.436.19.593.415-.213.37-.169.815-.308 1.215-.026.074-.033.155-.048.233a1.407 1.407 0 01-.569.9c-.14.103-.261.231-.395.343-.073.06-.15.117-.231.163-.068.037-.146.056-.23.086a9.362 9.362 0 01-1.119-.564c-.702.248-1.444.409-2.084.843-.126.086-.279.133-.429.202 1.086.3 2.16.6 3.236.894 1 .273 2.004.538 3.005.811 1.016.277 2.03.56 3.045.841.197.054.394.11.592.161.494.128 1.083.437 1.546.82.006.05.022.111.02.173-.002.062-.022.124-.034.187-.047.024-.087.049-.13.063a.18.18 0 01-.094.004c-.381-.09-.769-.164-1.143-.281-.481-.15-.97-.261-1.46-.371-.138-.031-.271-.085-.41-.11-.123-.023-.25-.02-.374-.029-.408.105-.751.34-1.096.558-.705.447-1.395.918-2.087 1.386-.22.15-.397.36-.627.456-.029.135.05.168.113.211.169.115.367.187.484.322.12.267-.027.465-.085.673-.059.213-.15.417-.236.651l.206.844a.575.575 0 01-.21.352l-.345.09c-.243-.07-.482-.151-.727-.205-.156-.033-.309-.064-.441-.156-.15-.103-.331-.099-.497-.145-.83-.234-1.663-.456-2.474-.676M84.09 43.91c.013-.103.058-.2.1-.341l-1.95.448-1.97.456-1.97.46c.274.22.497.417.74.585.801.555 1.61 1.098 2.415 1.646l.649-.416c.018-.121-.08-.124-.136-.169-.182-.143-.41-.226-.549-.395-.009-.121.048-.178.114-.222.445-.299.888-.6 1.339-.89.21-.136.42-.273.675-.332.241-.056.4-.239.534-.453.002-.125-.007-.253.01-.377m-1.788 6.45c-.166.046-.346.042-.497.145-.132.091-.285.123-.441.156-.245.054-.484.135-.727.205l-.345-.09a.574.574 0 01-.21-.351l.206-.845c-.087-.234-.177-.438-.236-.65-.058-.209-.205-.407-.085-.674.117-.135.315-.207.484-.322.062-.043.142-.076.113-.211-.23-.097-.406-.306-.627-.456-.692-.468-1.382-.94-2.087-1.386-.345-.219-.688-.453-1.096-.558-.123.008-.25.006-.374.028-.139.026-.272.08-.41.11-.49.11-.979.222-1.46.372-.374.117-.761.19-1.143.28a.18.18 0 01-.094-.003c-.043-.014-.083-.04-.13-.063-.012-.063-.032-.125-.034-.187-.001-.062.014-.124.02-.174.463-.382 1.052-.691 1.546-.819.198-.05.395-.107.592-.161 1.015-.28 2.03-.564 3.045-.84 1.001-.274 2.004-.539 3.005-.812 1.075-.294 2.15-.593 3.236-.894-.15-.069-.303-.116-.43-.202-.64-.434-1.38-.595-2.083-.843-.38.216-.74.41-1.12.564-.083-.03-.16-.049-.228-.086a1.518 1.518 0 01-.232-.163c-.134-.112-.255-.24-.395-.342a1.408 1.408 0 01-.57-.901c-.014-.078-.02-.159-.047-.233-.14-.4-.095-.844-.308-1.215.157-.225.383-.31.593-.415.226-.113.459-.21.686-.318.37-.177.746-.215 1.148-.106.623.169 1.256.304 1.88.47.258.068.495.063.734-.057.154-.076.313-.143.46-.21.124.064.176.152.17.273-.05.112-.245.075-.251.249.134.037.254.073.376.103 1.1.27 2.208.52 3.302.818.51.139 1.026.162 1.539.178.548.016 1.1-.063 1.614-.097.238-.183.428-.345.604-.53.228-.24.483-.454.702-.705.08-.092.201-.153.311-.213.263-.144.525-.293.799-.413.273-.118.523-.296.86-.362.296.157.66.201 1.003.322.55.193 1.106.367 1.662.542.588.186.615.203.92.745.133-.038.271-.068.402-.118a3.861 3.861 0 011.106-.22c.848-.062 1.698-.076 2.544-.168.469-.051.923-.202 1.399-.205a.144.144 0 00.046-.01c.47-.17.961-.127 1.455-.168l1.213 1.074c.05.193.097.329.117.469.057.393.001.762-.299 1.05-.159.154-.32.315-.507.425-.239.141-.424.33-.591.54a1.556 1.556 0 01-.551.442c-.625.302-1.233.64-1.884.885-.129.049-.276.077-.362.18-.073.1-.067.195-.041.289.178.66.285 1.332.304 2.017.004.11.033.224-.07.352-.375.156-.782.327-1.19.493-.308.125-.62.216-.954.258a6.301 6.301 0 00-.964.216c-.162.048-.354 0-.499.158.001.068-.014.152.007.224.105.365.212.73.334 1.09.199.586.407 1.168.615 1.75.204.567.474 1.103.754 1.657.442-.108.823-.335 1.234-.49.08.118.101.217.013.339-.252.165-.56.248-.846.376-.084.037-.181.062-.21.176.086.232.237.445.271.733-.12.366-.198.773-.4 1.17l-1.784.61a2.308 2.308 0 01-.728-.414c-.06-.05-.116-.109-.1-.218.25-.257.688-.185.928-.47-.014-.149-.115-.2-.204-.256-.134-.063-.293.017-.42-.096-.022-.03-.057-.066-.074-.11-.046-.116-.084-.237-.123-.349-.837-.806-2.023-1.792-2.57-2.135a2.822 2.822 0 01-1.143.14 2.665 2.665 0 01-.405-.54c-.278-.462-.556-.925-.853-1.374-.2-.302-.43-.585-.655-.87-.097-.124-.209-.24-.368-.28-.188.005-.31.17-.48.196a.701.701 0 00-.542.402c-.178.061-.345.11-.504.175-.204.084-.432.105-.615.239-.21.152-.456.226-.697.286-.322.08-.634.187-.948.288-.839.27-1.7.476-2.502.853-.028.013-.053.033-.093.057l-.155.25c-.215.116-.403.233-.603.325-.2.091-.411.158-.619.233-.384.14-.77.28-1.155.415-.074.026-.156.04-.203-.09l.24-.434c.569-.288 1.138-.56 1.567-1.025-.006-.067-.044-.092-.114-.121-.811.22-1.644.442-2.474.676" fill="#797A7D"/><path fill="#002d56" d="M91.429 15.631l-.755.002-.196-.447-.269-.225-5.175.014-1.017.71h-.448l-.408.247.006.01-2.37-1.444 7.665-5.384-.155-.668-9.626 3.987-.365-.045-.197-.329-.263-.115-.281-.547-.213-.049-1.252-2.573-.001-.494-3.258-7.108L69.252.52l-2.819 7.824-1.58-.374-.346-.33-5.52-.599-.468 2.917-6.131.017-.484-2.914-5.516.629-.344.332-1.579.382-2.86-7.808-3.596.674-3.219 7.12v.5l-1.237 2.58-.213.05-.278.548-.262.116-.195.33-.365.047-9.648-3.933-.15.668 7.681 5.349-2.35 1.45.005-.01-.408-.244-.449.001-1.02-.704-5.175.014-.268.227-.194.448-.755.002-.626 1.17.002.515 2.886 3.546h.176l1.058.623.287.42 4.645.486.317-.332h.392l.873-.45-.002-.4.424-.355v.273h.296l.076-.266h.183l.089-.135.365-.113v-.144l.339-.111v-.134l.312-.147-.286-.397 4.708 1.776 1.788 2.813-1.496.839-.37-.246-2.42.007-4.301-2.038v.02l-.086.104 3.223 2.37.001.224-.24.09v.354l-.295.133v.246l-.261.288.097.458-.723-.703-.406-.166-.175-.285-1.704-1.047-3.162.007-.303.228.001.384-.307.123.034.437-.295.001.001.35-.218.187v.285l.724 1.34-.26.24.001.212 1.785 1.16.43-.001v.13l-.845.002-.383.244-.393.001-.302.159-.129.284-.47.001-.42.717.002.272.762 1.152 1.156.817h.348l.484.65 2.98-.12.295-.344.71-.256.293-.33.358-.001v-.158l.273-.078v-.162l.224-.001.565.381.11.167.888.329.342.586 2.828-.164.337-.485.524-.001.426-.421.434-.001v-.116l-.085-.105h.266l-.077-.188h.298l-.121-.221.265-.001-1.043-1.552 2.257.244.18.243-.946 1.422-.388 2.758.201.37 1.772 1.368h.255v.203l4.144 2.988h.153l2.405 1.74 2.514-1.238.972-1.596.29-2.46-.31-.9-1.159-.874h-.13l-.1.131-.114-.303-.558-.372v-.073l1.827.893 1.216-.079.001.378.45.44.886 3.203.16.117-.204.402.001.28h.116l-.192.137.001.57.606-.001.7-.289 1.167-.003.699.284h.608l-.001-.572-.193-.135h.116l-.001-.28-.206-.402.159-.118.869-3.207.447-.443v-.378l1.216.072 1.822-.903v.073l-.555.376-.113.303-.1-.13h-.13l-1.154.88-.307.902.303 2.456.982 1.593 2.52 1.224 2.396-1.753h.153l4.128-3.01v-.205h.254l1.762-1.377.202-.373-.403-2.755-.953-1.417.177-.244 2.256-.257-1.034 1.558h.265l-.12.22h.298l-.076.188h.266l-.085.104v.116l.435-.001.428.418.524-.001.34.483 2.828.149.34-.589.885-.333.11-.167.563-.385h.225v.162l.274.076v.158h.358l.295.328.712.252.297.342 2.98.103.48-.652.348-.001 1.15-.823.758-1.157-.001-.272-.423-.715-.47.001-.13-.283-.303-.157-.394.001-.383-.242-.846.002v-.13h.43l1.778-1.17v-.211l-.26-.24.715-1.343v-.285l-.22-.187v-.35l-.295.001.03-.437-.307-.121v-.384l-.305-.227-3.157.009-1.701 1.056-.176.288-.403.166-.72.71.094-.46-.264-.286v-.246l-.296-.132-.001-.354-.241-.087-.001-.278 3.125-2.29v-.04l.003-.004-.003-.005v-.12l-.072.034-.02-.024-4.26 2.053-2.359.006-.401.275-1.55-.858 1.773-2.823 4.705-1.804-.286.4.314.147v.133l.34.11v.143l.366.111.09.134h.183l.077.265.296-.001-.001-.273.425.354.001.399.876.444.391-.001.319.33 4.642-.511.285-.422 1.055-.63h.176l2.867-3.561-.002-.515z"/><path fill="#21557c" d="M69.436 1.234L67.9 6.058l.004 1.23-1.144 3.593-.396.001-.004-1.695.031-.565-4.781-1.117-2.68.007-.379 2.361-.972.003v.1h-.214v-.1l-1.774.005-.253.001-1.878.005v.1h-.214v-.1l-.868.003-.392-2.359-2.702.007-4.775 1.144.034.565.005 1.695-.396.001-1.163-3.587-.003-1.23-1.562-4.816-1.944.006.003 1.13 1.483-.004L44.092 14.6h.01l.664 2.677.012-.007.14.543 4.248 1.012.823-.008v.049l1.831-.005.491 5.207.495.265 2.695.025 2.694-.04.493-.267.55-5.26 2.567-.001 4.225-1.031.14-.554.024.013.71-2.933L69.9 2.363l1.483-.004-.003-1.13z"/></g></svg>