<svg version="1.1" id="Layer_1" xmlns="http://www.w3.org/2000/svg" x="0" y="0" viewBox="0 0 512 448" xml:space="preserve"><style>.st1{fill:#c38d3d}</style><path fill="#912624" d="M53 63.5l204 305 202-305z"/><path class="st1" d="M251.7 166.1l-1.5 5.7h-6.1l-3.7 8.9 7.8-4.5h.8l-4.5 22.7v134.8l11.7 17.2 11.5-17.2V166.1h-16zm2.3 7.9l-2.6-2.7h8.3L254 174zM277.6 183.7h90.7l-9.7 14.7h-9.5v13.9l-14.6 21.9v-36h-4.4v42.6l-14.9 22.3v-64.9h-4.4v71.5l-15 22.3v-93.8h-4.4v97.4L276.6 273v-74.7h-3zM235.3 183.7l4 14.6h-3V273l-14.8 22.6v-97.4h-4.4V292l-14.9-22.3v-71.5h-4.4v64.9l-15-22.3v-42.6h-4.4v36l-14.6-21.9v-13.9h-9.5l-9.7-14.7h90.7z"/><path d="M25 50.5l232.2 347L487 50.5H25zM257.1 383L39 57h434L257.1 383z" fill="#ccbca6"/><path class="st1" d="M71.4 74l40 60.1h289.2l40-60.1H71.4zM129 93.2v32.3h-14.6V83.7H129v9.5zm1.1 26V98.7l12.4-15h16.9l-14.1 17.1-9.9 12-5.3 6.4zm12.9 6.3l-7.1-11.9 9.9-12 14.2 23.9h-17zm35.7-31.1v31h-14.6V83.7h14.6v10.7zm14.9 31l-5.3-13.6h-8.4v-10.7h13.6v-6.7h-13.6V83.7h21.6l6.3 6.9v11.9l-6 6.5 7.3 16.4h-15.5zm40.4 0h-14.4l-6.7-7.3V83.7h14.6v29.8h6.5v11.9zm22-7.3l-6.7 7.3h-14.2v-11.9h6.3V83.7H256v34.4zm27.5 7.3h-15.2l-6.7-7.3V90.9l6.6-7.2h15.3v11h-7.3v19.8h7.3v10.9zm23.1-7.2l-6.6 7.2h-15.4v-11h7.3v-3.6h-11.7v-10.5h26.4v17.9zm0-20.1H292v-3.4h-7.3v-11H300l6.7 7.3v7.1zm20.6 27.3h-14.6V83.7h14.6v41.7zm1.1-26.4h18v11h-18V99zm20.5 26.4h-20.4v-11h20.4v11zm0-30.7h-20.4v-11h20.4v11zm19.7-.3v31h-14.6V83.7h14.6v10.7zm14.8 31l-5.3-13.6h-8.4v-10.7h13.6v-6.7h-13.6V83.7h21.6l6.3 6.9v11.9l-6 6.5 7.3 16.4h-15.5zM125.6 140.2h1.6V156h-1.6zM174.5 140.2v1.6h-6.4V156h-1.6v-14.2h-6.4v-1.6h14.4zM195.7 141.8h-11v5.5h9.9v1.6h-9.9v5.5h11v1.6h-12.6v-15.8h12.6zM150 140.2h1.6V156h-2.4l-9.9-13.2h-.6V156H137v-15.8h2.4l9.9 13.3h.7zM216.5 149l2.4-2.4V143l-2.7-2.7h-11.4V156h1.6v-6.7h8.5l2.7 6.7h1.7l-2.8-7zm-10.1-1.3v-5.9h9.1l1.8 1.8v2.3l-1.8 1.8h-9.1zM259.8 140.2h-3l-6.7 15.8h1.8l1.9-4.6h9l1.9 4.6h1.8l-6.7-15.8zm-5.3 9.6l3.4-8h.8l3.4 8h-7.6zM303.1 140.2h-3l-6.7 15.8h1.8l1.9-4.6h9l1.9 4.6h1.8l-6.7-15.8zm-5.3 9.6l3.4-8h.8l3.4 8h-7.6zM276.5 154.4h10.1v1.6H274.9v-15.8h1.6v14.2zM362.6 140.2h1.6V156h-1.6zM354.1 140.2v1.6h-6.4V156h-1.6v-14.2h-6.4v-1.6h14.4zM242.1 142.3v2.5h-1.6V143l-1.2-1.2H231l-1.2 1.2v10.2l1.2 1.2h8.3l1.2-1.2v-3.7h-5.9v-1.6h7.5v6L240 156h-9.7l-2.1-2.1v-11.6l2.1-2.1h9.7l2.1 2.1zM388.1 142.3l-.1.1h.1v2.4h-1.7V143l-1.1-1.2H377l-1.2 1.2v10.2l1.2 1.2h8.3l1.1-1.2v-1.7h1.7v2.4h-.1l-2.1 2.1h-9.6l-2.1-2.1h-.1v-11.5h.1l-.1-.1 2.2-2.1h9.6l2.2 2.1zM333.3 142.3v2.5h-1.6V143l-1.2-1.2h-8.3L321 143v10.2l1.2 1.2h8.3l1.2-1.2v-1.7h1.6v2.4l-2.2 2.1h-9.6l-2.1-2.1v-11.6l2.1-2.1h9.6l2.2 2.1z"/><path d="M39 57l218.1 326L473 57H39zm218 311.5L53 63.5h406l-202 305z"/></svg>