<?xml version="1.0" encoding="utf-8"?>
<!-- Generator: Adobe Illustrator 21.0.0, SVG Export Plug-In . SVG Version: 6.00 Build 0)  -->
<svg version="1.1"
	 id="svg2" inkscape:version="0.91 r13725" sodipodi:docname="Self-Land (Current Version).svg" xmlns:cc="http://creativecommons.org/ns#" xmlns:dc="http://purl.org/dc/elements/1.1/" xmlns:inkscape="http://www.inkscape.org/namespaces/inkscape" xmlns:rdf="http://www.w3.org/1999/02/22-rdf-syntax-ns#" xmlns:sodipodi="http://sodipodi.sourceforge.net/DTD/sodipodi-0.dtd" xmlns:svg="http://www.w3.org/2000/svg"
	 xmlns="http://www.w3.org/2000/svg" xmlns:xlink="http://www.w3.org/1999/xlink" x="0px" y="0px" viewBox="0 0 920.7 586.1"
	 style="enable-background:new 0 0 920.7 586.1;" xml:space="preserve">
<style type="text/css">
	.st0{fill:#FF9906;}
</style>
<title  id="title3350">Self-Land Logo Version 2</title>
<sodipodi:namedview  bordercolor="#666666" borderopacity="1" fit-margin-bottom="2" fit-margin-left="2" fit-margin-right="2" fit-margin-top="2" gridtolerance="10" guidetolerance="10" id="namedview4" inkscape:current-layer="svg2" inkscape:cx="588.96404" inkscape:cy="460.94386" inkscape:pageopacity="0" inkscape:pageshadow="2" inkscape:window-height="938" inkscape:window-maximized="0" inkscape:window-width="1738" inkscape:window-x="23" inkscape:window-y="7" inkscape:zoom="0.70710678" objecttolerance="10" pagecolor="#ffffff" showgrid="false" units="mm">
	</sodipodi:namedview>
<g>
	<path class="st0" d="M315.5,56.3c-45.8,27.1-88.6,70.4-118.5,138.4l21.7,0H218C237.5,135.8,272.3,87.9,315.5,56.3z"/>
	<path class="st0" d="M359.8,31.1c18.4-7.8,37.7-13,57.5-15.2c41.1-6.9,83.8-5.9,125.2,3.7C509.2,10.5,474.2,5.8,439,5.7
		C294.3,5.8,167.3,83.1,128.4,194.7H188C220.1,114.9,284.3,58.8,359.8,31.1z"/>
</g>
<path id="path4138-4" inkscape:connector-curvature="0" sodipodi:nodetypes="cccc" class="st0" d="M508.4,30.4
	c-108.8,0.1-205.6,66-241.8,164.3l483.7,0C714,96.4,617.1,30.6,508.4,30.4z"/>
<path id="path4138-1" inkscape:connector-curvature="0" sodipodi:nodetypes="cccccsccccs" class="st0" d="M567.1,580.5
	c144.7-0.1,271.7-77.4,310.6-189.1h-59.6c-56.5,140.7-212.9,207.8-354.4,175.1C496.9,575.7,531.9,580.4,567.1,580.5L567.1,580.5z"/>
<path id="rect4311" inkscape:connector-curvature="0" sodipodi:nodetypes="ccccc" class="st0" d="M80.1,205.9l417.5,0l-35.1,174.2
	H45L80.1,205.9z"/>
<g id="text4329" transform="matrix(1.0229948,0,-0.18742207,0.9775221,-17.24529,-539.61302)">
	<path id="path4371" inkscape:connector-curvature="0" d="M338.7,910.9c13.7,0,20.5-6.9,20.5-20.9v-25.2c0-12.6-6.2-18.9-18.8-18.9
		H311c-2.8,0-4.2-1.4-4.2-4.2v-6.9c0-2.8,1.4-4.2,4.2-4.2h45.8v-27h-55.4c-12.7,0-19.1,6.8-19.1,20.5v25.6
		c0,12.6,6.6,18.8,19.8,18.8h28.5c2.8,0,4.2,1.4,4.2,4.2v7.1c0,2.8-1.4,4.2-4.2,4.2h-48.2v27H338.7L338.7,910.9z"/>
	<path id="path4373" inkscape:connector-curvature="0" d="M438.4,910.9l0-27h-42.8v-15.8h36.7v-22.8h-36.7v-15.3h42.5v-26.6H371
		l0,107.4L438.4,910.9L438.4,910.9z"/>
	<path id="path4375" inkscape:connector-curvature="0" d="M511.9,910.9v-27H473v-80.4h-24.4v107.4H511.9L511.9,910.9z"/>
	<path id="path4377" inkscape:connector-curvature="0" d="M544.9,910.9v-41.8h30.8v-23.7h-30.8v-15.3h41.1v-26.6h-65.7v107.4H544.9z
		"/>
</g>
<g id="text4329-7" transform="matrix(1.0229948,0,-0.18742207,0.97752208,-17.24529,-539.61302)">
	<path id="path4380" inkscape:connector-curvature="0" class="st0" d="M745.5,910.9v-27h-38.9l0-80.4h-24.4v107.4H745.5L745.5,910.9
		z"/>
	<path id="path4382" inkscape:connector-curvature="0" class="st0" d="M835,910.9v-88.6c0-12.6-6.6-18.8-19.8-18.8h-41.7
		c-13.1,0-19.8,6.2-19.8,18.8l0,88.6H778v-44.1h32.5v44.1H835L835,910.9z M810.5,844.2H778V834c0-2.8,1.4-4.2,4.2-4.2h24
		c2.8,0,4.2,1.4,4.2,4.2L810.5,844.2L810.5,844.2z"/>
	<path id="path4384" inkscape:connector-curvature="0" class="st0" d="M929.4,910.9l0-107.4h-24.4v56.1l-34.2-56.1h-23.5v107.4h24.4
		v-56.8l37.2,56.8H929.4L929.4,910.9z"/>
	<path id="path4386" inkscape:connector-curvature="0" class="st0" d="M1000.2,910.9c12.9,0,19.4-6.2,19.4-18.8v-69
		c0-13.1-6.5-19.6-19.4-19.6h-58.2v107.4H1000.2z M995.1,879.7c0,2.8-1.4,4.2-4.2,4.2h-24.4v-53.4h24.4c2.8,0,4.2,1.4,4.2,4.2
		L995.1,879.7L995.1,879.7z"/>
</g>
</svg>
