<svg xmlns="http://www.w3.org/2000/svg" viewBox="0 0 850 300"><defs><style>.a{fill:#757575;}</style></defs><title>Aciedo CommRelay</title><path class="a" d="M338.52,72.81l-37.67,96.05h25.79l5.26-14h31.19l5,14h27.14L357.29,72.81Zm.27,62.37,8.64-25.86,8.64,25.86Z"/><path class="a" d="M489.11,109.86c-2.16-12-9.73-23.71-23.23-31.39a50,50,0,0,0-47.12-.81c-16.88,8.62-24.57,25.06-25.92,38.93a47.63,47.63,0,0,0,18,42.84A49.91,49.91,0,0,0,457,168.05c17.28-5.52,27.82-17.51,32.41-34.75H463.72a50.25,50.25,0,0,1-4.32,5.52,25.26,25.26,0,0,1-22.41,7c-7.83-1.49-14.45-6.2-18.09-15a24.83,24.83,0,0,1,23.35-34.21c7.83.26,15.53,3.5,21.2,13.2Z"/><path class="a" d="M501.66,73.35v95.51h24V73.35Z"/><path class="a" d="M540.29,73.35v95.51h53.34V147H565.14V131.82h28.35V109.05H565V94.77h28.36V73.35Z"/><path class="a" d="M607.93,73.35v95.51h34.43c17.82,0,31.73-2.29,42.94-21.82,8.23-14.28,8-38.66-1.35-54-10.67-17.78-25.39-19.67-40-19.67Zm24.84,74V95.17h5.4c9.45,0,18.91-1.07,25.93,11.59,4.86,8.76,5.94,24.11-.41,31.12-7.29,8-12.69,9.43-23.22,9.43Z"/><path class="a" d="M742.36,72.41a47.27,47.27,0,0,0-16.47,5.39C708.47,87.23,701.32,103,700,117c-1.22,13.2,3.91,31.12,18.09,42.57a50,50,0,0,0,45.77,8.48c17.69-5.65,27.95-16.43,32.68-34.08a49.94,49.94,0,0,0-10.94-45.53C773,74.43,754.52,70.66,742.36,72.41Zm-16.74,40.82c3-9,10-14.55,18.9-16.31a24.88,24.88,0,0,1,27.68,32.34c-3.1,9-9.72,14.55-18.9,16.3-5.94,1.21-16.74-.81-23.09-8.09C724.14,130.6,723.19,120.63,725.62,113.23Z"/><path class="a" d="M335.25,209.75a35,35,0,0,1-2.16,3.14c-.54.61-.95,1.05-1.22,1.34-.45.48-.87.89-1.26,1.24a25.42,25.42,0,0,1-5.54,3.1l-3.19.72a14.53,14.53,0,0,1-3,.33,19.39,19.39,0,0,1-9.45-2.38,18.5,18.5,0,0,1-3.92-3,22.5,22.5,0,0,1-3.2-4.25,18.38,18.38,0,0,1-1.44-3.81,17.82,17.82,0,0,1-.49-4.35v-1.33a3.52,3.52,0,0,0,.13-1,18.69,18.69,0,0,1,1.08-4.39,7.62,7.62,0,0,1,.81-1.72c.36-.57.83-1.22,1.4-1.95a16,16,0,0,1,6.39-5.2,19.41,19.41,0,0,1,8.56-2,18.64,18.64,0,0,1,4.68.57,20.91,20.91,0,0,1,4.46,1.72,20,20,0,0,1,7.16,7.35h-4.46A13.77,13.77,0,0,0,319,188.22a17.2,17.2,0,0,0-3.69.38,15.94,15.94,0,0,0-3.56,1.34,16.13,16.13,0,0,0-3.06,2.2A13.37,13.37,0,0,0,306.3,195a13.61,13.61,0,0,0-1.9,7.06,11.6,11.6,0,0,0,.59,3.77,11.28,11.28,0,0,0,1.49,3.44,15.58,15.58,0,0,0,5.35,4.82,24.59,24.59,0,0,0,3.47,1.38,13,13,0,0,0,3.6.48,14.09,14.09,0,0,0,11.89-6.2Z"/><path class="a" d="M393.56,205.16v.58a14.19,14.19,0,0,1-.27,3.19,13.8,13.8,0,0,1-.63,1.91,8.25,8.25,0,0,1-.76,1.58A10.91,10.91,0,0,1,391,214a9.72,9.72,0,0,1-1.22,1.43,11.12,11.12,0,0,1-1.26,1.24,14.72,14.72,0,0,1-1.62,1,14.16,14.16,0,0,1-7.11,1.91,13.54,13.54,0,0,1-3-.28,13.37,13.37,0,0,1-1.94-.53c-.48-.22-1-.51-1.66-.86a12.92,12.92,0,0,1-5.05-4.67,13.44,13.44,0,0,1-2-7.3,12.7,12.7,0,0,1,.41-3.35,11.27,11.27,0,0,1,1.48-3,13.72,13.72,0,0,1,5-4.58,14.59,14.59,0,0,1,7.25-1.82,11,11,0,0,1,2.21.24,17.7,17.7,0,0,1,2.25.62,16.71,16.71,0,0,1,4.23,2.58,8.89,8.89,0,0,1,.86.81,6.75,6.75,0,0,1,.9,1,7.2,7.2,0,0,1,.77,1,6.71,6.71,0,0,1,.63,1.1,8.46,8.46,0,0,1,1.48,4.67Zm-4.14,1a8.24,8.24,0,0,0-1.31-4.3,9.71,9.71,0,0,0-3.69-3.58,7.78,7.78,0,0,0-4.5-1.28,10,10,0,0,0-6.85,2.72,8.29,8.29,0,0,0-3,6.44,9,9,0,0,0,2.83,7,14.54,14.54,0,0,0,3.2,2.14,10.69,10.69,0,0,0,3.83.72,11.07,11.07,0,0,0,2.11-.24c.45-.13.85-.25,1.18-.38s.72-.34,1.08-.53a10.28,10.28,0,0,0,3.6-3.29,9.32,9.32,0,0,0,1.53-5.39Z"/><path class="a" d="M463.69,219.05h-4V203.83a6.19,6.19,0,0,0-2.07-5,6.56,6.56,0,0,0-2.26-1.33,4.9,4.9,0,0,0-1.53-.38,11.05,11.05,0,0,0-1.21-.1,6.76,6.76,0,0,0-4.46,1.58,5.37,5.37,0,0,0-1.85,4.39v16h-4.18V203.59a5.86,5.86,0,0,0-2.12-4.73,7.42,7.42,0,0,0-5-1.81,6.11,6.11,0,0,0-4.46,1.67,5.85,5.85,0,0,0-1.85,4.77v15.56h-4V193.81h3.83v2.62a5.63,5.63,0,0,1,2.38-2.15,8.17,8.17,0,0,1,4.19-1.05,13.05,13.05,0,0,1,2.79.29,9.66,9.66,0,0,1,2.61,1,4.82,4.82,0,0,1,1.09.53q.14.09,1,.81l1.66,1.81a8.38,8.38,0,0,1,3.56-3.15,9.25,9.25,0,0,1,4.68-1.19,11.68,11.68,0,0,1,7.7,2.86,8.84,8.84,0,0,1,3.47,7.06Z"/><path class="a" d="M535.06,219.05h-4V203.83a6.19,6.19,0,0,0-2.07-5,6.61,6.61,0,0,0-2.25-1.33,4.9,4.9,0,0,0-1.53-.38,11.19,11.19,0,0,0-1.22-.1,6.76,6.76,0,0,0-4.46,1.58,5.36,5.36,0,0,0-1.84,4.39v16h-4.19V203.59a5.86,5.86,0,0,0-2.12-4.73,7.42,7.42,0,0,0-5-1.81,6.13,6.13,0,0,0-4.46,1.67,5.85,5.85,0,0,0-1.85,4.77v15.56h-4V193.81h3.83v2.62a5.59,5.59,0,0,1,2.39-2.15,8.14,8.14,0,0,1,4.18-1.05,13.22,13.22,0,0,1,2.8.29,9.66,9.66,0,0,1,2.61,1,4.52,4.52,0,0,1,1.08.53q.13.09,1,.81l1.66,1.81a8.44,8.44,0,0,1,3.56-3.15,9.26,9.26,0,0,1,4.69-1.19,11.7,11.7,0,0,1,7.7,2.86,8.83,8.83,0,0,1,3.46,7.06Z"/><path class="a" d="M591.59,195.71a1.42,1.42,0,0,0,.09.63,10,10,0,0,1-1.21,4.53,9.52,9.52,0,0,1-1.49,2.19,9.75,9.75,0,0,1-2.16,1.77,11.43,11.43,0,0,1-2.57,1.24,8.89,8.89,0,0,1-2.65.38l9.86,12.6h-5.09l-12.2-15.84h3.46a21.51,21.51,0,0,0,4.15-.34,11,11,0,0,0,1.26-.47,12,12,0,0,0,1.84-1,6.28,6.28,0,0,0,2.75-5.49,6.8,6.8,0,0,0-2.75-5.53,11.43,11.43,0,0,0-6.57-1.91H571.6v30.54h-4.1V184.88h9.73q8,0,11.12,3.1a18.93,18.93,0,0,1,1.35,1.72,9.33,9.33,0,0,1,1.08,1.86,8.27,8.27,0,0,1,.59,2A10,10,0,0,1,591.59,195.71Z"/><path class="a" d="M649.49,207.84H626.26a8.38,8.38,0,0,0,3.38,6,13,13,0,0,0,3,1.58,10.37,10.37,0,0,0,3.11.47,11.83,11.83,0,0,0,5.45-1.43,12.16,12.16,0,0,0,2.16-1.76,7.73,7.73,0,0,0,1.44-2.29H649a14.59,14.59,0,0,1-1.58,3,9.62,9.62,0,0,1-2,2.44,13.7,13.7,0,0,1-2.07,1.62,20.48,20.48,0,0,1-2.62,1.38,15.68,15.68,0,0,1-2.56.58,14.87,14.87,0,0,1-2.53.23A15.18,15.18,0,0,1,629.1,218a13,13,0,0,1-5.09-4.72,13.62,13.62,0,0,1-1.71-7,12,12,0,0,1,4.18-9.4,13.94,13.94,0,0,1,9.42-3.72,14.26,14.26,0,0,1,6.52,1.62,11.55,11.55,0,0,1,5.09,4.82,13.18,13.18,0,0,1,2,7.4Zm-4-3.54a8.28,8.28,0,0,0-3.24-5.15,10.12,10.12,0,0,0-11.62-.76,10.5,10.5,0,0,0-1.8,1.52,11.61,11.61,0,0,0-1.44,1.77l-.59,1.43-.4,1.19Z"/><path class="a" d="M684.67,219.05H681.2V184.88h3.47Z"/><path class="a" d="M745.14,219.05h-3.87V215c-.48.61-.74.93-.77,1a6.83,6.83,0,0,1-1,1q-.5.39-1,.72c-.33.19-.74.4-1.22.62a13.46,13.46,0,0,1-6.21,1.38,14.17,14.17,0,0,1-3.33-.38,12.17,12.17,0,0,1-3.11-1.24,17.39,17.39,0,0,1-5.4-4.63,12.4,12.4,0,0,1-1.89-6.82,13.13,13.13,0,0,1,.49-3.82c.21-.64.42-1.19.63-1.67a11.86,11.86,0,0,1,.95-1.62,12.38,12.38,0,0,1,5.22-4.68,14.49,14.49,0,0,1,3.24-1.24,13.5,13.5,0,0,1,3.51-.43,12.28,12.28,0,0,1,2.93.33,13.76,13.76,0,0,1,2.79.91,11.45,11.45,0,0,1,4.15,3.58v-4.1h3.87Zm-3.87-12.5a9,9,0,0,0-2.93-6.68,8.66,8.66,0,0,0-6.76-2.91,16.94,16.94,0,0,0-2.79.23,11.75,11.75,0,0,0-1.21.39,6.11,6.11,0,0,0-1,.57,9.41,9.41,0,0,0-3.74,3.63,8.85,8.85,0,0,0-1,2,6,6,0,0,0-.36,2.05v1.24a6.53,6.53,0,0,0,.09,1.1q.13.48.18.72c.06.12.19.43.4.9a6,6,0,0,0,2.16,3.1,10.81,10.81,0,0,0,3.2,2.2,7.08,7.08,0,0,0,.77.29l1.17.24,1.71.23a9.32,9.32,0,0,0,7.11-3,8.13,8.13,0,0,0,3.07-6.34Z"/><path class="a" d="M800,193.81l-14.82,34h-4.27l4.14-9.73-9.77-24.29h4.23l8,19.32,8.42-19.32Z"/><path class="a" d="M249.19,55.34c-27.82-.2-66.05,13-109.67,38.05-.84.48-1.65,1-2.48,1.46,15.6,8.41,28.65,18.64,41.12,30.22,11.49,10.65,22.49,25.91,25.54,42.8s-2.39,35.41-22.89,50.76c-20.2,15.13-39.56,17.42-56.11,12.36s-30.25-17.13-40.4-30.11a115,115,0,0,1-15.39-27.06C61.44,192,55.28,213.75,50,240.28c107.58,17.76,164.77-24.55,181.13-92,20.12-83,49.36-69.56,64.73-55.3C292.27,67.61,275.32,55.53,249.19,55.34Z"/><path class="a" d="M54.56,69.43l-.32,2.34-.37,2.73h0c-3.66,27.09-1.55,89.4,28.52,127.87C92.75,215.6,106.76,228,124,233.3s37.57,2.76,58.27-12.74c21.08-15.78,27-35.42,23.82-53.11s-14.51-33.23-26.27-44.15C151,96.56,118.65,76.67,59.65,70Zm4.16,5.32.39,0c58.13,6.57,89,25.7,117.41,52,11.2,10.4,21.88,25.32,24.8,41.47s-2,33.49-22,48.4c-19.7,14.76-38.1,16.83-54,12s-29.26-16.56-39.2-29.28C57.66,162.87,55.18,101,58.66,75.14h0l0-.39Z"/></svg>