<svg xmlns="http://www.w3.org/2000/svg" viewBox="0 0 900 400"><defs><style>.a{fill:#ff7f2a;}</style></defs><title>ACOM</title><path class="a" d="M498.07,109.62a89.86,89.86,0,0,0-90,89.75h0a90,90,0,1,0,90-89.75Zm-.17,31.83a57.89,57.89,0,0,1,58,57.83h0a57.88,57.88,0,0,1-58,57.82h0A57.88,57.88,0,0,1,440,199.28h0a57.89,57.89,0,0,1,57.95-57.83Z"/><path class="a" d="M343.13,109.62a89.75,89.75,0,1,0,0,179.5c44.11,0,68-25.53,73.8-30.82-4.69-6.29-13.88-23.32-15.12-30.79C395.44,234.41,377,257.1,343,257.1a57.83,57.83,0,1,1,0-115.65c35.79,0,52.42,21.18,59,28.14,2.52-9.92,8.92-23.1,15.58-29.91-8.42-7.79-30.11-30.06-74.4-30.06Z"/><path class="a" d="M173.5,113.89,106.75,284h34.32l13.68-35.15h70.72L239.25,284h33.5L206.52,113.89Zm16.69,44.81,23.1,58.65H167Z"/><path class="a" d="M611.33,113.89,581.34,284h32.55l18.65-107.2L669,284h28.48l36.91-107.2L752.79,284h31.67L755.72,113.89H723.81l-40.41,119-40.08-119Z"/><path class="a" d="M189.84,68a19.73,19.73,0,0,0-19.09,14.8H117.59C94,82.8,75,100.85,75,123.28V277.89c0,22.43,19,40.48,42.59,40.48H646.42V308.14H116.57a31.38,31.38,0,0,1-31.48-31.41V125.39A31.38,31.38,0,0,1,116.57,94h54.6a19.71,19.71,0,1,0,18.67-26Z"/><path class="a" d="M228.29,82.8V94H782.18a31.38,31.38,0,0,1,31.48,31.41V276.73a31.38,31.38,0,0,1-31.48,31.41h-78A19.72,19.72,0,1,0,684.87,332h0a19.71,19.71,0,0,0,18.76-13.63h78.78c23.6,0,42.59-18.05,42.59-40.48V123.28c0-22.43-19-40.48-42.59-40.48Z"/></svg>