<svg xmlns="http://www.w3.org/2000/svg" viewBox="0 0 800 600"><path d="M368.3 200.2L280 326.6 263.7 311 381 122.7h39.7L537.9 311l-16.4 15.6h-.3l-88.4-126.5v63.3l62.9 63.3h-78.6V171.3s-3.3-15.1-16.7-15.1c-13.3 0-16.9 15.1-16.9 15.1v155.4h-78.2l62.9-63.3v-63.2zm24.2 55.5s3.6-2.6 8.1-2.6 8.6 2.4 8.6 2.4v71.2h-16.7v-71zm102 181.4v-85.2h26.7v85.2h-26.7zm-122.1-63.6h-72.3v10h72.3v21.8h-72.3v10h72.3v21.8h-98.7v-85.2h98.7v21.6zm-179.3 12.8H239v-12.8h-45.9v12.8zm61.4-34.5l10.9 10.8V437H239v-45.2L225.5 408h-32.4v29h-26.4v-74.5l10.9-10.8h76.9zm228.3 77.7l-7.7 7.5h-82.7l-8.4-8.3v-68.6l8.4-8.4H475l7.7 7.7v14.1h-72.3v41.8h45.9v-10h-34.9v-21.8h61.3l.1 46zm138.8 7.6h-90.3v-21.9h71.6v-10h-71.6V359l7.3-7.2h94.7v.2l-17.5 21.6h-58.4v10H629v46.1l-7.4 7.4zm-120.4 40.1v-20h5.1v20h-5.1zM172 471.4v-8.1c0-.6-.4-1.2-1.1-1.3h-16.2v10.5h16.1c.5-.1 1.1-.6 1.2-1.1zm4.7-8.4v8.3c-.1 3.2-2.8 5.8-6 5.8H150v-20h21c3.1.2 5.6 2.8 5.7 5.9zm64.1-5.8h6.1l-11 13.7v6.4h-4.8v-6.4l-11-13.8h6.1l7.2 9.1 7.4-9zm71.7 0h4.7v16.2s-.1 1.4-1.4 2.7-2.6 1.2-2.6 1.2-1.8 0-2.6-.2c-.8-.3-1.2-.8-1.2-.8L295.1 462v15.4h-4.7v-16.2s.1-1.4 1.4-2.7c1.3-1.3 2.9-1.2 2.9-1.2s1.6 0 2.4.3c.8.3 1 .5 1 .5l14.2 14.2.2-15.1zm58.2 9.9h5.2l-2.3-4.8h-.5c-.1-.1-2.4 4.8-2.4 4.8zm7-6.9l8.1 17h-5.2l-2.5-5.3h-9.7l-2.5 5.3h-5.2l8.1-17s1.3-3 4.4-3c3.2 0 4.5 3 4.5 3zm80 .6v16.4H453v-14.7l-4.7 11.4s-1.3 3.2-4.6 3.2-4.7-3.2-4.7-3.2l-4.7-11.4v14.7h-4.7v-16.4c.1-.4.3-1.5 1.4-2.5 1.3-1.3 2.9-1.2 2.9-1.2s1.6.1 2.4.3c1.3.5 1.8 1.7 1.8 1.7l5.4 12.9h.6l5.4-12.9s.5-1.3 1.8-1.7c.8-.3 2.4-.3 2.4-.3s1.6-.1 2.9 1.2c.7 1 .9 2.1 1.1 2.5zm107.6 11.7h11.1v4.7h-21c-3.1-.1-5.6-2.7-5.8-5.8V463c.1-3.2 2.8-5.8 6-5.8h20.8v4.7h-20.8c-.6 0-1.2.4-1.3 1.1v8.1c0 .6.4 1.2 1.1 1.3l9.9.1zM650 471c0 3.4-2.7 6.1-6.1 6.1h-23.7v-4.7h23.7c.8 0 1.4-.6 1.4-1.4 0-.8-.6-1.4-1.4-1.4h-19.5v-.1.1c-3.4 0-6.1-2.9-6.1-6.4 0-3.4 2.8-6.1 6.1-6.1h23.7v4.7h-23.7c-.8 0-1.4.6-1.4 1.4s.6 1.5 1.4 1.5h19.5c3.4.1 6.1 2.9 6.1 6.3z"/></svg>