<?xml version="1.0" encoding="utf-8"?>
<!-- Generator: Adobe Illustrator 21.0.0, SVG Export Plug-In . SVG Version: 6.00 Build 0)  -->
<svg version="1.1"
	 id="svg2" inkscape:export-filename="C:\Users\Andrew\Desktop\AERONEWWIP23.png" inkscape:export-xdpi="63.339893" inkscape:export-ydpi="63.339893" inkscape:version="0.91 r13725" sodipodi:docname="Aeroview.svg" xmlns:cc="http://creativecommons.org/ns#" xmlns:dc="http://purl.org/dc/elements/1.1/" xmlns:inkscape="http://www.inkscape.org/namespaces/inkscape" xmlns:rdf="http://www.w3.org/1999/02/22-rdf-syntax-ns#" xmlns:sodipodi="http://sodipodi.sourceforge.net/DTD/sodipodi-0.dtd" xmlns:svg="http://www.w3.org/2000/svg"
	 xmlns="http://www.w3.org/2000/svg" xmlns:xlink="http://www.w3.org/1999/xlink" x="0px" y="0px" viewBox="0 0 747.8 720.7"
	 style="enable-background:new 0 0 747.8 720.7;" xml:space="preserve">
<style type="text/css">
	.st0{fill:#0E2436;}
	.st1{fill:#FFFFFF;}
	.st2{fill:#ECECEC;}
	.st3{fill:#AFBECA;}
	.st4{fill:#38434B;}
</style>
<g>
	<title  id="title3363">Aeroview Hangars Logo</title>
	<defs>
		
		
			<inkscape:perspective  id="perspective4574" inkscape:persp3d-origin="960.00007 : 360.00002 : 1" inkscape:vp_x="0 : 540.00004 : 1" inkscape:vp_y="0 : 1000.0001 : 0" inkscape:vp_z="1920.0001 : 540.00004 : 1" sodipodi:type="inkscape:persp3d">
			</inkscape:perspective>
	</defs>
	
		<sodipodi:namedview  bordercolor="#666666" borderopacity="1" fit-margin-bottom="0" fit-margin-left="0" fit-margin-right="0" fit-margin-top="0" gridtolerance="10" guidetolerance="10" id="namedview4" inkscape:current-layer="svg2" inkscape:cx="714.45149" inkscape:cy="515.91022" inkscape:pageopacity="0" inkscape:pageshadow="2" inkscape:window-height="1018" inkscape:window-maximized="1" inkscape:window-width="1920" inkscape:window-x="-8" inkscape:window-y="-8" inkscape:zoom="0.70710678" objecttolerance="10" pagecolor="#ffffff" showgrid="false" showguides="false" units="mm">
		</sodipodi:namedview>
	<path id="rect4618" inkscape:connector-curvature="0" sodipodi:nodetypes="cccccscsccscsccccccc" class="st0" d="M363.8,32.7
		C363.8,32.7,363.8,32.7,363.8,32.7C363.8,32.7,363.8,32.7,363.8,32.7L363.8,32.7L363.8,32.7c-4.4,2.2-8.2,5.9-10.8,10.7L44.1,617.6
		c-5,8.7-4.5,37.8,22.4,37.8h307.4h0h307.4c26.9,0,27.5-29,22.4-37.8L394.8,43.3c-2.6-4.8-6.4-8.4-10.8-10.7h0v0c0,0,0,0,0,0
		c0,0,0,0,0,0C377.3,29.4,370.1,29.4,363.8,32.7L363.8,32.7z"/>
	<path id="path3527" inkscape:connector-curvature="0" sodipodi:nodetypes="ccccccccccccccccccc" class="st1" d="M373.6,131.7
		c37.1,44.8,47.5,104.4,42.6,147.1c11.9,23.9,30.9,72.6,19.1,133.6L406.9,387c16.7-30.9,17.6-50.1,6.3-81.6
		c-1.1,9.1-12.2,37.9-19.7,51.9l-10.4-2.9c25.2-62.6,22.7-114.3-4.9-175.7c-12.8,29-14.5,46.9-14.7,81l8.5-4.6l1.4,107.8l-66.9,60.6
		L333.8,307C325.2,245,329.5,193.5,373.6,131.7 M332.9,373.9l24.1-22.8l-1.8-60L332.9,373.9L332.9,373.9z"/>
	<path id="path3529" inkscape:connector-curvature="0" sodipodi:nodetypes="cccc" class="st2" d="M378.1,377l-1.7,41.5L357,395.8
		L378.1,377z"/>
	<path id="path3533" inkscape:connector-curvature="0" sodipodi:nodetypes="cssccssccccssccssc" class="st1" d="M362.8,462.7
		c-7.1,0-16.2,6.2-16.2,15.1v17.3c0,8.8,9.1,15.1,16.2,15.1c5.1,0,10.3,0,15.4,0c7.1,0,16.2-6.3,16.2-15.1v-17.3
		c0-8.9-9.1-15.1-16.2-15.1C362.8,462.7,378.2,462.7,362.8,462.7z M363.7,473.2c13.5,0,0,0,13.5,0c3.5,0,6.1,0.8,6.1,5.5v15.5
		c0,4.3-2.6,5.3-6.1,5.3c-4.5,0,0,0-13.5,0c-3.5,0-6.1-0.9-6.1-5.3v-15.5C357.6,474,360.3,473.2,363.7,473.2z"/>
	<path id="path3535" inkscape:connector-curvature="0" sodipodi:nodetypes="ccccccccccccc" class="st1" d="M199.2,462.7h11.7
		l16.6,47.6h-11.4l-2.2-6.6h-19.8l-3.2,6.6h-11.5L199.2,462.7 M198.6,492.6l11.3,0l-5.2-14.6L198.6,492.6z"/>
	<path id="path3537" inkscape:connector-curvature="0" sodipodi:nodetypes="ccccccccccccc" class="st1" d="M233.8,462.7h47.6v10.5
		h-37.1v7.6H264v9.8h-19.6v8.8h37.1v11h-47.6L233.8,462.7z"/>
	<path id="path3539" inkscape:connector-curvature="0" sodipodi:nodetypes="cczccccccccccczcc" class="st1" d="M291.4,462.7
		c0,0-0.7,0,32.8,0c10,0,14.2,11.2,14.2,17c0,5.8-3.7,10.5-6.9,13.3l8.3,17.3h-12.2l-6.7-13.8H302v13.8h-10.7L291.4,462.7
		 M302,471.5v14h17.9c5.9,0,8-2.7,8-7.3s-4.6-6.7-8-6.7H302z"/>
	<path id="path3541" inkscape:connector-curvature="0" sodipodi:nodetypes="ccccccccc" class="st1" d="M399.5,462.7l11,0l12.9,31.6
		l12.4-31.6h10.8l-18.1,47.6h-10L399.5,462.7L399.5,462.7z"/>
	<path id="path3543" inkscape:connector-curvature="0" sodipodi:nodetypes="cccccc" class="st1" d="M453.9,462.7H464v47.6h-10.1
		L453.9,462.7L453.9,462.7z"/>
	<path id="path3547" inkscape:connector-curvature="0" class="st1" d="M528.2,462.7l10.2,47.6h9.7l4.3-6.9l4.3,6.9h9.7l10.2-47.6
		h-10.6l-7.1,30.1l-6.6-10.5l-6.6,10.5l-7.1-30.1H528.2z"/>
	<path id="path3553" inkscape:connector-curvature="0" sodipodi:nodetypes="ssccsssccsssccsssccss" class="st3" d="M540.7,519.4
		c-10.1,0-15.3,8-15.3,15.3c0,9.8,6.7,14.9,15.7,14.9c19.3,0,0,0,19.3,0c4.2,0,5.4,1.6,5.4,4.4c0,3-1.4,4.8-5.3,4.8h-16.2
		c-6.3,0-7.5-1.7-8.6-5.1h-10.5c2.7,15.5,14.9,15.6,18.9,15.6h17.2c10.1,0,15.3-8,15.3-15.3c0-9.8-6.7-14.8-15.7-14.8
		c-19.3,0,0,0-19.3,0c-4.2,0-5.4-1.7-5.4-4.5c0-3,1.4-4.8,5.3-4.8h16.2c6.3,0,7.5,1.7,8.6,5.1h10.5c-2.7-15.5-14.9-15.6-18.9-15.6
		L540.7,519.4z"/>
	<path id="path3537-6" inkscape:connector-curvature="0" sodipodi:nodetypes="ccccccccccccc" class="st1" d="M472.8,462.7h47.6v10.5
		h-37.1v7.6h19.6v9.8h-19.6v8.8h37.1v11h-47.6L472.8,462.7z"/>
	<path id="path3535-0" inkscape:connector-curvature="0" sodipodi:nodetypes="ccccccccccccc" class="st3" d="M255.9,519.4h12.3
		l17.5,49.9h-12l-2.3-6.9h-20.8l-3.4,6.9h-12L255.9,519.4 M255.3,550.9l11.9,0l-5.5-15.3L255.3,550.9z"/>
	<path id="path3543-0" inkscape:connector-curvature="0" class="st3" d="M179.5,519.4v49.9H190v-20.2h28.4v20.2H229v-49.9h-10.6
		v19.2H190v-19.2H179.5L179.5,519.4z"/>
	<path id="path3543-0-1-2" inkscape:connector-curvature="0" sodipodi:nodetypes="cccccccccccc" class="st3" d="M293.8,519.4l0,49.9
		h10.6v-38.5l29.1,17v21.5H344v-49.9h-10.6v17.2l-29.1-17.2H293.8z"/>
	<path id="path3533-4" inkscape:connector-curvature="0" sodipodi:nodetypes="ssssscccccssssssssccsss" class="st3" d="M370.2,519.4
		c-7.4,0-17,6.5-17,15.9v18.1c0,9.3,9.5,15.9,17,15.9h16.2c7.5,0,17-6.6,17-15.9c0-12,0,0,0-12h-25.9V552l14.3,0v0.5
		c0,4.6-2.7,5.5-6.4,5.5h-14.2c-3.7,0-6.4-1-6.4-5.5v-16.2c0-5,2.8-5.8,6.4-5.8h14.2c3.6,0,6.4,0.8,6.4,5.8v0.8h11.6v-1.8
		c0-9.4-9.6-15.9-17-15.9L370.2,519.4z"/>
	<path id="path3535-0-6" inkscape:connector-curvature="0" sodipodi:nodetypes="ccccccccccccc" class="st3" d="M429.3,519.4h12.3
		l17.5,49.9h-12l-2.3-6.9H424l-3.4,6.9h-12L429.3,519.4 M428.7,550.9l11.9,0l-5.5-15.3L428.7,550.9z"/>
	<path id="path3539-4" inkscape:connector-curvature="0" sodipodi:nodetypes="cczccccccccccczcc" class="st3" d="M467.4,519.4
		c0,0-0.7,0,34.4,0c10.5,0,14.9,11.7,14.9,17.8c0,6.1-3.8,11-7.2,13.9l8.7,18.2h-12.8l-7.1-14.5h-19.8v14.5h-11.2V519.4
		 M478.6,528.7v14.7h18.8c6.2,0,8.4-2.9,8.4-7.7c0-4.8-4.9-7-8.4-7H478.6z"/>
	<path id="rect4673" inkscape:connector-curvature="0" sodipodi:nodetypes="ccccc" class="st4" d="M318.1,71.7h21.6L52.5,605.9
		l-9.8-23.6L318.1,71.7z"/>
	<path id="rect4673-6" inkscape:connector-curvature="0" sodipodi:nodetypes="ccccc" class="st4" d="M429.7,71.7h-21.6l287.2,534.2
		l9.8-23.6L429.7,71.7z"/>
	<path id="rect4673-6-7" inkscape:connector-curvature="0" sodipodi:nodetypes="ccccc" class="st4" d="M82.8,672.4l-10.2-19h602.8
		l-16.1,19L82.8,672.4z"/>
	<path id="path4164" inkscape:connector-curvature="0" class="st1" d="M358.7,608.6c0,0.5-0.4,0.8-0.8,0.8s-0.8-0.4-0.8-0.8
		c0-0.5,0.4-0.8,0.8-0.8S358.7,608.1,358.7,608.6z"/>
	<rect x="146" y="603.5" class="st3" width="178.1" height="1.1"/>
	<g>
		<g>
			<path class="st3" d="M338.3,610.1h-7.6v-12.2h7.6v2.1h-4.8v2.7h4.4v2.1h-4.4v3.1h4.8V610.1z"/>
			<path class="st3" d="M349.7,606.7c0,1.1-0.4,2-1.3,2.6c-0.9,0.6-2,1-3.6,1c-1.4,0-2.6-0.2-3.7-0.7v-2.4c0.9,0.4,1.6,0.6,2.2,0.8
				c0.6,0.1,1.2,0.2,1.7,0.2c0.6,0,1.1-0.1,1.4-0.3c0.3-0.2,0.5-0.5,0.5-1c0-0.2-0.1-0.5-0.2-0.6c-0.1-0.2-0.4-0.4-0.6-0.5
				c-0.3-0.2-0.8-0.4-1.7-0.8c-0.8-0.4-1.4-0.7-1.8-1c-0.4-0.3-0.7-0.7-1-1.1c-0.2-0.4-0.4-0.9-0.4-1.5c0-1.1,0.4-1.9,1.2-2.5
				c0.8-0.6,1.9-0.9,3.3-0.9c0.7,0,1.3,0.1,2,0.2c0.6,0.2,1.3,0.4,1.9,0.6l-0.9,2c-0.7-0.3-1.3-0.5-1.7-0.6
				c-0.5-0.1-0.9-0.2-1.4-0.2c-0.5,0-0.9,0.1-1.2,0.3c-0.3,0.2-0.4,0.5-0.4,0.9c0,0.2,0.1,0.4,0.2,0.6c0.1,0.2,0.3,0.3,0.5,0.5
				c0.2,0.2,0.8,0.4,1.8,0.9c1.2,0.5,2.1,1.1,2.5,1.6C349.5,605.3,349.7,605.9,349.7,606.7z"/>
			<path class="st3" d="M358.1,610.1h-2.8v-10h-3.6v-2.2h9.9v2.2h-3.6V610.1z"/>
			<path class="st3" d="M364,608.9c0-0.5,0.1-0.8,0.4-1.1c0.3-0.2,0.7-0.4,1.2-0.4c0.5,0,0.9,0.1,1.2,0.4c0.3,0.2,0.4,0.6,0.4,1.1
				c0,0.4-0.1,0.8-0.4,1c-0.3,0.3-0.7,0.4-1.1,0.4c-0.5,0-0.9-0.1-1.2-0.4S364,609.4,364,608.9z"/>
			<path class="st3" d="M379,610.1h-9.2v-1.8l3.3-3.1c1-0.9,1.6-1.6,1.9-1.9c0.3-0.4,0.5-0.7,0.6-1c0.1-0.3,0.2-0.6,0.2-1
				c0-0.5-0.1-0.9-0.4-1.1c-0.3-0.2-0.7-0.4-1.2-0.4c-0.5,0-1,0.1-1.5,0.3c-0.5,0.2-1,0.5-1.5,0.9l-1.5-1.7c0.6-0.5,1.2-0.9,1.6-1.1
				c0.4-0.2,0.9-0.4,1.4-0.5c0.5-0.1,1.1-0.2,1.7-0.2c0.8,0,1.5,0.1,2.2,0.4c0.6,0.3,1.1,0.7,1.5,1.2c0.3,0.5,0.5,1.1,0.5,1.7
				c0,0.6-0.1,1.1-0.3,1.6c-0.2,0.5-0.5,1-1,1.5c-0.4,0.5-1.2,1.3-2.4,2.2l-1.7,1.5v0.1h5.7V610.1z"/>
			<path class="st3" d="M381.2,604.9c0-2.4,0.5-4.2,1.6-5.4c1.1-1.2,2.7-1.8,4.9-1.8c0.7,0,1.3,0,1.8,0.1v2.1
				c-0.5-0.1-1.1-0.2-1.6-0.2c-1,0-1.7,0.1-2.3,0.4c-0.6,0.3-1.1,0.7-1.4,1.2c-0.3,0.5-0.5,1.3-0.5,2.2h0.1c0.6-0.9,1.5-1.4,2.8-1.4
				c1.2,0,2.1,0.3,2.8,1c0.7,0.7,1,1.6,1,2.8c0,1.3-0.4,2.3-1.2,3.1c-0.8,0.8-1.9,1.1-3.3,1.1c-1,0-1.8-0.2-2.5-0.6
				c-0.7-0.4-1.3-1-1.7-1.8S381.2,606.1,381.2,604.9z M385.9,608.2c0.6,0,1-0.2,1.4-0.6c0.3-0.4,0.5-0.9,0.5-1.6
				c0-0.6-0.1-1.1-0.4-1.4c-0.3-0.3-0.7-0.5-1.3-0.5c-0.6,0-1,0.2-1.4,0.5c-0.4,0.3-0.6,0.7-0.6,1.2c0,0.7,0.2,1.2,0.6,1.7
				C384.9,608,385.3,608.2,385.9,608.2z"/>
			<path class="st3" d="M397.2,597.8c1.3,0,2.3,0.3,3,0.8c0.8,0.5,1.2,1.2,1.2,2.1c0,0.6-0.2,1.2-0.6,1.7c-0.4,0.5-1,0.9-1.8,1.3
				c1,0.5,1.7,1,2.1,1.5c0.4,0.5,0.6,1.1,0.6,1.7c0,1-0.4,1.8-1.3,2.4c-0.8,0.6-2,0.9-3.3,0.9c-1.4,0-2.6-0.3-3.4-0.9
				c-0.8-0.6-1.2-1.4-1.2-2.4c0-0.7,0.2-1.3,0.6-1.9c0.4-0.5,1-1,1.9-1.4c-0.7-0.4-1.3-0.9-1.6-1.4c-0.3-0.5-0.5-1-0.5-1.6
				c0-0.9,0.4-1.6,1.2-2.1C394.9,598,395.9,597.8,397.2,597.8z M395.1,606.9c0,0.5,0.2,0.9,0.5,1.1c0.4,0.3,0.8,0.4,1.5,0.4
				c0.7,0,1.2-0.1,1.5-0.4c0.3-0.3,0.5-0.6,0.5-1.1c0-0.4-0.2-0.7-0.5-1c-0.3-0.3-0.9-0.7-1.6-1C395.8,605.3,395.1,606,395.1,606.9z
				 M397.2,599.6c-0.5,0-0.9,0.1-1.1,0.3c-0.3,0.2-0.4,0.5-0.4,0.9c0,0.3,0.1,0.6,0.3,0.9c0.2,0.3,0.6,0.5,1.3,0.8
				c0.6-0.3,1-0.5,1.2-0.8c0.2-0.3,0.3-0.6,0.3-0.9c0-0.4-0.1-0.7-0.4-0.9C398,599.8,397.6,599.6,397.2,599.6z"/>
			<path class="st3" d="M405.4,610.1l4.9-10h-6.5v-2.2h9.4v1.6l-5,10.6H405.4z"/>
		</g>
	</g>
	<rect x="420.1" y="603.4" class="st3" width="178.1" height="1.1"/>
</g>
</svg>
