<svg xmlns="http://www.w3.org/2000/svg" viewBox="0 0 800 600"><path d="M328.45402 288.66027v-79.5c0-4.3-.4-8.3-3.1-10.9-2.5-2.5-7.1-3.9-14-3.9-7 0-11.6 1.4-14.1 3.9-2.7 2.7-3.1 6.6-3.1 10.9v79.5h9.9v-39.1h14.4v39.1h10zm-9.9-46.5h-14.4v-34.9c0-3.9 2.5-5.6 7.3-5.6 4.6 0 7.1 1.7 7.1 5.6v34.9zM372.25402 210.16027c0-4.3-.3-8.3-2.8-10.9-2.7-2.7-7.4-3.9-14.4-3.9h-17.2v93.4h9.9v-27h7.3c7 0 11.8-1.4 14.4-3.9 2.5-2.7 2.8-6.7 2.8-10.9v-36.8zm-10.1 38.5c0 3.9-3.2 5.6-7.1 5.6h-7.3v-51.5h7.3c3.9 0 7.1 1.5 7.1 5.6v40.3zM414.75402 274.86027v-65.7c0-4.3-.6-8.3-3.1-10.9-2.7-2.5-7.1-3.9-14.1-3.9s-11.6 1.4-14.1 3.9c-2.7 2.7-3.1 6.6-3.1 10.9v65.7c0 4.3.4 8.3 3.1 10.9 2.5 2.5 7.1 3.9 14.1 3.9s11.5-1.4 14.1-3.9c2.5-2.7 3.1-6.6 3.1-10.9zm-10.1 1.8c0 3.9-2.4 5.6-7.1 5.6s-7.3-1.7-7.3-5.6v-69.3c0-3.9 2.5-5.6 7.3-5.6s7.1 1.7 7.1 5.6v69.3zM457.65402 274.86027v-16.9h-10.1v18.8c0 3.9-2.4 5.6-7.1 5.6-4.8 0-7.3-1.7-7.3-5.6v-69.3c0-3.9 2.5-5.6 7.3-5.6s7.1 1.7 7.1 5.6v17.8h10.1v-16c0-4.3-.6-8.3-3.1-10.9-2.7-2.5-7.1-3.9-14.1-3.9s-11.6 1.4-14.1 3.9c-2.7 2.7-3.1 6.6-3.1 10.9v65.7c0 4.3.4 8.3 3.1 10.9 2.5 2.5 7.1 3.9 14.1 3.9s11.5-1.4 14.1-3.9c2.5-2.8 3.1-6.7 3.1-11zM500.15402 288.66027v-79.5c0-4.3-.4-8.3-3.1-10.9-2.5-2.5-7.1-3.9-14-3.9-7 0-11.6 1.4-14.1 3.9-2.7 2.7-3.1 6.6-3.1 10.9v79.5h9.9v-39.1h14.4v39.1h10zm-9.9-46.5h-14.4v-34.9c0-3.9 2.5-5.6 7.3-5.6 4.6 0 7.1 1.7 7.1 5.6v34.9zM536.25402 288.66027v-7.4h-16.8v-85.9h-9.9v93.4l26.7-.1zM577.85402 274.86027v-79.5h-9.9v47.9c0 3.9-3.2 5.7-7.3 5.7-3.9 0-7.1-1.8-7.1-5.7v-47.9h-10.1v46.6c0 9.2 2.5 11.9 7.4 13.6 5 1.5 12.2 1.4 17.1-3.9v25.1c0 3.9-2.5 5.6-7.3 5.6s-7.3-1.7-7.3-5.6v-14h-9.9v12.2c0 4.3.6 8.3 3.1 10.9 2.5 2.5 7.1 3.9 14.1 3.9s11.6-1.4 14.1-3.9c2.5-2.8 3.1-6.7 3.1-11zM621.55402 210.16027c0-4.3-.3-8.3-2.8-10.9-2.7-2.7-7.4-3.9-14.4-3.9h-17.2v93.4h9.9v-27h7.3c7 0 11.8-1.4 14.4-3.9 2.5-2.7 2.8-6.7 2.8-10.9v-36.8zm-10.1 38.5c0 3.9-3.2 5.6-7.1 5.6h-7.3v-51.5h7.3c3.9 0 7.1 1.5 7.1 5.6v40.3zM664.05402 243.46027v-7.4h-24.5v-28.7c0-3.9 2.5-5.6 7.3-5.6s7.1 1.7 7.1 5.6v14.1h10.1v-12.3c0-4.3-.6-8.3-3.1-10.9-2.7-2.5-7.1-3.9-14.1-3.9s-11.6 1.4-14.1 3.9c-2.7 2.7-3.1 6.6-3.1 10.9v34.3h24.3v33.2c0 3.9-2.4 5.6-7.1 5.6-4.8 0-7.3-1.7-7.3-5.6v-18.9h-9.9v17.1c0 4.3.4 8.3 3.1 10.9 2.5 2.5 7.1 3.9 14.1 3.9s11.5-1.4 14.1-3.9c2.5-2.7 3.1-6.6 3.1-10.9v-31.4zM699.95402 202.76027v-7.4h-26.7v93.4h26.7v-7.4h-16.8v-36.7h16.7v-7.4h-16.7v-34.4h16.8z"/><g><path d="M328.45402 405.96027v-79.5c0-4.3-.4-8.3-3.1-10.9-2.5-2.5-7.1-3.9-14-3.9-7 0-11.6 1.4-14.1 3.9-2.7 2.7-3.1 6.6-3.1 10.9v79.5h9.9v-39.1h14.4v39.1h10zm-9.9-46.5h-14.4v-34.9c0-3.9 2.5-5.6 7.3-5.6 4.6 0 7.1 1.7 7.1 5.6v34.9zM372.25402 405.96027v-36.4c0-7-4.6-10.2-9.1-10.8 4.5-.7 9.1-3.9 9.1-10.9v-20.4c0-4.2-.3-8.3-2.8-10.9-2.7-2.7-7.4-3.9-14.4-3.9h-17.2v93.4h9.9v-43.5h7.3c2 0 3.8.8 5 2.1 1.4 1.4 2.1 3.1 2.1 5.2v36.3l10.1-.2zm-10.1-58.2c0 2-.7 3.8-2.1 5.2-1.3 1.4-3.1 2.1-5 2.1h-7.3v-35.4h7.3c2 0 3.8.7 5 2.1 1.4 1.4 2.1 3.1 2.1 5v21zM429.95402 405.96027v-93.4h-12.5l-11.8 71.6-11.8-71.5h-12.3v93.4h8.5v-71.5l11.9 71.5h7.3l11.9-71.1v71.1h8.8zM473.55402 360.76027v-7.4h-24.5v-28.7c0-3.9 2.5-5.6 7.3-5.6s7.1 1.7 7.1 5.6v14.1h10.1v-12.3c0-4.3-.6-8.3-3.1-10.9-2.7-2.5-7.1-3.9-14.1-3.9s-11.6 1.4-14.1 3.9c-2.7 2.7-3.1 6.6-3.1 10.9v34.3h24.4v33.2c0 3.9-2.4 5.6-7.1 5.6-4.8 0-7.3-1.7-7.3-5.6v-18.9h-9.9v17.1c0 4.3.4 8.3 3.1 10.9 2.5 2.5 7.1 3.9 14.1 3.9s11.5-1.4 14.1-3.9c2.5-2.7 3.1-6.6 3.1-10.9v-31.4h-.1z"/></g><g><path d="M181.2623201 137.60535019c-2.52441106 0-5.42280894.28049012-7.66672989.56098024-16.92290378 2.43091435-33.75231086 8.50820024-45.90688264 19.35381814-18.7928379 16.82940708-26.08558098 35.62224498-27.30103815 53.38661912-.46748353 6.63826613-.74797365 13.37002896.0934967 20.00829509.74797365 6.07728589 2.9918946 11.96757837 4.768332 17.85787084 1.77643742 5.89029248 3.0853913 12.06107508 2.24392095 18.32535438-.65447694 4.768332-3.73986824 12.06107507-4.39434518 13.74401578-1.40245059 3.73986824 1.21545718 6.82525954 4.02035836 8.69519366 3.83336494 2.43091436 8.13421342 4.30084848 12.5285586 5.51630565 6.35777601 1.68294071 12.62205531 3.92686166 18.97983132 5.60980236 1.30895388.37398683 2.05692753 1.21545718 2.05692753 2.71140448V415.1035736c0 1.96343082 1.589444 3.55287483 3.55287483 3.55287483 1.96343083 0 3.55287483-1.589444 3.55287483-3.55287483v-81.90311446c.56098023.93496706 1.21545718 1.86993412 1.86993412 2.71140448v94.61866647c0 2.33741765 1.96343082 4.30084847 4.30084847 4.30084847s4.30084848-1.96343082 4.30084848-4.30084847v-86.20396293l1.96343083 1.40245059v100.41546224c0 5.70329907 4.58133859 10.28463766 10.28463766 10.28463766 5.70329906 0 10.28463766-4.5813386 10.28463766-10.28463766v-93.87069282c.84147035.0934967 1.6829407 0 2.43091435 0v106.1187613c0 2.24392095 1.77643742 4.02035836 4.02035836 4.02035836 2.24392094 0 4.02035836-1.77643741 4.02035836-4.02035835v-107.3342185c.84147035-.1869934 1.6829407-.46748352 2.43091435-.65447693v97.98454788c0 2.15042424 1.77643742 3.92686166 3.92686166 3.92686166 2.15042423 0 3.92686165-1.77643742 3.92686165-3.92686166V346.85097822c1.02846376-.65447694 2.05692753-1.30895389 3.0853913-2.05692753v43.47596829c0 4.6748353 3.73986824 8.41470354 8.41470354 8.41470354s8.41470354-3.73986824 8.41470354-8.41470354v-84.89500905c0-1.4959473.84147035-2.33741765 2.05692753-2.71140448 6.357776-1.6829407 12.6220553-3.92686165 18.97983132-5.60980236 4.39434518-1.21545717 8.69519365-3.0853913 12.5285586-5.51630565 2.80490118-1.77643741 5.42280895-4.95532542 4.02035836-8.69519366-.65447694-1.6829407-3.73986824-8.97568377-4.39434518-13.74401578-.84147036-6.1707826.46748353-12.4350619 2.24392094-18.32535438 1.77643741-5.89029247 4.02035836-11.78058495 4.768332-17.85787084.74797365-6.63826613.46748354-13.37002896.09349671-20.00829509-1.21545718-17.76437414-9.91065083-39.54910663-27.30103815-53.38661912-16.08143343-12.71555202-30.85391298-17.85787085-45.90688265-19.35381814-2.43091435-.18699342-4.768332-.56098024-7.29274306-.56098024zm-54.97606312 109.0171592c6.63826612 0 30.38642945 10.00414754 38.42714616 30.76041627-3.45937812-1.589444-8.32120683-2.9918946-12.4350619-3.0853913-4.6748353 0-14.30499601 4.6748353-22.15871932-3.0853913-4.02035835-5.79679577-5.14231883-11.12610801-5.04882212-19.44731484 0-1.21545718-1.96343083.46748353-2.52441106-1.4959473-.37398683-1.77643741.93496706-3.64637153 3.73986824-3.64637153zm109.95212625 0c2.80490118 0 4.20735177 1.77643741 3.73986824 3.64637153-.56098023 1.96343083-2.52441106.28049012-2.52441106 1.4959473.0934967 8.32120683-.93496706 13.65051907-5.04882212 19.44731484-7.7602266 7.7602266-17.48388402 3.0853913-22.15871932 3.0853913-4.11385507.0934967-8.97568378 1.4959473-12.4350619 3.0853913 8.04071671-20.75626873 31.78888004-30.76041627 38.42714616-30.76041627zm-57.87446101 29.82544921c0 3.178888-.0934967 6.1707826 1.6829407 8.97568378.74797366 1.21545717 2.61790778 1.02846376 3.27238472-.93496706.93496706-2.80490118 1.40245059-4.20735177 2.05692753-7.10574966 2.9918946 6.2642793 5.51630565 12.80904872 7.8537233 19.35381814 1.68294071 4.30084848 2.61790777 9.2561739 1.68294071 13.74401578-.46748353 2.33741765-1.6829407 4.86182872-4.02035836 5.98378919-5.51630565 2.52441106-8.97568377-11.50009484-9.81715413-15.98793673l-.74797364-.74797365c-1.12196048 6.63826613-1.68294071 15.70744661-3.36588142 16.73591038-1.96343083 1.12196047-5.23581554-.74797365-6.73176283-1.96343083-3.55287483-2.89839788-3.83336495-8.04071671-3.0853913-12.24806848 1.589444-8.13421343 6.07728589-18.13836097 11.21960472-25.80509086z"/></g></svg>