<svg xmlns="http://www.w3.org/2000/svg" viewBox="0 0 500 500"><title>Argo colored</title><path d="M208,167.16a58.4,58.4,0,0,0-12.08,19.13,59.63,59.63,0,0,0,.77,45.24,58.3,58.3,0,0,0,108-1.88,59.55,59.55,0,0,0-.75-45.24A58.12,58.12,0,0,0,208,167.16Zm95,17.65a58.4,58.4,0,0,1-29.8,76.45,56.52,56.52,0,0,1-22.87,4.83,57.46,57.46,0,0,1-52.72-35,58.34,58.34,0,0,1,29.8-76.45,56.46,56.46,0,0,1,22.86-4.83A57.36,57.36,0,0,1,303,184.81Z" style="fill:#de8f00"/><path d="M292.18,349.87a6.15,6.15,0,0,1,2.3-2.08,7.09,7.09,0,0,1,3.81-.87h37.85a3.22,3.22,0,0,0,3.24-3.29,3.09,3.09,0,0,0-.95-2.28,3,3,0,0,0-2.3-1H296.8a9.73,9.73,0,0,0-5.2,1.41,13.22,13.22,0,0,0-3.91,3.49,15.91,15.91,0,0,0-2.46,4.77,16.94,16.94,0,0,0-.84,5.24,17.63,17.63,0,0,0,.81,5.17,16.11,16.11,0,0,0,2.33,4.83,12.64,12.64,0,0,0,3.68,3.49,8.8,8.8,0,0,0,4.93,1.41h35.13a8.4,8.4,0,0,0,3.17-.67,8,8,0,0,0,2.6-1.75,8.73,8.73,0,0,0,1.72-2.68,8.6,8.6,0,0,0,.61-3.22v-1.54a8.6,8.6,0,0,0-.61-3.22,7.76,7.76,0,0,0-4.32-4.43,7.29,7.29,0,0,0-3.17-.67H305.42a3.22,3.22,0,0,0-3.24,3.29h0a3.22,3.22,0,0,0,3.27,3.29H331a1.89,1.89,0,0,1,1.52.74,2.85,2.85,0,0,1,.58,1.75,2.69,2.69,0,0,1-.67,1.81,2,2,0,0,1-1.45.74H298.29a7.09,7.09,0,0,1-3.81-.87,6.15,6.15,0,0,1-2.3-2.08,7,7,0,0,1-1.15-2.68,12.08,12.08,0,0,1,0-5.37A7,7,0,0,1,292.18,349.87Z" style="fill:#de8f00"/><path d="M331.16,393.56h-2.91v15.37H315.38V393.56h-3v13.69a4.74,4.74,0,0,0,.87,3.29,4.52,4.52,0,0,0,3.28.94H327a4.46,4.46,0,0,0,3.26-.94,4.63,4.63,0,0,0,.86-3.29Z" style="fill:#de8f00"/><path d="M212.7,350.67v-1.34a8.37,8.37,0,0,0-8.33-8.39H163.47a3.24,3.24,0,0,0-3.17,3.29v23.22a3.18,3.18,0,0,0,3.17,3.22,3.22,3.22,0,0,0,3.23-3.22v-8.39h26.18a10.52,10.52,0,0,1,6.46,2.75l7.93,7.92a3.16,3.16,0,0,0,4.53,0,3.26,3.26,0,0,0,0-4.56l-6.18-6.24h0A8.35,8.35,0,0,0,212.7,350.67Zm-8.32,1.88H166.71v-5.17h37.66a2,2,0,0,1,1.93,1.95v1.34A1.91,1.91,0,0,1,204.37,352.55Z" style="fill:#de8f00"/><path d="M288.88,407.06l2.26,4.43h3.24l-9.81-17.92h-3.16l-9.65,17.92h2.91l2.26-4.43Zm-6-11.41,4.77,9.13h-9.51Z" style="fill:#de8f00"/><path d="M423.13,370.67h35.8a8.36,8.36,0,0,0,8.32-8.39v-13a8.36,8.36,0,0,0-8.32-8.39h-35.8a8.36,8.36,0,0,0-8.32,8.39v13A8.36,8.36,0,0,0,423.13,370.67Zm-1.92-21.35a2,2,0,0,1,1.92-1.95h35.8a2,2,0,0,1,1.92,1.95v13a2,2,0,0,1-1.92,1.95H423.15a2,2,0,0,1-1.94-1.95Z" style="fill:#de8f00"/><path d="M75.3,406.72v.54a4.59,4.59,0,0,0,.87,3.29,4.5,4.5,0,0,0,3.28.94H89.77a4.42,4.42,0,0,0,3.24-.94,4.7,4.7,0,0,0,.85-3.29v-2a4.83,4.83,0,0,0-.87-3.36,4.46,4.46,0,0,0-3.23-.87H78.63v-5H91.12v2.55l2.52-.74v-.34a4.28,4.28,0,0,0-.89-3.09,4.9,4.9,0,0,0-3.26-.87H80.1a4.46,4.46,0,0,0-3.26.94,4.7,4.7,0,0,0-.85,3.29v1.54a4.91,4.91,0,0,0,.85,3.36,4.48,4.48,0,0,0,3.26.87H91.2v5.37H78v-2.82Z" style="fill:#de8f00"/><polygon points="360.9 411.49 360.9 396.05 369.04 396.05 369.04 393.56 349.91 393.56 349.91 396.05 357.96 396.05 357.96 411.49 360.9 411.49" style="fill:#de8f00"/><path d="M209.31,394.5a4.46,4.46,0,0,0-3.26-.94H193.84a4.52,4.52,0,0,0-3.29.94,4.78,4.78,0,0,0-.86,3.29v9.46a4.78,4.78,0,0,0,.86,3.29,4.53,4.53,0,0,0,3.29.94h12.22a4.46,4.46,0,0,0,3.26-.94,4.7,4.7,0,0,0,.86-3.29v-9.46A4.7,4.7,0,0,0,209.31,394.5Zm-2,14.43H192.63V396h14.63Z" style="fill:#de8f00"/><polygon points="123.36 411.49 123.36 396.05 123.36 396.05 131.47 396.05 131.47 393.56 112.35 393.56 112.35 396.05 120.4 396.05 120.4 411.49 123.36 411.49" style="fill:#de8f00"/><rect x="34.01" y="379.27" width="433.26" height="4.03" style="fill:#de8f00"/><path d="M247.92,405.51l-13.23-11.95h-1.85v17.92h2.68V400.95c0-.87,0-1.61,0-2.22s-.09-1.21-.15-1.75a6.71,6.71,0,0,0,1.48,1.75.93.93,0,0,0,.3.27l13.58,12.48h1.65V393.56h-2.68v9.8c0,1.14,0,2,.07,2.62s.11,1.21.2,1.81c-.38-.47-.7-.87-1-1.28A10.12,10.12,0,0,0,247.92,405.51Z" style="fill:#de8f00"/><path d="M167.24,403.7a3.69,3.69,0,0,0,.88-2.68v-4a3.69,3.69,0,0,0-.88-2.68,4.18,4.18,0,0,0-2.87-.81H150.13v17.92h2.93v-7h5.2l7.19,7h4.38l-8.05-7h2.59A4.18,4.18,0,0,0,167.24,403.7Zm-14.16-1.54v-6.24h10.12a2.14,2.14,0,0,1,1.51.4,2,2,0,0,1,.41,1.41v2.62a2,2,0,0,1-.4,1.41,2.12,2.12,0,0,1-1.5.4Z" style="fill:#de8f00"/><rect x="385.79" y="393.56" width="2.73" height="17.92" style="fill:#de8f00"/><path d="M281.74,283.6a84.35,84.35,0,1,0-92.05-18.7A84.35,84.35,0,0,0,281.74,283.6Zm18-126.44a72.89,72.89,0,0,1,4.18,84.24,61.86,61.86,0,0,1-5.46,6.58h0A65.78,65.78,0,0,1,277,263.21a64.86,64.86,0,0,1-26.3,5.5A66.06,66.06,0,0,1,190,228.51a67.45,67.45,0,0,1,12.75-72.76,65.57,65.57,0,0,1,21.53-15.17A64.87,64.87,0,0,1,250.61,135,65.88,65.88,0,0,1,299.77,157.15ZM244,130a70.57,70.57,0,0,1,45.33,16.45A67,67,0,0,0,250.61,134a66.2,66.2,0,0,0-26.7,5.64,68.18,68.18,0,0,0-34.8,89.27,66.62,66.62,0,0,0,105.34,24.37A70.7,70.7,0,0,1,244,274.42,72.23,72.23,0,0,1,244,130Z" style="fill:#de8f00"/><path d="M211.3,296.42A105.79,105.79,0,0,0,293.06,295a108.22,108.22,0,0,0,55.24-141.7h0A105.79,105.79,0,0,0,208.21,97.41,108.17,108.17,0,0,0,153,239.11,105.79,105.79,0,0,0,211.3,296.42ZM174.25,122.59A105.38,105.38,0,0,1,208.6,98.35a103.32,103.32,0,0,1,42-8.86,105.53,105.53,0,0,1,96.8,64.24A107.69,107.69,0,0,1,327,269.85h0a105,105,0,0,1-173.12-31.15A107.69,107.69,0,0,1,174.25,122.59Z" style="fill:#de8f00"/><path d="M200.19,284.22a91.48,91.48,0,0,0,116.7-14,92.8,92.8,0,0,0,19-30.14,93.85,93.85,0,0,0-1.21-71.35,92.81,92.81,0,0,0-34.6-41.28h0a91.49,91.49,0,0,0-116.7,14.1,92.91,92.91,0,0,0-19,30.14A94,94,0,0,0,165.58,243,92.71,92.71,0,0,0,200.19,284.22Zm13.61-163a89.42,89.42,0,0,1,36.29-7.65,91.16,91.16,0,0,1,83.68,55.51,92.66,92.66,0,0,1-47.29,121.36h0a90.62,90.62,0,0,1-120-47.86A92.63,92.63,0,0,1,213.8,121.24Z" style="fill:#de8f00"/><path d="M37.23,370.07a3.16,3.16,0,0,0,3.17-3.15v-8.46H80v8.46a3.16,3.16,0,0,0,3.17,3.15,3.21,3.21,0,0,0,3.23-3.15V348.79h0a8.42,8.42,0,0,0-8.34-8.46H42.32A8.42,8.42,0,0,0,34,348.79v18.12A3.21,3.21,0,0,0,37.23,370.07Zm3.18-21.28a2,2,0,0,1,1.93-1.95H78.12A2,2,0,0,1,80,348.79V352H40.41Z" style="fill:#de8f00"/><path d="M53.39,411.49h3.25l-9.82-17.92H43.67L34,411.49h2.91l2.26-4.43h12Zm-13-6.71,4.75-9.13,4.77,9.13Z" style="fill:#de8f00"/><path d="M428,405.11l-3-.6v4.43H412.8V396H425v4l3-.6v-1.68a5,5,0,0,0-.85-3.36,4.79,4.79,0,0,0-3.26-.87H414a4.5,4.5,0,0,0-3.28.94,4.59,4.59,0,0,0-.87,3.29v9.46a4.59,4.59,0,0,0,.87,3.29,4.5,4.5,0,0,0,3.28.94h9.9a4.43,4.43,0,0,0,3.26-.94,4.7,4.7,0,0,0,.85-3.29Z" style="fill:#de8f00"/><path d="M466.4,401.89a4.44,4.44,0,0,0-3.23-.87H452v-5h12.52v2.55l2.52-.74v-.34a4.28,4.28,0,0,0-.9-3.09,4.88,4.88,0,0,0-3.25-.87h-9.4a4.45,4.45,0,0,0-3.26.94,4.7,4.7,0,0,0-.85,3.29v1.54a4.87,4.87,0,0,0,.85,3.36,4.47,4.47,0,0,0,3.26.87h11.08v5.37H451.46v-2.82l-2.74.6v.54a4.63,4.63,0,0,0,.87,3.29,4.5,4.5,0,0,0,3.28.94h10.31a4.4,4.4,0,0,0,3.24-.94,4.7,4.7,0,0,0,.86-3.29v-2A4.82,4.82,0,0,0,466.4,401.89Z" style="fill:#de8f00"/></svg>