<?xml version="1.0" encoding="UTF-8" standalone="no"?>
<svg
   xmlns:dc="http://purl.org/dc/elements/1.1/"
   xmlns:cc="http://creativecommons.org/ns#"
   xmlns:rdf="http://www.w3.org/1999/02/22-rdf-syntax-ns#"
   xmlns:svg="http://www.w3.org/2000/svg"
   xmlns="http://www.w3.org/2000/svg"
   xmlns:sodipodi="http://sodipodi.sourceforge.net/DTD/sodipodi-0.dtd"
   xmlns:inkscape="http://www.inkscape.org/namespaces/inkscape"
   width="187.71664mm"
   height="140.51932mm"
   viewBox="0 0 532.11018 398.32248"
   version="1.1"
   id="svg2"
   inkscape:version="0.91 r13725"
   sodipodi:docname="Argo Astronautics.svg">
  <title
     id="title3356">Argo Astronautics Logo</title>
  <metadata
     id="metadata26">
    <rdf:RDF>
      <cc:Work
         rdf:about="">
        <dc:format>image/svg+xml</dc:format>
        <dc:type
           rdf:resource="http://purl.org/dc/dcmitype/StillImage" />
        <dc:title>Argo Astronautics Logo</dc:title>
        <dc:creator>
          <cc:Agent>
            <dc:title>CIG</dc:title>
          </cc:Agent>
        </dc:creator>
        <dc:contributor>
          <cc:Agent>
            <dc:title>Vectorization by King Phoenix</dc:title>
          </cc:Agent>
        </dc:contributor>
      </cc:Work>
    </rdf:RDF>
  </metadata>
  <defs
     id="defs24" />
  <sodipodi:namedview
     pagecolor="#ffffff"
     bordercolor="#666666"
     borderopacity="1"
     objecttolerance="10"
     gridtolerance="10"
     guidetolerance="10"
     inkscape:pageopacity="0"
     inkscape:pageshadow="2"
     inkscape:window-width="1920"
     inkscape:window-height="1017"
     id="namedview22"
     showgrid="false"
     inkscape:zoom="1.3016949"
     inkscape:cx="392.88941"
     inkscape:cy="255.15652"
     inkscape:window-x="-8"
     inkscape:window-y="-8"
     inkscape:window-maximized="1"
     inkscape:current-layer="svg2"
     showguides="false"
     units="mm"
     fit-margin-top="4"
     fit-margin-left="4"
     fit-margin-right="4"
     fit-margin-bottom="4" />
  <g
     id="#000000ff"
     transform="matrix(0.74980875,0,0,0.74852887,2.3035904,297.72098)"
     style="fill:#000000;fill-opacity:1">
    <path
       style="opacity:1;fill:#000000;fill-opacity:1"
       d="m 131.28711,-313.43945 c -8.19491,0 -14.07008,6.26283 -14.07011,10.21679 l -2e-4,30.5 c -3e-5,4.83685 10.33789,4.66772 10.33789,0 l 0,-13.49023 57.09765,0 0,13.49023 c 0,4.66773 10.33789,4.83686 10.33789,0 l 0,-30.5 c 0,-3.95396 -5.8754,-10.21679 -14.07031,-10.21679 z m 46.98242,10.29687 c 4.74597,0 6.39258,0.70125 6.39258,3.35547 l 0,3.20508 -57.11719,0 0,-3.20508 c 0,-2.65422 1.64661,-3.35547 6.39258,-3.35547 z"
       transform="matrix(1.0669387,0,0,1.0687631,-113.01338,342.98323)"
       id="path14"
       inkscape:connector-curvature="0"
       sodipodi:nodetypes="csssccssscccsccscc" />
    <path
       d="m 425.9902,7.99 59.12928,0.02 c 8.24615,0.00279 8.33921,11.972894 0,11.98 L 426.4459,20.04 C 417.38175,20.0477 415.1,26.863239 415.1,32.00952 c 0,5.234508 2.37454,12.013956 11.3459,12.01048 L 478.06217,44 c 3.17788,-0.0012 3.15088,-5.962064 0,-5.97 L 438.358,37.93 c -8.54349,-0.02152 -8.42652,-11.913291 0,-11.92 l 37.68229,-0.03 c 8.4233,-0.0067 14.96732,3.963599 15.03684,14.529486 0.0779,11.836452 -6.11849,14.510503 -15.03684,14.510503 l -50.05009,0 c -15.04251,0 -21.74447,-8.691666 -21.74447,-23.010469 0,-13.260063 8.59493,-24.0239677 21.74447,-24.01952 z"
       id="path16"
       inkscape:connector-curvature="0"
       style="opacity:1;fill:#000000;fill-opacity:1"
       sodipodi:nodetypes="ssssssssssssssss" />
    <path
       d="m 216.32469,9 60.54859,-0.02 c 8.0362,-0.00265 15.81005,4.439826 16.06589,13.259158 C 293.28954,34.317237 286.22651,36.344494 282.9,38.34 l 8.18216,8.538921 c 5.48224,5.721268 -2.30766,13.143703 -8.05928,7.366834 C 271.40307,42.574912 267.46541,38.102631 259.93609,38.059788 l -38.88562,0 0,13.750053 c 0,5.973507 -11.05029,5.731304 -11.05029,0 l 0,-36.850298 c 0,-3.87425 2.17352,-5.9581719 6.32451,-5.959543 z m 4.72578,11.070368 0,6.870009 57.40349,0 c 5.19606,0 4.96692,-6.870009 0,-6.870009 z"
       id="path18"
       inkscape:connector-curvature="0"
       style="opacity:1;fill:#000000;fill-opacity:1"
       sodipodi:nodetypes="ssscssccssssccssc" />
    <path
       style="opacity:1;fill:#000000;fill-opacity:1"
       d="m 691.82031,-312.49023 c -6.97766,0 -15.85156,3.40451 -15.85156,13.02929 l 0,18.10742 c 0,9.62479 8.87391,13.0293 15.85156,13.0293 l 46.33594,0 c 6.97765,0 15.85145,-3.40451 15.85156,-13.0293 l 2.1e-4,-18.10742 c 1.1e-4,-9.62477 -8.87411,-13.02929 -15.85177,-13.02929 z m -1.5957,10.29296 49.52734,0 c 2.81893,0 3.94532,2.16115 3.94532,3.47657 l 0,16.62695 c 0,1.31541 -1.1264,3.47656 -3.94532,3.47656 l -49.52734,0 c -2.81892,0 -3.94531,-2.16115 -3.94531,-3.47656 l 0,-16.62695 c 0,-1.31541 1.12638,-3.47657 3.94531,-3.47657 z"
       transform="matrix(1.0669387,0,0,1.0687631,-113.01338,342.98323)"
       id="path20"
       inkscape:connector-curvature="0"
       sodipodi:nodetypes="cssccssccccssccssc" />
  </g>
  <g
     style="font-style:normal;font-variant:normal;font-weight:500;font-stretch:normal;font-size:27.09174156px;line-height:125%;font-family:OPTIBankGothic;-inkscape-font-specification:'OPTIBankGothic Medium';letter-spacing:6.4000001px;word-spacing:0px;fill:#000000;fill-opacity:1;stroke:none;stroke-width:1px;stroke-linecap:butt;stroke-linejoin:miter;stroke-opacity:1"
     id="text4243"
     transform="translate(-82.242026,554.45383)">
    <path
       d="m 105.9457,-188.54735 -11.405618,21.07738 3.521926,0 2.790442,-5.14743 12.57057,0 2.73627,5.14743 3.54902,0 -11.21598,-21.07738 -2.54663,0 z m -3.54902,12.94986 4.76815,-8.77773 4.68687,8.77773 -9.45502,0 z"
       id="path4248"
       inkscape:connector-curvature="0"
       style="fill:#000000;fill-opacity:1" />
    <path
       d="m 144.05188,-185.10669 0,5.17452 c 0,2.22152 1.76096,3.46774 3.98248,3.46774 l 12.65185,0 0,5.85182 -13.43751,0 0,-2.89882 -3.54902,1.0024 0,1.57132 c 0,2.22152 1.76097,3.46774 3.98249,3.46774 l 12.57057,0 c 2.19443,0 3.98248,-1.24622 3.98248,-3.46774 l 0,-5.2558 c 0,-2.19443 -1.89642,-3.38647 -4.06376,-3.38647 l -12.57057,0 0,-5.82472 13.11241,0 0,2.79045 3.52192,-1.0024 0,-1.49004 c 0,-2.19444 -1.78805,-3.44066 -3.98248,-3.44066 0,0 -10.8367,0 -12.21838,0 -2.22152,0 -3.98248,1.24622 -3.98248,3.44066 z"
       id="path4250"
       inkscape:connector-curvature="0"
       style="fill:#000000;fill-opacity:1" />
    <path
       d="m 200.39079,-185.4047 8.8319,0 0,-3.14265 -20.9961,0 0,3.14265 8.58809,0 0,17.93473 3.57611,0 0,-17.93473 z"
       id="path4252"
       inkscape:connector-curvature="0"
       style="fill:#000000;fill-opacity:1" />
    <path
       d="m 249.71293,-184.51068 0,4.57851 c 0,0.62311 -0.35219,0.89403 -1.11076,0.89403 l -11.86618,0 0,-6.36656 11.97455,0 c 0.75857,0 1.00239,0.29801 1.00239,0.89402 z m -3.52192,8.61518 3.08846,0 c 2.22152,0 3.98248,-1.24622 3.98248,-3.46775 l 0,-5.74344 c 0,-2.19444 -1.76096,-3.44066 -3.98248,-3.44066 l -16.06541,0 0,21.07738 3.52193,0 0,-8.42553 5.03906,0 8.39844,8.42553 4.52433,0 -8.50681,-8.42553 z"
       id="path4254"
       inkscape:connector-curvature="0"
       style="fill:#000000;fill-opacity:1" />
    <path
       d="m 278.68921,-185.10669 0,14.19607 c 0,2.22152 1.78806,3.44065 4.00958,3.44065 l 14.14189,0 c 2.22152,0 4.00958,-1.21913 4.00958,-3.44065 l 0,-14.19607 c 0,-2.19444 -1.78806,-3.44066 -4.00958,-3.44066 0,0 -12.7873,0 -14.14189,0 -2.22152,0 -4.00958,1.24622 -4.00958,3.44066 z m 3.57611,14.49408 0,-14.79209 15.00883,0 0,14.79209 -15.00883,0 z"
       id="path4256"
       inkscape:connector-curvature="0"
       style="fill:#000000;fill-opacity:1" />
    <path
       d="m 328.39067,-183.34573 14.95464,15.87576 3.57611,0 0,-21.07738 -3.57611,0 0,15.82158 -14.84627,-15.82158 -3.65739,0 0,21.07738 3.54902,0 0,-15.87576 z"
       id="path4258"
       inkscape:connector-curvature="0"
       style="fill:#000000;fill-opacity:1" />
    <path
       d="m 382.31841,-188.54735 -11.40562,21.07738 3.52193,0 2.79045,-5.14743 12.57056,0 2.73627,5.14743 3.54902,0 -11.21598,-21.07738 -2.54663,0 z m -3.54901,12.94986 4.76814,-8.77773 4.68687,8.77773 -9.45501,0 z"
       id="path4260"
       inkscape:connector-curvature="0"
       style="fill:#000000;fill-opacity:1" />
    <path
       d="m 423.64852,-188.54735 -3.57611,0 0,17.60964 c 0,2.22152 1.78805,3.46774 4.00958,3.46774 l 12.59766,0 c 2.22152,0 4.06376,-1.24622 4.06376,-3.46774 l 0,-17.60964 -3.6303,0 0,17.93474 -13.46459,0 0,-17.93474 z"
       id="path4262"
       inkscape:connector-curvature="0"
       style="fill:#000000;fill-opacity:1" />
    <path
       d="m 476.89897,-185.4047 8.8319,0 0,-3.14265 -20.9961,0 0,3.14265 8.58809,0 0,17.93473 3.57611,0 0,-17.93473 z"
       id="path4264"
       inkscape:connector-curvature="0"
       style="fill:#000000;fill-opacity:1" />
    <path
       d="m 509.72222,-188.54735 0,21.07738 3.57611,0 0,-21.07738 -3.57611,0 z"
       id="path4266"
       inkscape:connector-curvature="0"
       style="fill:#000000;fill-opacity:1" />
    <path
       d="m 553.97821,-180.47401 3.54902,-0.81275 0,-3.81993 c 0,-2.19444 -1.78805,-3.44066 -3.98248,-3.44066 l -12.27256,0 c -2.22152,0 -3.98249,1.24622 -3.98249,3.44066 l 0,14.19607 c 0,2.22152 1.76097,3.44065 3.98249,3.44065 l 12.27256,0 c 2.19443,0 3.98248,-1.21913 3.98248,-3.44065 l 0,-3.35938 -3.54902,-0.92112 0,4.57851 -13.13949,0 0,-14.79209 13.13949,0 0,4.93069 z"
       id="path4268"
       inkscape:connector-curvature="0"
       style="fill:#000000;fill-opacity:1" />
    <path
       d="m 581.87079,-185.10669 0,5.17452 c 0,2.22152 1.76096,3.46774 3.98248,3.46774 l 12.65185,0 0,5.85182 -13.43751,0 0,-2.89882 -3.54901,1.0024 0,1.57132 c 0,2.22152 1.76096,3.46774 3.98248,3.46774 l 12.57057,0 c 2.19443,0 3.98249,-1.24622 3.98249,-3.46774 l 0,-5.2558 c 0,-2.19443 -1.89643,-3.38647 -4.06376,-3.38647 l -12.57057,0 0,-5.82472 13.1124,0 0,2.79045 3.52193,-1.0024 0,-1.49004 c 0,-2.19444 -1.78806,-3.44066 -3.98249,-3.44066 0,0 -10.8367,0 -12.21838,0 -2.22152,0 -3.98248,1.24622 -3.98248,3.44066 z"
       id="path4270"
       inkscape:connector-curvature="0"
       style="fill:#000000;fill-opacity:1" />
  </g>
  <path
     style="opacity:1;fill:#000000;fill-opacity:1;stroke:none;stroke-width:6.5999999;stroke-miterlimit:4;stroke-dasharray:none;stroke-opacity:0.58928576"
     d="m 11.338685,349.03717 509.432805,0 0,5.83855 -509.432805,0 z"
     id="rect4272"
     inkscape:connector-curvature="0"
     sodipodi:nodetypes="ccccc" />
  <path
     inkscape:connector-curvature="0"
     style="opacity:1;fill:#000000;fill-opacity:1;stroke:none;stroke-width:6.5999999;stroke-miterlimit:4;stroke-dasharray:none;stroke-opacity:0.58928576"
     d="m 265.8422,49.724134 a 98.431464,98.431464 0 0 0 -98.43125,98.431256 98.431464,98.431464 0 0 0 98.43125,98.43282 98.431464,98.431464 0 0 0 98.43125,-98.43282 98.431464,98.431464 0 0 0 -98.43125,-98.431256 z m -7.17032,10.64687 a 83.65588,83.65588 0 0 1 83.65626,83.656266 83.65588,83.65588 0 0 1 -83.65626,83.65625 83.65588,83.65588 0 0 1 -83.65624,-83.65625 83.65588,83.65588 0 0 1 83.65624,-83.656266 z"
     id="path4275" />
  <path
     style="color:#000000;font-style:normal;font-variant:normal;font-weight:normal;font-stretch:normal;font-size:medium;line-height:normal;font-family:sans-serif;text-indent:0;text-align:start;text-decoration:none;text-decoration-line:none;text-decoration-style:solid;text-decoration-color:#000000;letter-spacing:normal;word-spacing:normal;text-transform:none;direction:ltr;block-progression:tb;writing-mode:lr-tb;baseline-shift:baseline;text-anchor:start;white-space:normal;clip-rule:nonzero;display:inline;overflow:visible;visibility:visible;opacity:1;isolation:auto;mix-blend-mode:normal;color-interpolation:sRGB;color-interpolation-filters:linearRGB;solid-color:#000000;solid-opacity:1;fill:#000000;fill-opacity:1;fill-rule:nonzero;stroke:none;stroke-width:2.59999967;stroke-linecap:butt;stroke-linejoin:miter;stroke-miterlimit:4;stroke-dasharray:none;stroke-dashoffset:0;stroke-opacity:1;color-rendering:auto;image-rendering:auto;shape-rendering:auto;text-rendering:auto;enable-background:accumulate"
     d="m 265.8422,81.018274 c -38.2641,0 -69.31055,31.046456 -69.31055,69.310556 0,38.2641 31.04645,69.31055 69.31055,69.31055 38.2641,0 69.31055,-31.04645 69.31055,-69.31055 0,-38.2641 -31.04645,-69.310556 -69.31055,-69.310556 z m 0,2.59961 c 36.85895,0 66.71094,29.851996 66.71094,66.710946 0,36.85895 -29.85199,66.71094 -66.71094,66.71094 -36.85895,0 -66.71094,-29.85199 -66.71094,-66.71094 0,-36.85895 29.85199,-66.710946 66.71094,-66.710946 z"
     id="path4293"
     inkscape:connector-curvature="0" />
  <path
     style="color:#000000;font-style:normal;font-variant:normal;font-weight:normal;font-stretch:normal;font-size:medium;line-height:normal;font-family:sans-serif;text-indent:0;text-align:start;text-decoration:none;text-decoration-line:none;text-decoration-style:solid;text-decoration-color:#000000;letter-spacing:normal;word-spacing:normal;text-transform:none;direction:ltr;block-progression:tb;writing-mode:lr-tb;baseline-shift:baseline;text-anchor:start;white-space:normal;clip-rule:nonzero;display:inline;overflow:visible;visibility:visible;opacity:1;isolation:auto;mix-blend-mode:normal;color-interpolation:sRGB;color-interpolation-filters:linearRGB;solid-color:#000000;solid-opacity:1;fill:#000000;fill-opacity:1;fill-rule:nonzero;stroke:none;stroke-width:2.59999943;stroke-linecap:butt;stroke-linejoin:miter;stroke-miterlimit:4;stroke-dasharray:none;stroke-dashoffset:0;stroke-opacity:1;color-rendering:auto;image-rendering:auto;shape-rendering:auto;text-rendering:auto;enable-background:accumulate"
     d="m 265.6254,64.721404 c -43.72431,0 -79.19726,35.472946 -79.19726,79.197266 0,43.72432 35.47295,79.19727 79.19726,79.19727 43.72431,0 79.19727,-35.47295 79.19727,-79.19727 0,-43.72432 -35.47296,-79.197266 -79.19727,-79.197266 z m 0,2.59961 c 42.31917,0 76.59766,34.278486 76.59766,76.597656 0,42.31917 -34.27849,76.59766 -76.59766,76.59766 -42.31916,0 -76.59765,-34.27849 -76.59765,-76.59766 0,-42.31917 34.27849,-76.597656 76.59765,-76.597656 z"
     id="path4293-1"
     inkscape:connector-curvature="0" />
  <path
     style="color:#000000;font-style:normal;font-variant:normal;font-weight:normal;font-stretch:normal;font-size:medium;line-height:normal;font-family:sans-serif;text-indent:0;text-align:start;text-decoration:none;text-decoration-line:none;text-decoration-style:solid;text-decoration-color:#000000;letter-spacing:normal;word-spacing:normal;text-transform:none;direction:ltr;block-progression:tb;writing-mode:lr-tb;baseline-shift:baseline;text-anchor:start;white-space:normal;clip-rule:nonzero;display:inline;overflow:visible;visibility:visible;opacity:1;isolation:auto;mix-blend-mode:normal;color-interpolation:sRGB;color-interpolation-filters:linearRGB;solid-color:#000000;solid-opacity:1;fill:#000000;fill-opacity:1;fill-rule:nonzero;stroke:none;stroke-width:2.59999919;stroke-linecap:butt;stroke-linejoin:miter;stroke-miterlimit:4;stroke-dasharray:none;stroke-dashoffset:0;stroke-opacity:1;color-rendering:auto;image-rendering:auto;shape-rendering:auto;text-rendering:auto;enable-background:accumulate"
     d="m 266.05509,11.338594 c -69.42119,0 -125.72656,56.30536 -125.72656,125.726566 0,69.42119 56.30537,125.72656 125.72656,125.72656 69.42119,0 125.72656,-56.30537 125.72656,-125.72656 0,-69.421206 -56.30537,-125.726566 -125.72656,-125.726566 z m 0,2.59961 c 68.01605,0 123.12695,55.1109 123.12695,123.126956 0,68.01605 -55.1109,123.125 -123.12695,123.125 -68.01605,0 -123.125,-55.10895 -123.125,-123.125 0,-68.016056 55.10895,-123.126966 123.125,-123.126956 z"
     id="path4293-1-6"
     inkscape:connector-curvature="0" />
  <path
     style="color:#000000;font-style:normal;font-variant:normal;font-weight:normal;font-stretch:normal;font-size:medium;line-height:normal;font-family:sans-serif;text-indent:0;text-align:start;text-decoration:none;text-decoration-line:none;text-decoration-style:solid;text-decoration-color:#000000;letter-spacing:normal;word-spacing:normal;text-transform:none;direction:ltr;block-progression:tb;writing-mode:lr-tb;baseline-shift:baseline;text-anchor:start;white-space:normal;clip-rule:nonzero;display:inline;overflow:visible;visibility:visible;opacity:1;isolation:auto;mix-blend-mode:normal;color-interpolation:sRGB;color-interpolation-filters:linearRGB;solid-color:#000000;solid-opacity:1;fill:#000000;fill-opacity:1;fill-rule:nonzero;stroke:none;stroke-width:2.59999919;stroke-linecap:butt;stroke-linejoin:miter;stroke-miterlimit:4;stroke-dasharray:none;stroke-dashoffset:0;stroke-opacity:1;color-rendering:auto;image-rendering:auto;shape-rendering:auto;text-rendering:auto;enable-background:accumulate"
     d="m 265.59415,38.994844 c -60.34157,0 -109.28515,48.94553 -109.28515,109.287106 0,60.34158 48.94358,109.28516 109.28515,109.28516 60.34158,0 109.28711,-48.94358 109.28711,-109.28516 0,-60.341576 -48.94553,-109.287106 -109.28711,-109.287106 z m 0,2.5996 c 58.93644,0 106.68555,47.75107 106.68555,106.687506 0,58.93644 -47.74911,106.68555 -106.68555,106.68555 -58.93643,0 -106.68554,-47.74911 -106.68554,-106.68555 0,-58.936436 47.74911,-106.687506 106.68554,-106.687506 z"
     id="path4293-1-6-3"
     inkscape:connector-curvature="0" />
</svg>
