<svg xmlns="http://www.w3.org/2000/svg" viewBox="0 0 640 600"><defs><style>.a{fill:#f16e27;}.b{fill:#fbdb1a;}</style></defs><title>Ascension Astro</title><path class="a" d="M320,73.94A133.33,133.33,0,1,0,453.33,207.27,133.33,133.33,0,0,0,320,73.94Zm0,261.51A128.18,128.18,0,1,1,448.17,207.27,128.17,128.17,0,0,1,320,335.45Z"/><path class="b" d="M320,79.1A128.18,128.18,0,1,0,448.17,207.27,128.17,128.17,0,0,0,320,79.1Zm0,251.82A123.65,123.65,0,1,1,443.65,207.27,123.65,123.65,0,0,1,320,330.92Z"/><path class="a" d="M320,83.62A123.65,123.65,0,1,0,443.65,207.27,123.65,123.65,0,0,0,320,83.62Zm0,222.86a99.21,99.21,0,1,1,99.21-99.21A99.21,99.21,0,0,1,320,306.48Z"/><path class="b" d="M320,108.06a99.21,99.21,0,1,0,99.21,99.21A99.21,99.21,0,0,0,320,108.06Zm66.77,162.06a91.42,91.42,0,0,1-37.67,24.13,90.94,90.94,0,0,1-23.33,4.53c-1.91.12-3.83.19-5.77.19q-3.31,0-6.56-.24a91.7,91.7,0,0,1,0-182.92c2.16-.15,4.35-.24,6.56-.24,1.94,0,3.86.07,5.77.19a91.69,91.69,0,0,1,61,154.36Z"/><path class="b" d="M275.77,218.64v69A92,92,0,0,0,290.1,294V218.64Z"/><path class="b" d="M229.23,218.64V195.3h23.21v-50a91.66,91.66,0,0,0,0,124V218.64Z"/><path class="b" d="M325.77,195.3V115.76c-1.91-.12-3.83-.19-5.77-.19-2.21,0-4.4.09-6.56.24V195.3Z"/><path class="b" d="M313.44,218.64v80.09q3.24.24,6.56.24c1.94,0,3.86-.07,5.77-.19V218.64Z"/><path class="b" d="M386.77,144.43V195.3h24v23.34h-24v51.48a91.68,91.68,0,0,0,0-125.69Z"/><path class="b" d="M349.1,218.64v75.61a91.93,91.93,0,0,0,14.34-6.2V218.64Z"/><polygon class="b" points="349.1 195.3 363.44 195.3 363.44 150.94 349.1 142.67 349.1 195.3"/><polygon class="b" points="275.77 195.3 290.1 195.3 290.1 142.64 275.77 150.92 275.77 195.3"/><path class="a" d="M410.77,218.64V195.3h-24V144.43a91.39,91.39,0,0,0-61-28.67V195.3H313.44V115.81a91.41,91.41,0,0,0-61,29.47v50H229.23v23.34h23.21v50.62a91.9,91.9,0,0,0,23.33,18.35v-69H290.1V294a91.13,91.13,0,0,0,23.34,4.75V218.64h12.33v80.14a90.94,90.94,0,0,0,23.33-4.53V218.64h14.34v69.41a92.46,92.46,0,0,0,23.33-17.93V218.64ZM290.1,195.3H275.77V150.92l14.33-8.28Zm73.34,0H349.1V142.67L363.44,151Z"/><path class="b" d="M140.94,526.06h-.31a.32.32,0,0,0,0-.15l0,.05-3.89-7.65H114.87L111,526v.1h-3.9c-.31,0-.46-.15-.46-.47v-.05a.29.29,0,0,1,.1-.21v.11l16.31-32.2a.42.42,0,0,1,.31-.11h5a.31.31,0,0,1,.18,0l.08.08,16.41,32.2v-.11a.54.54,0,0,1,.05.21v.05c0,.32-.14.47-.41.47ZM117.05,514.2h17.51l-8.68-17.27Z"/><path class="b" d="M240.51,524.19a7.85,7.85,0,0,1-3.25,1.43,22.52,22.52,0,0,1-4.75.44h-16.1c-3.26,0-5.78-.74-7.58-2.23a8.72,8.72,0,0,1-3.17-7.29c0-.31.14-.46.41-.46h3.28a.4.4,0,0,1,.46.46,6.92,6.92,0,0,0,.57,2.66,3.52,3.52,0,0,0,1.72,1.66,8.66,8.66,0,0,0,2.18.68,17.27,17.27,0,0,0,3.17.26h14.9a14.37,14.37,0,0,0,3-.26,6.78,6.78,0,0,0,2-.73,3.34,3.34,0,0,0,1.45-1.72,7.23,7.23,0,0,0,.42-2.6,4.27,4.27,0,0,0-2.86-4.32,10,10,0,0,0-3-.72,39.64,39.64,0,0,0-4.36-.21h-1.25c-.45,0-1,0-1.61.05H224.3l-.26,0-.36,0H223c-.73,0-1.37.05-1.93.05h-1.35q-6.64,0-9.92-1.56-4.41-2.07-4.41-7.7,0-9,10.13-9h16.41q11.12,0,11.11,9.52,0,.42-.36.42h-3.38a.37.37,0,0,1-.41-.42,6.92,6.92,0,0,0-.57-2.62,3.45,3.45,0,0,0-1.72-1.69,12.21,12.21,0,0,0-5.29-.89h-15.9a11.69,11.69,0,0,0-2.67.26,5.49,5.49,0,0,0-1.69.68c-1,.62-1.45,1.89-1.45,3.8a4.05,4.05,0,0,0,2.85,4,20.32,20.32,0,0,0,7.33,1h1.61c.72,0,1.59,0,2.59-.05l.34,0a2.42,2.42,0,0,1,.39,0h.67c.63,0,1.18-.06,1.67-.06h1.14a39,39,0,0,1,6.13.42,18,18,0,0,1,4.36,1.2c3.08,1.52,4.62,4.18,4.62,8Q243.31,521.86,240.51,524.19Z"/><path class="b" d="M322.57,497.45v28.14a.41.41,0,0,1-.47.47h-3.27c-.28,0-.41-.15-.41-.47V497.45H303.61a.46.46,0,0,1-.52-.52v-3.28a.47.47,0,0,1,.52-.52h33.82a.46.46,0,0,1,.51.52v3.28a.45.45,0,0,1-.51.52Z"/><path class="b" d="M430.19,526.06a.41.41,0,0,1-.47-.47q0-1.35.15-4.11c.07-.9.13-1.66.16-2.28s.05-1.11.05-1.46a11.3,11.3,0,0,0-.31-2.89,5.88,5.88,0,0,0-.83-1.9,4.38,4.38,0,0,0-2.16-1.27,12.61,12.61,0,0,0-3.4-.39H402.3v14.3a.41.41,0,0,1-.47.47H398.5c-.31,0-.46-.15-.46-.47V493.65c0-.34.15-.52.46-.52h23.06q11.07,0,11.07,8.8a11.34,11.34,0,0,1-.57,3.82,4.59,4.59,0,0,1-1.77,2.37,6.06,6.06,0,0,1,3,3.06,8,8,0,0,1,.65,2.29,20.21,20.21,0,0,1,.18,2.76v9.36c0,.32-.12.47-.36.47Zm-7.74-28.4H402.3v9.1h19.94q6.18,0,6.18-4.63Q428.42,497.66,422.45,497.66Z"/><path class="b" d="M533,516.65a14.17,14.17,0,0,1-1,4.05,8.53,8.53,0,0,1-2.07,2.68,8,8,0,0,1-3.07,1.64v.05a20.2,20.2,0,0,1-3.89.73,53.47,53.47,0,0,1-5.82.26h-5q-7.89,0-11-1.45a8.28,8.28,0,0,1-4.62-5.57,22,22,0,0,1-.6-4.21c-.12-1.81-.18-4-.18-6.71a50.1,50.1,0,0,1,.29-5.73,13,13,0,0,1,1-4,8.62,8.62,0,0,1,2.05-2.68,8.91,8.91,0,0,1,3.14-1.74h.06c1.93-.66,5.21-1,9.81-1h5q7.57,0,10.91,1.51a7.57,7.57,0,0,1,2.83,2.13,9.19,9.19,0,0,1,1.74,3.48,35.54,35.54,0,0,1,.52,4.17q.2,2.7.2,6.71A45,45,0,0,1,533,516.65Zm-3.84-8.53a42.93,42.93,0,0,0-.21-4.58,8.72,8.72,0,0,0-.78-3,4.09,4.09,0,0,0-3.27-2.7,37.67,37.67,0,0,0-7.84-.52h-5a38.45,38.45,0,0,0-7.89.52,4.47,4.47,0,0,0-3.38,2.7q-1,2.3-1,7.6V511c0,3.53.33,6.07,1,7.59a4.63,4.63,0,0,0,3.43,2.65,37.67,37.67,0,0,0,7.84.52h5a37.35,37.35,0,0,0,7.79-.52,4.24,4.24,0,0,0,3.32-2.65,8.66,8.66,0,0,0,.78-3,42.87,42.87,0,0,0,.21-4.57Z"/><path class="a" d="M116.22,364.64h25.2l12,112.63H134.83L133.18,454h-8.07l-1.81,23.31H107Zm16.14,74.3L131,421.37c-.66-8.61-.49-17.56-1.31-33.09l-.17-3.21h-2c-.32,5.74-.32,5.91-.65,25.83-.17,4.06-.33,7.6-.33,9.8l-.66,18.24Z"/><path class="a" d="M201.85,461.06c0,5.57-1.32,9.45-4.28,12.49-3.13,3.38-5.93,4.05-17.46,4.05-11.69,0-14.32-.67-17.78-4.22-3.13-3.37-4.12-6.08-4.12-12.49V431.34h18.61V456.5c0,3.88,1,5.74,3.13,5.74,2.47,0,3.29-1.35,3.29-5.57V435.39c0-6.42,0-6.42-3.79-8.78l-11.69-7.09c-7.74-4.73-9.55-7.94-9.55-17.06V383.38c0-10.3,1-13,5.44-16.21,3.12-2.36,6.09-2.87,15.47-2.87,12.19,0,15.81,1,19.44,5.23,2.63,3,3.29,6.25,3.29,13.17V404H183.24V385.41c0-4.06-1-5.91-3.29-5.91-2.14,0-3.13,1.68-3.13,5.57v16.38c0,3.54.33,4.39,2.63,5.91l15.32,9.79c5.43,3.55,7.08,6.59,7.08,14.19Z"/><path class="a" d="M253.23,460.55c0,13-5.11,17.05-21.57,17.05-11.86,0-16.8-1.52-19.93-6.24-2-2.87-2.47-5.75-2.47-14.19V384.9c0-9.63,1-13.34,4.61-16.72,3.29-3,6.59-3.88,17.29-3.88,11,0,14.49.67,17.79,3.88,3.12,3,4.28,6.92,4.28,14.36v21.27H234.62V385.24c0-4.56-.82-5.91-3.13-5.91-2.63,0-3.46,1.52-3.46,5.74v71.6c0,4.05.83,5.57,3.13,5.57,2.47,0,3.46-1.69,3.46-5.41V430.32h18.61Z"/><path class="a" d="M261.62,364.64h30.47V380H280.23v28.37h11.86v15H280.23v38.84h11.86v15H261.62Z"/><path class="a" d="M330,407.17V364.64h16.47V477.27h-19.6l-12-67.72c.83,14,1.65,32.59,1.65,39.52v28.2H299.83V364.64h19.43Z"/><path class="a" d="M398.3,461.06c0,5.57-1.32,9.45-4.28,12.49-3.13,3.38-5.93,4.05-17.46,4.05-11.69,0-14.32-.67-17.78-4.22-3.13-3.37-4.12-6.08-4.12-12.49V431.34h18.61V456.5c0,3.88,1,5.74,3.13,5.74,2.47,0,3.29-1.35,3.29-5.57V435.39c0-6.42,0-6.42-3.79-8.78l-11.69-7.09c-7.74-4.73-9.55-7.94-9.55-17.06V383.38c0-10.3,1-13,5.44-16.21,3.13-2.36,6.09-2.87,15.48-2.87,12.18,0,15.8,1,19.43,5.23,2.63,3,3.29,6.25,3.29,13.17V404H379.69V385.41c0-4.06-1-5.91-3.29-5.91-2.14,0-3.13,1.68-3.13,5.57v16.38c0,3.54.33,4.39,2.63,5.91l15.32,9.79c5.43,3.55,7.08,6.59,7.08,14.19Z"/><path class="a" d="M406.2,364.64H425V477.27H406.2Z"/><path class="a" d="M477.51,456.67c0,10.13-.83,13.34-4,16.54-3.29,3.38-6.91,4.39-16.3,4.39-11.69,0-15.31-.67-18.28-3-4.11-3.54-5.27-7.26-5.27-17.89V384.05c0-9.28,1.16-12.83,4.94-16,3.46-3,7.08-3.71,18.45-3.71,9.88,0,13.5,1,16.63,4.39,3,3.21,3.79,6.58,3.79,14Zm-25,0c0,3.88,1,5.57,3.29,5.57,2.14,0,3.29-1.86,3.29-5.57v-71.1c0-4.39-1-6.24-3.46-6.24-2.14,0-3.12,1.85-3.12,5.91Z"/><path class="a" d="M516.53,407.17V364.64H533V477.27H513.4l-12-67.72c.83,14,1.65,32.59,1.65,39.52v28.2H486.4V364.64h19.43Z"/></svg>