<svg xmlns="http://www.w3.org/2000/svg" viewBox="0 0 772.68 313.37"><defs><style>.a{fill:#b687c1;}.a,.b{stroke:#a575ae;stroke-miterlimit:10;}.b{fill:#ded7e0;}</style></defs><title>Associated Sciences &amp;amp; Development</title><path class="a" d="M387.21,31.36a8.42,8.42,0,0,0-6.08,3.12,28.35,28.35,0,0,0-4.69,7.7c-2.88,6.48-5.39,15.62-7.51,26.88a401.67,401.67,0,0,0-5.49,46.26c-4.72-2.12-9.23-3.92-13.43-5.33-7.24-2.43-13.58-3.77-18.72-3.82s-9.27,1.22-11.45,4.4-1.86,7.5,0,12.27,5.45,10.2,10.33,16.07a168.8,168.8,0,0,0,17.54,17.78,167.85,167.85,0,0,0-17.54,17.78c-4.88,5.87-8.42,11.29-10.33,16.06s-2.22,9.09,0,12.27,6.31,4.45,11.45,4.4,11.48-1.39,18.72-3.82c4.2-1.41,8.7-3.2,13.43-5.33a402.14,402.14,0,0,0,5.49,46.27c2.12,11.25,4.63,20.39,7.51,26.87a28.42,28.42,0,0,0,4.69,7.71,7.47,7.47,0,0,0,12.15,0,28.42,28.42,0,0,0,4.69-7.71c2.88-6.48,5.39-15.62,7.51-26.87A401.86,401.86,0,0,0,411,198.05c4.72,2.13,9.23,3.92,13.43,5.33,7.24,2.43,13.58,3.77,18.72,3.82s9.27-1.21,11.45-4.4,1.86-7.5,0-12.27-5.45-10.19-10.33-16.06a167.85,167.85,0,0,0-17.54-17.78,168.8,168.8,0,0,0,17.54-17.78c4.88-5.87,8.42-11.3,10.33-16.07s2.22-9.08,0-12.27-6.31-4.45-11.45-4.4-11.48,1.39-18.72,3.82c-4.2,1.41-8.7,3.21-13.43,5.33a401.67,401.67,0,0,0-5.49-46.26c-2.12-11.26-4.63-20.4-7.51-26.88a28.35,28.35,0,0,0-4.69-7.7A8.42,8.42,0,0,0,387.21,31.36Zm0,3.79c.92,0,2,.49,3.27,1.89a25.22,25.22,0,0,1,4,6.68c2.68,6,5.17,15,7.25,26A401.51,401.51,0,0,1,407.28,117c-6.4,3-13.15,6.69-20.08,10.86-6.92-4.17-13.67-7.81-20.07-10.86a403.65,403.65,0,0,1,5.53-47.27c2.08-11.09,4.57-20,7.25-26a25.22,25.22,0,0,1,4-6.68C385.22,35.64,386.29,35.15,387.21,35.15ZM331.26,109.2c4.63,0,10.74,1.29,17.78,3.66a144.21,144.21,0,0,1,14.19,5.69c-.51,8.41-.86,17.21-1,26.3-4.3,3.27-8.37,6.56-12.16,9.83A165.12,165.12,0,0,1,332.54,137c-4.76-5.71-8.13-11-9.85-15.25s-1.72-7.45-.36-9.44S326.63,109.15,331.26,109.2Zm111.89,0c4.63,0,7.56,1.09,8.93,3.08s1.36,5.14-.36,9.44-5.09,9.54-9.85,15.25a165.12,165.12,0,0,1-17.51,17.71c-3.79-3.27-7.86-6.56-12.16-9.83-.16-9.09-.51-17.89-1-26.3a145.2,145.2,0,0,1,14.19-5.69C432.42,110.49,438.52,109.24,443.15,109.2Zm-76.22,11.09c5.55,2.69,11.38,5.84,17.36,9.38q-5.35,3.32-10.77,7-3.82,2.63-7.45,5.28C366.23,134.52,366.52,127.27,366.93,120.29Zm40.55,0c.41,7,.7,14.23.86,21.68q-3.63-2.66-7.45-5.28-5.42-3.7-10.77-7C396.1,126.13,401.93,123,407.48,120.29ZM387.2,131.43q5.94,3.63,12,7.76c3.19,2.18,6.26,4.38,9.24,6.6q.09,5.39.09,10.9t-.09,10.89c-3,2.22-6.05,4.43-9.24,6.61q-6,4.13-12,7.75-5.93-3.63-12-7.75C372,172,369,169.8,366,167.59q-.09-5.4-.09-10.9t.09-10.9c3-2.22,6.05-4.43,9.24-6.6Q381.26,135.07,387.2,131.43Zm-25,17.27q-.06,4-.06,8t.06,8q-5.16-4-9.8-8Q357,152.7,362.16,148.7Zm50.09,0q5.16,4,9.8,8-4.64,4-9.8,8,.06-4,.06-8T412.25,148.7Zm-62.2,10c3.79,3.27,7.86,6.55,12.16,9.82.16,9.09.51,17.89,1,26.31A146.73,146.73,0,0,1,349,200.52c-7,2.36-13.15,3.61-17.78,3.66s-7.56-1.09-8.93-3.09-1.36-5.14.36-9.44,5.09-9.53,9.85-15.25A165.1,165.1,0,0,1,350.05,158.7Zm74.31,0a165.1,165.1,0,0,1,17.51,17.7c4.76,5.72,8.14,11,9.85,15.25s1.72,7.45.36,9.44-4.3,3.13-8.93,3.09-10.73-1.3-17.78-3.66a147.76,147.76,0,0,1-14.19-5.69c.51-8.42.86-17.22,1-26.31C416.5,165.25,420.57,162,424.36,158.7Zm-58.29,12.7c2.42,1.77,4.9,3.54,7.45,5.28q5.42,3.7,10.76,7c-6,3.55-11.8,6.69-17.35,9.38C366.52,186.11,366.23,178.85,366.07,171.4Zm42.27,0c-.16,7.45-.45,14.71-.86,21.68-5.55-2.69-11.38-5.83-17.36-9.38q5.36-3.31,10.77-7C403.44,174.94,405.92,173.17,408.34,171.4ZM387.2,185.49c6.93,4.17,13.68,7.8,20.08,10.85a401.45,401.45,0,0,1-5.53,47.28c-2.08,11.08-4.57,20-7.25,26a25.05,25.05,0,0,1-4,6.68c-1.29,1.41-2.35,1.89-3.27,1.89s-2-.48-3.28-1.89a25.05,25.05,0,0,1-4-6.68c-2.68-6-5.17-14.95-7.25-26a403.58,403.58,0,0,1-5.53-47.28C373.53,193.29,380.28,189.66,387.2,185.49Z"/><path class="b" d="M358.39,58.62a102.27,102.27,0,0,0-69.25,69.26H307a85.34,85.34,0,0,1,51.41-51.44Zm57.63,0V76.46a85.38,85.38,0,0,1,51.44,51.42h17.82A102.3,102.3,0,0,0,416,58.62ZM289.14,185.5a102.29,102.29,0,0,0,69.25,69.26V236.91A85.39,85.39,0,0,1,307,185.5Zm178.29,0A85.36,85.36,0,0,1,416,236.94v17.82a102.29,102.29,0,0,0,69.25-69.26Z"/><path class="b" d="M70.63,139.66h4.09l7.65,34.26h-4.9L76,166.56H69.34l-1.45,7.36H63Zm2.07,9.87h-.09L70.2,161.94h4.91Z"/><path class="b" d="M100.53,149.53h-4.9v-1.11a5.09,5.09,0,0,0-.82-2.89,2.88,2.88,0,0,0-2.65-1.25,3.31,3.31,0,0,0-1.68.39,3,3,0,0,0-1,1,3.93,3.93,0,0,0-.48,1.39,8.62,8.62,0,0,0-.15,1.64c0,.67,0,1.25,0,1.73a3.58,3.58,0,0,0,.38,1.21,3.16,3.16,0,0,0,.82.86,8.78,8.78,0,0,0,1.54.77l3.75,1.49A9,9,0,0,1,98,156.26a5.48,5.48,0,0,1,1.54,2,7.57,7.57,0,0,1,.77,2.59,25.22,25.22,0,0,1,.19,3.32,18,18,0,0,1-.43,4,8.6,8.6,0,0,1-1.44,3.17,6.72,6.72,0,0,1-2.6,2.07,9.39,9.39,0,0,1-4,.77,8.72,8.72,0,0,1-3.32-.63,8.16,8.16,0,0,1-2.64-1.68,8.64,8.64,0,0,1-1.78-2.6,8.18,8.18,0,0,1-.63-3.22v-1.83H88.6v1.54a4.19,4.19,0,0,0,.77,2.45,3.18,3.18,0,0,0,2.69,1.06A4.5,4.5,0,0,0,94,169a2.59,2.59,0,0,0,1.06-1,4.33,4.33,0,0,0,.48-1.64c.06-.64.1-1.35.1-2.12a21.69,21.69,0,0,0-.1-2.21,3.45,3.45,0,0,0-.43-1.4,2.32,2.32,0,0,0-.87-.86,8.69,8.69,0,0,0-1.44-.72l-3.52-1.45A7.94,7.94,0,0,1,85,154.15a12.32,12.32,0,0,1-1.06-5.39,12.6,12.6,0,0,1,.53-3.66,9,9,0,0,1,1.54-3,7.39,7.39,0,0,1,2.65-2,8.29,8.29,0,0,1,3.7-.77,7.94,7.94,0,0,1,3.32.67,7.85,7.85,0,0,1,2.6,1.78,7.73,7.73,0,0,1,1.69,2.5,7.11,7.11,0,0,1,.57,2.79v2.41Z"/><path class="b" d="M121.22,149.53h-4.91v-1.11a5.08,5.08,0,0,0-.81-2.89,2.88,2.88,0,0,0-2.65-1.25,3.29,3.29,0,0,0-1.68.39,3,3,0,0,0-1,1,4.14,4.14,0,0,0-.49,1.39,9.54,9.54,0,0,0-.14,1.64c0,.67,0,1.25,0,1.73a3.58,3.58,0,0,0,.38,1.21,3.16,3.16,0,0,0,.82.86,8.78,8.78,0,0,0,1.54.77l3.75,1.49a9.17,9.17,0,0,1,2.65,1.49,5.48,5.48,0,0,1,1.54,2,7.8,7.8,0,0,1,.77,2.59,25.22,25.22,0,0,1,.19,3.32,18,18,0,0,1-.43,4,8.6,8.6,0,0,1-1.44,3.17,6.72,6.72,0,0,1-2.6,2.07,9.39,9.39,0,0,1-4,.77,8.72,8.72,0,0,1-3.32-.63,8.16,8.16,0,0,1-2.64-1.68,8.64,8.64,0,0,1-1.78-2.6,8.18,8.18,0,0,1-.63-3.22v-1.83h4.91v1.54a4.19,4.19,0,0,0,.77,2.45,3.17,3.17,0,0,0,2.69,1.06,4.5,4.5,0,0,0,1.93-.33,2.59,2.59,0,0,0,1.06-1,4.33,4.33,0,0,0,.48-1.64c.06-.64.09-1.35.09-2.12a22.1,22.1,0,0,0-.09-2.21,3.3,3.3,0,0,0-.44-1.4,2.22,2.22,0,0,0-.86-.86,9.11,9.11,0,0,0-1.44-.72L110,157.56a7.94,7.94,0,0,1-4.28-3.41,12.32,12.32,0,0,1-1.06-5.39,12.6,12.6,0,0,1,.53-3.66,8.77,8.77,0,0,1,1.54-3,7.39,7.39,0,0,1,2.65-2,8.29,8.29,0,0,1,3.7-.77,8.2,8.2,0,0,1,5.92,2.45,7.55,7.55,0,0,1,1.68,2.5,6.94,6.94,0,0,1,.58,2.79Z"/><path class="b" d="M130.86,165.84a3.36,3.36,0,0,0,1,2.64,3.61,3.61,0,0,0,2.36.82,3.44,3.44,0,0,0,2.31-.82,3.28,3.28,0,0,0,1-2.64V147.75a3.16,3.16,0,0,0-1-2.6,3.34,3.34,0,0,0-2.31-.87,3.5,3.5,0,0,0-2.36.87,3.24,3.24,0,0,0-1,2.6ZM126,147.75a8.79,8.79,0,0,1,.72-3.66,7.58,7.58,0,0,1,1.88-2.6,8.32,8.32,0,0,1,2.64-1.58,8.74,8.74,0,0,1,3-.53,8.29,8.29,0,0,1,2.93.53,7.66,7.66,0,0,1,2.65,1.58,7.29,7.29,0,0,1,1.92,2.6,8.79,8.79,0,0,1,.72,3.66v18.09a8.88,8.88,0,0,1-.72,3.7,7.76,7.76,0,0,1-1.92,2.6,8.06,8.06,0,0,1-2.65,1.54,8.51,8.51,0,0,1-2.93.53,9,9,0,0,1-3-.53,8.79,8.79,0,0,1-2.64-1.54,8.09,8.09,0,0,1-1.88-2.6,8.88,8.88,0,0,1-.72-3.7Z"/><path class="b" d="M164.07,166.27a7.64,7.64,0,0,1-.62,3,8,8,0,0,1-1.64,2.55,8.52,8.52,0,0,1-2.5,1.73,7.28,7.28,0,0,1-3,.63,11.27,11.27,0,0,1-2.84-.38,7.15,7.15,0,0,1-2.6-1.3,7.68,7.68,0,0,1-1.92-2.51,9,9,0,0,1-.73-3.89V147.27a8.42,8.42,0,0,1,.58-3.13,7.35,7.35,0,0,1,4.14-4.14,8.29,8.29,0,0,1,3.27-.62,7.74,7.74,0,0,1,3.13.62,7.44,7.44,0,0,1,4.14,4.28,8.55,8.55,0,0,1,.62,3.28v1.92h-4.91v-1.64a4,4,0,0,0-.81-2.5,2.68,2.68,0,0,0-2.22-1.06,2.53,2.53,0,0,0-2.45,1.16,6.05,6.05,0,0,0-.58,2.84v17.51a4.64,4.64,0,0,0,.63,2.5,2.6,2.6,0,0,0,2.35,1,4,4,0,0,0,1-.14,2.86,2.86,0,0,0,1-.58,2.77,2.77,0,0,0,.77-1.06,4.34,4.34,0,0,0,.28-1.68v-1.69h4.91Z"/><path class="b" d="M169.21,139.66h4.91v34.26h-4.91Z"/><path class="b" d="M184.5,139.66h4.09l7.65,34.26h-4.91l-1.44-7.36H183.2l-1.44,7.36h-4.91Zm2.07,9.87h-.1l-2.41,12.41H189Z"/><path class="b" d="M201.43,144.28h-5.67v-4.62H212v4.62h-5.68v29.64h-4.91Z"/><path class="b" d="M215.63,139.66h14.62v4.62h-9.71v10.06H229V159h-8.46v10h9.71v4.91H215.63Z"/><path class="b" d="M239.12,169.3h2.26a3.68,3.68,0,0,0,2.94-1,5.08,5.08,0,0,0,.86-3.27v-16.5a5.23,5.23,0,0,0-.81-3.13,3.5,3.5,0,0,0-3-1.11h-2.26Zm-4.91-29.64h7.27a8.37,8.37,0,0,1,6.4,2.36,9,9,0,0,1,2.21,6.5v16c0,3.21-.78,5.58-2.36,7.12s-3.76,2.26-6.68,2.26h-6.84Z"/><path class="b" d="M283.22,149.53h-4.91v-1.11a5,5,0,0,0-.82-2.89,2.85,2.85,0,0,0-2.64-1.25,3.33,3.33,0,0,0-1.69.39,3.14,3.14,0,0,0-1,1,4.37,4.37,0,0,0-.48,1.39,9.54,9.54,0,0,0-.14,1.64c0,.67,0,1.25.05,1.73a3.58,3.58,0,0,0,.38,1.21,3,3,0,0,0,.82.86,8.43,8.43,0,0,0,1.54.77l3.75,1.49a9.31,9.31,0,0,1,2.65,1.49,5.59,5.59,0,0,1,1.54,2,7.8,7.8,0,0,1,.77,2.59,27.07,27.07,0,0,1,.19,3.32,18.56,18.56,0,0,1-.43,4,8.46,8.46,0,0,1-1.45,3.17,6.65,6.65,0,0,1-2.6,2.07,9.37,9.37,0,0,1-4,.77,8.68,8.68,0,0,1-3.32-.63,8.1,8.1,0,0,1-2.65-1.68,8.83,8.83,0,0,1-1.78-2.6,8.36,8.36,0,0,1-.62-3.22v-1.83h4.91v1.54a4.12,4.12,0,0,0,.77,2.45,3.17,3.17,0,0,0,2.69,1.06,4.53,4.53,0,0,0,1.93-.33,2.5,2.5,0,0,0,1.05-1,4,4,0,0,0,.48-1.64,19.72,19.72,0,0,0,.1-2.12,19.12,19.12,0,0,0-.1-2.21,3.17,3.17,0,0,0-.43-1.4,2.22,2.22,0,0,0-.86-.86,9.28,9.28,0,0,0-1.45-.72L272,157.56a7.91,7.91,0,0,1-4.28-3.41,12.18,12.18,0,0,1-1.06-5.39,12.6,12.6,0,0,1,.53-3.66,8.77,8.77,0,0,1,1.54-3,7.36,7.36,0,0,1,2.64-2,8.34,8.34,0,0,1,3.71-.77,8.2,8.2,0,0,1,5.92,2.45,7.55,7.55,0,0,1,1.68,2.5,6.94,6.94,0,0,1,.58,2.79v2.41Z"/><path class="b" d="M303.52,166.27a7.48,7.48,0,0,1-.63,3,7.8,7.8,0,0,1-1.64,2.55,8.27,8.27,0,0,1-2.5,1.73,7.28,7.28,0,0,1-3,.63,11.33,11.33,0,0,1-2.84-.38,7,7,0,0,1-2.59-1.3,7.71,7.71,0,0,1-1.93-2.51,9.16,9.16,0,0,1-.72-3.89V147.27a8.22,8.22,0,0,1,.58-3.13,7.32,7.32,0,0,1,1.63-2.5,7.44,7.44,0,0,1,2.5-1.64,8.37,8.37,0,0,1,3.28-.62,7.69,7.69,0,0,1,3.12.62,7,7,0,0,1,2.5,1.69,7,7,0,0,1,1.64,2.59,8.37,8.37,0,0,1,.63,3.28v1.92h-4.91v-1.64a4,4,0,0,0-.82-2.5,2.65,2.65,0,0,0-2.21-1.06,2.55,2.55,0,0,0-2.46,1.16,6.18,6.18,0,0,0-.57,2.84v17.51a4.64,4.64,0,0,0,.62,2.5,2.62,2.62,0,0,0,2.36,1,4.09,4.09,0,0,0,1-.14,2.9,2.9,0,0,0,1-.58,2.67,2.67,0,0,0,.77-1.06,4.33,4.33,0,0,0,.29-1.68v-1.69h4.91Z"/><path class="b" d="M308.45,139.66h4.91v34.26h-4.91Z"/><path class="b" d="M318.92,139.66h14.62v4.62h-9.72v10.06h8.47V159h-8.47v10h9.72v4.91H318.92Z"/><path class="b" d="M338.13,139.66h4.72l7.41,20.65h.09V139.66h4.91v34.26h-4.62l-7.5-20.59H343v20.59h-4.91Z"/><path class="b" d="M377,166.27a7.47,7.47,0,0,1-.62,3,8,8,0,0,1-1.64,2.55,8.4,8.4,0,0,1-2.5,1.73,7.28,7.28,0,0,1-3,.63,11.27,11.27,0,0,1-2.84-.38,7.15,7.15,0,0,1-2.6-1.3,7.68,7.68,0,0,1-1.92-2.51,9.16,9.16,0,0,1-.72-3.89V147.27a8.42,8.42,0,0,1,.57-3.13,7.34,7.34,0,0,1,1.64-2.5,7.44,7.44,0,0,1,2.5-1.64,8.36,8.36,0,0,1,3.27-.62,7.71,7.71,0,0,1,3.13.62,7.05,7.05,0,0,1,2.5,1.69,7.17,7.17,0,0,1,1.64,2.59,8.37,8.37,0,0,1,.62,3.28v1.92h-4.9v-1.64a4,4,0,0,0-.82-2.5,2.67,2.67,0,0,0-2.21-1.06,2.55,2.55,0,0,0-2.46,1.16,6.18,6.18,0,0,0-.58,2.84v17.51a4.64,4.64,0,0,0,.63,2.5,2.62,2.62,0,0,0,2.36,1,4.09,4.09,0,0,0,1-.14,2.9,2.9,0,0,0,1-.58,2.67,2.67,0,0,0,.77-1.06,4.33,4.33,0,0,0,.29-1.68v-1.69H377Z"/><path class="b" d="M382,139.66h14.63v4.62H386.9v10.06h8.47V159H386.9v10h9.72v4.91H382Z"/><path class="b" d="M416.29,139.66h4.09L428,173.92h-4.91l-1.44-7.36H415l-1.44,7.36h-4.91Zm2.07,9.87h-.1l-2.4,12.41h4.91Z"/><path class="b" d="M432.17,139.66h4.72l7.41,20.65h.09V139.66h4.91v34.26h-4.62l-7.5-20.59h-.1v20.59h-4.91Z"/><path class="b" d="M460.15,169.3h2.26a3.65,3.65,0,0,0,2.93-1,5.07,5.07,0,0,0,.87-3.27v-16.5a5.16,5.16,0,0,0-.82-3.13,3.48,3.48,0,0,0-3-1.11h-2.26Zm-4.91-29.64h7.27A8.33,8.33,0,0,1,468.9,142a9,9,0,0,1,2.22,6.5v16q0,4.82-2.36,7.12t-6.69,2.26h-6.83Z"/><path class="b" d="M492.56,169.3h2.26a3.65,3.65,0,0,0,2.93-1,5.07,5.07,0,0,0,.87-3.27v-16.5a5.16,5.16,0,0,0-.82-3.13,3.48,3.48,0,0,0-3-1.11h-2.26Zm-4.91-29.64h7.26a8.36,8.36,0,0,1,6.4,2.36,9,9,0,0,1,2.22,6.5v16q0,4.82-2.36,7.12t-6.69,2.26h-6.83Z"/><path class="b" d="M508.76,139.66h14.62v4.62h-9.72v10.06h8.47V159h-8.47v10h9.72v4.91H508.76Z"/><path class="b" d="M536.76,173.92h-4.33l-7-34.26h5.2l3.9,23.92h.09l4-23.92h5.19Z"/><path class="b" d="M546.59,139.66h14.63v4.62H551.5v10.06H560V159H551.5v10h9.72v4.91H546.59Z"/><path class="b" d="M565.49,139.66h4.91V169h9.72v4.91H565.49Z"/><path class="b" d="M587.46,165.84a3.33,3.33,0,0,0,1,2.64,3.6,3.6,0,0,0,2.35.82,3.42,3.42,0,0,0,2.31-.82,3.25,3.25,0,0,0,1-2.64V147.75a3.13,3.13,0,0,0-1-2.6,3.32,3.32,0,0,0-2.31-.87,3.49,3.49,0,0,0-2.35.87,3.21,3.21,0,0,0-1,2.6Zm-4.9-18.09a8.79,8.79,0,0,1,.72-3.66,7.55,7.55,0,0,1,1.87-2.6,8.48,8.48,0,0,1,2.65-1.58,8.68,8.68,0,0,1,3-.53,8.3,8.3,0,0,1,2.94.53,7.71,7.71,0,0,1,2.64,1.58,7.2,7.2,0,0,1,1.93,2.6,8.79,8.79,0,0,1,.72,3.66v18.09a8.88,8.88,0,0,1-.72,3.7,7.66,7.66,0,0,1-1.93,2.6,8.11,8.11,0,0,1-2.64,1.54,8.53,8.53,0,0,1-2.94.53,8.74,8.74,0,0,1-5.63-2.07,8.06,8.06,0,0,1-1.87-2.6,8.88,8.88,0,0,1-.72-3.7Z"/><path class="b" d="M609.69,155.93h2.36a5,5,0,0,0,2.31-.44,2.78,2.78,0,0,0,1.2-1.15,4.57,4.57,0,0,0,.43-1.83c.07-.7.1-1.49.1-2.36s0-1.55-.1-2.26a4.64,4.64,0,0,0-.43-1.87,2.53,2.53,0,0,0-1.11-1.26,4.19,4.19,0,0,0-2.21-.48h-2.55Zm-4.91-16.27h7.36a11,11,0,0,1,3.56.53,6.84,6.84,0,0,1,2.79,1.88,7.4,7.4,0,0,1,1.74,3.18,19.38,19.38,0,0,1,.48,4.86,23,23,0,0,1-.29,3.89,7.81,7.81,0,0,1-1.11,3,7.32,7.32,0,0,1-2.69,2.64,9.29,9.29,0,0,1-4.43.92h-2.5v13.37h-4.91Z"/><path class="b" d="M625.47,139.66h4.71l6.31,18.14h.09l6.26-18.14h4.76v34.26h-4.91V153.09h-.09l-4.86,14.72h-2.46l-4.81-14.72h-.09v20.83h-4.91Z"/><path class="b" d="M653.29,139.66h14.63v4.62H658.2v10.06h8.47V159H658.2v10h9.72v4.91H653.29Z"/><path class="b" d="M672.51,139.66h4.71l7.41,20.65h.1V139.66h4.91v34.26H685l-7.51-20.59h-.1v20.59h-4.9Z"/><path class="b" d="M699.11,144.28h-5.68v-4.62h16.26v4.62H704v29.64h-4.9Z"/></svg>