<svg xmlns="http://www.w3.org/2000/svg" viewBox="0 0 640 600"><defs><style>.a{fill:#1d346b;}.b{fill:#fff;}.c{fill:#d2202f;}</style></defs><title>City Lights</title><rect class="a" x="90.81" y="70.81" width="458.38" height="458.38"/><path class="b" d="M341.52,231.86v15.29c0,18.41-9.14,28.93-26.77,28.93S288,265.56,288,247.15V187.3c0-18.41,9.14-28.93,26.77-28.93s26.77,10.52,26.77,28.93v11.18h-17V186.15c0-8.22-3.59-11.34-9.31-11.34s-9.3,3.12-9.3,11.34V248.3c0,8.22,3.59,11.18,9.3,11.18s9.31-3,9.31-11.18V231.86Z"/><path class="b" d="M353.74,159.68h17.95V274.77H353.74Z"/><path class="b" d="M381.59,159.68h55.5v16.44H418.32v98.65h-18V176.12H381.59Z"/><path class="b" d="M461.44,225.75l-22.69-66.07h18.77l13.55,37.09h.33L485,159.68h17.14L479.4,225.75v49h-18Z"/><path class="b" d="M288.71,285.74H300.4V349.5h19.24v10.62H288.71Z"/><path class="b" d="M325,285.74h11.68v74.34H325Z"/><path class="b" d="M398.6,360.12H387.54V284.9H398.6v32.24h12.57V284.9h11.25v75.22H411.17V327.88H398.6Z"/><path class="b" d="M426.76,284.9H463.3v10.75H450.94v64.47H439.12V295.65H426.76Z"/><path class="b" d="M485,284.9c11.24,0,17,6.72,17,18.48v4.81H491.06v-5.54c0-5.25-2.1-7.25-5.77-7.25s-5.78,2-5.78,7.25,2.31,9.34,9.87,16c9.67,8.5,12.71,14.59,12.71,23,0,11.76-5.88,18.48-17.22,18.48s-17.22-6.72-17.22-18.48v-6.91h10.92v7.65c0,5.25,2.31,7.14,6,7.14s6-1.89,6-7.14-2.31-9.35-9.87-16c-9.66-8.51-12.71-14.6-12.71-23C468,291.62,473.74,284.9,485,284.9Z"/><path class="b" d="M379.55,356.36V318.31H362.64v10.51h5.49v13.55c.07,3.72-4.37,7-6.26,7.14-3.83.22-6.25-1.89-6.25-7.14V302.66c0-5.26,2.41-7.25,6.25-7.25s6.26,2,6.26,7.25v7.88h11.42v-7.15c0-11.77-6.15-18.49-18-18.49s-18,6.72-18,18.49v38.24c0,11.77,5,18.45,13.38,18.45,2.39,0,6.87-1.22,11.21-3.54v3.54h12.75v-3.72Z"/><rect class="b" x="287.98" y="97.7" width="214.11" height="42.88"/><polygon class="b" points="502.09 459.42 180.79 459.42 180.79 97.7 137.91 97.7 137.91 502.3 180.79 502.3 180.79 502.3 502.09 502.3 502.09 459.42"/><polygon class="c" points="257.19 384.58 257.19 97.7 214.31 97.7 214.31 384.58 214.31 427.46 257.19 427.46 502.09 427.46 502.09 384.58 257.19 384.58"/></svg>