<svg xmlns="http://www.w3.org/2000/svg" viewBox="0 0 800 600"><title>CDS</title><path d="M275,162.46c.73,84,17.43,136.75,41.27,173.3,23.3,35.73,53.66,56.75,83.72,76.83,30.06-20.08,60.42-41.11,83.72-76.83,23.84-36.56,40.54-89.33,41.27-173.3A491.78,491.78,0,0,1,400,91.68,491.78,491.78,0,0,1,275,162.46Z" style="fill:#852819"/><path d="M535.42,149.74c-45.7-17.31-89.54-40.84-130.8-73.87a7.19,7.19,0,0,0-9.25,0c-41.26,33-85.09,56.56-130.8,73.87a7.9,7.9,0,0,0-5,7.53c0,89.47,17.89,147,44.23,187.38s60.64,63.07,92,84a7.34,7.34,0,0,0,8.3,0c31.38-20.93,65.68-43.61,92-84s44.23-97.91,44.23-187.38A7.9,7.9,0,0,0,535.42,149.74Zm-51.7,186c-23.3,35.73-53.66,56.75-83.72,76.83-30.06-20.08-60.42-41.11-83.72-76.83-23.84-36.56-40.54-89.33-41.27-173.3A491.78,491.78,0,0,0,400,91.68a491.78,491.78,0,0,0,125,70.78C524.26,246.43,507.56,299.2,483.72,335.76Z" style="fill:#f4b717"/><polygon points="400 122.84 405.75 134.48 418.6 136.35 409.3 145.41 411.5 158.22 400 152.17 388.5 158.22 390.7 145.41 381.4 136.35 394.25 134.48 400 122.84" style="fill:#f4b717"/><path d="M115.35,459H93.88v21.67h21.47v-7.35l8,1.65v4q0,4.7-1.77,6.4t-6.72,1.7H94.4q-5,0-6.74-1.7T85.91,479V461q0-4.66,1.75-6.38t6.74-1.72h20.44q5,0,6.72,1.72t1.77,6.38v3.24l-8,1.26Z" style="fill:#852819"/><path d="M139.74,487.11V452.88h8v27.79h25.68v6.45Z" style="fill:#852819"/><path d="M177.34,487.11l19.37-34.23h7.68L224,487.11h-8.94L211,479.63h-21.7l-4,7.48Zm15.32-13.67h15l-7.38-13.93Z" style="fill:#852819"/><path d="M235,487.11V452.88h29.28q4.08,0,5.91,1.57t1.83,5.07v8q0,3.47-1.83,5.05t-5.91,1.59h-4.47l15.81,12.92H264.21l-13.8-12.92h-7.55v12.92Zm25.75-28.31H242.87v9.52h17.91a4.79,4.79,0,0,0,2.83-.6,2.55,2.55,0,0,0,.76-2.12v-4.11a2.51,2.51,0,0,0-.76-2.09A4.79,4.79,0,0,0,260.78,458.8Z" style="fill:#852819"/><path d="M288.21,487.11V452.88h8v14.28l19-14.28h11.53L304.08,469l25.46,18.11H316.74l-20.5-15.06v15.06Z" style="fill:#852819"/><path d="M366.56,487.11V452.88h22q9.43,0,14.49,4.4t5.07,12.5a18.57,18.57,0,0,1-2,8.63,15,15,0,0,1-5.57,6,16.2,16.2,0,0,1-5.56,2,47.09,47.09,0,0,1-8.5.63Zm8-6.45h10.3q8.23,0,11.66-2.56t3.43-8.45q0-5.25-2.85-8t-8.42-2.7H374.53Z" style="fill:#852819"/><path d="M422.75,487.11V452.88h35v5.83H430.72v7.64h15.81v5.83H430.72v8.49h27.4v6.45Z" style="fill:#852819"/><path d="M472.83,487.11V452.88h34.62v6H480.79v9h14.41v6.25H480.79v13Z" style="fill:#852819"/><path d="M517.33,487.11V452.88h35v5.83H525.3v7.64H541.1v5.83H525.3v8.49h27.4v6.45Z" style="fill:#852819"/><path d="M567.34,487.11V452.88h5.44l24.1,20.18q1.23,1,2.17,1.9a20.5,20.5,0,0,1,1.72,1.83q-.19-2.88-.26-4.08t-.06-1.85v-18h7.16v34.23h-5.44L577,466q-.91-.81-1.59-1.46a18.12,18.12,0,0,1-1.26-1.33q.16,1.59.24,3c.05.94.08,1.76.08,2.45v18.49Z" style="fill:#852819"/><path d="M654.72,458.87H632.31v7.35h21.34q5,0,6.79,1.72t1.76,6.38V479q0,4.66-1.76,6.38t-6.79,1.72H632.5q-5,0-6.78-1.72T624,479v-.94l7-1.46v4h24.19v-7.81H633.83q-5,0-6.74-1.72t-1.75-6.38V461q0-4.66,1.75-6.38t6.74-1.72h19.43q4.83,0,6.66,1.65t1.83,5.86v.71l-7,1.65Z" style="fill:#852819"/><path d="M678.72,487.11V452.88h35v5.83H686.69v7.64H702.5v5.83H686.69v8.49h27.4v6.45Z" style="fill:#852819"/><path d="M206.05,510.74h-12v3.92h11.38q2.68,0,3.62.92T210,519v2.5q0,2.49-.94,3.4t-3.62.92H194.2q-2.68,0-3.62-.92t-.94-3.4V521l3.75-.78v2.16h12.9v-4.16H194.91q-2.66,0-3.59-.92t-.93-3.4v-2q0-2.49.93-3.4t3.59-.92h10.36a5.38,5.38,0,0,1,3.55.88,4.09,4.09,0,0,1,1,3.13v.38l-3.75.88Z" style="fill:#f4b717"/><path d="M263.57,525.81v-8.17l-9.48-10.09h5.67l6.27,7,6.29-7h5l-9.45,10v8.27Z" style="fill:#f4b717"/><path d="M337.69,510.74h-12v3.92h11.38q2.68,0,3.62.92t.94,3.4v2.5q0,2.49-.94,3.4t-3.62.92H325.84q-2.68,0-3.62-.92t-.94-3.4V521l3.75-.78v2.16h12.9v-4.16H326.55q-2.66,0-3.59-.92t-.93-3.4v-2q0-2.49.93-3.4t3.59-.92h10.36a5.38,5.38,0,0,1,3.55.88,4.09,4.09,0,0,1,1,3.13v.38l-3.75.88Z" style="fill:#f4b717"/><path d="M398.61,510.81v15h-4.25v-15H386v-3.26h21v3.26Z" style="fill:#f4b717"/><path d="M451.84,525.81V507.55h18.69v3.11H456.09v4.08h8.43v3.11h-8.43v4.53h14.61v3.44Z" style="fill:#f4b717"/><path d="M518.14,525.81V507.55h3.44l8.6,11,8.41-11H542v18.26h-3.94V514.53c0-.22,0-.49,0-.83s.07-.71.11-1.12q-.35.71-.6,1.17t-.47.75l-6.86,9.12h-.85l-6.88-9.16q-.38-.52-.65-1a6.52,6.52,0,0,1-.44-.89q.05.57.08,1c0,.31,0,.61,0,.9v11.28Z" style="fill:#f4b717"/><path d="M606.37,510.74h-12v3.92H605.8q2.68,0,3.62.92t.94,3.4v2.5q0,2.49-.94,3.4t-3.62.92H594.52q-2.68,0-3.62-.92t-.94-3.4V521l3.75-.78v2.16h12.9v-4.16H595.23q-2.66,0-3.59-.92t-.93-3.4v-2q0-2.49.93-3.4t3.59-.92h10.36a5.38,5.38,0,0,1,3.55.88,4.09,4.09,0,0,1,1,3.13v.38l-3.75.88Z" style="fill:#f4b717"/><path d="M347.94,185.65H313.58v34.67h34.36V208.55l12.75,2.64v6.48q0,7.51-2.82,10.23t-10.75,2.72h-32.7q-8,0-10.78-2.72t-2.8-10.23V188.81q0-7.46,2.8-10.21t10.78-2.75h32.7q7.93,0,10.75,2.75t2.82,10.21V194l-12.75,2Z" style="fill:#f4b717"/><path d="M368.39,230.63V175.85h35.24q15.08,0,23.19,7t8.11,20a29.73,29.73,0,0,1-3.16,13.81,24,24,0,0,1-8.91,9.66,25.85,25.85,0,0,1-8.89,3.24,75,75,0,0,1-13.6,1Zm12.75-10.31h16.48q13.16,0,18.66-4.09t5.49-13.53q0-8.4-4.56-12.72t-13.47-4.33H381.14Z" style="fill:#f4b717"/><path d="M487.2,185.44H451.34V197.2h34.15q8,0,10.86,2.75t2.82,10.21v7.51q0,7.46-2.82,10.21t-10.86,2.75H451.65q-8,0-10.86-2.75T438,217.67v-1.5l11.25-2.33v6.48h38.71V207.83H453.77q-8,0-10.78-2.75t-2.8-10.21v-6.06q0-7.46,2.8-10.21t10.78-2.75h31.09q7.72,0,10.65,2.64t2.93,9.38V189l-11.25,2.64Z" style="fill:#f4b717"/><path d="M400,99.12A464.67,464.67,0,0,1,281.9,166c.45,52.23,7.45,91.69,18.6,122.41V246.66h39.8V354.54c12.39,13.37,25.93,24.25,39.8,34.16v-142h39.8v142c13.87-9.91,27.41-20.79,39.8-34.16V246.66h39.8V288.4c11.15-30.72,18.15-70.17,18.6-122.41A464.68,464.68,0,0,1,400,99.12Z" style="fill:none"/><path d="M300.5,246.66v41.75a200.09,200.09,0,0,0,20.39,41.34,185.13,185.13,0,0,0,19.41,24.79V246.66Z" style="fill:#f4b717"/><path d="M380.1,246.66v142c6.59,4.71,13.25,9.2,19.9,13.65,6.65-4.44,13.31-8.94,19.9-13.65v-142Z" style="fill:#f4b717"/><path d="M459.7,246.66V354.54a185.14,185.14,0,0,0,19.41-24.79A200.09,200.09,0,0,0,499.5,288.4V246.66Z" style="fill:#f4b717"/></svg>