<?xml version="1.0" encoding="UTF-8" standalone="no"?>
<!-- Created with Inkscape (http://www.inkscape.org/) -->

<svg
   xmlns:dc="http://purl.org/dc/elements/1.1/"
   xmlns:cc="http://creativecommons.org/ns#"
   xmlns:rdf="http://www.w3.org/1999/02/22-rdf-syntax-ns#"
   xmlns:svg="http://www.w3.org/2000/svg"
   xmlns="http://www.w3.org/2000/svg"
   xmlns:sodipodi="http://sodipodi.sourceforge.net/DTD/sodipodi-0.dtd"
   xmlns:inkscape="http://www.inkscape.org/namespaces/inkscape"
   id="svg2"
   version="1.1"
   inkscape:version="0.91 r13725"
   width="53.190586mm"
   height="30.105183mm"
   viewBox="0 0 188.47058 106.67191"
   sodipodi:docname="Consolidated Outland Logo.svg">
  <title
     id="title4222">Consolidated Outland Logo</title>
  <metadata
     id="metadata8">
    <rdf:RDF>
      <cc:Work
         rdf:about="">
        <dc:format>image/svg+xml</dc:format>
        <dc:type
           rdf:resource="http://purl.org/dc/dcmitype/StillImage" />
        <dc:title>Consolidated Outland Logo</dc:title>
        <dc:creator>
          <cc:Agent>
            <dc:title>CIG</dc:title>
          </cc:Agent>
        </dc:creator>
        <dc:contributor>
          <cc:Agent>
            <dc:title>Vectorization by King Phoenix</dc:title>
          </cc:Agent>
        </dc:contributor>
      </cc:Work>
    </rdf:RDF>
  </metadata>
  <defs
     id="defs6" />
  <sodipodi:namedview
     pagecolor="#ffffff"
     bordercolor="#666666"
     borderopacity="1"
     objecttolerance="10"
     gridtolerance="10"
     guidetolerance="10"
     inkscape:pageopacity="0"
     inkscape:pageshadow="2"
     inkscape:window-width="1920"
     inkscape:window-height="1018"
     id="namedview4"
     showgrid="false"
     units="mm"
     fit-margin-top="1"
     fit-margin-left="1"
     fit-margin-right="1"
     fit-margin-bottom="1"
     inkscape:zoom="3.8446585"
     inkscape:cx="113.86689"
     inkscape:cy="73.538464"
     inkscape:window-x="-8"
     inkscape:window-y="-8"
     inkscape:window-maximized="1"
     inkscape:current-layer="svg2" />
  <path
     inkscape:connector-curvature="0"
     id="path3345"
     d="m 93.055192,3.5433693 c -1.18154,1.4456139 -23.08811,19.0987317 -36.529488,32.4012547 -6.386683,7.342195 -12.472513,9.874204 11.497387,17.867984 16.068774,5.243574 20.535347,6.518317 25.032101,7.736063 l 0,-2.474245 C 89.24652,56.753089 79.18293,50.706489 74.637562,47.759633 69.147021,44.215078 71.523911,43.269862 73.469938,39.211177 79.725045,28.938911 89.872032,13.732165 93.055192,8.4362135 Z"
     style="fill:#000000;fill-opacity:1;fill-rule:nonzero;stroke:none"
     sodipodi:nodetypes="ccccccccc" />
  <path
     inkscape:connector-curvature="0"
     id="path3345-5"
     d="m 94.407382,3.5433071 c 1.18151,1.4456145 23.088078,19.0987339 36.529448,32.4012539 6.3867,7.342198 12.47252,9.874206 -11.49737,17.867986 -16.06877,5.243574 -20.535359,6.518318 -25.032078,7.73606 l 0,-2.474243 c 3.808659,-2.321338 13.872228,-8.36794 18.417598,-11.314794 5.49055,-3.544556 3.11366,-4.489771 1.16763,-8.548459 C 107.7375,28.938847 97.590531,13.732104 94.407382,8.4361525 Z"
     style="fill:#000000;fill-opacity:1;fill-rule:nonzero;stroke:none"
     sodipodi:nodetypes="ccccccccc" />
  <path
     inkscape:connector-curvature="0"
     d="m 4.2422706,80.701133 0,-5.475612 q 0,-1.299765 1.010165,-1.769896 1.038232,-0.497779 3.7320053,-0.497779 l 8.4741761,0 0,2.129403 -7.8568441,0 q -0.841809,0.05531 -1.010175,0.442474 l 0,4.369422 q 0,0.553097 0.392843,0.746683 0.224488,0.110611 0.897931,0.110611 0,0 0.3647781,0 l 7.211467,0 0,2.157065 -9.1195531,0 q -0.729575,0 -1.515252,-0.165928 -2.5815413,-0.497782 -2.5815413,-2.046443 z"
     style="font-style:normal;font-variant:normal;font-weight:bold;font-stretch:normal;font-size:72.25714874px;line-height:125%;font-family:xscale;-inkscape-font-specification:'xscale Bold';letter-spacing:-0.61000001px;word-spacing:0px;fill:#000000;fill-opacity:1;stroke:none;stroke-width:1px;stroke-linecap:butt;stroke-linejoin:miter;stroke-opacity:1"
     id="path3376" />
  <path
     inkscape:connector-curvature="0"
     d="m 19.460405,75.087249 q 0,-0.248892 0.112244,-0.525439 0.701498,-1.603964 4.461559,-1.603964 l 5.135015,0 q 4.517693,0 4.517693,2.129403 l 0,5.66919 q 0,2.157065 -4.545749,2.157065 l -5.106959,0 q -2.076441,0 -3.086617,-0.359513 -1.010154,-0.38716 -1.346874,-1.272112 -0.112257,-0.276538 -0.112257,-0.497781 l -0.02804,-5.696849 z m 4.349326,0.691365 0.02804,4.28647 q 0,0.691355 1.431076,0.691355 l 2.665718,0 q 1.431076,0 1.431076,-0.608404 l 0,-4.369421 q 0,-0.691365 -1.431076,-0.691365 l -2.665718,0 q -1.459131,0 -1.459131,0.691365 z"
     style="font-style:normal;font-variant:normal;font-weight:bold;font-stretch:normal;font-size:72.25714874px;line-height:125%;font-family:xscale;-inkscape-font-specification:'xscale Bold';letter-spacing:-0.61000001px;word-spacing:0px;fill:#000000;fill-opacity:1;stroke:none;stroke-width:1px;stroke-linecap:butt;stroke-linejoin:miter;stroke-opacity:1"
     id="path3378" />
  <path
     inkscape:connector-curvature="0"
     d="m 36.103477,82.913504 0,-7.992181 q 0,-0.912602 1.010155,-1.493349 1.038232,-0.580748 2.58154,-0.580748 0.701498,0 1.431076,0.11062 1.795841,0.331852 2.413174,1.521002 l 3.058561,5.752162 0,-7.273164 4.124837,0 0,8.241068 q 0,0.774332 -1.010164,1.29976 -1.010165,0.525441 -2.525418,0.553099 -2.918251,0.05529 -3.84425,-1.686931 l -3.086618,-5.724499 0,7.273161 -4.152893,0 z"
     style="font-style:normal;font-variant:normal;font-weight:bold;font-stretch:normal;font-size:72.25714874px;line-height:125%;font-family:xscale;-inkscape-font-specification:'xscale Bold';letter-spacing:-0.61000001px;word-spacing:0px;fill:#000000;fill-opacity:1;stroke:none;stroke-width:1px;stroke-linecap:butt;stroke-linejoin:miter;stroke-opacity:1"
     id="path3380" />
  <path
     inkscape:connector-curvature="0"
     d="m 52.933746,74.921323 q 0,-0.248893 0.112244,-0.497788 0.757622,-1.465689 4.012605,-1.465689 l 8.838951,0 0,2.129403 -7.66042,0.02765 q -0.954054,0.02768 -0.954054,0.470129 l 0,0.663711 q 0,0.110613 0.02804,0.138271 0.140299,0.387166 1.094342,0.442475 0.08422,0 0.280611,0 l 3.142739,0 q 1.40301,0 2.469287,0.359508 1.599439,0.497783 1.599439,1.603958 l 0,2.018796 q 0,1.18915 -1.655552,1.742236 -1.122409,0.359513 -2.693772,0.359513 l -8.586422,0 0,-2.157064 7.576245,0 q 1.010177,-0.165918 1.010177,-0.580746 l 0,-0.719015 q 0,-0.414817 -0.926,-0.470123 l -3.619761,0 q -2.188695,0 -3.395272,-0.884954 -0.673444,-0.497779 -0.673444,-1.078529 l 0,-2.101748 z"
     style="font-style:normal;font-variant:normal;font-weight:bold;font-stretch:normal;font-size:72.25714874px;line-height:125%;font-family:xscale;-inkscape-font-specification:'xscale Bold';letter-spacing:-0.61000001px;word-spacing:0px;fill:#000000;fill-opacity:1;stroke:none;stroke-width:1px;stroke-linecap:butt;stroke-linejoin:miter;stroke-opacity:1"
     id="path3382" />
  <path
     inkscape:connector-curvature="0"
     d="m 68.129088,75.087249 q 0,-0.248892 0.112244,-0.525439 0.7015,-1.603964 4.461561,-1.603964 l 5.135024,0 q 4.517681,0 4.517681,2.129403 l 0,5.66919 q 0,2.157065 -4.545746,2.157065 l -5.106959,0 q -2.076453,0 -3.086618,-0.359513 -1.010165,-0.38716 -1.346887,-1.272112 -0.112244,-0.276538 -0.112244,-0.497781 l -0.02804,-5.696849 z m 4.349327,0.691365 0.02804,4.28647 q 0,0.691355 1.431076,0.691355 l 2.665718,0 q 1.431065,0 1.431065,-0.608404 l 0,-4.369421 q 0,-0.691365 -1.431065,-0.691365 l -2.665718,0 q -1.459131,0 -1.459131,0.691365 z"
     style="font-style:normal;font-variant:normal;font-weight:bold;font-stretch:normal;font-size:72.25714874px;line-height:125%;font-family:xscale;-inkscape-font-specification:'xscale Bold';letter-spacing:-0.61000001px;word-spacing:0px;fill:#000000;fill-opacity:1;stroke:none;stroke-width:1px;stroke-linecap:butt;stroke-linejoin:miter;stroke-opacity:1"
     id="path3384" />
  <path
     inkscape:connector-curvature="0"
     d="m 84.77215,80.47989 0,-7.522044 4.349323,0 0,7.356128 q 0,0.442465 1.094339,0.442465 l 7.688499,0 -0.0281,2.157065 -8.053269,0 q -0.39286,0 -0.729561,-0.0277 -2.300944,-0.083 -3.31111,-0.63604 -1.010165,-0.580757 -1.010165,-1.769905 z"
     style="font-style:normal;font-variant:normal;font-weight:bold;font-stretch:normal;font-size:72.25714874px;line-height:125%;font-family:xscale;-inkscape-font-specification:'xscale Bold';letter-spacing:-0.61000001px;word-spacing:0px;fill:#000000;fill-opacity:1;stroke:none;stroke-width:1px;stroke-linecap:butt;stroke-linejoin:miter;stroke-opacity:1"
     id="path3386" />
  <path
     inkscape:connector-curvature="0"
     d="m 99.497041,82.913504 0,-9.955658 4.349329,0 0,9.955658 -4.349329,0 z"
     style="font-style:normal;font-variant:normal;font-weight:bold;font-stretch:normal;font-size:72.25714874px;line-height:125%;font-family:xscale;-inkscape-font-specification:'xscale Bold';letter-spacing:-0.61000001px;word-spacing:0px;fill:#000000;fill-opacity:1;stroke:none;stroke-width:1px;stroke-linecap:butt;stroke-linejoin:miter;stroke-opacity:1"
     id="path3388" />
  <path
     inkscape:connector-curvature="0"
     d="m 106.22039,82.913504 0,-9.955658 10.32615,0 q 4.34934,0 4.34934,2.18471 l 0,5.586236 q 0,0.138268 -0.0562,0.359502 -0.44896,1.82521 -4.12484,1.82521 l -10.49451,0 z m 4.34934,-2.157065 4.46156,0 q 0.72957,0 0.95405,-0.0553 0.44896,-0.138268 0.53314,-0.663709 0.028,-0.0277 0.028,-0.138268 l 0,-4.341778 q -0.19641,-0.470127 -1.54331,-0.470127 l -4.43351,0 0,5.669199 z"
     style="font-style:normal;font-variant:normal;font-weight:bold;font-stretch:normal;font-size:72.25714874px;line-height:125%;font-family:xscale;-inkscape-font-specification:'xscale Bold';letter-spacing:-0.61000001px;word-spacing:0px;fill:#000000;fill-opacity:1;stroke:none;stroke-width:1px;stroke-linecap:butt;stroke-linejoin:miter;stroke-opacity:1"
     id="path3390" />
  <path
     inkscape:connector-curvature="0"
     d="m 121.87083,82.913504 5.58398,-8.738858 q 0.84182,-1.32742 3.42333,-1.32742 2.55348,0 3.39529,1.32742 l 5.58398,8.738858 -4.54575,0 -1.37495,-2.157065 -6.14518,0 -1.37494,2.157065 -4.54576,0 z m 7.21147,-4.17585 3.56363,0 -2.04839,-3.235587 -1.51524,3.235587 z"
     style="font-style:normal;font-variant:normal;font-weight:bold;font-stretch:normal;font-size:72.25714874px;line-height:125%;font-family:xscale;-inkscape-font-specification:'xscale Bold';letter-spacing:-0.61000001px;word-spacing:0px;fill:#000000;fill-opacity:1;stroke:none;stroke-width:1px;stroke-linecap:butt;stroke-linejoin:miter;stroke-opacity:1"
     id="path3392" />
  <path
     inkscape:connector-curvature="0"
     d="m 139.81169,75.087249 0,-2.129403 13.01992,0 0,2.129403 -4.34933,0 0,7.826255 -4.34933,0 0,-7.826255 -4.32126,0 z"
     style="font-style:normal;font-variant:normal;font-weight:bold;font-stretch:normal;font-size:72.25714874px;line-height:125%;font-family:xscale;-inkscape-font-specification:'xscale Bold';letter-spacing:-0.61000001px;word-spacing:0px;fill:#000000;fill-opacity:1;stroke:none;stroke-width:1px;stroke-linecap:butt;stroke-linejoin:miter;stroke-opacity:1"
     id="path3394" />
  <path
     inkscape:connector-curvature="0"
     d="m 154.23141,80.839403 0,-5.7245 q 0,-0.19358 0.0843,-0.442473 0.56119,-1.714584 4.12483,-1.714584 l 8.97927,0 0,2.129403 -7.8288,0 q -0.0842,0.02765 -0.28061,0.05531 -0.72956,0.138277 -0.72956,0.580747 l 0,1.106188 8.83897,0 0,2.157052 -8.83897,0 0,1.106185 q 0,0.608403 1.12241,0.663709 l 7.71656,0 0,2.157065 -8.36195,0 q -4.82634,0 -4.82634,-2.074102 z"
     style="font-style:normal;font-variant:normal;font-weight:bold;font-stretch:normal;font-size:72.25714874px;line-height:125%;font-family:xscale;-inkscape-font-specification:'xscale Bold';letter-spacing:-0.61000001px;word-spacing:0px;fill:#000000;fill-opacity:1;stroke:none;stroke-width:1px;stroke-linecap:butt;stroke-linejoin:miter;stroke-opacity:1"
     id="path3396" />
  <path
     inkscape:connector-curvature="0"
     d="m 169.61395,82.913504 0,-9.955658 10.32617,0 q 4.3493,0 4.3493,2.18471 l 0,5.586236 q 0,0.138268 -0.0561,0.359502 -0.44897,1.82521 -4.12487,1.82521 l -10.49449,0 z m 4.34933,-2.157065 4.46158,0 q 0.72957,0 0.95403,-0.0553 0.44896,-0.138268 0.53315,-0.663709 0.0279,-0.0277 0.0279,-0.138268 l 0,-4.341778 q -0.19641,-0.470127 -1.54332,-0.470127 l -4.4335,0 0,5.669199 z"
     style="font-style:normal;font-variant:normal;font-weight:bold;font-stretch:normal;font-size:72.25714874px;line-height:125%;font-family:xscale;-inkscape-font-specification:'xscale Bold';letter-spacing:-0.61000001px;word-spacing:0px;fill:#000000;fill-opacity:1;stroke:none;stroke-width:1px;stroke-linecap:butt;stroke-linejoin:miter;stroke-opacity:1"
     id="path3398" />
  <g
     transform="matrix(0.38836584,0,0,0.38269716,-211.82358,-10.740548)"
     style="font-style:normal;font-variant:normal;font-weight:bold;font-stretch:normal;font-size:117.54927826px;line-height:125%;font-family:xscale;-inkscape-font-specification:'xscale Bold';letter-spacing:-0.67000002px;word-spacing:0px;fill:#000000;fill-opacity:1;stroke:none;stroke-width:1px;stroke-linecap:butt;stroke-linejoin:miter;stroke-opacity:1"
     id="text3338-6">
    <path
       inkscape:connector-curvature="0"
       d="m 554.54642,263.68232 q 0,-1.05795 0.4702,-2.23344 2.93873,-6.81786 18.69033,-6.81786 l 21.51152,0 q 18.92544,0 18.92544,9.0513 l 0,24.0976 q 0,9.16884 -19.04299,9.16884 l -21.39397,0 q -8.69864,0 -12.93042,-1.52814 -4.23177,-1.64569 -5.64236,-5.40727 -0.4702,-1.17549 -0.4702,-2.11588 l -0.11755,-24.21515 z m 18.22014,2.93873 0.11755,18.22014 q 0,2.93873 5.99501,2.93873 l 11.16718,0 q 5.99502,0 5.99502,-2.58609 l 0,-18.57278 q 0,-2.93873 -5.99502,-2.93873 l -11.16718,0 q -6.11256,0 -6.11256,2.93873 z"
       id="path3361"
       style="fill:#000000" />
    <path
       inkscape:connector-curvature="0"
       d="m 624.58966,286.36933 0,-31.73831 18.22014,0 0,31.50321 q 0.47019,1.64569 6.23011,1.64569 l 12.34267,0 q 5.52482,0 6.11256,-1.52814 l 0.11755,-0.35265 0,-31.26811 18.22014,0 0,31.73831 q 0,4.11422 -1.88079,5.87746 -4.81952,4.70197 -17.04464,4.70197 l -23.39231,0 q -13.04797,0 -17.51484,-5.05462 -1.41059,-1.64569 -1.41059,-5.52481 z"
       id="path3363"
       style="fill:#000000" />
    <path
       inkscape:connector-curvature="0"
       d="m 692.00824,263.68232 0,-9.0513 54.54286,0 0,9.0513 -18.22014,0 0,33.26644 -18.22013,0 0,-33.26644 -18.10259,0 z"
       id="path3365"
       style="fill:#000000" />
    <path
       inkscape:connector-curvature="0"
       d="m 752.73754,286.60442 0,-31.9734 18.22014,0 0,31.26811 q 0,1.88079 4.58442,1.88079 l 32.2085,0 -0.11755,9.16884 -33.73664,0 q -1.64569,0 -3.05628,-0.11755 -9.63904,-0.35265 -13.87082,-2.70363 -4.23177,-2.46854 -4.23177,-7.52316 z"
       id="path3367"
       style="fill:#000000" />
    <path
       inkscape:connector-curvature="0"
       d="m 808.75017,296.94876 23.39231,-37.14557 q 3.52648,-5.64237 14.34101,-5.64237 10.69698,0 14.22346,5.64237 l 23.39231,37.14557 -19.04299,0 -5.75991,-9.16884 -25.74329,0 -5.75992,9.16884 -19.04298,0 z m 30.21016,-17.74994 14.92876,0 -8.58109,-13.75327 -6.34767,13.75327 z"
       id="path3369"
       style="fill:#000000" />
    <path
       inkscape:connector-curvature="0"
       d="m 888.46183,296.94876 0,-33.97174 q 0,-3.87913 4.23177,-6.34766 4.34933,-2.46854 10.81454,-2.46854 2.93873,0 5.99501,0.4702 7.52315,1.41059 10.10924,6.46521 l 12.81287,24.45025 0,-30.91546 17.27974,0 0,35.02969 q 0,3.29138 -4.23177,5.52481 -4.23178,2.23344 -10.57944,2.35099 -12.22512,0.2351 -16.10425,-7.17051 l -12.93042,-24.3327 0,30.91546 -17.39729,0 z"
       id="path3371"
       style="fill:#000000" />
    <path
       inkscape:connector-curvature="0"
       d="m 960.11219,296.94876 0,-42.31774 43.25811,0 q 18.2202,0 18.2202,9.28639 l 0,23.74496 q 0,0.58774 -0.2351,1.52814 -1.8808,7.75825 -17.2798,7.75825 l -43.96341,0 z m 18.22014,-9.16884 18.69033,0 q 3.05624,0 3.99664,-0.2351 1.8808,-0.58775 2.2335,-2.82118 0.1175,-0.11755 0.1175,-0.58775 l 0,-18.45524 q -0.8228,-1.99833 -6.46519,-1.99833 l -18.57278,0 0,24.0976 z"
       id="path3373"
       style="fill:#000000" />
  </g>
</svg>
