<?xml version="1.0" encoding="UTF-8" standalone="no"?>
<!-- Created with Inkscape (http://www.inkscape.org/) -->

<svg
   xmlns:dc="http://purl.org/dc/elements/1.1/"
   xmlns:cc="http://creativecommons.org/ns#"
   xmlns:rdf="http://www.w3.org/1999/02/22-rdf-syntax-ns#"
   xmlns:svg="http://www.w3.org/2000/svg"
   xmlns="http://www.w3.org/2000/svg"
   xmlns:sodipodi="http://sodipodi.sourceforge.net/DTD/sodipodi-0.dtd"
   xmlns:inkscape="http://www.inkscape.org/namespaces/inkscape"
   id="svg2"
   version="1.1"
   inkscape:version="0.91 r13725"
   width="253.16524"
   height="253.16524"
   viewBox="0 0 253.16524 253.16524"
   sodipodi:docname="CTR.svg">
  <title
     id="title4248">CTR Logo</title>
  <metadata
     id="metadata8">
    <rdf:RDF>
      <cc:Work
         rdf:about="">
        <dc:format>image/svg+xml</dc:format>
        <dc:type
           rdf:resource="http://purl.org/dc/dcmitype/StillImage" />
        <dc:title>CTR Logo</dc:title>
        <dc:creator>
          <cc:Agent>
            <dc:title>CIG</dc:title>
          </cc:Agent>
        </dc:creator>
        <dc:contributor>
          <cc:Agent>
            <dc:title>Vectorization by King Phoenix</dc:title>
          </cc:Agent>
        </dc:contributor>
      </cc:Work>
    </rdf:RDF>
  </metadata>
  <defs
     id="defs6" />
  <sodipodi:namedview
     pagecolor="#ffffff"
     bordercolor="#666666"
     borderopacity="1"
     objecttolerance="10"
     gridtolerance="10"
     guidetolerance="10"
     inkscape:pageopacity="0"
     inkscape:pageshadow="2"
     inkscape:window-width="1920"
     inkscape:window-height="1018"
     id="namedview4"
     showgrid="false"
     inkscape:zoom="2.4722548"
     inkscape:cx="143.75181"
     inkscape:cy="142.31663"
     inkscape:window-x="-8"
     inkscape:window-y="-8"
     inkscape:window-maximized="1"
     inkscape:current-layer="svg2"
     fit-margin-top="2"
     fit-margin-left="2"
     fit-margin-right="2"
     fit-margin-bottom="2" />
  <circle
     style="opacity:1;fill:#013ca6;fill-opacity:1;stroke:none;stroke-width:4.4000001;stroke-miterlimit:4;stroke-dasharray:none;stroke-opacity:1"
     id="path4164-93-8-1"
     cx="126.58262"
     cy="126.58262"
     r="124.58262" />
  <circle
     style="opacity:1;fill:#ffffff;fill-opacity:1;stroke:none;stroke-width:4.4000001;stroke-miterlimit:4;stroke-dasharray:none;stroke-opacity:1"
     id="path4164-93-8"
     cx="126.58262"
     cy="126.58262"
     r="114.0659" />
  <path
     style="opacity:1;fill:#ad172b;fill-opacity:1;stroke:none;stroke-width:4.4000001;stroke-miterlimit:4;stroke-dasharray:none;stroke-opacity:1"
     d="M 126.58359,21.617776 A 104.9649,104.9649 0 0 0 30.503516,84.467385 l 41.863282,0 a 68.763138,68.763138 0 0 1 54.216792,-26.599609 68.763138,68.763138 0 0 1 54.27735,26.599609 l 41.72656,0 A 104.9649,104.9649 0 0 0 126.58359,21.617776 Z M 30.577735,168.69786 a 104.9649,104.9649 0 0 0 96.005855,62.8496 104.9649,104.9649 0 0 0 96.07813,-62.8496 l -41.78906,0 a 68.763138,68.763138 0 0 1 -54.28907,26.69726 68.763138,68.763138 0 0 1 -54.349605,-26.69726 l -41.65625,0 z"
     id="path4164-93"
     inkscape:connector-curvature="0" />
  <path
     style="opacity:1;fill:#0e76bc;fill-opacity:1;stroke:none;stroke-width:4.4000001;stroke-miterlimit:4;stroke-dasharray:none;stroke-opacity:1"
     d="m 126.56992,67.324806 a 59.257645,59.257645 0 0 0 -41.605468,17.09375 l 83.169928,0 A 59.257645,59.257645 0 0 0 126.56992,67.324806 Z M 84.898046,168.64903 a 59.257645,59.257645 0 0 0 41.671874,17.1914 59.257645,59.257645 0 0 0 41.69727,-17.1914 l -83.369144,0 z"
     id="path4164"
     inkscape:connector-curvature="0" />
  <g
     style="font-style:normal;font-variant:normal;font-weight:normal;font-stretch:condensed;font-size:87.41831207px;line-height:125%;font-family:'Wildcard Condensed';-inkscape-font-specification:'Wildcard Condensed, Condensed';letter-spacing:0px;word-spacing:0px;fill:#013ca6;fill-opacity:1;stroke:none;stroke-width:1px;stroke-linecap:butt;stroke-linejoin:miter;stroke-opacity:1"
     id="text3338"
     transform="translate(-9.0001808,-4.4668778)">
    <path
       d="m 39.453404,100.715 56.532685,3.3e-4 0,17.82626 -45.264232,0 0,24.91466 45.264232,0 0,17.92775 -56.094406,-3.6e-4 c -3.030502,0.0183 -7.567448,-4.67413 -7.568784,-7.42868 l 0,-45.29377 c 0.02519,-3.12144 4.150607,-7.95291 7.130505,-7.94619 z"
       id="path4143"
       inkscape:connector-curvature="0"
       sodipodi:nodetypes="ccccccccccc"
       style="fill:#013ca6;fill-opacity:1" />
    <path
       d="m 100.81866,100.71533 66.19124,0 0,17.92738 -23.18143,0 0,42.74093 -18.71604,0 0,-42.74093 -24.29377,0 z"
       id="path4145"
       inkscape:connector-curvature="0"
       sodipodi:nodetypes="ccccccccc"
       style="fill:#013ca6;fill-opacity:1" />
    <path
       d="m 171.33686,100.71533 60.84503,0 c 2.37621,0.0193 6.24411,3.63274 6.25632,6.41225 l 0,37.04648 c 0,1.98129 -3.53793,5.02042 -6.9086,4.97083 l 7.31309,12.23873 -24.76491,0 -7.46692,-12.0571 -11.02985,0 0,-18.0148 24.83531,0 0,-12.9724 -30.98388,0 0,43.0443 -18.09559,0 0,-60.66831 z"
       id="path4147"
       inkscape:connector-curvature="0"
       sodipodi:nodetypes="ccccccccccccccccc"
       style="fill:#013ca6;fill-opacity:1" />
  </g>
</svg>
