<svg xmlns="http://www.w3.org/2000/svg" viewBox="0 0 640 600"><defs><style>.a{fill:#002a7f;}</style></defs><title>Curelife</title><path class="a" d="M209.28,153.4V374.85H430.72V153.4Zm177,147.77,11.5-11.5H345.19v52.57l11.5-11.49,25.65,25.65H257.65l25.65-25.65,11.5,11.49V289.66H242.24l11.5,11.5-26,26V201.07l26,26-11.5,11.49,52.57,0V186l-11.5,11.49-25.65-25.65h124.7L356.7,197.51,345.2,186v52.57l52.57,0-11.5-11.49,26-26V327.18Z"/><path class="a" d="M102.54,436.84c0,3.84-.74,6.42-2.2,7.76s-4.15,2-8,2H67.65q-5.84,0-8-2c-1.47-1.34-2.2-3.92-2.2-7.76V415.07c0-3.84.73-6.42,2.2-7.76s4.15-2,8-2H92.29q7.36,0,9.13,3.44c.74,1.34,1.12,6.27,1.12,11.76H92.93v-7.84H67v26.17H92.93V430h9.61Z"/><path class="a" d="M180.46,436.84c0,3.84-.73,6.42-2.2,7.76s-4.14,2-8,2H144.14q-5.83,0-8-2c-1.47-1.34-2.2-3.92-2.2-7.76V405.31h9.6v33.53h27.36V405.31h9.6Z"/><path class="a" d="M401.29,446.6H360.72V405.31h9.6v33.53h31Z"/><path class="a" d="M436.49,446.6h-9.6V405.31h9.6Z"/><path class="a" d="M510.89,412.51H478.73v9h25.73v7.05H478.73v18h-9.6V405.31h41.76Z"/><path class="a" d="M258.84,446.6H246L226.43,424h-4.51V446.6h-8.81V405.31h33q8.67,0,8.67,8V423q0,6-4.48,7.45c-1.15.37-1.4.54-6.43.54Zm-12.71-25.93v-5c0-1.38-.37-2.29-1.12-2.72a5.51,5.51,0,0,0-2.91-.56H221.92V424H242.1a5.51,5.51,0,0,0,2.91-.56C245.76,423,246.13,422.06,246.13,420.67Z"/><polygon class="a" points="298.39 438.84 298.39 428.6 314.61 428.6 317.44 428.6 321.96 428.6 321.96 421.56 317.44 421.56 314.61 421.56 298.39 421.56 298.39 412.35 331.04 412.35 331.04 405.31 288.79 405.31 288.79 446.6 331.44 446.6 331.44 438.84 298.39 438.84"/><polygon class="a" points="549.54 438.84 549.54 428.6 562.53 428.6 568.59 428.6 574.18 428.6 574.18 421.56 568.59 421.56 562.53 421.56 549.54 421.56 549.54 412.35 582.19 412.35 582.19 405.31 539.94 405.31 539.94 446.6 582.59 446.6 582.59 438.84 549.54 438.84"/></svg>