<?xml version="1.0" encoding="UTF-8" standalone="no"?>
<svg
   xmlns:dc="http://purl.org/dc/elements/1.1/"
   xmlns:cc="http://creativecommons.org/ns#"
   xmlns:rdf="http://www.w3.org/1999/02/22-rdf-syntax-ns#"
   xmlns:svg="http://www.w3.org/2000/svg"
   xmlns="http://www.w3.org/2000/svg"
   xmlns:sodipodi="http://sodipodi.sourceforge.net/DTD/sodipodi-0.dtd"
   xmlns:inkscape="http://www.inkscape.org/namespaces/inkscape"
   width="222.01215mm"
   height="201.08691mm"
   viewBox="0 0 629.32574 570.01015"
   version="1.1"
   id="svg2"
   inkscape:version="0.91 r13725"
   sodipodi:docname="Dragon Stellar Transit.svg">
  <title
     id="title4359">Dragon Stellar Transit Logo</title>
  <metadata
     id="metadata100">
    <rdf:RDF>
      <cc:Work
         rdf:about="">
        <dc:format>image/svg+xml</dc:format>
        <dc:type
           rdf:resource="http://purl.org/dc/dcmitype/StillImage" />
        <dc:title>Dragon Stellar Transit Logo</dc:title>
        <dc:creator>
          <cc:Agent>
            <dc:title>CIG</dc:title>
          </cc:Agent>
        </dc:creator>
        <dc:contributor>
          <cc:Agent>
            <dc:title>Vectorization by King Phoenix</dc:title>
          </cc:Agent>
        </dc:contributor>
      </cc:Work>
    </rdf:RDF>
  </metadata>
  <defs
     id="defs98" />
  <sodipodi:namedview
     pagecolor="#ffffff"
     bordercolor="#666666"
     borderopacity="1"
     objecttolerance="10"
     gridtolerance="10"
     guidetolerance="10"
     inkscape:pageopacity="0"
     inkscape:pageshadow="2"
     inkscape:window-width="1920"
     inkscape:window-height="1018"
     id="namedview96"
     showgrid="false"
     inkscape:zoom="0.91514278"
     inkscape:cx="722.55289"
     inkscape:cy="314.99185"
     inkscape:window-x="-8"
     inkscape:window-y="-8"
     inkscape:window-maximized="1"
     inkscape:current-layer="#353535ff"
     units="mm"
     fit-margin-top="3"
     fit-margin-left="3"
     fit-margin-right="3"
     fit-margin-bottom="3" />
  <g
     id="#353535ff"
     transform="translate(-1214.6403,-65.104889)">
    <path
       d="m 1575.8747,73.608826 c 28.1698,11.560869 53.6502,29.071204 75.8481,49.811654 -2.246,-11.79374 -6.4979,-23.08418 -10.4717,-34.382138 128.0776,120.265938 230.9205,345.588918 181.6311,494.315408 -15.2435,-109.36151 -25.4133,-237.17555 -166.8777,-166.4044 18.8141,-53.35281 21.8529,-103.87863 13.5065,-155.41444 -3.0248,54.98061 -20.5536,98.41314 -35.231,145.95691 -25.1456,-31.62493 -28.488,-75.62414 -24.6165,-112.54381 16.0537,-14.50563 39.7166,-31.35021 46.6415,-88.12247 -10.2067,-39.40228 -37.0519,-101.92388 -80.4303,-133.216714 m 85.884,55.122584 c 2.3512,9.21714 4.8902,18.38921 7.0236,27.65894 -6.5653,-6.57295 -7.2059,-8.56243 -19.7113,-19.7038 9.9047,19.46045 18.1796,43.68151 21.5989,53.89489 33.6546,23.97492 60.2812,51.11446 84.5673,81.03449 -28.9165,-55.87818 -58.7,-99.26142 -93.4785,-142.88452 m 18.9451,91.02964 c 1.7869,4.80793 9.3984,43.40934 9.4672,43.45222 41.8784,29.89667 76.8983,66.79219 105.4805,108.36399 -7.0914,-23.12925 -15.3395,-45.94301 -25.2927,-67.99805 -23.5394,-36.50486 -57.9956,-69.57125 -89.655,-83.81816 m 12.9731,69.45535 c 2.2056,31.95532 -1.588,65.40033 -8.2932,94.07948 56.7369,-29.41362 103.7254,-7.30915 128.0109,59.57716 -2.315,-13.9346 -8.8803,-40.97163 -12.8003,-52.238 -29.9393,-46.91518 -65.2739,-84.5487 -106.9174,-101.41864 z"
       id="path44"
       inkscape:connector-curvature="0"
       style="opacity:1;fill:#000000;fill-opacity:1"
       sodipodi:nodetypes="cccccccccccccccccccccccccc" />
    <path
       d="m 1483.4779,75.314035 c -40.3973,25.909365 -72.4836,95.010035 -86.7619,152.837755 6.2447,38.91363 27.0929,70.75564 64.0459,86.35729 -20.8208,24.66409 -31.893,48.41853 -38.9645,77.04242 -20.4269,-36.14347 -30.4141,-80.95508 -34.63,-111.88277 -5.5063,46.7017 -1.8706,95.25886 15.8201,139.16611 -145.3418,-75.16051 -153.0766,71.1765 -166.9678,166.54713 -47.8689,-139.79882 43.2927,-366.50648 181.5485,-494.495692 -3.9738,11.418142 -8.1204,22.828772 -10.6218,34.690122 21.2267,-21.68783 62.9145,-47.95811 76.5315,-50.262365 z m -86.6201,55.415545 c -34.1117,45.37961 -67.3144,91.84093 -93.0803,142.57653 32.3276,-42.13561 65.5631,-67.76505 83.4171,-80.90172 6.2951,-17.59295 15.0718,-36.77274 22.5912,-53.87741 -6.6105,6.49029 -13.1008,13.09329 -19.6737,19.62117 2.0057,-9.19462 4.9053,-18.1864 6.7457,-27.41857 m -107.616,173.5107 c -10.5134,22.54606 -19.6066,48.16264 -25.9387,68.94453 31.9599,-44.98245 65.0947,-79.937 104.9023,-107.97465 2.8683,-15.69536 5.4626,-30.34143 10.0979,-43.74391 -18.852,7.05748 -57.1626,35.40825 -89.0615,82.77403 z m -31.0243,88.32533 c -6.0563,17.18491 -9.6612,36.96565 -12.8529,52.54599 18.8026,-58.83468 65.0988,-92.93948 128.1235,-60.08046 -7.2844,-30.7115 -10.0442,-65.82863 -8.2255,-94.03442 -46.2232,19.38308 -79.9699,60.8203 -107.0451,101.56889 z"
       id="path46"
       inkscape:connector-curvature="0"
       style="opacity:1;fill:#000000;fill-opacity:1"
       sodipodi:nodetypes="cccccccccccccccccccccccccc" />
    <path
       d="m 1552.3098,101.10251 c -10.3214,14.52058 -21.1987,28.643 -31.5426,43.14856 6.573,-2.35124 13.2284,-4.49214 19.7263,-7.06122 17.1948,-8.83404 34.2619,-17.9385 51.4718,-26.76503 -13.2961,11.87637 -27.0505,23.2269 -40.3992,35.04317 100.0026,64.95849 9.534,185.53836 78.4546,268.1686 -72.9066,-8.02315 -137.0293,-6.61049 -206.7059,1.11176 22.9025,-123.69817 86.2931,-117.4432 116.7518,-169.79549 8.7871,-17.04622 3.4171,-38.66823 -1.7816,-52.62541 -5.4311,3.79353 -11.2228,7.12132 -17.623,8.9993 6.8884,3.01979 14.0098,5.46868 20.9508,8.35327 -0.5408,1.29957 -1.0742,2.59914 -1.6226,3.8987 -19.3283,-3.61437 -41.2664,-3.26088 -57.8494,-5.56635 -21.7077,23.87897 -41.19,15.90378 -62.876,36.17928 -2.2236,-2.04324 -6.5568,-3.91552 -8.0217,-6.52967 2.3663,-6.52787 5.3035,-12.88296 8.5711,-19.02022 6.265,-11.47823 14.8963,-21.42404 24.0007,-30.72381 0.092,-24.52076 41.8176,-46.90942 57.112,-52.053 7.8006,-6.85473 35.5627,-24.103 51.3829,-34.76244 z m -101.659,82.79655 c 3.5456,1.30708 7.204,2.39631 10.9223,3.13247 6.2069,-5.11219 16.6789,-15.50734 20.9283,-20.14701 -13.2728,9.70218 -21.2209,13.21624 -31.8506,17.01454 z"
       id="path48"
       inkscape:connector-curvature="0"
       style="opacity:1;fill:#000000;fill-opacity:1"
       sodipodi:nodetypes="ccccccccccccccccccccccc" />
    <g
       transform="matrix(1.0766906,-0.15824992,0,0.92877193,0,0)"
       style="font-style:normal;font-variant:normal;font-weight:bold;font-stretch:normal;font-size:113.84288025px;line-height:125%;font-family:'Brian James Condensed';-inkscape-font-specification:'Brian James Condensed, Bold';letter-spacing:-0.42679408px;word-spacing:0px;fill:#000000;fill-opacity:1;stroke:none;stroke-width:1px;stroke-linecap:butt;stroke-linejoin:miter;stroke-opacity:1"
       id="text4239">
      <path
         d="m 1267.0066,720.92811 q 0,-15.1411 -6.489,-26.2977 -6.0337,-10.24586 -16.2796,-14.23036 -8.0828,-3.1876 -21.744,-3.1876 l -30.6237,0 0,3.64297 q 3.0738,0.91074 4.0983,2.3907 1.0246,1.36611 1.0246,4.55371 l 0,60.90595 q 0,3.30144 -1.0246,4.89524 -0.9107,1.5938 -4.0983,2.50454 l 0,3.64298 35.9743,0 q 12.5228,0 19.2395,-2.73223 8.652,-3.41529 14.2304,-12.97809 5.6921,-9.67665 5.6921,-23.11011 z m -23.4516,2.95992 q 0,23.907 -12.7504,27.0946 -1.3662,0.45537 -3.0738,0.45537 -8.5382,0 -8.5382,-13.31961 l 0,-38.93427 q 0,-2.27685 0,-3.9845 0.1138,-1.82148 0.2277,-2.95991 0.4553,-3.41529 1.7076,-4.7814 1.3661,-1.47996 4.6676,-1.47996 4.326,0 7.2859,2.3907 2.163,1.5938 4.5537,6.14751 5.9199,10.70124 5.9199,29.37147 z"
         id="path4269"
         style="fill:#000000;fill-opacity:1"
         inkscape:connector-curvature="0" />
      <path
         d="m 1898.4219,543.8125 -43.2071,2.08789 0,3.22656 c 1.7365,0.34613 2.6055,1.42227 2.6055,3.22852 0,1.03214 -0.307,2.37912 -0.9199,4.04297 l -25.7402,71.94531 c -2.6786,7.32301 -6.7005,11.39324 -9.1954,6.5234 -2.9621,-6.56681 -5.4127,-11.91438 -7.3535,-16.04297 -1.9408,-4.12859 -3.3196,-7.08462 -4.1367,-8.86719 -4.8008,-9.27558 -9.8584,-17.0178 -15.1699,-23.22851 3.2686,-2.19369 5.976,-4.09168 8.1211,-5.69141 2.2472,-1.69191 4.0354,-3.13568 5.3633,-4.33399 4.5965,-4.48399 6.8945,-8.86836 6.8945,-13.15234 0,-8.73596 -8.1725,-12.44911 -24.5156,-11.14062 l -65.5762,5.25 0,4.03125 c 2.6558,0.45936 4.4441,1.15739 5.3633,2.09179 1.0215,0.84221 1.5312,2.39607 1.5312,4.66407 l 0,68.29296 c 0,2.35199 -0.4596,4.10979 -1.3789,5.27539 -0.9193,1.0816 -2.7577,2.06813 -5.5156,2.96094 l 0,4.03321 43.9727,-3.52149 0,-4.03125 c -4.6986,-0.4638 -7.0469,-3.00502 -7.0469,-7.625 l 0,-33.51758 8.5801,-3.33203 c 3.6771,5.50156 6.7418,10.33807 9.1933,14.50977 2.4515,4.0877 4.3402,7.54913 5.668,10.38281 2.6558,6.08732 3.9844,10.34917 3.9844,12.78516 0,2.60399 -1.5333,4.44786 -4.5977,5.5332 l 0,4.03125 c 22.4169,-2.28068 44.5329,-3.56095 66.959,-4.64453 l 0,-4.12891 c -3.8816,-1.53264 -5.8223,-3.54667 -5.8223,-6.04101 l 0,-0.90235 c 0.1022,-0.43499 0.2046,-0.87164 0.3067,-1.30664 0.6129,-2.00788 1.1227,-3.79532 1.5312,-5.36328 0.5108,-1.5729 0.9202,-2.83984 1.2266,-3.80078 l 5.209,-16.76563 c 6.333,0.038 11.3384,0.87147 15.0156,2.5 2.4515,1.08568 4.6974,2.43904 6.7402,4.06055 2.1451,1.61656 3.9834,3.46282 5.5156,5.53906 1.5322,2.07626 2.7082,4.29915 3.5254,6.66797 0.8172,2.28283 1.2246,4.62879 1.2246,7.03711 0,3.09643 -1.6858,5.41404 -5.0566,6.95313 l 0,4.1289 40.2969,-1.94726 0,-4.12891 c -1.2257,-0.62885 -2.2473,-1.18162 -3.0645,-1.6582 -0.715,-0.56753 -1.2248,-1.01647 -1.5312,-1.34571 -0.6129,-0.57245 -1.2271,-2.00416 -1.8399,-4.29687 l -19.9179,-70.38477 c -0.3064,-1.27536 -0.459,-2.343 -0.459,-3.20312 0,-1.63422 1.0717,-2.97559 3.2168,-4.02539 z m -29.877,15.37891 10.8789,38.82421 c -7.2523,-4.03609 -14.2487,-5.84932 -20.9902,-5.4375 l -0.9199,0.0449 z m -93.0976,2.04101 c 6.8038,0.0616 10.205,2.51817 10.205,7.36914 0,9.49195 -7.7109,16.7859 -23.1347,21.88477 l 0,-16 c 0,-6.29998 1.2243,-10.17851 3.6758,-11.63477 1.43,-0.78648 3.4731,-1.28737 6.1289,-1.5 1.1108,-0.0889 2.153,-0.12794 3.125,-0.11914 z"
         transform="matrix(0.74301754,0.12659994,0,0.86135247,-9.9819057,-18.717911)"
         id="path4271"
         inkscape:connector-curvature="0"
         sodipodi:nodetypes="cccscccsccccsscccsscccccsccccsccccscccccscscsccccccccscccccccsscscss"
         style="fill:#000000;fill-opacity:1" />
      <path
         d="m 1495.0856,791.04937 0,-3.31869 q -3.1794,-1.14526 -4.0564,-2.6666 -0.5481,-1.00613 -0.5481,-4.54607 l 0,-31.63817 q 0,-3.20806 4.6045,-3.07526 l 0,-3.31869 -31.793,-7.02754 0,3.53993 q 3.2889,1.39073 4.2756,3.3788 0.7674,1.27586 0.7674,5.03703 l 0.1097,19.0514 q 0,10.50917 -6.249,9.12788 -2.3023,-0.50888 -5.5912,-2.56334 -5.92,-3.85291 -9.7571,-12.33405 -3.0697,-6.65216 -4.3852,-14.90779 -0.6579,-3.9066 -0.6579,-9.54838 0,-29.64695 19.1854,-25.40618 1.206,0.26656 2.4119,0.75439 1.206,0.37717 2.4119,0.86498 7.126,3.23448 11.0728,8.75302 3.0696,4.10785 5.92,12.81337 l 1.0963,0.24232 -2.3023,-27.27964 q -1.5348,1.54133 -3.5082,1.10514 -0.4384,-0.0969 -1.5348,-0.44988 -0.9867,-0.43935 -2.5215,-0.99985 -6.4682,-2.53597 -12.9364,-3.96571 -23.0225,-5.0889 -34.5337,6.41578 -7.126,7.27469 -7.126,22.31941 0,19.8015 11.5112,33.96136 11.7305,14.09771 31.3545,18.43541 l 32.7796,7.24562 z"
         id="path4275"
         inkscape:connector-curvature="0"
         style="fill:#000000;fill-opacity:1" />
      <path
         d="m 1576.3672,771.42255 q 0,-17.84907 -9.806,-31.52165 -10.2466,-14.22768 -27.9855,-18.83059 -16.8574,-4.37418 -27.2144,4.83776 -9.916,8.88561 -9.916,25.74306 0,9.91615 3.1951,19.77995 3.8563,11.13714 10.7976,18.44725 8.3737,8.89376 22.5868,12.5818 17.7389,4.60292 28.3161,-4.33151 10.0263,-8.52647 10.0263,-26.70607 z m -22.146,1.52534 q 0,12.11973 -2.0934,16.86515 -2.9749,7.16099 -10.5772,5.18833 -6.6108,-1.71539 -11.1281,-9.0576 -3.1953,-5.34646 -5.0683,-16.74024 -0.5509,-4.21956 -0.8815,-8.382 -0.3305,-4.1624 -0.3305,-8.34922 0,-26.7736 13.3317,-23.31425 9.806,2.54447 14.103,19.41512 2.6443,10.82263 2.6443,24.37471 z"
         id="path4277"
         inkscape:connector-curvature="0"
         style="fill:#000000;fill-opacity:1" />
      <path
         d="m 1646.9345,755.68502 0,-3.67785 -20.069,-6.18951 0,3.56641 q 2.8358,1.87764 3.7083,3.48415 0.8726,1.49507 0.8726,4.50424 l 0,18.27785 -9.1619,-14.41648 q -1.8543,-3.13523 -3.2721,-5.46717 -1.3089,-2.29831 -2.1815,-3.7934 -1.527,-2.5885 -1.527,-3.59154 0,-1.67176 2.2905,-1.85696 l 0,-3.56641 -35.9932,-11.10072 0,3.56641 q 3.8174,2.06895 3.8174,4.63231 l 0,63.52669 q 0,3.12061 -0.9816,4.26672 -0.9817,1.03464 -3.9266,0.90654 l 0,3.56642 20.7235,6.39134 0,-3.56641 q -3.1631,-1.97859 -4.2538,-3.65237 -1.0907,-1.78522 -1.0907,-5.12874 l 0,-57.84273 27.5948,45.40062 q 2.0724,3.42541 3.3813,5.94664 1.4178,2.55485 2.1813,4.35061 2.5087,5.67751 2.5087,10.58132 0,2.34046 -0.4364,4.65781 -0.4362,2.31737 -1.636,2.9504 -0.4363,0.0883 -1.3088,0.26503 -0.8726,0.0652 -2.2905,0.0737 l 0,3.56642 20.069,6.18951 0,-3.56642 q -2.7268,-1.84401 -3.5993,-3.33907 -0.4363,-0.91472 -0.4363,-4.36968 l 0,-61.29769 q 0,-2.67481 1.1998,-3.53072 0.6544,-0.46689 3.8175,-0.71731 z"
         id="path4279"
         inkscape:connector-curvature="0"
         style="fill:#000000;fill-opacity:1" />
    </g>
    <g
       style="font-style:normal;font-variant:normal;font-weight:bold;font-stretch:normal;font-size:97.86016083px;line-height:125%;font-family:'Brian James Condensed';-inkscape-font-specification:'Brian James Condensed, Bold';letter-spacing:0px;word-spacing:0px;fill:#000000;fill-opacity:1;stroke:none;stroke-width:1px;stroke-linecap:butt;stroke-linejoin:miter;stroke-opacity:1"
       id="text4282"
       transform="translate(-12.011827,25.920258)">
      <path
         d="m 1350.9393,556.58078 q 0.1677,-13.74026 -11.6223,-19.76781 -2.3587,-1.15364 -21.8992,-6.51805 -11.6998,-3.19693 -11.6159,-10.06707 0.061,-4.92574 3.9742,-8.43311 3.5325,-2.92548 8.5379,-3.77145 18.1449,-3.06667 22.8689,19.16058 l 1.7519,-0.29609 0.3828,-31.36925 q -3.7764,2.44927 -5.5284,2.74536 -1.001,0.16921 -5.6215,0.17397 -5.495,0.0231 -9.6197,0.33225 -4.1249,0.30906 -7.0028,0.7955 -13.0145,2.19956 -21.9784,10.18242 -9.9759,9.05943 -10.1356,22.15158 -0.032,2.59249 0.3184,4.60303 1.6458,8.3888 7.5971,11.9105 1.611,1.02129 4.9691,2.13538 3.4833,1.09294 8.8373,2.38714 l 7.0964,1.77583 q 8.0928,1.99556 10.9456,3.58313 5.7073,3.04548 5.6282,9.52672 -0.092,7.51825 -5.6532,12.98573 -4.8041,4.82202 -12.4375,6.11217 -11.3876,1.92461 -19.1526,-6.46486 -6.4106,-6.80735 -9.1321,-19.15379 l -2.1273,0.35954 2.2784,38.4222 q 4.2785,-2.66346 5.2794,-2.83263 0.3755,-0.0633 1.6236,-0.0158 1.375,-0.10298 3.496,0.0559 4.619,0.12486 8.8689,-0.20535 4.3735,-0.22175 8.6282,-0.94084 16.3928,-2.77058 27.4983,-12.27962 12.7482,-11.08022 12.9459,-27.28334 z"
         id="path4287"
         inkscape:connector-curvature="0"
         style="fill:#000000;fill-opacity:1" />
      <path
         d="m 1424.7287,507.73011 -4.2462,-23.6186 q -3.9892,2.66272 -9.0075,3.21188 l -46.1951,5.05521 q -2.9595,0.32387 -6.5625,-1.10327 l -5.0185,24.2277 1.9301,-0.21122 q 2.5737,-6.96019 7.3348,-10.82049 4.761,-3.96147 13.3823,-6.22038 l 0,56.86891 q 0,2.93451 -1.1581,4.37672 -1.158,1.4422 -4.6324,2.63193 l 0,3.0357 37.5738,-4.11177 0,-3.0357 q -3.7316,-0.50236 -5.2758,-1.54766 -1.4152,-1.1606 -1.4152,-4.09511 l 0,-56.86891 q 16.2132,0.45193 21.3602,12.43627 l 1.9301,-0.21121 z"
         id="path4289"
         inkscape:connector-curvature="0"
         inkscape:transform-center-x="-97.359016"
         inkscape:transform-center-y="70.209816"
         style="fill:#000000;fill-opacity:1" />
      <path
         d="m 1500.838,528.71894 -2.0659,-0.38279 c -4.861,8.16778 -9.6005,13.67424 -14.2185,16.51937 -4.5369,2.84063 -9.56,4.4142 -15.0691,4.72072 -1.9445,0.10819 -3.4838,-0.0716 -4.618,-0.53943 -2.0254,-0.75003 -3.0381,-3.91234 -3.0381,-9.48693 l 0,-26.50735 c 0.5671,-0.098 1.0937,-0.16045 1.5798,-0.1875 0.5671,-0.0315 1.0937,-0.0608 1.5798,-0.0879 4.78,-0.26595 8.3447,0.43162 10.6942,2.09273 2.0254,1.34732 3.7673,3.97133 5.2256,7.87203 l 1.8229,-0.10142 -2.9166,-25.32151 -1.9444,0.10818 c 0.081,3.8446 -1.5797,6.3593 -4.9825,7.54409 -0.8101,0.31053 -2.1469,0.58399 -4.0103,0.8204 -1.7824,0.16557 -4.1319,0.36265 -7.0485,0.59126 l 0,-7.73647 c 0,-2.98638 0.2835,-4.9599 0.8506,-5.92055 0.8102,-1.63782 2.8762,-2.54914 6.1979,-2.73395 6.9674,-0.38766 12.3145,0.74166 16.0413,3.38796 2.9976,2.15597 5.7927,6.08184 8.3853,11.77763 l 1.3367,-0.0744 -3.8888,-23.97332 c -1.8634,1.09914 -3.2407,1.6735 -4.1318,1.72308 l -53.9574,3.00211 0,3.18548 c 2.2685,0.47106 3.7268,1.08674 4.375,1.84705 0.7292,0.7558 1.0938,2.06279 1.0938,3.92098 l 0,53.25713 c 0,1.99092 -0.3646,3.43803 -1.0938,4.34134 -0.6482,0.89879 -2.1065,1.70993 -4.375,2.43343 l 0,3.18546 52.1345,-2.90069 c 2.2684,-0.12621 4.7799,0.0659 7.5346,0.57625 l 8.5067,-26.95254 z"
         id="path4291"
         inkscape:connector-curvature="0"
         sodipodi:nodetypes="cccscscccccccccccscsccccscccsscccsccc"
         style="fill:#000000;fill-opacity:1" />
      <path
         d="m 1575.6501,523.91909 -2.0068,0 q -3.5119,8.17334 -9.4067,14.42947 -7.9017,8.27424 -16.305,8.27424 -2.5085,0 -3.8881,-0.70634 -3.2609,-1.51358 -3.2609,-10.49416 l 0,-45.60922 q 0,-3.12807 1.2542,-4.33893 1.2542,-1.31177 5.2676,-2.0181 l 0,-3.22898 -36.7488,0 0,3.22898 q 3.5117,0.90814 4.3898,1.81629 1.2542,1.10996 1.2542,4.03622 l 0,55.09432 q 0,2.72444 -1.1289,3.8344 -1.1287,1.00905 -4.5151,1.91721 l 0,3.22896 49.6675,0 q 5.2677,0 6.6474,0.90815 l 8.7796,-30.37251 z"
         id="path4293"
         inkscape:connector-curvature="0"
         style="fill:#000000;fill-opacity:1" />
      <path
         d="m 1648.6548,526.8832 -2.048,-0.0827 q -3.5843,8.1273 -9.6007,14.21605 -8.0643,8.04854 -16.6409,7.70228 -2.5601,-0.10336 -3.9681,-0.87507 -3.3282,-1.66622 -3.3282,-10.75521 l 0,-46.15979 q 0,-3.16583 1.28,-4.33963 1.2801,-1.27591 5.3763,-1.82541 l 0,-3.26795 -37.506,-1.51424 0,3.26795 q 3.5842,1.06382 4.4802,2.01911 1.2801,1.17504 1.2801,4.13662 l 0,55.7594 q 0,2.75733 -1.152,3.83417 -1.1521,0.97471 -4.6083,1.75429 l 0,3.26795 50.6907,2.04655 q 5.3763,0.21705 6.7844,1.19301 l 8.9605,-30.37739 z"
         id="path4295"
         inkscape:connector-curvature="0"
         style="fill:#000000;fill-opacity:1" />
      <path
         d="m 1726.2298,564.34119 0,-3.2427 q -1.5472,-0.95034 -2.5786,-1.65146 -0.9025,-0.7908 -1.2893,-1.23107 -0.7737,-0.77916 -1.5471,-3.58502 l -16.7612,-57.55101 q -0.3869,-1.55493 -0.3869,-2.56828 0,-1.92535 2.7075,-2.79564 l 0,-2.63471 -36.3587,-3.28196 0,2.53337 q 2.1917,0.70452 2.1917,2.83254 0,1.21601 -0.7735,3.07154 l -21.6606,53.57615 q -1.5472,4.01506 -5.4152,5.89527 l 0,3.24271 23.2078,2.09487 0,-3.2427 q -4.8994,-2.46896 -4.8994,-5.40765 0,-0.304 0,-0.70935 0.129,-0.49501 0.2579,-0.99005 0.7735,-2.26089 1.2893,-4.03835 0.6446,-1.76582 1.0315,-2.8456 l 4.3835,-12.57513 q 7.9939,1.12691 12.6355,3.67392 3.0943,1.69799 5.6729,3.95744 2.7076,2.27112 4.6416,4.97904 1.934,2.70794 2.9654,5.63841 1.0316,2.82915 1.0316,5.66653 0,3.64804 -4.2549,4.88533 l 0,3.2427 33.9092,3.06086 z m -35.8431,-34.85181 q -9.1542,-5.99439 -17.6638,-6.66118 l -0.7735,-0.0698 9.2831,-25.00236 9.1542,31.73338 z"
         id="path4297"
         inkscape:connector-curvature="0"
         style="fill:#000000;fill-opacity:1" />
      <path
         d="m 1810.135,600.69084 0,-4.12426 q -2.4623,-0.77647 -3.201,-3.1231 -3.5702,-11.19161 -5.9094,-18.25744 -2.3391,-7.06578 -3.324,-10.10868 -5.7863,-16.04049 -12.1882,-27.57087 3.9396,-2.1344 6.5249,-3.7808 2.7086,-1.7493 4.309,-3.08764 5.5401,-5.1482 5.5401,-11.72124 0,-13.40384 -19.6981,-17.55343 l -52.692,-11.10005 0,4.12427 q 3.2009,1.70535 4.3089,3.48536 1.2312,1.67707 1.2312,5.15692 l 0,69.85463 q 0,3.60872 -1.1082,5.05073 -1.1079,1.31322 -4.4319,1.64406 l 0,4.12426 35.3332,7.44326 0,-4.12426 q -5.6631,-2.48181 -5.6631,-9.57037 l 0,-34.28291 6.8942,-1.25421 q 4.4321,9.8266 7.3869,17.15098 2.9546,7.19544 4.5551,12.04351 3.2009,10.34052 3.2009,14.07814 0,3.99537 -3.6935,4.50613 l 0,4.12426 32.625,6.87275 z m -32.3786,-84.15069 q 0,14.56379 -18.59,16.57625 l 0,-16.36814 q 0,-9.66623 2.9547,-10.97705 1.7236,-0.66797 4.9245,0.006 10.7108,2.25632 10.7108,10.76261 z"
         id="path4299"
         inkscape:connector-curvature="0"
         style="fill:#000000;fill-opacity:1" />
      <g
         transform="matrix(1.1722945,0,0,0.85302797,10.28178,-30.621822)"
         style="font-style:normal;font-variant:normal;font-weight:bold;font-stretch:normal;font-size:30.55626869px;line-height:125%;font-family:'Brian James Condensed';-inkscape-font-specification:'Brian James Condensed, Bold';letter-spacing:0px;word-spacing:0px;fill:#000000;fill-opacity:1;stroke:none;stroke-width:1px;stroke-linecap:butt;stroke-linejoin:miter;stroke-opacity:1"
         id="text4301">
        <path
           d="m 1322.4103,713.28742 -0.5683,-0.0291 q -0.9947,1.96577 -1.8827,2.83696 -1.3498,1.3059 -3.3745,1.20218 -1.4564,-0.0746 -2.6286,-0.68467 -2.5576,-1.32271 -3.8364,-4.22994 -1.0656,-2.37687 -1.0656,-5.31027 0,-3.02507 1.1012,-5.07705 1.4208,-2.76895 4.5112,-2.61064 3.9073,0.20015 6.1453,6.30383 l 0.3551,0.0182 -0.7814,-8.41245 q -1.1013,0.70749 -1.8471,0.66929 0.035,0.002 -0.5683,-0.15134 -0.604,-0.15316 -1.8117,-0.45948 -1.4564,-0.38016 -3.0904,-0.46386 -2.4864,-0.12737 -4.4401,0.5059 -4.8664,1.64521 -6.1807,6.19187 -0.2487,0.87339 -0.3908,1.7828 -0.1069,0.91121 -0.1069,1.88901 0,5.1029 2.9838,8.31137 1.8826,2.02149 4.4047,2.88403 2.0247,0.68429 5.3992,0.85715 2.9838,0.15285 3.6942,0.18924 0.746,0.0382 -0.7459,-0.0688 2.1667,0.14159 2.6286,0.44022 l 2.0957,-6.58448 z"
           id="path4339"
           inkscape:connector-curvature="0"
           style="fill:#000000;fill-opacity:1" />
        <path
           d="m 1346.4833,709.62986 q 0,-4.95012 -2.9192,-8.24207 -3.0503,-3.42342 -8.331,-3.79566 -5.0184,-0.35374 -8.1014,2.72902 -2.952,2.96977 -2.952,7.64488 0,2.75006 0.9511,5.32272 1.1481,2.8921 3.2144,4.56557 2.4928,2.03965 6.7239,2.33789 5.2807,0.37224 8.4294,-2.64478 2.9848,-2.87579 2.9848,-7.91757 z m -6.5927,1.552 q 0,3.36119 -0.6232,4.78396 -0.8855,2.13763 -3.1487,1.9781 -1.968,-0.13872 -3.3128,-1.94467 -0.9511,-1.31985 -1.5087,-4.38423 -0.1641,-1.14214 -0.2624,-2.27965 -0.099,-1.13756 -0.099,-2.2987 0,-7.42517 3.9687,-7.14542 2.9191,0.20577 4.1983,4.66548 0.7871,2.86666 0.7871,6.62508 z"
           id="path4341"
           inkscape:connector-curvature="0"
           style="fill:#000000;fill-opacity:1" />
        <path
           d="m 1372.3985,722.58653 0,-0.9778 q -0.9473,-0.35908 -1.2946,-0.72602 -0.3475,-0.39752 -0.3475,-1.28365 l 0,-16.68373 q 0,-0.82502 0.379,-1.1275 0.2526,-0.19147 1.2631,-0.3768 l 0,-0.9778 -10.578,-0.93881 0,0.9778 q 0.6,0.0532 0.6,0.69494 0,0.33612 -1.7683,5.25152 -2.0524,-5.13227 -2.0524,-5.5295 0,-0.7028 0.7894,-0.63274 l 0,-0.9778 -10.6095,-0.94161 0,0.9778 q 1.1998,0.4426 1.4209,1.01225 0.1263,0.25566 0.1263,1.6918 l 0,15.82815 q 0,0.82502 -0.3474,1.19141 -0.3158,0.33865 -1.1998,0.47409 l 0,0.9778 6.3783,0.56608 0,-0.9778 q -1.4841,-0.34561 -1.7367,-1.49861 -0.031,-0.21664 -0.063,-0.43338 0,-0.24445 0,-0.55001 l 0,-15.64481 5.4943,13.90182 5.7152,-13.60975 0,16.65316 q 0,1.06947 -0.3158,1.37756 -0.2842,0.34146 -1.3893,0.48783 l 0,0.9778 9.536,0.84633 z"
           id="path4343"
           inkscape:connector-curvature="0"
           style="fill:#000000;fill-opacity:1" />
        <path
           d="m 1394.5371,706.96473 q 0,-3.91121 -5.8821,-4.56214 l -13.027,-1.44161 0,0.9778 q 0.8641,0.37064 1.1631,0.73985 0.2991,0.33866 0.2991,1.10257 l 0,16.01148 q 0,1.31392 -0.133,1.57421 -0.2658,0.52059 -1.3625,0.76591 l 0,0.9778 9.7039,1.07386 0,-0.9778 q -0.9638,-0.35111 -1.3293,-0.72767 -0.3656,-0.40714 -0.3656,-1.23216 l 0,-7.97518 q 2.3927,-0.3769 4.1209,-0.76622 1.7613,-0.41622 2.8247,-0.87911 3.9878,-1.60597 3.9878,-4.66159 z m -6.2477,0.13363 q 0,1.65003 -1.4954,2.79847 -1.3293,1.01403 -3.1903,1.26644 l 0,-5.01123 q 0,-1.28337 0.2327,-1.65485 0.3988,-0.59755 1.6283,-0.46149 2.8247,0.31259 2.8247,3.06266 z"
           id="path4345"
           inkscape:connector-curvature="0"
           style="fill:#000000;fill-opacity:1" />
        <path
           d="m 1413.678,726.77899 0,-0.9778 q -0.4171,-0.28406 -0.6953,-0.49382 -0.2432,-0.23699 -0.3475,-0.36912 -0.2086,-0.2337 -0.4171,-1.07852 l -4.5188,-17.32677 q -0.1046,-0.46827 -0.1046,-0.77383 0,-0.58057 0.7299,-0.84737 l 0,-0.79447 -9.8023,-0.93091 0,0.76391 q 0.591,0.20891 0.591,0.85059 0,0.36668 -0.2085,0.92745 l -5.8397,16.19024 q -0.4172,1.21319 -1.46,1.7864 l 0,0.9778 6.2569,0.59421 0,-0.9778 q -1.321,-0.73659 -1.321,-1.62272 0,-0.0917 0,-0.21389 0.035,-0.14945 0.069,-0.29901 0.2086,-0.68298 0.3476,-1.21979 0.1739,-0.53351 0.2782,-0.85971 l 1.1818,-3.79898 q 2.1551,0.3269 3.4064,1.08741 0.8342,0.50701 1.5295,1.18416 0.7299,0.68045 1.2513,1.49388 0.5214,0.81341 0.7995,1.6954 0.278,0.85142 0.278,1.70699 0,1.10003 -1.147,1.48001 l 0,0.9778 9.1419,0.86818 z m -9.6633,-10.45126 q -2.4679,-1.79275 -4.7621,-1.98006 l -0.2085,-0.0198 2.5027,-7.55418 2.4679,9.55404 z"
           id="path4347"
           inkscape:connector-curvature="0"
           style="fill:#000000;fill-opacity:1" />
        <path
           d="m 2085.8418,766.0957 0,1.04297 c 1.109,0.28082 1.6641,0.67033 1.6641,1.16992 l 0,18.57227 c 0,0.60819 -0.1426,1.03812 -0.4278,1.29297 -0.2851,0.23312 -0.8553,0.38561 -1.7109,0.45508 l 0,1.04297 9.0293,0.87109 0,-1.04297 c -0.9189,-0.28419 -1.5367,-0.57205 -1.8535,-0.86328 -0.3168,-0.31296 -0.4746,-0.79563 -0.4746,-1.44727 l 0,-16.91015 12.0234,11.94531 c 0.6021,0.60114 1.0943,1.12676 1.4746,1.57617 0.4119,0.45245 0.7294,0.84246 0.9512,1.16797 0.7288,1.02607 1.0918,2.01693 1.0918,2.97266 0,0.45614 -0.063,0.91717 -0.1895,1.38281 -0.1268,0.46562 -0.3643,0.77956 -0.7129,0.9414 l -0.5703,0.13868 c -0.2534,0.0407 -0.5862,0.0857 -0.998,0.13281 l 0,1.04297 8.7441,0.84375 0,-1.04297 c -0.7922,-0.27196 -1.3148,-0.53933 -1.5683,-0.80274 -0.1268,-0.16427 -0.1895,-0.5825 -0.1895,-1.25585 l 0,-17.91993 c 0,-0.5213 0.175,-0.88454 0.5234,-1.08984 1.6729,-0.86226 3.6884,0.15365 4.4375,1.45122 l 7.0703,10.6836 0,8.30859 c 0,0.65163 -0.1467,1.09576 -0.4414,1.33203 -0.2619,0.2414 -0.8512,0.38927 -1.7675,0.44141 l 0,1.04101 14.3359,2.24414 0,-1.04297 c -0.9819,-0.3491 -1.6536,-0.68301 -2.0137,-1 -0.36,-0.33869 -0.539,-0.83274 -0.539,-1.48437 l 0,-8.30859 7.6093,-8.35547 c 0.7856,-0.85456 1.4895,-1.27799 2.1114,-1.26758 l 0,-1.04102 -8.1504,-1.27539 0,1.04297 c 1.2764,0.30831 1.914,0.67886 1.914,1.11328 0,0.28238 -0.1951,0.6649 -0.5878,1.14649 -0.3601,0.42153 -0.6879,0.78252 -0.9825,1.08398 -0.2619,0.28484 -0.4911,0.53203 -0.6875,0.74024 l -3.289,3.58984 c -0.8511,-1.5233 -1.6052,-2.84739 -2.2598,-3.9707 -0.6545,-1.14502 -1.1936,-2.09773 -1.6191,-2.85938 -0.1965,-0.37827 -0.295,-0.68685 -0.295,-0.92578 0,-0.76024 0.6054,-1.04494 1.8164,-0.85547 l 0,-1.04297 -14.4422,-2.19669 -0.5578,-0.0611 -8.7441,-0.84382 0,1.04102 c 0.8237,0.275 1.3617,0.55667 1.6152,0.84179 0.2535,0.26341 0.3809,0.68698 0.3809,1.27344 l 0,5.34375 -3.9922,-3.77344 c -0.5388,-0.55159 -1.0139,-1.03239 -1.4258,-1.4414 -0.3802,-0.40597 -0.6976,-0.7405 -0.9511,-1.00391 -0.4437,-0.45551 -0.6661,-0.78107 -0.6661,-0.97656 0,-0.32582 0.3326,-0.54281 0.9981,-0.65235 l 0,-1.04296 z"
           transform="matrix(0.68242238,0,0,0.9378356,-7.6920748,-13.016538)"
           id="path4349"
           inkscape:connector-curvature="0"
           sodipodi:nodetypes="ccssccccccsccccsccccccccsscccsccccccsccccccsccccccscccccccsccccsccc"
           style="fill:#000000;fill-opacity:1" />
      </g>
      <g
         transform="scale(1.1722945,0.85302797)"
         style="font-style:normal;font-variant:normal;font-weight:bold;font-stretch:normal;font-size:30.55626869px;line-height:125%;font-family:'Brian James Condensed';-inkscape-font-specification:'Brian James Condensed, Bold';letter-spacing:0px;word-spacing:0px;fill:#000000;fill-opacity:1;stroke:none;stroke-width:1px;stroke-linecap:butt;stroke-linejoin:miter;stroke-opacity:1"
         id="text4301-0">
        <path
           d="m 1180.2699,679.71456 -1.1566,-7.08441 q -1.0865,0.84883 -2.4532,1.07097 l -12.5818,2.04495 q -0.806,0.13101 -1.7874,-0.2595 l -1.3668,7.37233 0.5256,-0.0854 q 0.7011,-2.13066 1.9977,-3.34975 1.2967,-1.24969 3.6449,-2.02857 l 0,17.17262 q 0,0.88614 -0.3154,1.33463 -0.3154,0.4485 -1.2617,0.84674 l 0,0.91669 10.2336,-1.66329 0,-0.91669 q -1.0163,-0.10983 -1.4369,-0.40814 -0.3855,-0.33457 -0.3855,-1.22071 l 0,-17.17262 q 4.4159,-0.0455 5.8177,3.51565 l 0.5258,-0.0855 z"
           id="path4324"
           inkscape:connector-curvature="0"
           style="fill:#000000;fill-opacity:1" />
        <path
           d="m 1202.9381,691.07526 0,-0.9778 q -0.6344,0.0349 -0.8248,-0.45574 -0.9199,-2.33586 -1.5226,-3.80301 -0.6027,-1.46716 -0.8564,-2.101 -1.4909,-3.28836 -3.1404,-5.45266 1.015,-0.85641 1.6812,-1.47667 0.6978,-0.65564 1.1103,-1.11528 1.4274,-1.71328 1.4274,-3.27165 0,-3.17785 -5.0753,-2.40977 l -13.5765,2.05462 0,0.9778 q 0.8248,0.11962 1.1103,0.4431 0.3172,0.28811 0.3172,1.11313 l 0,16.56149 q 0,0.85558 -0.2856,1.29604 -0.2855,0.40988 -1.1419,0.78394 l 0,0.9778 9.1039,-1.37776 0,-0.9778 q -1.4592,-0.0847 -1.4592,-1.76533 l 0,-8.12797 1.7763,-0.9105 q 1.142,1.93555 1.9033,3.40928 0.7613,1.44314 1.1737,2.45021 0.8247,2.16691 0.8247,3.05304 0,0.94724 -0.9516,1.39682 l 0,0.9778 8.406,-1.27213 z m -8.3426,-17.07123 q 0,3.45285 -4.7898,5.58332 l 0,-3.88064 q 0,-2.29172 0.7613,-2.86527 0.4441,-0.31167 1.2688,-0.43648 2.7597,-0.41765 2.7597,1.59907 z"
           id="path4326"
           inkscape:connector-curvature="0"
           style="fill:#000000;fill-opacity:1" />
        <path
           d="m 1224.1569,688.71701 0,-0.9778 q -0.4063,-0.19493 -0.6772,-0.34525 -0.2371,-0.18502 -0.3386,-0.29487 -0.2032,-0.18912 -0.4063,-0.98939 l -4.4017,-16.36119 q -0.1019,-0.44592 -0.1019,-0.75149 0,-0.58057 0.7111,-1.00334 l 0,-0.79447 -9.5483,1.16364 0,0.76391 q 0.5756,0.0826 0.5756,0.7243 0,0.36668 -0.2031,0.97201 l -5.6884,17.43806 q -0.4063,1.30233 -1.4221,2.09836 l 0,0.9778 6.0947,-0.74275 0,-0.9778 q -1.2867,-0.45432 -1.2867,-1.34045 0,-0.0917 0,-0.21389 0.034,-0.15698 0.068,-0.31381 0.2032,-0.72756 0.3386,-1.29407 0.1693,-0.57065 0.271,-0.91916 l 1.1511,-4.05149 q 2.0993,-0.13363 3.3182,0.35953 0.8126,0.32876 1.4898,0.85735 0.711,0.52449 1.2189,1.22648 0.5079,0.70202 0.7788,1.52459 0.2708,0.79201 0.2708,1.64758 0,1.10003 -1.1173,1.72509 l 0,0.9778 8.905,-1.08522 z m -9.4129,-8.38643 q -2.404,-1.2654 -4.6386,-0.9625 l -0.2032,0.0248 2.4378,-8.08894 2.404,9.02669 z"
           id="path4328"
           inkscape:connector-curvature="0"
           style="fill:#000000;fill-opacity:1" />
        <path
           d="m 1245.4496,665.47585 0,-1.00836 -5.968,0.475 0,0.9778 q 0.8433,0.20789 1.1028,0.55391 0.2594,0.31547 0.2594,1.14049 l 0,5.01123 -2.7245,-2.961 q -0.5514,-0.65891 -0.973,-1.14481 -0.3893,-0.48848 -0.6487,-0.80395 -0.4541,-0.54443 -0.4541,-0.81943 0,-0.45835 0.6812,-0.75701 l 0,-0.9778 -10.7035,0.85191 0,0.9778 q 1.1353,0.1541 1.1353,0.8569 l 0,17.41707 q 0,0.85558 -0.292,1.27604 -0.2919,0.3899 -1.1677,0.67351 l 0,0.9778 6.1626,-0.49049 0,-0.9778 q -0.9406,-0.20015 -1.2649,-0.54101 -0.3243,-0.37142 -0.3243,-1.2881 l 0,-15.85871 8.2059,9.461 q 0.6163,0.71485 1.0055,1.26444 0.4217,0.54701 0.6487,0.95673 0.746,1.2851 0.746,2.62957 0,0.64168 -0.1297,1.32425 -0.1298,0.68257 -0.4866,0.98597 -0.1297,0.0714 -0.3892,0.21432 -0.2595,0.11234 -0.681,0.2681 l 0,0.9778 5.9679,-0.475 0,-0.9778 q -0.8109,-0.21047 -1.0704,-0.52593 -0.1297,-0.20357 -0.1297,-1.15082 l 0,-16.80594 q 0,-0.73336 0.3567,-1.09787 0.1947,-0.19883 1.1353,-0.60981 z"
           id="path4330"
           inkscape:connector-curvature="0"
           style="fill:#000000;fill-opacity:1" />
        <path
           d="m 1266.2798,677.59069 q 0,-3.12901 -3.0952,-4.78895 -0.619,-0.32018 -5.7342,-2.0166 -3.0627,-1.01231 -3.0627,-2.57681 0,-1.12173 1.01,-1.82671 0.9123,-0.58152 2.2156,-0.6532 4.7242,-0.25986 6.0275,4.92286 l 0.4561,-0.0251 0,-7.14362 q -0.9774,0.46703 -1.4336,0.49212 -0.2607,0.0144 -1.4661,-0.0965 -1.4336,-0.12778 -2.5088,-0.15719 -1.0751,-0.0295 -1.8245,0.0118 -3.3885,0.18638 -5.7017,1.78957 -2.5739,1.82417 -2.5739,4.80559 0,0.59039 0.098,1.05729 0.4561,1.9527 2.02,2.89984 0.4236,0.27189 1.3032,0.60726 0.9123,0.33357 2.3133,0.75833 l 1.8571,0.57678 q 2.1178,0.65102 2.8671,1.08211 1.4987,0.83266 1.4987,2.30861 0,1.71211 -1.4334,2.82412 -1.2382,0.98319 -3.2256,1.09251 -2.9649,0.16308 -5.0175,-1.93795 -1.6942,-1.70747 -2.4436,-4.58864 l -0.5539,0.0304 0.7168,8.81629 q 1.1078,-0.50371 1.3684,-0.51805 0.098,-0.006 0.4236,0.0358 0.3584,0.01 0.9123,0.0974 1.2054,0.14033 2.3132,0.16795 1.1403,0.0554 2.2481,-0.006 4.2681,-0.23477 7.1353,-2.1341 3.2906,-2.21782 3.2906,-5.9077 z"
           id="path4332"
           inkscape:connector-curvature="0"
           style="fill:#000000;fill-opacity:1" />
        <path
           d="m 1277.9902,684.00051 0,-0.9778 q -0.9167,-0.22117 -1.2528,-0.56811 -0.3056,-0.34872 -0.3056,-1.23485 l 0,-16.62261 q 0,-0.82502 0.3667,-1.18267 0.2444,-0.25881 1.1917,-0.58946 l 0,-0.9778 -8.9225,0.52406 0,0.9778 q 0.764,0.19957 1.0695,0.51775 0.3056,0.31817 0.3056,1.08208 l 0,16.74483 q 0,0.79447 -0.3056,1.17909 -0.275,0.38283 -1.0695,0.67395 l 0,0.9778 8.9225,-0.52406 z"
           id="path4334"
           inkscape:connector-curvature="0"
           style="fill:#000000;fill-opacity:1" />
        <path
           d="m 1299.1109,668.18535 -1.1451,-7.2724 q -1.0758,0.67224 -2.4291,0.67224 l -12.4578,0 q -0.7981,0 -1.7698,-0.55001 l -1.3532,7.15017 0.5205,0 q 0.694,-2.01672 1.9779,-3.02507 1.284,-1.03892 3.609,-1.43615 l 0,17.17262 q 0,0.88614 -0.3124,1.28337 -0.3123,0.39723 -1.2492,0.64168 l 0,0.91669 10.1328,0 0,-0.91669 q -1.0064,-0.27501 -1.4228,-0.64168 -0.3817,-0.39723 -0.3817,-1.28337 l 0,-17.17262 q 4.3723,0.67224 5.7604,4.46122 l 0.5205,0 z"
           id="path4336"
           inkscape:connector-curvature="0"
           style="fill:#000000;fill-opacity:1" />
      </g>
    </g>
  </g>
</svg>
