<svg xmlns="http://www.w3.org/2000/svg" viewBox="0 0 1600 1200"><path d="M526.7 671.8h16.7v62h-16.7z"/><path d="M128.2 620.3v242.2h1343.4V620.3H128.2zm50 212.7h-16.7V653.2h16.7V833zm99.7-1.8H262c-3-19-6.4-37.9-10.1-56.7-3.6-18.8-6.7-38.3-9.2-58.4h-.4c.3 3.7.5 8.4.7 14.1.3 5.5.5 11.3.7 17.1.3 5.9.5 11.7.7 17.4.2 5.5.2 10.3.2 14.4v52.1h-16.7V651.3h15.8c3 19 6.3 37.9 9.9 56.7 3.8 18.8 6.9 38.3 9.5 58.4h.4c-.2-3.9-.4-8.6-.7-14.1-.3-5.5-.6-11.3-.9-17.1-.2-5.9-.3-11.6-.4-17.1-.2-5.7-.2-10.6-.2-14.6v-52.1H278l-.1 179.8zm93.5-159.4h-16.7V833H338V671.8h-16.7v-18.6h50l.1 18.6zm93.3 0h-33.4v62h25v18.6h-25v62h33.4V833h-33.4c-4.6 0-8.9-1.9-11.9-5.3-3.2-3.7-4.8-8.5-4.7-13.3V671.8c-.1-4.8 1.5-9.5 4.7-13.1 3-3.5 7.3-5.6 11.9-5.5h33.4v18.6zM547 833c-1-2-1.8-4.1-2.5-6.3-.7-2.3-1.1-4.7-1.1-7.1v-67.2h-16.7V833H510V653.2h33.4c4.6-.1 8.9 2 11.7 5.5 3.3 3.5 5.1 8.2 5 13.1v56.9c0 4.4-.8 7.6-2.3 9.6-1.4 1.9-3.2 3.5-5.2 4.8 2.2 1 4.1 2.6 5.2 4.8 1.5 2.4 2.3 6.3 2.3 11.8v60c0 2.3.3 4.6 1.1 6.8.9 2.2 1.8 4.4 2.9 6.5H547zm112.9-99.2c.1 4.9-1.7 9.7-5 13.4-2.9 3.4-7.2 5.4-11.7 5.3h-16.7v80.6h-16.7V653.2h33.4c4.6-.1 8.9 2 11.7 5.5 3.3 3.5 5.1 8.2 5 13.1v62zm96.7 99.2h-50.1V653.2h16.7v161.2h16.7v-37.3h16.7V833zm95.4 0h-16.7v-80.6h-16.7V833h-16.7V679.6c0-3.7.6-7.4 2-10.8 1.3-3.2 3.1-6.2 5.4-8.8 2.2-2.5 4.9-4.5 7.9-6 6.1-3 13.3-3 19.4 0 3 1.5 5.7 3.5 7.9 6 2.3 2.6 4.1 5.6 5.4 8.8 1.4 3.4 2 7.1 2 10.8L852 833zm99.8 0H936c-3-19-6.4-37.9-10.1-56.7-3.6-18.8-6.7-38.3-9.2-58.4h-.5c.3 3.7.5 8.4.7 14.1.3 5.5.5 11.3.7 17.1.3 5.9.5 11.7.7 17.4.2 5.5.2 10.3.2 14.4V833h-16.7V653.2h15.8c3 19 6.3 37.9 9.9 56.7 3.8 18.8 6.9 38.3 9.5 58.4h.5c-.2-3.9-.4-8.6-.7-14.1-.3-5.5-.6-11.3-.9-17.1-.2-5.9-.3-11.6-.5-17.1-.2-5.7-.2-10.6-.2-14.6v-52.1h16.7l-.1 179.7zm100.4-161.2h-33.4v62h25v18.6h-25v62h33.4V833h-33.4c-4.6 0-8.9-1.9-11.9-5.3-3.2-3.7-4.8-8.5-4.7-13.3V671.8c-.1-4.8 1.5-9.5 4.7-13.1 3-3.5 7.3-5.6 11.9-5.5h33.4v18.6zm88.4 0H1124V833h-16.7V671.8h-16.7v-18.6h50v18.6zM1234 833h-16.7v-80.6h-16.7V833H1184V679.6c0-3.7.6-7.4 2-10.8 1.3-3.2 3.1-6.2 5.4-8.8 2.2-2.5 4.9-4.5 7.9-6 6.1-3 13.3-3 19.4 0 3 1.5 5.7 3.5 7.9 6 2.3 2.6 4.1 5.6 5.4 8.8 1.4 3.4 2 7.1 2 10.8V833zm87.3 0c-1-2-1.8-4.1-2.5-6.3-.7-2.3-1.1-4.7-1.1-7.1v-67.2H1301V833h-16.7V653.2h33.4c4.6-.1 8.9 2 11.7 5.5 3.3 3.5 5.1 8.2 5 13.1v56.9c0 4.4-.8 7.6-2.3 9.6-1.4 1.9-3.2 3.5-5.2 4.8 2.2 1 4.1 2.6 5.2 4.8 1.5 2.4 2.3 6.3 2.3 11.8v60c0 2.3.3 4.6 1.1 6.8.9 2.2 1.8 4.4 2.9 6.5h-17.1zm112.9-106.8c.1 5.7-1.5 11.3-4.5 16.1-2.9 4.6-7.1 8.2-12.2 10.3V833h-16.7v-80.3c-5-2.1-9.3-5.7-12.2-10.3-3-4.8-4.6-10.4-4.5-16.1v-73h16.7v80.9h16.7v-80.9h16.7v72.9z"/><path d="M626.5 671.8h16.7v62h-16.7zM1301.1 671.8h16.7v62h-16.7zM1200.6 671.8h16.7v62h-16.7zM818.6 671.8h16.7v62h-16.7zM683.9 337.5v62.4h186.5v191.9h62.8V338.1l-249.3-.6zm480 .6l-120.7 104.1v86.1l39.6-32.4 90.8 96h43.9v-45.6l-86.6-89 77.6-77v-42.1l-44.6-.1zm-1035.7 0v62.3l176.2.2v129.2l-113.3-.8V415.1h-62.9v176.6c69.8-.1 209.5 0 209.5 0l30.4-31.1V370l-30.4-31.8H128.2zm302 0l-30.8 29.4v224.2h62.5V495h16.5l124.8 96.7h46.6v-46.6L585.1 495h64.4V338.1H476.4v61.4h111.1v32.4H461.8v-93.8h-31.6zm566.1 0L965 367.2v224.6h61.6l-.3-224.6-30-29.1zm235.3 0V400h209.8l30.4-32.1-30.4-29.8h-209.8zm0 76.1V558.9l29.5 32.8h180.4l30.1-31.8-30.1-30.5h-147.8v-35.5h115l29.7-29.6-29.7-31.5h-115v-17.7l-62.1-.9zm-547.7.9v176.7h63.6v-74.6h82.2l31.9-30.6-31.9-31.1h-82.2v-40.3l-63.6-.1z"/></svg>