<svg xmlns="http://www.w3.org/2000/svg" viewBox="0 0 640 480"><defs><style>.a{fill:#c41906;}.b{fill:none;}.c{fill:#ed5b41;}</style></defs><title>Escar Limited</title><path class="a" d="M287.51,208.71v13.8h23.4v13.7h-23.4V250h32.06v13.6H273.19V195.11h46.38v13.6Z"/><path class="a" d="M353.17,264.29a34.12,34.12,0,0,1-9.39-1.29,35.68,35.68,0,0,1-8.55-3.68h.1a31.52,31.52,0,0,1-5.06-3.68c-1.48-1.32-2.5-2.28-3.07-2.88l11-9.54a14.2,14.2,0,0,0,2.38,2.13,28.39,28.39,0,0,0,3.74,2.39,29.38,29.38,0,0,0,4.44,1.94,13.6,13.6,0,0,0,4.43.79,16.93,16.93,0,0,0,3.59-.39,11.68,11.68,0,0,0,3.27-1.25,7.31,7.31,0,0,0,2.43-2.23,6.07,6.07,0,0,0,1-3.48,3.45,3.45,0,0,0-.58-1.74,8.26,8.26,0,0,0-2-2,24.09,24.09,0,0,0-4-2.33,67.37,67.37,0,0,0-6.33-2.64,82.21,82.21,0,0,1-8.23-3.43,28.12,28.12,0,0,1-6.6-4.32,18.09,18.09,0,0,1-4.33-5.67,16.76,16.76,0,0,1-1.53-7.35,19.23,19.23,0,0,1,1.69-8,18.92,18.92,0,0,1,4.8-6.46,22.56,22.56,0,0,1,7.5-4.28,29.13,29.13,0,0,1,9.66-1.54,28.35,28.35,0,0,1,6.06.7,49.1,49.1,0,0,1,6.28,1.79,43,43,0,0,1,5.76,2.53,27.39,27.39,0,0,1,4.48,2.93L367,212q-2-1.29-4.12-2.39a35,35,0,0,0-4.12-1.69,14.57,14.57,0,0,0-4.75-.79,12.39,12.39,0,0,0-6.91,1.64,5.33,5.33,0,0,0-2.48,4.72,4,4,0,0,0,.9,2.53,8.85,8.85,0,0,0,2.42,2.09,22.46,22.46,0,0,0,3.54,1.74c1.34.53,2.74,1,4.22,1.49A81.22,81.22,0,0,1,366.36,226a30.13,30.13,0,0,1,7,5,15.5,15.5,0,0,1,3.74,5.67,19.06,19.06,0,0,1,1.11,6.61,18.49,18.49,0,0,1-1.9,8.25,20.61,20.61,0,0,1-5.22,6.71,25,25,0,0,1-7.92,4.47A29.5,29.5,0,0,1,353.17,264.29Z"/><path class="a" d="M449.56,252a45.67,45.67,0,0,1-12.77,9.1,33.61,33.61,0,0,1-14.47,3.23,35,35,0,0,1-14.72-3,35.61,35.61,0,0,1-20.92-32.36,34.48,34.48,0,0,1,2.95-14.31,35.69,35.69,0,0,1,7.91-11.28A36.1,36.1,0,0,1,409,196a34.7,34.7,0,0,1,27.23.29,38.58,38.58,0,0,1,12.27,8.4l-9.72,9.74A25.73,25.73,0,0,0,431,209a21.11,21.11,0,0,0-8.66-1.89,20.8,20.8,0,0,0-8.46,1.74,22.53,22.53,0,0,0-6.91,4.67,21.46,21.46,0,0,0-4.65,6.91,21.11,21.11,0,0,0-1.7,8.44,20.75,20.75,0,0,0,1.7,8.4,21.65,21.65,0,0,0,11.56,11.48,21.27,21.27,0,0,0,8.46,1.69,20.36,20.36,0,0,0,9.26-2.13,32,32,0,0,0,8.16-6Z"/><path class="a" d="M488.37,194.42l33.8,69.18H505.75l-6.12-12.52H471q-1.39,2.94-3.06,6.31T465,263.6H448.66L482,194.42ZM493,237.48l-7.73-15.85-7.72,15.85Z"/><path class="a" d="M582.79,263.6H567.16l-14.67-26.12h-8.93V263.6H528.89V195.11H559a23.41,23.41,0,0,1,8.82,1.66,23.65,23.65,0,0,1,7.28,4.55,22.47,22.47,0,0,1,5,6.7,18.55,18.55,0,0,1,1.86,8.22,19.69,19.69,0,0,1-3.62,11.6c-2.4,3.42-7.26,6.16-11.15,7.79ZM556.21,224c3.75,0,6.52-.76,8.29-2.3a7,7,0,0,0,2.66-5.43,6.72,6.72,0,0,0-2.66-5.33c-1.77-1.47-4.54-2.2-8.29-2.2H543.56V224Z"/><path d="M280.36,287.16h-7.28V275.07h2.4v9.69h4.88Z"/><path d="M322.09,287.16V275.07h2.38v12.09Z"/><path d="M380.59,275v12.21h-2.38v-7.81L373.86,286l-4.34-6.67v7.81h-2.4V275h3.25l3.49,5.67,4-5.67Z"/><path d="M423.5,287.16V275.07h2.38v12.09Z"/><path d="M477.5,277.47h-3.31v9.69h-2.4v-9.69h-3.36v-2.4h9.07Z"/><path d="M522.63,277.47v2.44h3.92v2.41h-3.92v2.44H528v2.4h-7.77V275.07H528v2.4Z"/><path d="M571.87,287.16V275.07h4.2a6.45,6.45,0,0,1,2.43.44,5.25,5.25,0,0,1,1.84,1.24,5.51,5.51,0,0,1,1.17,1.92,6.9,6.9,0,0,1,.42,2.46,6.62,6.62,0,0,1-.42,2.38,5.65,5.65,0,0,1-1.17,1.91,5.46,5.46,0,0,1-1.84,1.27,6.09,6.09,0,0,1-2.43.47Zm2.39-2.4h1.81a3.34,3.34,0,0,0,1.38-.28,3.23,3.23,0,0,0,1.09-.77,3.58,3.58,0,0,0,.73-1.15,4,4,0,0,0,.26-1.43,3.93,3.93,0,0,0-.26-1.42,3.63,3.63,0,0,0-.73-1.16,3.4,3.4,0,0,0-1.09-.78,3.34,3.34,0,0,0-1.38-.28h-1.81Z"/><rect class="b" x="55.7" y="222.89" width="91.52" height="34.23"/><path class="a" d="M217.74,159.09a126.68,126.68,0,0,0-162-28v28Z"/><path class="a" d="M120.33,366.63a126.35,126.35,0,0,0,97-45.2H55.7v27.46A126,126,0,0,0,120.33,366.63Z"/><path class="c" d="M147.23,222.89v34.22H55.7v30.1H237.86a127,127,0,0,0,.21-93.89H55.7v29.57Z"/></svg>