<svg id="Layer_1" data-name="Layer 1" xmlns="http://www.w3.org/2000/svg" xmlns:xlink="http://www.w3.org/1999/xlink" viewBox="0 0 512 512"><defs><style>.cls-1{fill:#fff;}.cls-2{fill:silver;}.cls-3{fill:#bfbfbf;}.cls-4{mask:url(#mask);}.cls-5{fill:#c93030;}.cls-5,.cls-8{fill-rule:evenodd;}.cls-6{mask:url(#mask-3);}.cls-7{mask:url(#mask-4);}.cls-8{fill:#0d0d0d;}</style><mask id="mask" x="82.6" y="42.87" width="346.27" height="425.66" maskUnits="userSpaceOnUse"><g id="mask-2"><rect id="path-1" class="cls-1" x="82.6" y="42.87" width="346.27" height="425.66"/></g></mask><mask id="mask-3" x="82.6" y="42.86" width="346.27" height="425.67" maskUnits="userSpaceOnUse"><g id="mask-2-4" data-name="mask-2"><rect id="path-1-3" data-name="path-1" class="cls-1" x="82.6" y="42.87" width="346.27" height="425.66"/></g></mask><mask id="mask-4" x="79.89" y="42.85" width="348.98" height="425.69" maskUnits="userSpaceOnUse"><g id="mask-2-5" data-name="mask-2"><rect id="path-1-4" data-name="path-1" class="cls-1" x="82.6" y="42.87" width="346.27" height="425.66"/></g></mask></defs><g id="Atoms_Logo_Esperia_1" data-name="Atoms/Logo/Esperia/1"><rect id="White-BG" class="cls-2" x="64.78" y="24.7" width="381.92" height="462"/><g id="Lion-Image"><g id="Mask-Lion"><rect id="path-1-5" data-name="path-1" class="cls-3" x="82.6" y="42.87" width="346.27" height="425.66"/></g><g class="cls-4"><polygon id="Rectangle-1" class="cls-5" points="428.87 468.53 428.87 335.36 260.82 468.49 428.87 468.53"/></g><g class="cls-4"><polygon id="Rectangle-2" class="cls-5" points="428.87 272.73 428.87 67.64 362.45 173.27 428.87 272.73"/></g><g class="cls-6"><path id="Rectangle-3" class="cls-5" d="M340.49,42.86Q353.35,53,363,70.14q9.92,17.61,7.89,48.71l45.93-76Q340.5,42.89,340.49,42.86Z"/></g><g class="cls-7"><path id="Lion-Shape" class="cls-8" d="M164.16,265.18c-47.08,48.51-12.63,98.87,21.21,113.12,33.47,14.1,42.22,46.66,20.56,77.54.46-34.81-30.42-54.39-49.66-38.67-6.65,5.44-14,18.71-11.07,51.36h-1.69c-3,0-9.1,0-9.1,0-2-31.58-23-56.75-31.86-65.29C67.75,369.48,62.45,277.28,164.16,265.18ZM82.6,411.74c21.24,13.06,34.12,27.74,37.4,56.79H82.6V411.74ZM239,42.85A505.56,505.56,0,0,1,283.1,80.64c-.44-8.08-3.81-14.31-7.36-20.32a189.48,189.48,0,0,0-11.42-17.4h48c16.86,14.21,41.1,38,37,74.1-2.88,25.41-11.94,37.91-11.94,49.25q0,11.35,35.19,56.62-1.47,13.31-1.85,14.85l48.35,63.08c-4,11.91-14.5,25.2-24.11,32-5.17-2.24-6.55-8-6.29-11.46s3.81-8.17,3.81-16L385.62,303c-8.23,17.47-1.61,29.68,6.87,35.78-18.57,12.37-37.7,24.33-61,24.63l-.2-11.46c-8.39,4-24.39,9.8-24.28,9.67,15.89-17.44,11.71-40.15.78-48.48s-32-12.36-57.79,0c-3,18.05,2.26,39.81,18.71,53.69,10.48-1.35,17.87-1.34,29.51-6.94,0,0-5.15,13.22-5.08,13.22l.37.05,32.28,4.22c-13.38,20-27.55,53.19-91.12,74.75,35.41-39.6,15.35-68.38-6-76.49-34.4-13.08-41.89-45.53-37.61-58.22-6.72,2.47-16.42,17.94-7.93,31.78-34-21.76-20.6-55-7.64-72.77,6.94-.51,10.65-.51,17.12,1.35l1.44-1.85-29.74-27.82c-32.42,2.79-62.28,10.1-81.72,40,0,0,0-101.14,0-101.14,27.2,0,59.27,10.89,75.21,24.23C144,190.65,113,168.16,82.57,163v-9l0-111.12h20.16Q239,42.91,239,42.85ZM296.1,210.17l-.87,2.13q22.47,21.31,45,42.58c.4.37,1.59-.11,2.61-.21L331,232.84l8-8.85ZM195.69,105.63c-12.8,8.82-2.93,53.6,11.43,81-6.74-25.25-8.19-59.46-2.22-62.87s44.95,33.77,59.76,52.38c1.3-17,2.46-32.31,3.63-47.61l-2.78-.8-7.8,16C246.67,133.11,208.49,96.8,195.69,105.63Z"/></g></g></g></svg>