<svg xmlns="http://www.w3.org/2000/svg" viewBox="0 0 500 370"><title>Esperia colored</title><path d="M34.5,89.76v143h431v-143ZM463,230.26H37v-138H463Z" style="fill:#d2d2d2"/><rect x="37" y="92.26" width="426" height="138" style="fill:#e12620"/><path d="M154.33,259a6,6,0,0,0-5.43-1.46c-10.09-.38-20.19-.69-30.28-.77-3.57-.08-5.29-1.23-4.82-5,.17-1.31.15-2.69.22-4.16,1.52-.08,2.62-.23,3.73-.23h26.94a2.89,2.89,0,0,1,1.93.54c2.52,4,6.11,1.62,9.24,2a8.2,8.2,0,0,0-9.41-10.78c-10-.15-19.92-.08-29.88,0a9.64,9.64,0,0,0-11.54,11c-.06,1.31-.06,2.54-.06,3.85a8.05,8.05,0,0,0,9.54,9.77c9.12.23,18.24.08,27.35.15,1.49,0,3,.15,4.46.15v9.62c-10.21,0-20.14,0-30.07-.08a2.09,2.09,0,0,1-1.54-.46c-1.89-4.77-5.87-2.08-9.24-2.85a7.45,7.45,0,0,0,7,10.47,27.35,27.35,0,0,0,5,.38c8,.08,16-.15,24,.08,13.95.38,16-2.31,14.72-16.93A6,6,0,0,0,154.33,259Z" style="fill:#d2d2d2"/><path d="M225.12,241.08a8.31,8.31,0,0,0-7.71-2.17H176.28v41.87h8.77V266.31h5.2c9.53,0,19.06.08,28.58,0a7.47,7.47,0,0,0,8.47-8.24c.11-3.08.22-6.16.11-9.31A8.31,8.31,0,0,0,225.12,241.08Zm-6.37,9c-.26,11.16,1.39,8.85-8.62,9.08-6.7.08-13.42-.15-20.11.08-3.12.08-4.45-.62-4.39-4.16.16-8.24,0-8.24,8.24-8.24h8.41c4.29,0,8.63.08,13,0a2.75,2.75,0,0,1,3.51,3.23Z" style="fill:#d2d2d2"/><path d="M254.65,264.23h29.71v-7.47h-30c0-2.23.18-4,0-5.85a3.19,3.19,0,0,1,4-4.16c5,.31,10.1.08,15.15.08h18.32v-7.47h-46.7v41.87h46.73v-6.93H254.65Z" style="fill:#d2d2d2"/><rect x="383" y="239.14" width="9.24" height="43.1" style="fill:#d2d2d2"/><path d="M360.44,265.34a11.14,11.14,0,0,0,3.57-8.49,27.72,27.72,0,0,0,.07-6.77c-1-9-3.39-11.16-12.38-11.16H315.94c-1.35,0-2.7.15-4.49.31v43h9.3V266.46c5.66,0,11.15,0,16.64.08a2.2,2.2,0,0,1,1.45.69q7,7.5,13.9,15h11.78c-4.17-4.54-8.34-9.16-12.81-14A11.14,11.14,0,0,0,360.44,265.34Zm-38.87-6.49v-11.7h31.76v11.7Z" style="fill:#d2d2d2"/><path d="M457.3,239.91a14.81,14.81,0,0,0-6.93-1.08c-9.81-.08-19.61-.08-29.42-.08a10,10,0,0,0-11,11.31v32.17h9.22V268.16h33.67v14.08h8.42c.05-12.39.28-24.78,0-37.25A7.7,7.7,0,0,0,457.3,239.91Zm-4.73,19.63H419.37V247.15h33.19Z" style="fill:#d2d2d2"/><polygon points="38.7 281.16 38.72 281.16 85.58 281.16 85.58 274.31 48.31 274.31 48.31 263.92 77.98 263.92 77.98 256.54 48.28 256.54 48.28 246.76 85.65 246.76 85.65 239.37 38.7 239.37 38.7 281.16" style="fill:#d2d2d2"/><path d="M443.93,221a84.19,84.19,0,0,1-36.17-5.54c-5-1.92-10.36-3.16-15.87-4.85-1.8,5.39-3.46,10.39-5.24,15.7h71.59A17.62,17.62,0,0,0,443.93,221Z"/><path d="M220.05,155.33c0-.31.1-.62.13-.92L41.34,96.83V221.75L220,155.33Z"/><path d="M231.74,145.78c4.3.46,8.69,0,13,.15a6.92,6.92,0,0,1,2.64,1.31,14.56,14.56,0,0,1-1.92,2.62,5.06,5.06,0,0,1-1.92.85l-186,70.19c-4.12,1.54-8.24,3.08-12.35,4.69.05.31.11.62.15,1h5.22q159.9,0,319.79-.08c9.91,0,7,1.77,11-7.39C386,208,390.57,196.89,395.53,185c5,7.16,14.22,10.08,13.85,20.55a40.88,40.88,0,0,0,16.49-14.32,49.17,49.17,0,0,1-10.66-1.77,11.68,11.68,0,0,1-5.9-5.23,8.75,8.75,0,0,1,4.36-5.23c6-3.16,11.1.69,11.94,8.7a23.81,23.81,0,0,0,15.12-1.54c2.94-1.15,5.69-2.31,3.93-6.62-.7-1.77-1.08-4.93,2.89-3.93.39,1.69.75,3.31,1.12,4.93a9.78,9.78,0,0,1,1.5.08,15.53,15.53,0,0,0,.68-6.77,75,75,0,0,0-6.6-10.93,13.45,13.45,0,0,1-3-3.85,21.66,21.66,0,0,0-6.72-12.85,7.47,7.47,0,0,1-2.53-3.62,10.9,10.9,0,0,0-4.52-9.39,25.81,25.81,0,0,1-5.1-8.24c-2.12-9.85-9.54-12.93-17.7-15.39-1.47-.46-2.89-1.08-4.35-1.62a84.27,84.27,0,0,0-40.41-5.46c-4.56.69-9.12,1.46-13.74,1.85-16.07,1.15-32.16,2.23-48.23,3.39-5.66.46-11.31,1.15-17,1.77a1.36,1.36,0,0,1,.05.46q32.49,2.27,65,4.69c-14.87.69-29.7.62-44.53.69s-29.38.31-44.07.46a10,10,0,0,0-.05,1.23c26.17,3.93,52.94,5.31,77,18.39-32.59-8.24-64.92-19.16-100.05-9.47,11.76,1.15,22.65,2.31,33.54,3.39l-.07,1.15c-4.67.62-9.35,1.31-14,1.92,12.7,1.62,25.42,2.69,35.31,12.39a90.72,90.72,0,0,0-42.33-8.47c-14.62.92-29.18,2.62-43.76,3.93l0,1.15a5.93,5.93,0,0,0,1.77.85C213.7,143.47,222.69,144.86,231.74,145.78ZM424,155.56c2.26.46,4.56.92,6.16,1.23.69,2.23,1.24,4.08,1.79,5.93l-.54.69-7.71-6.93Zm-44.24,34.56a13.53,13.53,0,0,1-10.69-2.7c6.45-1.08,13.18-2.31,19.83-3.46h0A13.53,13.53,0,0,1,379.73,190.12Zm30.49-50.18c-1.95-.92-3.9-1.85-6.16-2.85l-2.39,8.62a8.38,8.38,0,0,1-1.39-.08h0c.22-4.16.44-8.39.63-12.62l1.31-.69c2.88,2.16,5.75,4.31,8.63,6.39C410.65,139.09,410.43,139.55,410.22,139.93Zm-37.37-34.79A41,41,0,0,1,403.2,116c-9.81-3.54-20.23-7.23-30.37-10.85Zm-21.63,56c8.14.92,16,4.16,24.16,5.31a168.24,168.24,0,0,0,20.78.15c-15.48-11.08-30.09-21.47-45.62-32.56A110.2,110.2,0,0,1,394,153.25a31.6,31.6,0,0,0-14.68-19c-6.6-3.93-13.15-7.77-19.68-11.7a42.54,42.54,0,0,1,33.16,15c0-4.08-.15-7.23,0-10.31.39-8.24,2.58-9.7,10-6.62a28,28,0,0,1,15,13.47c-6.48-3.69-13.05-7.39-20.29-11.47-1.12,13.08-5.57,25.63,8,33.79-5.63-.46-11.26-.92-16.89-1.46a7.55,7.55,0,0,0-.11.92c6.6,4.31,13.18,8.54,20.66,13.39-8.29.77-15.62,1.39-22.91,2a14.69,14.69,0,0,1,.05,1.54h7.37a10.46,10.46,0,0,1-12.18,2.92,81.77,81.77,0,0,0-71.46-2.46c-4.29,1.69-8.61,3.39-12.95,5a33.82,33.82,0,0,1-21,.92c1.65-.15,3.3-.31,4.93-.54a31,31,0,0,0,5.39-1,220.67,220.67,0,0,0,20.89-7.54A83.12,83.12,0,0,1,351.22,161.18Zm-64-25.71c12.82,1.23,23.33,8,34.57,12.7h0a20.84,20.84,0,0,1-16.55-2.85A121.41,121.41,0,0,0,287.24,135.47Zm-26.65,19.09c12.09-1.23,21,7.93,32.26,9a17.39,17.39,0,0,1-24.4-2.23,97.52,97.52,0,0,0-7.87-6.77Z"/></svg>