<svg xmlns="http://www.w3.org/2000/svg" viewBox="0 0 640 411"><defs><style>.a{fill:#212121;}</style></defs><title>Evalight</title><path class="a" d="M125.37,251.69v21.74h15.39v6.62H125.37v24.4H141.5v6.71H116.35V245H141.5v6.72Z"/><path class="a" d="M186.18,311.16h-7.11l-14-66.19h9l4.25,23.26c2.22,12.2,4.35,24.31,4.35,24.31s1.91-11.92,4.24-24.31L191.38,245h8.81Z"/><path class="a" d="M252.23,311.16l-3.08-14.37h-15l-3.5,14.37h-8.6L238.65,245h6.79l16.23,66.19Zm-10.51-46-5.83,24.68h11.35Z"/><path class="a" d="M284.77,311.16V245h9v59.48H311.3v6.71Z"/><path class="a" d="M337.51,311.16V245h9v66.19Z"/><path class="a" d="M398.64,311.16h-17c-5.73,0-7.86-1.6-7.86-6.52V252.25c0-5.48,2.13-7.28,8.71-7.28H398c6.05,0,8,1.8,8,6.72v13.05h-9V251.69H382.82v52.76h14.76V285h-7.43V277.6h16.44v26.76C406.59,309.18,404.05,311.16,398.64,311.16Z"/><path class="a" d="M457.64,311.16V280.05H442.89v31.11h-9V245h9v28.46h14.75V245h9v66.19Z"/><path class="a" d="M512.19,251.69v59.47h-9V251.69H491.81V245h31.84v6.72Z"/><polygon class="a" points="436 211.49 436 185.56 385.85 185.56 385.85 231.63 399.26 231.63 436 231.63 523.65 231.63 523.65 211.49 436 211.49"/><polygon class="a" points="116.35 159.34 116.35 179.49 247.44 179.49 242.04 159.34 116.35 159.34"/><polygon class="a" points="162.32 211.49 162.32 185.67 116.35 185.67 116.35 231.63 122.28 231.63 162.32 231.63 261.41 231.63 256.01 211.49 162.32 211.49"/><polygon class="a" points="162.32 99.84 117.18 99.84 116.35 99.84 116.35 153.17 162.32 153.17 162.32 119.98 231.49 119.98 226.09 99.84 162.32 99.84"/><polygon class="a" points="436 179.49 436 159.34 363.94 159.34 358.54 179.49 436 179.49"/><polygon class="a" points="436.2 153.17 436.2 99.84 432.49 99.84 386.06 99.84 379.88 99.84 374.48 119.98 386.06 119.98 386.06 153.17 436.2 153.17"/><polygon class="a" points="280.11 99.84 238.3 99.84 252.59 153.17 290.96 153.17 280.11 99.84"/><polygon class="a" points="368.59 99.84 326.78 99.84 315.93 153.17 354.3 153.17 368.59 99.84"/><polygon class="a" points="303.69 213.34 303.2 213.34 297.55 185.56 261.27 185.56 273.62 231.63 301.45 231.63 305.44 231.63 333.27 231.63 345.62 185.56 309.34 185.56 303.69 213.34"/></svg>