<svg xmlns="http://www.w3.org/2000/svg" viewBox="0 0 772.68 967.68"><defs><style>.a{fill:#ff5d00;}.b{fill:#004900;}</style></defs><title>Gorgon Defender Industries</title><path class="a" d="M395.43,106.43V209.16h94.66a98.83,98.83,0,1,1,0,197.65H395.43V499h94.14c108.41,0,196.3-87.88,196.3-196.3S598,106.43,489.57,106.43Z"/><path class="b" d="M283.11,106.43c-108.42,0-196.31,87.88-196.31,196.3S174.69,499,283.11,499H376V406.81H282.93a98.83,98.83,0,0,1,0-197.65H376V106.43Z"/><path class="b" d="M276.73,259.69a48.2,48.2,0,1,0,0,96.39H376V259.69Z"/><path class="b" d="M470.74,519c78.63-1,153.74-17.46,211-128L670.35,753.42,385.25,861.25,100.16,753.42,88.79,391C141.16,495.8,214.66,515.77,291.27,518.5Z"/><path class="a" d="M165.56,755.35l219.69,86.76,217.49-86.76Z"/><path class="a" d="M119.36,622.31h15v105.5h-15Z"/><path class="a" d="M148.84,622.31h14.45L186,685.88h.3V622.31h15v105.5H187.17l-23-63.42h-.29v63.42h-15Z"/><path class="a" d="M230.69,713.59h6.92q6.34,0,9-3.12t2.65-10.07V649.57q0-6.23-2.51-9.63t-9.14-3.41h-6.92Zm-15-91.28h22.26q12.83,0,19.61,7.26,6.78,7.11,6.78,20v49.35q0,14.8-7.23,21.93-7.06,7-20.49,7H215.65Z"/><path class="a" d="M327.93,704.1a24,24,0,0,1-1.92,9.63,25.25,25.25,0,0,1-5.31,7.86,24.49,24.49,0,0,1-7.66,5.18,24,24,0,0,1-18.87,0,26.32,26.32,0,0,1-7.82-5.18,26.65,26.65,0,0,1-5.16-7.86,24.17,24.17,0,0,1-1.91-9.63V622.31h15v80.31q0,5.63,2.66,8.3a9.57,9.57,0,0,0,13.26,0q2.65-2.67,2.66-8.3V622.31h15Z"/><path class="a" d="M391.55,652.68h-15v-3.4a15.52,15.52,0,0,0-2.51-8.9c-1.57-2.56-4.28-3.85-8.11-3.85a10.26,10.26,0,0,0-5.16,1.19,9.19,9.19,0,0,0-3.09,3.11,13,13,0,0,0-1.48,4.3,27.86,27.86,0,0,0-.44,5q0,3.12.15,5.34a10.72,10.72,0,0,0,1.18,3.7,9.1,9.1,0,0,0,2.5,2.67,26,26,0,0,0,4.72,2.37l11.5,4.59a27.59,27.59,0,0,1,8.11,4.6,16.66,16.66,0,0,1,4.71,6.07,23.82,23.82,0,0,1,2.36,8,77.29,77.29,0,0,1,.59,10.22,55.87,55.87,0,0,1-1.32,12.45A26.23,26.23,0,0,1,385.8,720a20.62,20.62,0,0,1-8,6.37,28.47,28.47,0,0,1-12.23,2.37,26.5,26.5,0,0,1-10.17-1.93,25.33,25.33,0,0,1-8.11-5.18,27,27,0,0,1-5.46-8,25.54,25.54,0,0,1-1.91-9.93V698h15v4.74a13,13,0,0,0,2.36,7.56q2.5,3.25,8.26,3.26a13.42,13.42,0,0,0,5.89-1,7.65,7.65,0,0,0,3.25-3.11,12.87,12.87,0,0,0,1.47-5,65.14,65.14,0,0,0,.3-6.52,63.15,63.15,0,0,0-.3-6.82,10.1,10.1,0,0,0-1.33-4.3,6.9,6.9,0,0,0-2.65-2.66,31.34,31.34,0,0,0-4.42-2.23l-10.76-4.44q-9.74-4-13.12-10.52-3.26-6.67-3.25-16.6a38.56,38.56,0,0,1,1.62-11.26,27.27,27.27,0,0,1,4.72-9.19,22.9,22.9,0,0,1,8.11-6.07,25.63,25.63,0,0,1,11.35-2.37A25.09,25.09,0,0,1,384.62,629a23.74,23.74,0,0,1,5.16,7.71,21.7,21.7,0,0,1,1.77,8.59Z"/><path class="a" d="M413.24,636.53H395.85V622.31h49.82v14.22H428.28v91.28h-15Z"/><path class="a" d="M453.17,622.31h24.18q26.53,0,26.53,31a39.06,39.06,0,0,1-2.94,15.85,22,22,0,0,1-10,10.52l16.22,48.16H491.21l-14-45h-9v45h-15Zm15,47.12h8.55a16.08,16.08,0,0,0,6.34-1,8.2,8.2,0,0,0,3.54-3.26,12.69,12.69,0,0,0,1.76-5,50,50,0,0,0,.45-7.11,46.88,46.88,0,0,0-.45-7,11.59,11.59,0,0,0-1.91-5.19,7.82,7.82,0,0,0-3.83-3.26,17.73,17.73,0,0,0-6.64-1h-7.81Z"/><path class="a" d="M517.24,622.31h15v105.5h-15Z"/><path class="a" d="M547.31,622.31h44.82v14.22H562.35v31H588.3v14.23H562.35v31h29.78v15.11H547.31Z"/><path class="a" d="M651.24,652.68h-15v-3.4a15.52,15.52,0,0,0-2.5-8.9c-1.57-2.56-4.28-3.85-8.11-3.85a10.26,10.26,0,0,0-5.16,1.19,9.31,9.31,0,0,0-3.1,3.11,13,13,0,0,0-1.47,4.3,27.86,27.86,0,0,0-.44,5q0,3.12.15,5.34a10.72,10.72,0,0,0,1.17,3.7,9.14,9.14,0,0,0,2.51,2.67,26,26,0,0,0,4.72,2.37l11.5,4.59a27.4,27.4,0,0,1,8.1,4.6,16.58,16.58,0,0,1,4.72,6.07,23.82,23.82,0,0,1,2.36,8,79,79,0,0,1,.59,10.22,55.27,55.27,0,0,1-1.33,12.45,26.22,26.22,0,0,1-4.42,9.78,20.62,20.62,0,0,1-8,6.37,28.48,28.48,0,0,1-12.24,2.37,26.57,26.57,0,0,1-10.17-1.93,25.55,25.55,0,0,1-8.11-5.18,27,27,0,0,1-5.45-8,25.54,25.54,0,0,1-1.92-9.93V698h15v4.74a13,13,0,0,0,2.36,7.56q2.51,3.25,8.25,3.26a13.44,13.44,0,0,0,5.9-1,7.57,7.57,0,0,0,3.24-3.11,12.71,12.71,0,0,0,1.48-5c.2-2,.29-4.15.29-6.52a63.52,63.52,0,0,0-.29-6.82,10.1,10.1,0,0,0-1.33-4.3,6.9,6.9,0,0,0-2.65-2.66,31.91,31.91,0,0,0-4.42-2.23l-10.77-4.44q-9.72-4-13.12-10.52-3.24-6.67-3.24-16.6A38.56,38.56,0,0,1,602,639.05a27.09,27.09,0,0,1,4.72-9.19,22.82,22.82,0,0,1,8.11-6.07,25.6,25.6,0,0,1,11.35-2.37A25.09,25.09,0,0,1,644.31,629a23.74,23.74,0,0,1,5.16,7.71,21.7,21.7,0,0,1,1.77,8.59Z"/><path class="a" d="M119.51,551a16.58,16.58,0,0,1,1.34-6.85,14.14,14.14,0,0,1,3.5-4.87,15.79,15.79,0,0,1,4.93-3,16.54,16.54,0,0,1,5.57-1,15.77,15.77,0,0,1,5.47,1,14.45,14.45,0,0,1,4.93,3,13.48,13.48,0,0,1,3.59,4.87,16.42,16.42,0,0,1,1.34,6.85v3.25H141V551c0-2.22-.63-3.85-1.89-4.87a6.19,6.19,0,0,0-4.3-1.62,6.54,6.54,0,0,0-4.4,1.62c-1.2,1-1.79,2.65-1.79,4.87v33.9a6.34,6.34,0,0,0,1.79,5,6.78,6.78,0,0,0,4.4,1.54,6.41,6.41,0,0,0,4.3-1.54,6.17,6.17,0,0,0,1.89-5V572.79h-7.27v-8.11h16.41v20.19a16.7,16.7,0,0,1-1.34,7,14.66,14.66,0,0,1-3.59,4.86,14.88,14.88,0,0,1-4.93,2.89,15.77,15.77,0,0,1-5.47,1,16.54,16.54,0,0,1-5.57-1,16.3,16.3,0,0,1-4.93-2.89,15.45,15.45,0,0,1-3.5-4.86,16.86,16.86,0,0,1-1.34-7Z"/><path class="a" d="M166.92,584.87a6.34,6.34,0,0,0,1.8,5,6.76,6.76,0,0,0,4.39,1.54,6.43,6.43,0,0,0,4.31-1.54,6.2,6.2,0,0,0,1.88-5V551c0-2.22-.63-3.85-1.88-4.87a6.21,6.21,0,0,0-4.31-1.62,6.52,6.52,0,0,0-4.39,1.62c-1.2,1-1.8,2.65-1.8,4.87ZM157.77,551a16.42,16.42,0,0,1,1.35-6.85,13.89,13.89,0,0,1,3.5-4.87,15.68,15.68,0,0,1,4.93-3,16.48,16.48,0,0,1,5.56-1,15.68,15.68,0,0,1,5.47,1,14.49,14.49,0,0,1,4.94,3,13.6,13.6,0,0,1,3.59,4.87,16.58,16.58,0,0,1,1.34,6.85v33.9a16.86,16.86,0,0,1-1.34,7,14.53,14.53,0,0,1-8.53,7.75,15.68,15.68,0,0,1-5.47,1,16.19,16.19,0,0,1-10.49-3.87,15.3,15.3,0,0,1-3.5-4.87,16.7,16.7,0,0,1-1.35-7Z"/><path class="a" d="M196.58,535.82h14.71q16.14,0,16.14,18.85a23.71,23.71,0,0,1-1.79,9.65,13.43,13.43,0,0,1-6.1,6.4l9.87,29.3h-9.69l-8.52-27.41h-5.47V600h-9.15Zm9.15,28.68h5.2a9.61,9.61,0,0,0,3.86-.64,5,5,0,0,0,2.15-2,7.55,7.55,0,0,0,1.07-3.06,31.08,31.08,0,0,0,.27-4.33,29,29,0,0,0-.27-4.24,7,7,0,0,0-1.16-3.16,4.78,4.78,0,0,0-2.33-2,10.8,10.8,0,0,0-4-.63h-4.75Z"/><path class="a" d="M234.48,551a16.58,16.58,0,0,1,1.34-6.85,14.14,14.14,0,0,1,3.5-4.87,15.72,15.72,0,0,1,4.94-3,16.44,16.44,0,0,1,5.56-1,15.73,15.73,0,0,1,5.47,1,14.45,14.45,0,0,1,4.93,3,13.48,13.48,0,0,1,3.59,4.87,16.42,16.42,0,0,1,1.35,6.85v3.25H256V551c0-2.22-.63-3.85-1.89-4.87a6.19,6.19,0,0,0-4.3-1.62,6.54,6.54,0,0,0-4.4,1.62c-1.19,1-1.79,2.65-1.79,4.87v33.9a6.37,6.37,0,0,0,1.79,5,6.78,6.78,0,0,0,4.4,1.54,6.41,6.41,0,0,0,4.3-1.54,6.17,6.17,0,0,0,1.89-5V572.79h-7.27v-8.11h16.42v20.19a16.7,16.7,0,0,1-1.35,7,14.66,14.66,0,0,1-3.59,4.86,14.88,14.88,0,0,1-4.93,2.89,15.73,15.73,0,0,1-5.47,1,16.44,16.44,0,0,1-5.56-1,16.23,16.23,0,0,1-4.94-2.89,15.45,15.45,0,0,1-3.5-4.86,16.86,16.86,0,0,1-1.34-7Z"/><path class="a" d="M281.89,584.87a6.34,6.34,0,0,0,1.8,5,6.76,6.76,0,0,0,4.39,1.54,6.43,6.43,0,0,0,4.31-1.54,6.2,6.2,0,0,0,1.88-5V551c0-2.22-.63-3.85-1.88-4.87a6.21,6.21,0,0,0-4.31-1.62,6.52,6.52,0,0,0-4.39,1.62c-1.2,1-1.8,2.65-1.8,4.87ZM272.74,551a16.42,16.42,0,0,1,1.35-6.85,14,14,0,0,1,3.5-4.87,15.68,15.68,0,0,1,4.93-3,16.52,16.52,0,0,1,5.56-1,15.78,15.78,0,0,1,5.48,1,14.54,14.54,0,0,1,4.93,3,13.6,13.6,0,0,1,3.59,4.87,16.58,16.58,0,0,1,1.34,6.85v33.9a16.86,16.86,0,0,1-1.34,7,14.94,14.94,0,0,1-3.59,4.87,15.13,15.13,0,0,1-4.93,2.88,15.78,15.78,0,0,1-5.48,1,16.52,16.52,0,0,1-5.56-1,16.36,16.36,0,0,1-4.93-2.88,15.46,15.46,0,0,1-3.5-4.87,16.7,16.7,0,0,1-1.35-7Z"/><path class="a" d="M311.19,535.82H320l13.81,38.68H334V535.82h9.15V600h-8.61l-14-38.59h-.18V600h-9.15Z"/><path class="a" d="M377.43,591.37h4.22c2.57,0,4.39-.64,5.47-1.9s1.61-3.36,1.61-6.13V552.41a9.75,9.75,0,0,0-1.52-5.86q-1.53-2.07-5.56-2.07h-4.22Zm-9.15-55.55h13.55q7.8,0,11.93,4.42t4.12,12.17v30q0,9-4.39,13.34T381,600H368.28Z"/><path class="a" d="M406.72,535.82H434v8.66H415.87v18.84h15.79V572H415.87v18.84H434V600H406.72Z"/><path class="a" d="M440.08,535.82h27.27v8.66H449.23V564H465v8.66H449.23V600h-9.15Z"/><path class="a" d="M473.44,535.82h27.27v8.66H482.59v18.84h15.79V572H482.59v18.84h18.12V600H473.44Z"/><path class="a" d="M506.44,535.82h8.79l13.82,38.68h.18V535.82h9.15V600h-8.61l-14-38.59h-.18V600h-9.15Z"/><path class="a" d="M556,591.37h4.22c2.57,0,4.39-.64,5.47-1.9s1.61-3.36,1.61-6.13V552.41a9.82,9.82,0,0,0-1.52-5.86q-1.53-2.07-5.56-2.07H556Zm-9.15-55.55h13.55q7.8,0,11.93,4.42t4.12,12.17v30q0,9-4.39,13.34T559.56,600H546.82Z"/><path class="a" d="M585.26,535.82h27.27v8.66H594.41v18.84H610.2V572H594.41v18.84h18.12V600H585.26Z"/><path class="a" d="M618.62,535.82h14.71q16.15,0,16.15,18.85a23.71,23.71,0,0,1-1.8,9.65,13.36,13.36,0,0,1-6.09,6.4l9.86,29.3h-9.69l-8.52-27.41h-5.47V600h-9.15Zm9.15,28.68H633a9.57,9.57,0,0,0,3.86-.64,4.88,4.88,0,0,0,2.15-2,7.71,7.71,0,0,0,1.08-3.06,31.08,31.08,0,0,0,.27-4.33,29,29,0,0,0-.27-4.24,7.14,7.14,0,0,0-1.17-3.16,4.69,4.69,0,0,0-2.33-2,10.7,10.7,0,0,0-4-.63h-4.76Z"/></svg>