<?xml version="1.0" encoding="UTF-8" standalone="no"?>
<!-- Created with Inkscape (http://www.inkscape.org/) -->

<svg
   xmlns:dc="http://purl.org/dc/elements/1.1/"
   xmlns:cc="http://creativecommons.org/ns#"
   xmlns:rdf="http://www.w3.org/1999/02/22-rdf-syntax-ns#"
   xmlns:svg="http://www.w3.org/2000/svg"
   xmlns="http://www.w3.org/2000/svg"
   xmlns:sodipodi="http://sodipodi.sourceforge.net/DTD/sodipodi-0.dtd"
   xmlns:inkscape="http://www.inkscape.org/namespaces/inkscape"
   id="svg2"
   version="1.1"
   inkscape:version="0.91 r13725"
   width="148.48235mm"
   height="73.199013mm"
   viewBox="0 0 526.11854 259.36659"
   sodipodi:docname="Hammer Propulsion.svg">
  <title
     id="title4323">Hammer Propulsion Logo</title>
  <metadata
     id="metadata8">
    <rdf:RDF>
      <cc:Work
         rdf:about="">
        <dc:format>image/svg+xml</dc:format>
        <dc:type
           rdf:resource="http://purl.org/dc/dcmitype/StillImage" />
        <dc:title>Hammer Propulsion Logo</dc:title>
        <dc:creator>
          <cc:Agent>
            <dc:title>CIG</dc:title>
          </cc:Agent>
        </dc:creator>
        <dc:contributor>
          <cc:Agent>
            <dc:title>Vectorization by King Phoenix</dc:title>
          </cc:Agent>
        </dc:contributor>
      </cc:Work>
    </rdf:RDF>
  </metadata>
  <defs
     id="defs6" />
  <sodipodi:namedview
     pagecolor="#ffffff"
     bordercolor="#666666"
     borderopacity="1"
     objecttolerance="10"
     gridtolerance="10"
     guidetolerance="10"
     inkscape:pageopacity="0"
     inkscape:pageshadow="2"
     inkscape:window-width="1309"
     inkscape:window-height="876"
     id="namedview4"
     showgrid="false"
     inkscape:zoom="2"
     inkscape:cx="248.59079"
     inkscape:cy="107.10152"
     inkscape:window-x="260"
     inkscape:window-y="44"
     inkscape:window-maximized="0"
     inkscape:current-layer="text3338-1"
     showguides="false"
     units="mm"
     fit-margin-top="2"
     fit-margin-left="2"
     fit-margin-right="2"
     fit-margin-bottom="2" />
  <g
     transform="matrix(1.187784,0,0,0.84190391,-10.055964,-3.698542)"
     style="font-style:normal;font-variant:normal;font-weight:normal;font-stretch:normal;font-size:20.82548904px;line-height:125%;font-family:'Karnivore Black';-inkscape-font-specification:'Karnivore Black, ';letter-spacing:18.48999977px;word-spacing:0px;fill:#000000;fill-opacity:1;stroke:none;stroke-width:1px;stroke-linecap:butt;stroke-linejoin:miter;stroke-opacity:1"
     id="text3338-1">
    <path
       style="opacity:1;fill:#000000;fill-opacity:1;stroke:none;stroke-width:4.4000001;stroke-miterlimit:4;stroke-dasharray:none;stroke-opacity:1"
       d="m 14.432404,12.810436 0,102.880194 17.5731,0 0,24.02015 30.191792,0 0,-24.02015 17.492528,0 0,65.65753 -17.492528,0 0,-24.02246 -30.191792,0 0,24.02246 -17.5731,0 0,122.69903 431.008766,0 0,-122.69903 -17.49253,0 0,-24.02246 -29.95336,0 0,24.02246 -17.5731,0 0,-65.65753 57.43034,0 7.58865,7.68579 0,-110.565984 -431.008766,0 z m 29.011153,24.356532 372.986463,0 0,43.395874 -8.06223,-11.374424 -104.54571,0 -14.02297,-8.820224 -119.72465,0 -14.0246,8.820224 -104.544086,0 -8.062217,11.374424 0,-43.395874 z m 51.90042,78.523662 49.761123,0 7.58865,7.68579 0,57.97174 -17.49253,0 0,-24.02246 -29.87279,0 0,24.02246 -17.573097,0 0,-57.97174 7.588644,-7.68579 z m 65.421853,0 57.67042,0 7.58864,7.68579 0,57.97174 -17.49417,0 0,-48.0426 -6.46885,0 0,48.0426 -17.49252,0 0,-48.0426 -6.23043,0 0,48.0426 -17.57309,0 0,-65.65753 z m 73.32293,0 57.67042,0 7.58864,7.68579 0,57.97174 -17.49417,0 0,-48.0426 -6.46885,0 0,48.0426 -17.49253,0 0,-48.0426 -6.23042,0 0,48.0426 -17.57309,0 0,-65.65753 z m 80.91156,0 57.34977,0 0,17.61493 -47.36531,0 0,6.40522 47.44589,0 0,17.61492 -47.44589,0 0,6.40754 47.36531,0 0,17.61492 -57.34977,0 -7.58864,-7.68811 0,-50.28363 7.58864,-7.68579 z m -209.67189,17.61493 0,6.40522 29.87279,0 0,-6.40522 -29.87279,0 z m 292.66685,0 0,6.40522 29.95336,0 0,-6.40522 -29.95336,0 z m 47.44589,10.32815 -4.79326,4.88568 4.79326,4.88338 0,-9.76906 z m -383.645093,51.38558 14.973392,0 1.97979,1.99974 0,6.82975 -1.97979,1.99976 -10.390607,0 0,6.24746 -4.582785,0 0,-17.07671 z m 37.525568,0 14.975035,0 1.97815,1.99974 0,5.26847 -1.24971,1.2713 1.24971,1.26898 0,7.26822 -4.56141,0 0,-6.24746 -7.80899,0 0,6.24746 -4.582785,0 0,-17.07671 z m 38.242495,0 12.99525,0 1.97814,1.99974 0,13.07723 -1.97814,1.99974 -12.99525,0 -1.97814,-1.99974 0,-13.07723 1.97814,-1.99974 z m 34.91599,0 14.9734,0 1.97814,1.99974 0,6.82975 -1.97814,1.99976 -10.39225,0 0,6.24746 -4.58115,0 0,-17.07671 z m 36.47319,0 4.58114,0 0,12.49492 7.85174,0 0,-12.49492 4.56141,0 0,15.07697 -1.97979,1.99974 -13.03635,0 -1.97815,-1.99974 0,-15.07697 z m 36.97635,0 4.58114,0 0,12.49492 12.39342,0 0,4.58179 -14.99641,0 -1.97815,-1.99974 0,-15.07697 z m 39.54646,0 14.89118,0 0,4.58178 -12.28818,0 0,1.66569 10.30839,0 1.97979,1.97886 0,6.85064 -1.97979,1.99974 -14.88953,0 0,-4.58179 12.30792,0 0,-1.66567 -10.32978,0 -1.97814,-1.99976 0,-6.82975 1.97814,-1.99974 z m 34.204,0 4.58113,0 0,17.07671 -4.58113,0 0,-17.07671 z m 26.88666,0 12.99525,0 1.97978,1.99974 0,13.07723 -1.97978,1.99974 -12.99525,0 -1.97814,-1.99974 0,-13.07723 1.97814,-1.99974 z m 34.49504,0 15.03588,0 1.97979,1.99974 0,15.11873 -4.56141,0 0,-12.53669 -7.87148,0 0,12.49493 -4.58278,0 0,-17.07671 z m -314.682968,4.58178 0,1.66569 7.808988,0 0,-1.66569 -7.808988,0 z m 37.525568,0 0,1.66569 7.80899,0 0,-1.66569 -7.80899,0 z m 36.26271,0 0,7.91314 7.80898,0 0,-7.91314 -7.80898,0 z m 36.89414,0 0,1.66569 7.80898,0 0,-1.66569 -7.80898,0 z m 172.11015,0 0,7.91314 7.80898,0 0,-7.91314 -7.80898,0 z m -305.727873,36.67747 8.062217,11.37442 104.544086,0 14.0246,8.82023 28.65268,0 0,23.21747 -155.283583,0 0,-43.41212 z m 372.986463,0 0,43.41212 -155.28524,0 0,-23.21747 28.65433,0 14.02297,-8.82023 104.54571,0 8.06223,-11.37442 z"
       id="rect3394"
       inkscape:connector-curvature="0" />
    <g
       transform="matrix(0.99756347,0,0,1,-1.6882898,0.98152888)"
       style="font-style:normal;font-variant:normal;font-weight:normal;font-stretch:normal;font-size:80.07019043px;line-height:125%;font-family:'Karnivore Black';-inkscape-font-specification:'Karnivore Black, ';letter-spacing:0px;word-spacing:0px;fill:#000000;fill-opacity:1;stroke:none;stroke-width:1px;stroke-linecap:butt;stroke-linejoin:miter;stroke-opacity:1"
       id="text3338" />
    <g
       id="g4295"
       transform="translate(-1.8656631,0)"
       style="fill:#000000" />
  </g>
</svg>
