<svg xmlns="http://www.w3.org/2000/svg" viewBox="0 0 356 162"><defs><style>.a{fill:#494949;}</style></defs><title>Hawksworths</title><path class="a" d="M90.37,85.3H81.31l-2.47,4.48H75.39l9-17.56h3.34l9.18,17.56h-4Zm-1-2.39L85.9,76.65l-3.52,6.26Z"/><path class="a" d="M112.19,77.42l-5.52,12.36h-2.75L96.73,72.22h3.91l4.76,11.3,5.07-11.3h3.76l4.87,11.36,5-11.36h3.71l-7.28,17.56h-2.77Z"/><path class="a" d="M138.34,81.57l-3.17,2.16v6H131.4V72.22h3.77v7.49l10.22-7.49h5l-9.29,7.11,9.29,10.45h-4.62Z"/><path class="a" d="M169.74,74.54l-1.67,2.78a11.42,11.42,0,0,0-7-2.45,9.82,9.82,0,0,0-2.72.34,3.46,3.46,0,0,0-1.45.77,1.53,1.53,0,0,0-.56,1.13c0,.65.49,1.1,1.48,1.34a22.81,22.81,0,0,0,2.94.39L163,79a20.77,20.77,0,0,1,3.16.54,8,8,0,0,1,2.11.93,4.53,4.53,0,0,1,1.46,1.67,4.77,4.77,0,0,1,.52,2.19,4.9,4.9,0,0,1-1.24,3.3,7.19,7.19,0,0,1-3.6,2,16.06,16.06,0,0,1-3.94.46,21.14,21.14,0,0,1-8.92-2.47l1.27-3a12.51,12.51,0,0,0,3.54,1.66,13.66,13.66,0,0,0,4.2.81,8.77,8.77,0,0,0,3.31-.56,3.53,3.53,0,0,0,1.27-.87,1.6,1.6,0,0,0,.49-1.12c0-.58-.4-1-1.19-1.23a15.91,15.91,0,0,0-3-.49l-2.18-.21c-1.45-.13-2.47-.26-3.06-.38a7.56,7.56,0,0,1-1.75-.6,4.38,4.38,0,0,1-2-1.75,4.55,4.55,0,0,1-.62-2.39,4.76,4.76,0,0,1,1.61-3.68q2.13-1.91,6.46-1.91a17.17,17.17,0,0,1,3.94.49A17.53,17.53,0,0,1,169.74,74.54Z"/><path class="a" d="M188,77.42l-5.52,12.36h-2.75l-7.2-17.56h3.91l4.76,11.3,5.07-11.3h3.77L195,83.58l5-11.36h3.71l-7.28,17.56h-2.78Z"/><path class="a" d="M215.73,71.91a11.72,11.72,0,0,1,7.88,2.47,8.43,8.43,0,0,1,3.06,6.72,8.24,8.24,0,0,1-1.48,4.72q-2.85,4.28-9.43,4.27a11.64,11.64,0,0,1-7.82-2.47,9.2,9.2,0,0,1-2.35-3.2,8.7,8.7,0,0,1,.77-8.26Q209.11,72,215.73,71.91Zm0,3a7.44,7.44,0,0,0-4.76,1.5,5.85,5.85,0,0,0,0,9.24,8.4,8.4,0,0,0,9.55,0,5.78,5.78,0,0,0,1.73-2.16,5.85,5.85,0,0,0-1.73-7.08A7.8,7.8,0,0,0,215.76,74.87Z"/><path class="a" d="M235.82,82.62v7.16h-3.76V72.22h11a20.85,20.85,0,0,1,3.46.23,6.66,6.66,0,0,1,2.21.8,4.33,4.33,0,0,1,1.58,1.83,5.91,5.91,0,0,1,.48,2.37c0,2.86-1.8,4.54-5.41,5l5.53,7.31h-4.11l-5.44-7.16Zm0-2.91h6.75a20,20,0,0,0,2.08-.07,5.18,5.18,0,0,0,1.17-.31A1.92,1.92,0,0,0,247,77.42a1.88,1.88,0,0,0-1.19-1.9,3.42,3.42,0,0,0-1.14-.34,19.67,19.67,0,0,0-2.11-.08h-6.75Z"/><path class="a" d="M265.32,75.1V89.78h-3.77V75.1h-7.47V72.22H272.8V75.1Z"/><path class="a" d="M292.44,82.11H280.82v7.67h-3.76V72.22h3.76v7h11.62v-7h3.76V89.78h-3.76Z"/><path class="a" d="M319,74.54l-1.68,2.78a11.42,11.42,0,0,0-7-2.45,9.77,9.77,0,0,0-2.72.34,3.5,3.5,0,0,0-1.46.77,1.51,1.51,0,0,0-.55,1.13c0,.65.49,1.1,1.47,1.34a22.78,22.78,0,0,0,3,.39l2.23.2a20.55,20.55,0,0,1,3.16.54,7.84,7.84,0,0,1,2.11.93A4.53,4.53,0,0,1,319,82.18a4.77,4.77,0,0,1,.52,2.19,4.9,4.9,0,0,1-1.24,3.3,7.15,7.15,0,0,1-3.6,2,16.06,16.06,0,0,1-3.94.46,21.14,21.14,0,0,1-8.92-2.47l1.28-3a12.24,12.24,0,0,0,3.54,1.66,13.61,13.61,0,0,0,4.19.81,8.74,8.74,0,0,0,3.31-.56,3.57,3.57,0,0,0,1.28-.87,1.63,1.63,0,0,0,.48-1.12c0-.58-.4-1-1.19-1.23a15.59,15.59,0,0,0-3-.49l-2.18-.21c-1.45-.13-2.47-.26-3.06-.38a7.56,7.56,0,0,1-1.75-.6,4.49,4.49,0,0,1-2-1.75,4.55,4.55,0,0,1-.62-2.39,4.74,4.74,0,0,1,1.62-3.68q2.12-1.91,6.45-1.91a17.17,17.17,0,0,1,3.94.49A17.7,17.7,0,0,1,319,74.54Z"/><rect class="a" x="75.39" y="59.99" width="244.14" height="3.5"/><rect class="a" x="75.39" y="98.51" width="244.14" height="3.5"/><path class="a" d="M54.85,62.63A18.38,18.38,0,1,0,73.23,81,18.36,18.36,0,0,0,54.85,62.63Zm5.25,5v11.5H49.85V67.54a14.24,14.24,0,0,1,10.25.09ZM40.48,81A14.36,14.36,0,0,1,46.1,69.61V92.39A14.36,14.36,0,0,1,40.48,81Zm9.37,13.46V82.88H60.1V94.37a14.1,14.1,0,0,1-10.25.09Zm14-2.26V69.8a14.35,14.35,0,0,1,0,22.4Z"/></svg>