<svg xmlns="http://www.w3.org/2000/svg" viewBox="0 0 772.68 766.76"><defs><style>.a{fill:#b47c70;}.b{fill:#e0693c;}</style></defs><title>Juno Starwerk</title><path class="a" d="M309,82.86h63.59v123L297,254.87V505.35H83.43Z"/><path class="a" d="M463.7,82.86H400.11v123l75.58,49.06V505.35H689.25Z"/><path class="b" d="M321.87,275.11l63.71-40.2,63.72,40.2V505.35H321.87Z"/><polygon class="a" points="393.95 620.45 401.31 620.45 397.51 587.54 393.95 620.45"/><path class="a" d="M588.78,569.05h-2.67v30.46h2.67c6.55,0,7.46-2.85,7.46-11.29v-8.16C596.24,571.36,595.23,569.05,588.78,569.05Z"/><path class="a" d="M441.38,569.05h-2.67v30.46h2.67c6.55,0,7.46-2.85,7.46-11.29v-8.16C448.84,571.36,447.83,569.05,441.38,569.05Z"/><path class="a" d="M254.32,567.56c-2.9,0-5.12,2.85-5.12,7.75v64.05c0,4.9,2.22,7.62,5.12,7.62s5.12-2.73,5.12-7.62V575.31C259.44,570.41,257.33,567.56,254.32,567.56Z"/><path class="a" d="M83.7,533.24V683.9H689.24V533.24Zm51.78,110.48c0,13.2-4,17.55-15.71,17.55H114.2V644.6h1.11c4.46,0,6.35-2,6.35-7.62V553.54h13.82Zm44.31-6.26c0,17-7.68,25.3-18.15,25.3s-18.15-9-18.15-26V553.54h13v85.82c0,4.9,2.11,7.62,5.12,7.62s5.12-2.73,5.12-7.62V553.54h13Zm48.07,23.81H212.64l-11.88-59.85v59.85H189.11V553.54h15.64l11.42,56.06V553.54h11.69Zm44.61-23.81c0,17-7.68,25.3-18.15,25.3s-18.15-9-18.15-26V578c0-17,7.68-26,18.15-26s18.15,8.3,18.15,25.3ZM335,635.29c0,16.73-5.8,27.47-18.43,27.47-10.35,0-18.09-8.29-18.09-24.62v-12.8h12.8v7.09c0,12,1.7,14.83,5.07,14.83,3,0,5.68-3,5.68-9.39,0-7.07-1.54-13.83-7.34-21.9-4.37-5.88-8.78-11.56-8.78-11.56-6.7-7.87-7.26-19.31-7.26-27.48,0-16.32,9.13-24.89,18.48-24.89,9.8,0,16.89,8.16,16.89,23.13V588H321.29v-7.91c0-9.11-2.89-12.52-5.12-12.52-2.45,0-4.47,3-4.47,9.53,0,5.17,1.27,9.24,5.84,17.67l10.75,15.12C335.49,620,335,625.9,335,635.29Zm39.16-66H363.52v91.95H349.8V569.32H338.56V553.54h35.63Zm30.67,91.95-3-22.72h-9.57l-2.34,22.72H376.36l13-107.73h16.89L420,661.27Zm46.4,0L442,615.57H438.3v45.7H424.72V553.54h16.66c12.7,0,21,3.23,21,28.29v4.63c0,16.62-2,19.18-7.64,25l10.73,49.78Zm67,0h-14l-5.69-52.91-5.77,52.91H478.31l-9.88-107.73h12.84l4.65,51.79,5.38-51.79h13.84l5.74,51.79,4.53-51.79h12.94Zm48-92.49H547.1v28h16.24v16.46H547.1v31.82h19.18v16.2H534.07V553.54h32.21Zm32.38,92.49-9.29-45.7H585.7v45.7H572.12V553.54h16.66c12.7,0,21,3.23,21,28.29v4.63c0,16.62-2,19.18-7.64,25l10.73,49.78Zm46.49,0-10-45.93-3.5,8.42-.19,37.51h-13V553.54h13.42V588l12.27-34.45h13.77l-14.89,40,17,67.76Z"/></svg>