<?xml version="1.0" encoding="UTF-8" standalone="no"?>
<!-- Created with Inkscape (http://www.inkscape.org/) -->

<svg
   xmlns:dc="http://purl.org/dc/elements/1.1/"
   xmlns:cc="http://creativecommons.org/ns#"
   xmlns:rdf="http://www.w3.org/1999/02/22-rdf-syntax-ns#"
   xmlns:svg="http://www.w3.org/2000/svg"
   xmlns="http://www.w3.org/2000/svg"
   xmlns:sodipodi="http://sodipodi.sourceforge.net/DTD/sodipodi-0.dtd"
   xmlns:inkscape="http://www.inkscape.org/namespaces/inkscape"
   id="svg2"
   version="1.1"
   inkscape:version="0.91 r13725"
   width="41.249626mm"
   height="31.492729mm"
   viewBox="0 0 146.1601 111.5884"
   sodipodi:docname="Kruger Intergalactic ENG2.svg">
  <title
     id="title3480">Kruger Intergalactic Logo</title>
  <metadata
     id="metadata8">
    <rdf:RDF>
      <cc:Work
         rdf:about="">
        <dc:format>image/svg+xml</dc:format>
        <dc:type
           rdf:resource="http://purl.org/dc/dcmitype/StillImage" />
        <dc:title>Kruger Intergalactic Logo</dc:title>
        <dc:creator>
          <cc:Agent>
            <dc:title>CIG</dc:title>
          </cc:Agent>
        </dc:creator>
        <dc:contributor>
          <cc:Agent>
            <dc:title>Vectorization by King Phoenix</dc:title>
          </cc:Agent>
        </dc:contributor>
      </cc:Work>
    </rdf:RDF>
  </metadata>
  <defs
     id="defs6" />
  <sodipodi:namedview
     pagecolor="#ffffff"
     bordercolor="#666666"
     borderopacity="1"
     objecttolerance="10"
     gridtolerance="10"
     guidetolerance="10"
     inkscape:pageopacity="0"
     inkscape:pageshadow="2"
     inkscape:window-width="1920"
     inkscape:window-height="1018"
     id="namedview4"
     showgrid="false"
     units="mm"
     fit-margin-top="1"
     fit-margin-left="1"
     fit-margin-right="1"
     fit-margin-bottom="1"
     inkscape:zoom="5.6568543"
     inkscape:cx="86.109493"
     inkscape:cy="62.388625"
     inkscape:window-x="-8"
     inkscape:window-y="-8"
     inkscape:window-maximized="1"
     inkscape:current-layer="svg2" />
  <path
     style="opacity:1;fill:#000000"
     d="M 142.61719 3.5429688 L 3.5429688 3.5546875 L 73.179688 108.04492 L 142.61719 3.5429688 z M 9.2324219 6.59375 L 136.86523 6.59375 L 122.88477 27.603516 L 23.226562 27.603516 L 9.2324219 6.59375 z M 64.640625 30.734375 C 65.163889 30.734375 65.515079 30.741142 65.695312 30.753906 C 65.875548 30.764122 66.034246 30.787872 66.167969 30.826172 C 66.609836 30.961494 66.848927 31.253753 66.886719 31.703125 C 66.89544 31.782276 66.900391 31.942235 66.900391 32.179688 L 66.210938 32.179688 C 66.208021 31.845211 66.177272 31.621509 66.119141 31.511719 C 66.058092 31.396822 65.895397 31.326314 65.630859 31.300781 C 65.441903 31.282906 65.091714 31.275391 64.580078 31.275391 C 64.161468 31.275391 63.860877 31.297791 63.677734 31.34375 C 63.471336 31.394814 63.33939 31.544702 63.28125 31.794922 C 63.249275 31.925137 63.227471 32.336012 63.21875 33.025391 C 63.221667 33.56668 63.226617 33.884045 63.232422 33.978516 C 63.244053 34.208308 63.28375 34.38255 63.353516 34.5 C 63.426191 34.614896 63.541241 34.690821 63.695312 34.726562 C 63.890083 34.775078 64.31467 34.798828 64.96875 34.798828 C 65.308871 34.798828 65.560863 34.783944 65.726562 34.755859 C 65.89517 34.72522 66.012218 34.675006 66.076172 34.603516 C 66.172104 34.496279 66.21875 34.214245 66.21875 33.759766 C 66.21875 33.708702 66.21776 33.634734 66.214844 33.535156 L 64.632812 33.535156 L 64.632812 32.990234 L 66.890625 32.990234 C 66.905158 33.138323 66.912109 33.301741 66.912109 33.480469 C 66.912109 33.807285 66.909112 34.043918 66.900391 34.189453 C 66.865506 34.72053 66.634363 35.063001 66.207031 35.21875 C 65.986098 35.297901 65.487111 35.337891 64.710938 35.337891 C 64.193488 35.337891 63.814547 35.315491 63.576172 35.269531 C 63.337796 35.221017 63.136404 35.130813 62.970703 34.998047 C 62.714885 34.791234 62.572039 34.48274 62.542969 34.074219 C 62.531338 33.910811 62.528341 33.705297 62.53125 33.455078 C 62.53125 33.404014 62.528307 33.244056 62.525391 32.978516 L 62.525391 32.794922 C 62.525391 32.394061 62.54324 32.090226 62.578125 31.880859 C 62.615919 31.668939 62.683368 31.479814 62.779297 31.316406 C 62.950811 31.022782 63.252401 30.842375 63.685547 30.773438 C 63.857061 30.747902 64.175502 30.734375 64.640625 30.734375 z M 96.242188 30.734375 C 96.689868 30.734375 97.002359 30.759483 97.179688 30.810547 C 97.580855 30.925443 97.8229 31.182371 97.904297 31.578125 C 97.93337 31.723661 97.947266 31.906773 97.947266 32.128906 C 97.947266 32.154441 97.946276 32.195784 97.943359 32.251953 L 97.257812 32.251953 C 97.254897 32.152377 97.253906 32.08728 97.253906 32.056641 C 97.248073 31.694078 97.178626 31.470976 97.044922 31.386719 C 96.928641 31.312675 96.659799 31.275391 96.238281 31.275391 C 95.680133 31.275391 95.277392 31.288322 95.033203 31.316406 C 94.882038 31.334281 94.765945 31.372918 94.681641 31.431641 C 94.600244 31.487815 94.537746 31.57396 94.494141 31.691406 C 94.447625 31.81907 94.423828 32.031948 94.423828 32.328125 C 94.423828 33.380066 94.455573 34.036443 94.519531 34.296875 C 94.557325 34.46539 94.626773 34.583406 94.728516 34.652344 C 94.844796 34.731495 95.03329 34.776897 95.294922 34.787109 C 95.454808 34.792233 95.627405 34.794922 95.810547 34.794922 C 96.232065 34.794922 96.539605 34.782745 96.734375 34.759766 C 96.932052 34.734231 97.06795 34.692135 97.140625 34.630859 C 97.242371 34.544048 97.292969 34.346806 97.292969 34.042969 C 97.292969 33.943392 97.289036 33.829435 97.283203 33.699219 L 97.976562 33.699219 L 97.976562 33.921875 C 97.979479 34.292097 97.947727 34.556542 97.880859 34.714844 C 97.747136 35.039107 97.450498 35.234396 96.988281 35.300781 C 96.81386 35.326316 96.376373 35.337891 95.675781 35.337891 C 95.361823 35.337891 95.137629 35.331124 95.003906 35.318359 C 94.870183 35.308144 94.738238 35.283036 94.607422 35.242188 C 94.095786 35.091545 93.805143 34.694201 93.738281 34.050781 C 93.709208 33.754604 93.695313 33.437239 93.695312 33.097656 C 93.695312 32.400618 93.714159 31.943589 93.751953 31.726562 C 93.813002 31.37932 94.020344 31.118934 94.375 30.945312 C 94.595934 30.835523 94.892527 30.770426 95.261719 30.75 C 95.441955 30.739785 95.768343 30.734375 96.242188 30.734375 z M 115.63086 30.734375 C 116.07854 30.734375 116.39103 30.759483 116.56836 30.810547 C 116.96953 30.925443 117.20962 31.182371 117.29102 31.578125 C 117.32011 31.723661 117.33594 31.906773 117.33594 32.128906 C 117.33594 32.154441 117.33488 32.195784 117.33203 32.251953 L 116.64648 32.251953 C 116.64364 32.152377 116.64258 32.08728 116.64258 32.056641 C 116.63689 31.694078 116.56744 31.470976 116.43359 31.386719 C 116.31732 31.312675 116.04847 31.275391 115.62695 31.275391 C 115.0688 31.275391 114.66606 31.288322 114.42188 31.316406 C 114.27071 31.334281 114.15462 31.372918 114.07031 31.431641 C 113.98892 31.487815 113.92642 31.57396 113.88281 31.691406 C 113.83629 31.81907 113.8125 32.031948 113.8125 32.328125 C 113.8125 33.380066 113.84425 34.036443 113.9082 34.296875 C 113.94598 34.46539 114.01543 34.583406 114.11719 34.652344 C 114.23347 34.731495 114.42196 34.776897 114.68359 34.787109 C 114.84348 34.792233 115.01608 34.794922 115.19922 34.794922 C 115.62074 34.794922 115.92828 34.782745 116.12305 34.759766 C 116.32073 34.734231 116.45662 34.692135 116.5293 34.630859 C 116.63105 34.544048 116.68164 34.346806 116.68164 34.042969 C 116.68164 33.943392 116.67952 33.829435 116.67383 33.699219 L 117.36523 33.699219 L 117.36523 33.921875 C 117.36808 34.292097 117.33633 34.556542 117.26953 34.714844 C 117.13581 35.039107 116.83917 35.234396 116.37695 35.300781 C 116.20253 35.326316 115.76504 35.337891 115.06445 35.337891 C 114.7505 35.337891 114.52631 35.331124 114.39258 35.318359 C 114.25886 35.308144 114.12691 35.283036 113.99609 35.242188 C 113.48446 35.091545 113.19381 34.694201 113.12695 34.050781 C 113.09786 33.754604 113.08398 33.437239 113.08398 33.097656 C 113.08398 32.400618 113.10285 31.943589 113.14062 31.726562 C 113.20166 31.37932 113.409 31.118934 113.76367 30.945312 C 113.98461 30.835523 114.27925 30.770426 114.64844 30.75 C 114.82867 30.739785 115.15701 30.734375 115.63086 30.734375 z M 28.439453 30.796875 L 29.132812 30.796875 L 29.132812 35.277344 L 28.439453 35.277344 L 28.439453 30.796875 z M 32.585938 30.796875 L 33.607422 30.796875 L 36.410156 34.714844 L 36.410156 30.796875 L 37.103516 30.796875 L 37.103516 35.277344 L 36.078125 35.277344 L 33.279297 31.359375 L 33.279297 35.277344 L 32.585938 35.277344 L 32.585938 30.796875 z M 40.556641 30.796875 L 44.611328 30.796875 L 44.611328 31.375 L 42.9375 31.375 L 42.9375 35.277344 L 42.244141 35.277344 L 42.244141 31.375 L 40.556641 31.375 L 40.556641 30.796875 z M 48.064453 30.796875 L 51.525391 30.796875 L 51.525391 31.339844 L 48.757812 31.339844 L 48.757812 32.695312 L 51.417969 32.695312 L 51.417969 33.228516 L 48.757812 33.228516 L 48.757812 34.732422 L 51.525391 34.732422 L 51.525391 35.277344 L 48.064453 35.277344 L 48.064453 30.796875 z M 54.978516 30.796875 L 57.550781 30.796875 C 58.004277 30.796875 58.350468 30.864677 58.585938 31 C 58.792335 31.117449 58.932231 31.29515 59.007812 31.535156 C 59.05142 31.678139 59.074219 31.865311 59.074219 32.097656 C 59.074219 32.480644 59.017671 32.759972 58.904297 32.933594 C 58.78511 33.122535 58.566866 33.230327 58.25 33.255859 C 58.750008 33.283944 59.001 33.566731 59.003906 34.105469 L 59.003906 35.277344 L 58.310547 35.277344 L 58.310547 34.220703 C 58.310547 33.944952 58.238148 33.754474 58.095703 33.652344 C 57.947446 33.557874 57.727203 33.514425 57.433594 33.519531 L 55.671875 33.519531 L 55.671875 35.277344 L 54.978516 35.277344 L 54.978516 30.796875 z M 72.300781 30.796875 L 73.181641 30.796875 L 75.158203 35.277344 L 74.425781 35.277344 L 74.019531 34.349609 L 71.503906 34.349609 L 71.101562 35.277344 L 70.365234 35.277344 L 72.300781 30.796875 z M 78.609375 30.796875 L 79.302734 30.796875 L 79.302734 34.699219 L 81.998047 34.699219 L 81.998047 35.277344 L 78.609375 35.277344 L 78.609375 30.796875 z M 87.386719 30.796875 L 88.267578 30.796875 L 90.242188 35.277344 L 89.509766 35.277344 L 89.105469 34.349609 L 86.587891 34.349609 L 86.1875 35.277344 L 85.451172 35.277344 L 87.386719 30.796875 z M 101.42969 30.796875 L 105.48633 30.796875 L 105.48633 31.375 L 103.81055 31.375 L 103.81055 35.277344 L 103.11719 35.277344 L 103.11719 31.375 L 101.42969 31.375 L 101.42969 30.796875 z M 108.9375 30.796875 L 109.63086 30.796875 L 109.63086 35.277344 L 108.9375 35.277344 L 108.9375 30.796875 z M 55.671875 31.339844 L 55.671875 32.974609 L 57.363281 32.974609 C 57.709217 32.974609 57.959209 32.93522 58.113281 32.853516 C 58.290609 32.759045 58.380859 32.566461 58.380859 32.275391 C 58.380859 31.879636 58.339208 31.629474 58.257812 31.527344 C 58.156067 31.402234 57.922925 31.339844 57.556641 31.339844 L 55.671875 31.339844 z M 72.75 31.443359 L 71.726562 33.837891 L 73.792969 33.837891 L 72.75 31.443359 z M 87.835938 31.443359 L 86.810547 33.837891 L 88.878906 33.837891 L 87.835938 31.443359 z M 71.396484 38.189453 L 77.238281 38.189453 L 77.238281 96.804688 L 73.154297 102.49609 L 69.001953 96.804688 L 69.001953 50.214844 L 70.669922 41.714844 L 67.431641 43.636719 L 68.974609 40.248047 L 71.041016 40.242188 L 71.396484 38.189453 z M 34.384766 44.310547 L 65.845703 44.310547 L 67.265625 49.560547 L 66.205078 49.560547 L 66.205078 75.443359 L 60.994141 83.408203 L 60.994141 49.560547 L 59.523438 49.560547 L 59.523438 82.029297 L 54.25 73.970703 L 54.25 49.560547 L 52.908203 49.560547 L 52.908203 72.017578 L 47.648438 64.230469 L 47.648438 49.560547 L 46.361328 49.560547 L 46.361328 62.253906 L 40.96875 54.283203 L 40.96875 49.560547 L 37.890625 49.560547 L 34.384766 44.310547 z M 80.216797 44.310547 L 111.87695 44.310547 L 108.29688 49.560547 L 105.10156 49.5625 L 105.10156 54.283203 L 99.847656 62.373047 L 99.847656 49.560547 L 98.445312 49.560547 L 98.445312 63.947266 L 93.207031 72.017578 L 93.207031 49.560547 L 91.896484 49.560547 L 91.896484 73.970703 L 86.558594 82.029297 L 86.558594 49.560547 L 85.216797 49.560547 L 85.216797 83.408203 L 79.941406 75.443359 L 79.941406 49.560547 L 78.947266 49.560547 L 80.216797 44.310547 z "
     transform="translate(0,-3.8146973e-6)"
     id="path50" />
  <path
     d="m 24.545979,10.19008 4.834115,0 0,14.427678 -4.834115,0 z"
     id="path52"
     inkscape:connector-curvature="0"
     style="opacity:1;fill:#000000"
     sodipodi:nodetypes="ccccc" />
  <path
     d="m 29.799,15.38424 4.172897,-5.19416 5.958887,0 L 29.799,22.293429 Z"
     id="path54"
     inkscape:connector-curvature="0"
     style="opacity:1;fill:#000000"
     sodipodi:nodetypes="ccccc" />
  <path
     d="m 41.612072,10.19008 4.870015,0 0,14.427678 -4.870015,0 z"
     id="path56"
     inkscape:connector-curvature="0"
     style="opacity:1;fill:#000000"
     sodipodi:nodetypes="ccccc" />
  <path
     d="m 46.903,10.19008 7.616873,0 1.953506,2.348375 0,4.247795 -1.833852,2.318342 2.288429,5.513166 -5.154197,0 -1.860649,-4.564887 -3.01011,0 0,-3.703359 4.751107,0 0,-2.5159 -4.750716,0 z"
     id="path58"
     inkscape:connector-curvature="0"
     style="opacity:1;fill:#000000"
     sodipodi:nodetypes="cccccccccccccc" />
  <path
     d="m 58.316088,10.19008 4.93582,0 0,10.362352 2.295665,0.01194 0,4.053361 -4.928221,0 -2.303264,-2.668336 z"
     id="path60"
     inkscape:connector-curvature="0"
     style="opacity:1;fill:#000000"
     sodipodi:nodetypes="cccccccc" />
  <path
     d="m 68.235591,10.19008 4.923619,0 0,11.624726 -2.2554,2.802952 -4.93953,0 0,-4.053362 2.271311,-0.0027 z"
     id="path62"
     inkscape:connector-curvature="0"
     style="opacity:1;fill:#000000"
     sodipodi:nodetypes="cccccccc" />
  <path
     d="m 77.496872,10.19008 5.333128,0 0,3.787121 -2.688846,0 0,7.011858 2.688846,0 8.6e-5,3.628699 -5.285351,0 -2.294408,-2.743125 0,-8.779779 z"
     id="path64"
     inkscape:connector-curvature="0"
     style="opacity:1;fill:#000000"
     sodipodi:nodetypes="ccccccccccc" />
  <path
     d="m 83.25,10.19008 5.392854,0 2.034271,2.506916 0,2.482872 -5.001869,1.17e-4 0,-1.202784 -2.425256,0 z"
     id="path66"
     inkscape:connector-curvature="0"
     style="opacity:1;fill:#000000"
     sodipodi:nodetypes="cccccccc" />
  <path
     d="m 92.929537,10.19008 4.913463,0 0,14.427678 -4.913464,0 z"
     id="path68"
     inkscape:connector-curvature="0"
     style="opacity:1;fill:#000000"
     sodipodi:nodetypes="ccccc" />
  <path
     d="m 98.253662,10.19008 7.009328,0 0,3.766301 -7.00899,0 z"
     id="path70"
     inkscape:connector-curvature="0"
     style="opacity:1;fill:#000000"
     sodipodi:nodetypes="ccccc" />
  <path
     d="m 98.254,15.383165 6.18048,0 0.003,3.811167 -6.18348,-1.18e-4 z"
     id="path76"
     inkscape:connector-curvature="0"
     style="opacity:1;fill:#000000"
     sodipodi:nodetypes="ccccc" />
  <path
     d="m 81.661031,16.014471 9.012987,0 0,6.186229 -2.034161,2.417058 -5.390093,0 2.36e-4,-3.628699 2.425256,0 0,-1.456696 -4.014225,0.0027 z"
     id="path78"
     inkscape:connector-curvature="0"
     style="opacity:1;fill:#000000"
     sodipodi:nodetypes="cccccccccc" />
  <path
     d="m 31.66211,20.747443 3.715506,-4.451361 4.80145,8.321676 -6.012727,0 z"
     id="path80"
     inkscape:connector-curvature="0"
     style="opacity:1;fill:#000000"
     sodipodi:nodetypes="ccccc" />
  <path
     d="m 98.254,20.80383 7.00899,0 0,3.813928 -7.00899,0 z"
     id="path82"
     inkscape:connector-curvature="0"
     style="opacity:1;fill:#000000"
     sodipodi:nodetypes="ccccc" />
  <path
     d="m 71.570896,40.137173 2.952518,0.03289 -2.243555,0.810675 z"
     id="path90"
     inkscape:connector-curvature="0"
     style="opacity:1;fill:#000000"
     sodipodi:nodetypes="cccc" />
  <path
     d="m 107.18439,10.19008 4.88173,0 0,14.427678 -4.88173,0 z"
     id="path56-0"
     inkscape:connector-curvature="0"
     style="opacity:1;fill:#000000"
     sodipodi:nodetypes="ccccc" />
  <path
     d="m 112.48932,10.19008 7.60287,0 1.95351,2.348375 0,4.247795 -1.83385,2.318342 2.28843,5.513166 -5.1542,0 -1.86066,-4.564887 -2.99642,0 0,-3.703359 4.73743,0 0,-2.5159 -4.73743,0 z"
     id="path58-7"
     inkscape:connector-curvature="0"
     style="opacity:1;fill:#000000"
     sodipodi:nodetypes="cccccccccccccc" />
  <g
     transform="matrix(1.0660918,0,0,0.93800552,-6.166249,-7.6549228)"
     style="font-style:normal;font-variant:normal;font-weight:normal;font-stretch:normal;font-size:9.79863548px;line-height:125%;font-family:Cr-Borarn;-inkscape-font-specification:Cr-Borarn;letter-spacing:1.44000006px;word-spacing:0px;fill:#ffffff;fill-opacity:1;stroke:none;stroke-width:1px;stroke-linecap:butt;stroke-linejoin:miter;stroke-opacity:1"
     id="text3338" />
  <g
     transform="scale(1.0670311,0.93717981)"
     style="font-style:normal;font-variant:normal;font-weight:normal;font-stretch:normal;font-size:8.36935902px;line-height:125%;font-family:'Euro Caps';-inkscape-font-specification:'Euro Caps';letter-spacing:1.11000001px;word-spacing:0px;fill:#ffffff;fill-opacity:1;stroke:none;stroke-width:1px;stroke-linecap:butt;stroke-linejoin:miter;stroke-opacity:1"
     id="text3352" />
</svg>
