<svg xmlns="http://www.w3.org/2000/svg" viewBox="0 0 392 248"><defs><style>.a{fill:#f8b103;}.b{fill:#fff;}</style></defs><title>Lightning Power Ltd</title><path class="a" d="M53.76,90.51V83h3.37V60.84H53.76V53.35H69.49v7.49H66.12V83h8.21V78.09h8.48V90.51Z"/><path class="a" d="M99.05,83v7.48H83.31V83h3.38V60.84H83.31V53.35H99.05v7.49H95.68V83Z"/><path class="a" d="M134.73,90.51h-8.14c0-2.07,0-2.33,0-2.49h-.17a15,15,0,0,1-9.55,3.13c-9.78,0-17.7-6.53-17.7-19.11,0-12.85,7.42-19.43,17.42-19.43,4.21,0,7.47,1.38,9.22,3.19h.22l.17-2.45h7.64V66.94h-8.26v-.69c.06-1.86-2.58-5.57-8-5.57-6,0-9.27,3.93-9.27,11.09,0,7.44,3.65,11.42,9.61,11.42,4.72,0,7.42-2.18,8.37-3.77V76.6h-8.48V69.54h16.91Z"/><path class="a" d="M173.23,83v7.48H157.72V83h3.14v-7.7H148.72V83h3.1v7.48H136.36V83h3.37V60.84h-3.37V53.35h15.46v7.49h-3.1v7h12.14v-7h-3.14V53.35h15.51v7.49H169.8V83Z"/><path class="a" d="M200.09,65.46V60.84h-4.67V83h3.49v7.48H183V83h3.48V60.84h-4.66v4.62h-7.65V53.35h33.61V65.46Z"/><path class="a" d="M243.13,90.51H235L219.81,67.85h-.17c0,.05.11,4.83.11,9.92V83H223v7.48H208.68V83h3.37V60.84h-3.37V53.35h11.69l14.89,22.41h.23c0-.06-.12-5.1-.12-9.51V60.79h-3.09V53.35H246.5v7.49h-3.37Z"/><path class="a" d="M262.74,83v7.48H247V83h3.37V60.84H247V53.35h15.73v7.49h-3.37V83Z"/><path class="a" d="M298.37,90.51h-8.15L275.05,67.85h-.17c0,.05.11,4.83.11,9.92V83h3.2v7.48H263.92V83h3.37V60.84h-3.37V53.35h11.69L290.5,75.76h.23c0-.06-.12-5.1-.12-9.51V60.79h-3.09V53.35h14.22v7.49h-3.37Z"/><path class="a" d="M338.24,90.51h-8.15c0-2.07.06-2.33.06-2.49H330a15,15,0,0,1-9.55,3.13c-9.78,0-17.7-6.53-17.7-19.11,0-12.85,7.41-19.43,17.42-19.43,4.21,0,7.47,1.38,9.21,3.19h.23l.17-2.45h7.64V66.94h-8.26v-.69c.05-1.86-2.59-5.57-8-5.57-6,0-9.27,3.93-9.27,11.09,0,7.44,3.65,11.42,9.61,11.42,4.72,0,7.42-2.18,8.37-3.77V76.6h-8.48V69.54h16.91Z"/><path class="b" d="M79.74,96.52c13.51,0,21.77,6.67,21.77,18.27s-7.66,20.85-21.17,20.85h-7.4v4.7h5.25v11H54v-11h5.16V107.57H54v-11ZM80,122.15c5.25,0,7.74-2.74,7.74-7.36s-2.49-7.45-7.74-7.45H72.94v14.81Z"/><path class="a" d="M78.44,151.64H53.76V140.09h5.16V107.82H53.76V96.27h26c13.79,0,22,6.92,22,18.52,0,12.62-8.61,21.1-21.42,21.1H73.19v4.2h5.25Zm-24.19-.5H77.94V140.59H72.69v-5.2h7.65c12.52,0,20.93-8.28,20.93-20.6,0-11.28-8-18-21.53-18H54.25v10.55h5.17v33.27H54.25ZM80,122.4H72.69V107.09H80c5.15,0,8,2.73,8,7.7S85.23,122.4,80,122.4Zm-6.81-.5H80c4.9,0,7.5-2.46,7.5-7.11s-2.6-7.2-7.5-7.2H73.19Z"/><path class="b" d="M199.11,123.31,190,151.39H176.63l-11.16-43.82h-4.75v-11h22v11h-4.19l6.6,19.38,11.22-30.43h5.79L213.53,127l7.59-19.38h-4.67v-11H237.5v11h-4.75l-11.08,43.82H208.13Z"/><path class="a" d="M221.86,151.64H208l0-.17-8.79-27.36-8.92,27.53H176.44l-.05-.19-11.11-43.63h-4.81V96.27H183v11.55h-4.09l6.26,18.39,11-29.94h6.13l.06.17,11.16,29.83,7.22-18.44H216.2V96.27h21.55v11.55h-4.81Zm-13.55-.5h13.17l11.08-43.82h4.69V96.77H216.69v10.55h4.79l-8,20.33L202,96.76h-5.45l-11.4,30.93-6.94-20.38h4.3V96.77H161v10.55h4.69l11.16,43.82h13l9.28-28.64Z"/><path class="b" d="M239.49,151.39v-11h5V107.57h-5v-11h43.83v17.64H271v-6.59H257.82v10.59H270v10.5H257.82v11.68h13.67V133h12.25v18.42Z"/><path class="a" d="M284,151.64H239.24V140.09h5V107.82h-5V96.27h44.33v18.14H270.74v-6.59H258.07v10.09h12.17v11H258.07v11.18h13.17v-7.37H284Zm-44.26-.5h43.76V133.22H271.74v7.37H257.57V128.41h12.17v-10H257.57V107.32h13.66v6.59h11.84V96.77H239.73v10.55h5v33.27h-5Z"/><path class="b" d="M319.25,151.39,308.8,131.8h-4.92v8.54h3.56v11H285.27v-11h5.1V107.57h-5.1v-11h25.91c13.85,0,21.58,7.21,21.58,18.11,0,7.21-3.48,12.07-10.11,14.58l6.2,11.13H336v11Zm-7.64-29.63c4.5,0,7.39-2.35,7.39-7.05,0-4.55-2.55-7.21-7.56-7.21h-7.56v14.26Z"/><path class="a" d="M336.24,151.64H319.11l-.07-.13-10.38-19.46h-4.54v8h3.57v11.55H285V140.09h5.1V107.82H285V96.27h26.16c13.47,0,21.83,7,21.83,18.36,0,7.15-3.36,12.1-10,14.71l6,10.75h7.24Zm-16.84-.5h16.34V140.59h-7l-.07-.13-6.35-11.38.28-.1c6.6-2.5,9.95-7.33,9.95-14.35,0-11.18-8-17.86-21.34-17.86H285.52v10.55h5.09v33.27h-5.09v10.55H307.2V140.59h-3.57v-9H309l.07.13ZM311.61,122h-8V107.25h7.81c5,0,7.81,2.65,7.81,7.46C319.25,119.35,316.46,122,311.61,122Zm-7.49-.5h7.49c4.6,0,7.14-2.41,7.14-6.8,0-4.56-2.53-7-7.31-7h-7.32Z"/><path class="b" d="M119.34,126.41l19.94-30.56a36.89,36.89,0,0,0-5.65-.42c-16.79,0-28.23,10.26-28.23,28.53,0,15.81,8.58,25.63,21.78,28l4.19-25.53Z"/><path class="a" d="M127.39,152.22l-.25,0c-13.77-2.45-22-13-22-28.22,0-17.76,10.91-28.78,28.48-28.78a38.11,38.11,0,0,1,5.69.42l.38.06-19.9,30.5h11.86Zm6.24-56.54c-17.26,0-28,10.83-28,28.28,0,15.09,7.78,25.17,21.34,27.68l4.1-25h-12.2l20-30.62A37.55,37.55,0,0,0,133.63,95.68Z"/><path class="b" d="M141,96.15l-3.42,23.71,12.65-.22-21.59,32.52a36.84,36.84,0,0,0,5,.33c16.78,0,28.31-10.27,28.31-28.53C161.94,108.51,153.69,98.79,141,96.15Z"/><path class="a" d="M133.63,152.74a37.94,37.94,0,0,1-5-.33l-.39,0,21.54-32.46-12.46.21,3.5-24.26.25.06c13.44,2.78,21.15,13,21.15,28.05C162.19,141.71,151.24,152.74,133.63,152.74Zm-4.57-.78a36.41,36.41,0,0,0,4.57.28c17.31,0,28.06-10.84,28.06-28.28,0-14.69-7.46-24.7-20.49-27.51l-3.34,23.15,12.83-.22Z"/><polygon class="a" points="150.69 119.38 137.86 119.6 141.94 91.31 118.88 126.66 131.07 126.66 126.22 156.24 150.69 119.38"/><path class="a" d="M234.82,195.39V187.9H238V165.72h-3.18v-7.49h14.86v7.49H246.5V187.9h7.75V183h8v12.42Z"/><path class="a" d="M283,170.33v-4.61h-4.41V187.9h3.29v7.49H266.78V187.9h3.29V165.72h-4.41v4.61h-7.22v-12.1h31.75v12.1Z"/><path class="a" d="M309,158.23c11.2,0,18.6,7.33,18.6,18.74s-7.35,18.42-18.49,18.42h-17.3v-7.54h3.45V165.72h-3.45v-7.49Zm-.62,29.62c5.43,0,10.06-2.92,10.06-10.77,0-8.29-4.69-11.36-10.06-11.36h-4.13v22.13Z"/><circle class="a" cx="332.91" cy="190.06" r="5.33"/><rect class="a" x="53.76" y="158.23" width="176.48" height="37.16"/></svg>