<?xml version="1.0" encoding="utf-8"?>
<!-- Generator: Adobe Illustrator 24.0.1, SVG Export Plug-In . SVG Version: 6.00 Build 0)  -->
<svg version="1.1"
	 id="svg2" inkscape:version="0.91 r13725" sodipodi:docname="Microtech.svg" xmlns:cc="http://creativecommons.org/ns#" xmlns:dc="http://purl.org/dc/elements/1.1/" xmlns:inkscape="http://www.inkscape.org/namespaces/inkscape" xmlns:rdf="http://www.w3.org/1999/02/22-rdf-syntax-ns#" xmlns:sodipodi="http://sodipodi.sourceforge.net/DTD/sodipodi-0.dtd" xmlns:svg="http://www.w3.org/2000/svg"
	 xmlns="http://www.w3.org/2000/svg" xmlns:xlink="http://www.w3.org/1999/xlink" x="0px" y="0px" viewBox="0 0 800 600"
	 style="enable-background:new 0 0 800 600;" xml:space="preserve">
<style type="text/css">
	.st0{fill:#8FC84C;}
	.st1{fill:#929495;}
	.st2{fill:#26A8E0;}
</style>
<g>
	<title  id="title3353">MicroTech Logo</title>
	
		<sodipodi:namedview  bordercolor="#666666" borderopacity="1" fit-margin-bottom="2" fit-margin-left="2" fit-margin-right="2" fit-margin-top="2" gridtolerance="10" guidetolerance="10" id="namedview229" inkscape:current-layer="svg2" inkscape:cx="209.71855" inkscape:cy="114.63084" inkscape:pageopacity="0" inkscape:pageshadow="2" inkscape:window-height="1018" inkscape:window-maximized="1" inkscape:window-width="1920" inkscape:window-x="-8" inkscape:window-y="-8" inkscape:zoom="2.8284271" objecttolerance="10" pagecolor="#ffffff" showgrid="false" showguides="false" units="px">
		</sodipodi:namedview>
	<g id="_x23_4f6f84ff" transform="translate(338.1049,106.00183)">
	</g>
	<g id="_x23_abb892ff" transform="translate(-712.53069,236.42556)">
	</g>
	<circle id="path4372_1_" class="st0" cx="167.6" cy="329.7" r="25.1"/>
	<circle id="path4372-3_1_" class="st0" cx="108.2" cy="270.3" r="25.1"/>
	<g id="g4463_1_" transform="matrix(0.92447888,0,0,0.92447888,-87.470097,270.13678)">
		<g>
			<g id="text4389_9_" transform="matrix(0.74726716,0,0,0.74726716,2.7454039,-38.523308)">
				<path id="path4422_9_" inkscape:connector-curvature="0" class="st1" d="M577.2,139.2V49.9H555v89.3L577.2,139.2L577.2,139.2z"
					/>
				<path class="st1" d="M808.1,48.6c-26.9,0-48.7,20.6-48.7,46.1s21.8,46.1,48.7,46.1s48.7-20.6,48.7-46.1S834.9,48.6,808.1,48.6z
					 M809,121c-14.7,0-26.6-11.9-26.6-26.6s11.9-26.6,26.6-26.6s26.6,11.9,26.6,26.6C835.6,109.1,823.7,121,809,121z"/>
				<path class="st1" d="M731.3,139.2h25.5l-18.2-28.7v-1.4c9.6-5.3,16.1-15.7,16.1-27.8c0-17.2-13.2-31.1-29.7-31.4l0,0h-48.3v89.5
					h22.4v-25.7h18.7L731.3,139.2z M699.9,67.8h22.4c6.1,0,11.1,6.4,11.1,14.2s-5,14.2-11.1,14.2h-22.4V67.8z"/>
				<path class="st1" d="M655.2,109.4c-4.8,6.5-12.6,10.7-21.4,10.7c-14.7,0-26.5-11.7-26.5-26c0-14.4,11.9-26,26.5-26
					c9,0,17,4.4,21.8,11.2l14.5-14.5c-8.9-9.8-22.2-16.1-37-16.1c-26.8,0-48.5,20.3-48.5,45.3s21.7,45.3,48.5,45.3
					c14.5,0,27.6-6,36.4-15.5L655.2,109.4z"/>
				<polygon class="st1" points="503.1,130.8 523.8,85.8 523.8,139.4 543.1,139.4 543.1,49.9 540.3,49.9 519.1,49.9 494,104.3 
					469,49.9 447.7,49.9 445.2,49.9 445.2,139.4 464.5,139.4 464.5,86.2 485,130.8 				"/>
			</g>
			<g id="text4389-9_9_" transform="matrix(0.74726716,0,0,0.74726716,2.7454039,-38.523308)">
				<path id="path4437_9_" inkscape:connector-curvature="0" class="st1" d="M1160.7,139.2V49.7h-10.5v39.4H1096V49.7h-10.5v89.5
					h10.5v-42h54.2v42H1160.7z"/>
				<path class="st1" d="M1070.9,119.3c-7.9,8.4-15.7,12-26.8,12c-20.3,0-37.1-16.6-37.1-36.9c0-20.8,16.1-36.7,37-36.7
					c10.8,0,20,3.4,27.2,11.9l6.1-6.1c-8.1-8.7-20.1-13.8-33.6-13.8c-26.2,0-45.6,19.2-45.6,45c0,25.3,19.9,44.5,46.2,44.5
					c13.4,0,24.5-4.7,32.8-13.8L1070.9,119.3z"/>
				<polygon class="st1" points="941.1,98 985.6,98 985.6,89.9 941.1,89.9 941.1,57.8 990.1,57.8 990.1,49.7 930.2,49.7 
					930.2,139.2 990.1,139.2 990.1,131.1 941.1,131.1 				"/>
				<polygon class="st1" points="913.1,49.7 861.9,49.7 853.2,49.7 853.2,57.8 861.9,57.8 882.9,57.8 882.9,139.2 892.1,139.2 
					892.1,57.8 913.1,57.8 913.1,57.8 921.6,57.8 921.6,49.7 				"/>
			</g>
		</g>
	</g>
	<path class="st2" d="M167.4,245.2c-11.6,0.7-21.1,9.9-22.3,21.4c-0.1,0.8-0.1,1.6-0.1,2.4c0,4.4-0.8,8.8-2.7,12.8
		c-2.4,5-5.7,9.6-9.7,13.7c-3,3-6.3,5.5-9.8,7.6c-4.8,2.8-10.2,4-15.8,4c-1.5,0-3.1,0.1-4.7,0.4c-9.9,1.9-17.7,10-19.1,20
		c-2.2,15.4,10.5,28.5,25.7,27.2c10.7-0.9,19.6-9.2,21.3-19.8c0.4-2.3,0.4-4.6,0.2-6.7c-0.4-3.3,0.2-6.5,1.7-9.5
		c2.4-4.7,5.5-9.1,9.3-12.9c5.7-5.7,12.6-9.8,20.2-12.4c1.8-0.6,3.8-0.8,5.7-0.7c0.4,0,0.9,0,1.3,0c13.2,0,23.8-10.7,23.8-23.8
		C192.7,255.4,181.2,244.4,167.4,245.2z"/>
</g>
</svg>
