<svg xmlns="http://www.w3.org/2000/svg" viewBox="0 0 800 600"><path d="M197 186.1h37.2l-34 40.7h46.4s18.1 51 22.6 72.9c-32.6 39.7-96.1 114.2-96.1 114.2H136l34.3-40.8h-47.2L101 300l96-113.9m-24.3 73l-34.2 40.1 12.9 41.5h46.2l34.6-41-12.7-40.6h-46.8zM283.7 259.1s78.8-.5 117.9 0c33.5.8 39.6 15.5 33.8 40.3l-12.4 43h-28.7l12.4-47.8c.8-3.1 3-13.7-13.9-14h-19.7c-5.4 20.7-16.6 61.8-16.6 61.8H328l16.4-61.9h-36.8L291 342.4h-30.1l22.8-83.3zM525.6 259.1c22.9.1 68.7 0 68.7 0l-5.7 20.7-64.5.3c-9.1-.3-11.1 11.5-3.3 11.4h38.6c23 .3 28.3 12.8 18.6 35-4.8 8.9-14.4 15.8-27.4 15.8h-74.5l5.7-20.5 62.8.2c8.3.4 11.6-12 1.1-12.1h-35c-12.9 0-23.8-4.4-22.9-18.4 2.6-20.7 13.4-31.5 37.8-32.4zM640.7 259.1H699l-6.1 22.1-51.5.1c-13.5.2-21.5 11.7-22 30.3.3 7.9 6.8 9.5 15.1 9.4l48.4.1-6.5 21.4h-56.7c-29.5.2-33.5-20.9-29.3-37.6 7.3-33.4 27.6-44.6 50.3-45.8zM457.2 260.9h29.3L465 342.4h-30l22.2-81.5z"/><path d="M173.7 262.6l10.6 37h-42l31.4-37zM217.2 262.6l11.3 37h-43.1l31.8-37zM184.5 300.5l12.3 36.9h-43.3l31-36.9zM270.7 374.2l2.1-10.8c.1-.6.2-1.2.2-1.9s-.1-1.3-.3-1.8c-.2-.5-.5-1-1-1.3-.5-.3-1.1-.5-2-.5s-1.6.2-2.3.6c-.7.4-1.2.9-1.7 1.5-.2-.7-.6-1.2-1.1-1.6-.5-.4-1.2-.6-2-.6-.7 0-1.3.2-1.9.5-.6.3-1.1.7-1.6 1.1l.2-1.3H257l-3.1 16h2.7l1.6-8.5c.1-.5.2-1 .4-1.6.2-.6.4-1.2.6-1.7.3-.5.6-1 1-1.3.4-.4 1-.6 1.6-.6.5 0 .9.2 1.1.5.2.3.2 1 .1 2s-.4 2.4-.8 4.2c-.4 1.8-.8 4.1-1.4 7h2.8l1.8-9.5c.1-.5.2-1 .4-1.5s.4-1 .7-1.4c.3-.4.6-.8 1-1 .4-.3.8-.4 1.4-.4.5 0 .8.1 1 .4.2.2.3.5.3.9 0 .3 0 .7-.1 1.1-.1.4-.1.8-.2 1.1l-2 10.3c.1.1 2.8.1 2.8.1zM283.2 374.2l3.1-16h-2.7l-1.7 8.8c-.1.6-.3 1.1-.4 1.7-.2.6-.4 1.1-.7 1.6-.3.5-.7.9-1.1 1.2s-1 .5-1.6.5c-.6 0-1-.2-1.2-.5-.2-.3-.3-.7-.4-1.2 0-.5 0-1 .1-1.5l.3-1.5 1.8-9.1H276l-2 10c-.1.5-.2 1-.3 1.6-.1.5-.1 1-.1 1.6.1.5.2 1 .4 1.5.2.4.6.8 1.1 1.1.3.2.6.3 1 .4.3.1.7.1 1.1.1.7 0 1.4-.1 2-.4.6-.3 1.2-.7 1.7-1.2l-.2 1.3h2.5zM294.7 362.8l2.6-.4c.1-1.6-.2-2.8-.9-3.5-.7-.7-1.7-1-3.2-1-.7 0-1.4.1-2 .3-.6.2-1.1.6-1.6 1s-.9.9-1.2 1.5c-.3.6-.6 1.2-.7 1.9-.2.8-.2 1.4 0 2 .2.5.4 1 .7 1.3.3.3.7.6 1.1.8.4.2.9.4 1.3.6.2.1.4.2.6.2.2.1.4.1.6.2.3.1.5.2.7.3.2.1.4.2.6.4.2.2.3.3.3.6.1.2.1.5 0 .8-.2.8-.5 1.3-1 1.8-.5.4-1.2.6-1.9.6-.9 0-1.4-.2-1.8-.7-.3-.5-.5-1.3-.4-2.4l-2.6.6c-.1 1.7.2 3 .9 3.8.7.8 1.9 1.2 3.5 1.2.7 0 1.4-.1 2.1-.4.7-.3 1.3-.6 1.8-1s1-1 1.3-1.6c.4-.6.6-1.3.8-2 .2-.8.2-1.5 0-2-.1-.5-.4-1-.7-1.3-.3-.3-.7-.6-1.1-.8-.4-.2-.9-.4-1.3-.6-.2-.1-.4-.1-.7-.2-.2-.1-.4-.1-.6-.2-.3-.1-.5-.2-.7-.3-.2-.1-.4-.3-.6-.4-.2-.2-.3-.3-.3-.6-.1-.2-.1-.5 0-.8.1-.7.4-1.2.9-1.5.5-.3 1.1-.5 1.7-.5.7 0 1.2.2 1.5.6.3.2.4.9.3 1.7zM309.1 369.2c.2-.9.3-1.8.5-2.7.2-.9.4-1.7.5-2.4.2-.9.3-1.6.3-2.4.1-.8 0-1.4-.3-2-.2-.6-.6-1-1.2-1.3-.6-.3-1.4-.5-2.5-.5-1.6 0-2.9.4-4 1.1-1.1.7-2 2-2.6 3.8l2.4.5c.2-.5.4-1 .6-1.3.2-.4.4-.7.7-.9.3-.2.6-.4.9-.5.3-.1.7-.1 1.2-.1.6 0 1.1.1 1.4.3.3.2.5.5.6.9.1.4.1.8 0 1.2-.1.4-.1.8-.2 1.3-.3.1-.7.2-1.1.3-.3.1-.7.1-1.1.2-.6.1-1.3.2-1.9.3-.6.1-1.1.3-1.7.5-.5.2-1.1.5-1.5.8-.5.4-.9.9-1.3 1.5-.2.3-.4.7-.5 1.1-.1.4-.2.7-.3 1.1-.3 1.4-.1 2.5.5 3.3.6.9 1.6 1.3 3.1 1.3.9 0 1.7-.2 2.4-.5s1.4-.7 2.1-1.2v.6c0 .2.1.5.1.7h2.8c-.2-.7-.2-1.5-.2-2.4s.1-1.7.3-2.6zm-3.9-2c.3-.1.6-.2.9-.2l.9-.3c-.1.6-.3 1.2-.5 1.8-.2.6-.5 1.2-.8 1.7-.3.5-.8 1-1.3 1.3s-1.2.5-2 .5c-.6 0-1.1-.2-1.4-.6-.3-.4-.3-.9-.2-1.6.2-.7.4-1.2.8-1.5.4-.3.9-.6 1.5-.8.3-.1.7-.2 1-.2.4.1.8 0 1.1-.1zM319 362.8l2.6-.4c.1-1.6-.2-2.8-.9-3.5-.7-.7-1.7-1-3.2-1-.7 0-1.4.1-2 .3-.6.2-1.1.6-1.6 1s-.9.9-1.2 1.5c-.3.6-.6 1.2-.7 1.9-.2.8-.2 1.4 0 2 .2.5.4 1 .7 1.3.3.3.7.6 1.1.8.4.2.9.4 1.3.6.2.1.4.2.6.2.2.1.4.1.6.2.3.1.5.2.7.3.2.1.4.2.6.4.2.2.3.3.3.6.1.2.1.5 0 .8-.2.8-.5 1.3-1 1.8-.5.4-1.2.6-1.9.6-.9 0-1.4-.2-1.8-.7-.3-.5-.5-1.3-.4-2.4l-2.6.6c-.1 1.7.2 3 .9 3.8.7.8 1.9 1.2 3.5 1.2.7 0 1.4-.1 2.1-.4.7-.3 1.3-.6 1.8-1s1-1 1.3-1.6c.4-.6.6-1.3.8-2 .2-.8.2-1.5 0-2-.1-.5-.4-1-.7-1.3-.3-.3-.7-.6-1.1-.8-.4-.2-.9-.4-1.3-.6-.2-.1-.4-.1-.7-.2-.2-.1-.4-.1-.6-.2-.3-.1-.5-.2-.7-.3-.2-.1-.4-.3-.6-.4-.2-.2-.3-.3-.3-.6-.1-.2-.1-.5 0-.8.1-.7.4-1.2.9-1.5.5-.3 1.1-.5 1.7-.5s1.2.2 1.5.6c.2.2.3.9.3 1.7zM332.1 374.2l2-10c.1-.7.2-1.4.3-2.2.1-.8 0-1.4-.2-2-.2-.6-.6-1.1-1.1-1.5-.5-.4-1.3-.6-2.3-.6-.7 0-1.3.1-1.8.4-.6.3-1.1.6-1.6 1l1.3-6.7H326l-4.2 21.6h2.7l1.7-8.9c.2-.8.4-1.6.7-2.4.3-.8.8-1.4 1.5-1.9.3-.2.5-.3.8-.4.3-.1.5-.1.8-.1.4 0 .8.1 1 .3.3.2.4.4.5.8.1.3.2.7.1 1.1 0 .4-.1.8-.1 1.3l-2 10.4c0-.2 2.6-.2 2.6-.2zM340.5 355.7l.6-3.1h-2.6l-.6 3.1h2.6zm-3.6 18.5l3.1-16h-2.6l-3.1 16h2.6zM350.4 355.7l.6-3.1h-2.6l-.6 3.1h2.6zm-3.6 18.5l3.1-16h-2.6l-3.1 16h2.6zM359.3 374.2l1.9-10c.1-.7.2-1.4.3-2.2.1-.8 0-1.4-.2-2.1-.2-.6-.6-1.1-1.1-1.5-.5-.4-1.3-.6-2.2-.6-.7 0-1.4.1-2 .4-.6.3-1.2.7-1.7 1.2l.2-1.3h-2.4l-3.1 16h2.7l1.7-8.9c.1-.5.3-1.1.4-1.7.2-.6.4-1.1.7-1.6.3-.5.7-.8 1.1-1.1.4-.3.9-.5 1.5-.5.5 0 .8.1 1 .3.2.2.4.5.5.9.1.3.1.7 0 1.2 0 .4-.1.9-.2 1.4l-2 10h2.9v.1zM372.3 374.2l4.2-21.6h-2.6l-1.3 6.6c-.3-.4-.7-.7-1.1-1-.4-.3-1-.4-1.6-.4-1.1 0-2.1.3-2.9.9-.8.6-1.5 1.3-2 2.1-.6.8-1 1.7-1.4 2.7-.3 1-.6 1.8-.7 2.6-.2.8-.2 1.6-.2 2.6s.1 1.9.3 2.7c.3.9.7 1.6 1.3 2.2.6.6 1.4.9 2.5.9.6 0 1.2-.1 1.7-.3.5-.2 1-.6 1.5-1l-.2 1h2.5zm-2.7-13.9c.7 0 1.2.2 1.5.7.3.4.5 1 .6 1.6.1.6.1 1.3 0 2s-.2 1.3-.3 1.8c-.1.5-.3 1.1-.5 1.8-.2.6-.5 1.3-.8 1.8-.3.6-.7 1-1.2 1.4-.4.4-1 .6-1.5.6-.6 0-1-.2-1.3-.6-.3-.4-.5-.9-.6-1.5-.1-.6-.1-1.2-.1-1.9s.1-1.3.2-1.9c.1-.5.2-1.1.4-1.8s.4-1.3.8-2c.3-.6.7-1.1 1.2-1.6.4-.1 1-.4 1.6-.4zM385.2 374.2l3.1-16h-2.7L384 367c-.1.6-.3 1.1-.4 1.7-.2.6-.4 1.1-.7 1.6-.3.5-.7.9-1.1 1.2-.4.3-1 .5-1.6.5-.6 0-1-.2-1.2-.5-.2-.3-.3-.7-.4-1.2 0-.5 0-1 .1-1.5l.3-1.5 1.8-9.1H378l-2 10c-.1.5-.2 1-.3 1.6-.1.5-.1 1-.1 1.6.1.5.2 1 .4 1.5.2.4.6.8 1.1 1.1.3.2.6.3 1 .4.3.1.7.1 1.1.1.7 0 1.4-.1 2-.4.6-.3 1.2-.7 1.7-1.2l-.2 1.3h2.5zM396.8 362.8l2.6-.4c.1-1.6-.2-2.8-.9-3.5-.7-.7-1.7-1-3.2-1-.7 0-1.4.1-2 .3-.6.2-1.1.6-1.6 1s-.9.9-1.2 1.5c-.3.6-.6 1.2-.7 1.9-.2.8-.2 1.4 0 2 .2.5.4 1 .7 1.3.3.3.7.6 1.1.8.4.2.9.4 1.3.6.2.1.4.2.6.2.2.1.4.1.6.2.3.1.5.2.7.3.2.1.4.2.6.4.2.2.3.3.3.6.1.2.1.5 0 .8-.2.8-.5 1.3-1 1.8-.5.4-1.2.6-1.9.6-.9 0-1.4-.2-1.8-.7-.3-.5-.5-1.3-.4-2.4l-2.6.6c-.1 1.7.2 3 .9 3.8.7.8 1.9 1.2 3.5 1.2.7 0 1.4-.1 2.1-.4.7-.3 1.3-.6 1.8-1s1-1 1.3-1.6c.4-.6.6-1.3.8-2 .2-.8.2-1.5 0-2-.1-.5-.4-1-.7-1.3-.3-.3-.7-.6-1.1-.8-.4-.2-.9-.4-1.3-.6-.2-.1-.4-.1-.7-.2-.2-.1-.4-.1-.6-.2-.3-.1-.5-.2-.7-.3-.2-.1-.4-.3-.6-.4-.2-.2-.3-.3-.3-.6-.1-.2-.1-.5 0-.8.1-.7.4-1.2.9-1.5.5-.3 1.1-.5 1.7-.5.7 0 1.2.2 1.5.6s.3.9.3 1.7zM407.2 360.4l.4-2.2h-2l.7-3.8-2.7.1-.7 3.6h-1.5l-.4 2.3h1.5l-1.7 8.7c-.1.5-.2 1.1-.3 1.7-.1.6-.1 1.2 0 1.7s.3 1 .6 1.3c.4.4 1 .6 1.8.6.5 0 1.1-.1 1.9-.3l.2-2.8c-.4.1-.6.1-.8.1h-.5c-.2 0-.4 0-.4-.1-.1-.1-.1-.2-.1-.3v-.6c.1-.2.1-.4.1-.6l1.8-9.4h2.1zM415.6 361.7l1.3-2.7c-.3-.3-.7-.6-1.1-.8-.3-.2-.7-.3-1.2-.3-.4 0-.9.2-1.3.5s-.8.7-1.1 1l.2-1.2h-2.5l-3.1 16h2.7l1.7-8.6c.1-.3.1-.8.3-1.3.1-.5.3-1.1.5-1.6s.5-.9.8-1.3.7-.6 1.3-.6c.2 0 .4.1.6.2.2.2.5.4.9.7zM421.8 355.7l.6-3.1h-2.6l-.6 3.1h2.6zm-3.6 18.5l3.1-16h-2.6l-3.1 16h2.6zM431.6 369.2c.2-.9.3-1.8.5-2.7.2-.9.4-1.7.5-2.4.2-.9.3-1.6.3-2.4.1-.8 0-1.4-.3-2-.2-.6-.6-1-1.2-1.3-.6-.3-1.4-.5-2.5-.5-1.6 0-2.9.4-4 1.1-1.1.7-2 2-2.6 3.8l2.4.5c.2-.5.4-1 .6-1.3.2-.4.4-.7.7-.9.3-.2.6-.4.9-.5s.7-.1 1.2-.1c.6 0 1.1.1 1.4.3.3.2.5.5.6.9.1.4.1.8 0 1.2-.1.4-.1.8-.2 1.3-.3.1-.7.2-1.1.3-.3.1-.7.1-1.1.2-.6.1-1.3.2-1.9.3-.6.1-1.1.3-1.7.5-.5.2-1.1.5-1.5.8-.5.4-.9.9-1.3 1.5-.2.3-.4.7-.5 1.1-.1.4-.2.7-.3 1.1-.3 1.4-.1 2.5.5 3.3.6.9 1.6 1.3 3.1 1.3.9 0 1.7-.2 2.4-.5s1.4-.7 2.1-1.2v.6c0 .2.1.5.1.7h2.8c-.2-.7-.2-1.5-.2-2.4.1-.8.2-1.7.3-2.6zm-3.9-2c.3-.1.6-.2.9-.2l.9-.3c-.1.6-.3 1.2-.5 1.8-.2.6-.5 1.2-.8 1.7-.3.5-.8 1-1.3 1.3-.5.3-1.2.5-2 .5-.6 0-1.1-.2-1.4-.6s-.3-.9-.2-1.6c.2-.7.4-1.2.8-1.5.4-.3.9-.6 1.5-.8.3-.1.7-.2 1-.2.5.1.8 0 1.1-.1zM436.2 374.2l4.2-21.6h-2.6l-4.2 21.6h2.6zM455.3 369.2c.2-.9.3-1.8.5-2.7.2-.9.4-1.7.5-2.4.2-.9.3-1.6.3-2.4.1-.8 0-1.4-.3-2-.2-.6-.6-1-1.2-1.3-.6-.3-1.4-.5-2.5-.5-1.6 0-2.9.4-4 1.1-1.1.7-2 2-2.6 3.8l2.4.5c.2-.5.4-1 .6-1.3.2-.4.4-.7.7-.9.3-.2.6-.4.9-.5s.7-.1 1.2-.1c.6 0 1.1.1 1.4.3.3.2.5.5.6.9.1.4.1.8 0 1.2-.1.4-.1.8-.2 1.3-.3.1-.7.2-1.1.3-.3.1-.7.1-1.1.2-.6.1-1.3.2-1.9.3-.6.1-1.1.3-1.7.5-.5.2-1.1.5-1.5.8-.5.4-.9.9-1.3 1.5-.2.3-.4.7-.5 1.1-.1.4-.2.7-.3 1.1-.3 1.4-.1 2.5.5 3.3.6.9 1.6 1.3 3.1 1.3.9 0 1.7-.2 2.4-.5s1.4-.7 2.1-1.2v.6c0 .2.1.5.1.7h2.8c-.2-.7-.2-1.5-.2-2.4 0-.8.1-1.7.3-2.6zm-3.9-2c.3-.1.6-.2.9-.2l.9-.3c-.1.6-.3 1.2-.5 1.8-.2.6-.5 1.2-.8 1.7-.3.5-.8 1-1.3 1.3-.5.3-1.2.5-2 .5-.6 0-1.1-.2-1.4-.6-.3-.4-.3-.9-.2-1.6.2-.7.4-1.2.8-1.5.4-.3.9-.6 1.5-.8.3-.1.7-.2 1-.2.4.1.7 0 1.1-.1zM467.5 374.2l1.9-10c.1-.7.2-1.4.3-2.2.1-.8 0-1.4-.2-2.1-.2-.6-.6-1.1-1.1-1.5-.5-.4-1.3-.6-2.2-.6-.7 0-1.4.1-2 .4-.6.3-1.2.7-1.7 1.2l.2-1.3h-2.4l-3.1 16h2.7l1.7-8.9c.1-.5.3-1.1.4-1.7.2-.6.4-1.1.7-1.6.3-.5.7-.8 1.1-1.1.4-.3.9-.5 1.5-.5.5 0 .8.1 1 .3.2.2.4.5.5.9.1.3.1.7 0 1.2 0 .4-.1.9-.2 1.4l-2 10h2.9v.1zM480.5 374.2l4.2-21.6h-2.6l-1.3 6.6c-.3-.4-.7-.7-1.1-1-.4-.3-1-.4-1.6-.4-1.1 0-2.1.3-2.9.9-.8.6-1.5 1.3-2 2.1-.6.8-1 1.7-1.4 2.7-.3 1-.6 1.8-.7 2.6-.2.8-.2 1.6-.2 2.6s.1 1.9.3 2.7c.3.9.7 1.6 1.3 2.2.6.6 1.4.9 2.5.9.6 0 1.2-.1 1.7-.3.5-.2 1-.6 1.5-1l-.2 1h2.5zm-2.7-13.9c.7 0 1.2.2 1.5.7.3.4.5 1 .6 1.6.1.6.1 1.3 0 2s-.2 1.3-.3 1.8c-.1.5-.3 1.1-.5 1.8-.2.6-.5 1.3-.8 1.8-.3.6-.7 1-1.2 1.4-.4.4-1 .6-1.5.6-.6 0-1-.2-1.3-.6-.3-.4-.5-.9-.6-1.5-.1-.6-.1-1.2-.1-1.9s.1-1.3.2-1.9c.1-.5.2-1.1.4-1.8s.4-1.3.8-2c.3-.6.7-1.1 1.2-1.6.4-.1 1-.4 1.6-.4zM497.4 362.8l2.6-.4c.1-1.6-.2-2.8-.9-3.5-.7-.7-1.7-1-3.2-1-.7 0-1.4.1-2 .3-.6.2-1.1.6-1.6 1s-.9.9-1.2 1.5c-.3.6-.6 1.2-.7 1.9-.2.8-.2 1.4 0 2 .2.5.4 1 .7 1.3.3.3.7.6 1.1.8.4.2.9.4 1.3.6.2.1.4.2.6.2.2.1.4.1.6.2.3.1.5.2.7.3.2.1.4.2.6.4.2.2.3.3.3.6.1.2.1.5 0 .8-.2.8-.5 1.3-1 1.8-.5.4-1.2.6-1.9.6-.9 0-1.4-.2-1.8-.7-.3-.5-.5-1.3-.4-2.4l-2.6.6c-.1 1.7.2 3 .9 3.8.7.8 1.9 1.2 3.5 1.2.7 0 1.4-.1 2.1-.4.7-.3 1.3-.6 1.8-1s1-1 1.3-1.6c.4-.6.6-1.3.8-2 .2-.8.2-1.5 0-2-.1-.5-.4-1-.7-1.3-.3-.3-.7-.6-1.1-.8-.4-.2-.9-.4-1.3-.6-.2-.1-.4-.1-.7-.2-.2-.1-.4-.1-.6-.2-.3-.1-.5-.2-.7-.3-.2-.1-.4-.3-.6-.4-.2-.2-.3-.3-.3-.6-.1-.2-.1-.5 0-.8.1-.7.4-1.2.9-1.5.5-.3 1.1-.5 1.7-.5.7 0 1.2.2 1.5.6.3.2.4.9.3 1.7zM507.9 360.4l.4-2.2h-2l.7-3.8-2.7.1-.7 3.6h-1.5l-.4 2.3h1.5l-1.7 8.7c-.1.5-.2 1.1-.3 1.7-.1.6-.1 1.2 0 1.7s.3 1 .6 1.3c.4.4 1 .6 1.8.6.5 0 1.1-.1 1.9-.3l.2-2.8c-.4.1-.6.1-.8.1h-.5c-.2 0-.4 0-.4-.1-.1-.1-.1-.2-.1-.3v-.6c.1-.2.1-.4.1-.6l1.8-9.4h2.1zM518.6 369.2c.2-.9.3-1.8.5-2.7.2-.9.4-1.7.5-2.4.2-.9.3-1.6.3-2.4.1-.8 0-1.4-.3-2-.2-.6-.6-1-1.2-1.3-.6-.3-1.4-.5-2.5-.5-1.6 0-2.9.4-4 1.1-1.1.7-2 2-2.6 3.8l2.4.5c.2-.5.4-1 .6-1.3.2-.4.4-.7.7-.9.3-.2.6-.4.9-.5s.7-.1 1.2-.1c.6 0 1.1.1 1.4.3.3.2.5.5.6.9.1.4.1.8 0 1.2-.1.4-.1.8-.2 1.3-.3.1-.7.2-1.1.3-.3.1-.7.1-1.1.2-.6.1-1.3.2-1.9.3-.6.1-1.1.3-1.7.5-.5.2-1.1.5-1.5.8-.5.4-.9.9-1.3 1.5-.2.3-.4.7-.5 1.1-.1.4-.2.7-.3 1.1-.3 1.4-.1 2.5.5 3.3.6.9 1.6 1.3 3.1 1.3.9 0 1.7-.2 2.4-.5s1.4-.7 2.1-1.2v.6c0 .2.1.5.1.7h2.8c-.2-.7-.2-1.5-.2-2.4.1-.8.2-1.7.3-2.6zm-3.9-2c.3-.1.6-.2.9-.2l.9-.3c-.1.6-.3 1.2-.5 1.8-.2.6-.5 1.2-.8 1.7-.3.5-.8 1-1.3 1.3-.5.3-1.2.5-2 .5-.6 0-1.1-.2-1.4-.6s-.3-.9-.2-1.6c.2-.7.4-1.2.8-1.5.4-.3.9-.6 1.5-.8.3-.1.7-.2 1-.2.5.1.8 0 1.1-.1zM529.3 361.7l1.3-2.7c-.3-.3-.7-.6-1.1-.8-.3-.2-.7-.3-1.2-.3-.4 0-.9.2-1.3.5s-.8.7-1.1 1l.2-1.2h-2.5l-3.1 16h2.7l1.7-8.6c.1-.3.1-.8.3-1.3.1-.5.3-1.1.5-1.6s.5-.9.8-1.3.7-.6 1.3-.6c.2 0 .4.1.6.2.3.2.6.4.9.7zM539.9 355.4l.9-2.8c-.5-.1-.9-.2-1.2-.2-.3-.1-.7-.1-1-.1-.9 0-1.6.2-2.2.6-.5.4-1 .8-1.3 1.4-.3.6-.6 1.2-.8 1.9-.2.7-.3 1.4-.4 2.1h-1.8l-.4 2.3h1.8l-2.6 13.7h2.6l2.6-13.7h2.3l.5-2.3h-2.3c0-.1.1-.3.1-.4 0-.1 0-.3.1-.4 0-.3.1-.5.1-.8.1-.3.2-.5.3-.7.1-.2.3-.4.5-.6.2-.1.5-.2.8-.2h.6c.1 0 .4.1.8.2zM541 374.2l4.2-21.6h-2.6l-4.2 21.6h2.6zM549.1 355.7l.6-3.1H547l-.6 3.1h2.7zm-3.6 18.5l3.1-16H546l-3.1 16h2.6zM559.1 371.8l2.6-13.6h-2.5l-.2 1.1c-.3-.4-.7-.8-1.2-1.1-.5-.3-1-.4-1.7-.4-1.1 0-2 .3-2.9.8-.8.5-1.5 1.2-2.1 2.1-.6.8-1 1.7-1.4 2.7s-.6 1.8-.8 2.6c-.2.8-.2 1.6-.3 2.6 0 .9.1 1.8.4 2.6.3.8.7 1.5 1.3 2.1.6.5 1.5.8 2.6.8.6 0 1.1-.1 1.7-.3.5-.2 1-.5 1.5-.9-.1.6-.3 1.1-.4 1.7-.2.6-.4 1.1-.7 1.6-.3.5-.7.9-1.1 1.2-.5.3-1.1.5-1.8.5s-1.2-.2-1.5-.5-.4-.9-.3-1.8l-2.6-.2-.1.5c-.2.8-.1 1.4 0 2 .2.6.4 1 .8 1.4.4.4.9.6 1.5.8.6.2 1.2.3 1.9.3 1.3 0 2.4-.3 3.3-.8.9-.5 1.6-1.2 2.1-2.1s1-1.8 1.3-2.8c.2-1 .4-2 .6-2.9zm-3.2-11.5c.6 0 1 .2 1.3.6.3.4.5.8.6 1.4.1.6.2 1.2.1 1.8 0 .7-.1 1.3-.2 1.8-.1.6-.3 1.2-.5 1.9s-.5 1.3-.8 1.9c-.3.6-.7 1.1-1.2 1.5-.5.4-1 .6-1.6.6s-1.1-.2-1.4-.6c-.3-.4-.5-.9-.6-1.4-.1-.6-.1-1.2-.1-1.9.1-.7.1-1.3.3-1.9.1-.5.3-1.1.5-1.8s.5-1.3.8-1.8c.3-.6.7-1.1 1.2-1.5.5-.4 1-.6 1.6-.6zM571.3 374.2l2-10c.1-.7.2-1.4.3-2.2.1-.8 0-1.4-.2-2-.2-.6-.6-1.1-1.1-1.5-.5-.4-1.3-.6-2.3-.6-.7 0-1.3.1-1.8.4-.6.3-1.1.6-1.6 1l1.3-6.7h-2.6l-4.2 21.6h2.7l1.7-8.9c.2-.8.4-1.6.7-2.4.3-.8.8-1.4 1.5-1.9.3-.2.5-.3.8-.4.3-.1.5-.1.8-.1.4 0 .8.1 1 .3.3.2.4.4.5.8.1.3.2.7.1 1.1 0 .4-.1.8-.1 1.3l-2 10.4h2.5v-.2zM581.3 360.4l.4-2.2h-2l.7-3.8-2.7.1-.7 3.6h-1.5l-.4 2.3h1.5l-1.7 8.7c-.1.5-.2 1.1-.3 1.7-.1.6-.1 1.2 0 1.7s.3 1 .6 1.3c.4.4 1 .6 1.8.6.5 0 1.1-.1 1.9-.3l.2-2.8c-.4.1-.6.1-.8.1h-.5c-.2 0-.4 0-.4-.1-.1-.1-.1-.2-.1-.3v-.6c.1-.2.1-.4.1-.6l1.8-9.4h2.1zM594.9 363.4l2.6-.4c.1-1.5-.2-2.7-.9-3.7-.6-1-1.7-1.4-3.2-1.4-1.2 0-2.2.3-3 .8-.8.6-1.5 1.3-2.1 2.1s-1 1.7-1.4 2.7c-.3 1-.6 1.9-.7 2.7-.2.8-.3 1.7-.3 2.7 0 1 .1 1.9.3 2.7.3.8.7 1.5 1.3 2.1.6.5 1.5.8 2.7.8.8 0 1.6-.2 2.2-.5.7-.3 1.3-.7 1.8-1.3.5-.5 1-1.2 1.4-1.9s.7-1.4 1-2.2l-2.5-.4c-.2.5-.3 1-.6 1.5-.2.5-.5.9-.8 1.2-.3.3-.6.6-.9.8-.3.2-.7.3-1.2.3-.6 0-1.1-.2-1.4-.6-.3-.4-.5-.9-.6-1.5-.1-.6-.1-1.2-.1-1.9.1-.7.2-1.3.3-2 .1-.6.3-1.2.5-1.9s.5-1.3.8-1.9c.3-.6.7-1.1 1.2-1.5.5-.4 1-.6 1.7-.6s1.2.3 1.4.9c.4.7.5 1.5.5 2.4zM606 373.6c.7-.4 1.3-.9 1.8-1.5s.9-1.2 1.2-1.9c.3-.7.6-1.4.8-2.1.2-.7.4-1.4.5-2 .2-.9.3-1.8.2-2.7 0-1-.1-1.9-.4-2.6-.3-.8-.8-1.5-1.4-2-.7-.5-1.6-.8-2.7-.8-1.2 0-2.2.3-3.1.8-.9.5-1.6 1.2-2.2 2-.6.8-1.1 1.7-1.5 2.7-.3 1-.6 1.9-.8 2.8-.2.9-.3 1.8-.3 2.8 0 1 .1 1.9.4 2.7.3.8.8 1.5 1.4 2 .7.5 1.6.8 2.8.8 1.1-.1 2.2-.4 3.3-1zm-.5-13.3c.6 0 1.1.2 1.4.6.3.4.6.8.7 1.4.1.6.2 1.2.1 1.9 0 .7-.1 1.3-.2 1.9-.1.6-.3 1.2-.5 1.9s-.5 1.3-.8 2c-.3.6-.8 1.1-1.3 1.5-.5.4-1.1.6-1.7.6-.6 0-1.1-.2-1.5-.6-.3-.4-.6-.9-.7-1.5-.1-.6-.2-1.2-.1-1.9 0-.7.1-1.3.2-1.9.1-.6.3-1.2.5-1.9s.5-1.3.9-1.9c.3-.6.8-1.1 1.3-1.5.5-.4 1-.6 1.7-.6zM621.1 374.2l1.9-10c.1-.7.2-1.4.3-2.2.1-.8 0-1.4-.2-2.1-.2-.6-.6-1.1-1.1-1.5-.5-.4-1.3-.6-2.2-.6-.7 0-1.4.1-2 .4-.6.3-1.2.7-1.7 1.2l.2-1.3h-2.4l-3.1 16h2.7l1.7-8.9c.1-.5.3-1.1.4-1.7.2-.6.4-1.1.7-1.6.3-.5.7-.8 1.1-1.1.4-.3.9-.5 1.5-.5.5 0 .8.1 1 .3.2.2.4.5.5.9.1.3.1.7 0 1.2 0 .4-.1.9-.2 1.4l-2 10h2.9v.1zM633 363.4l2.6-.4c.1-1.5-.2-2.7-.9-3.7-.6-1-1.7-1.4-3.2-1.4-1.2 0-2.2.3-3 .8-.8.6-1.5 1.3-2.1 2.1s-1 1.7-1.4 2.7c-.3 1-.6 1.9-.7 2.7-.2.8-.3 1.7-.3 2.7 0 1 .1 1.9.3 2.7.3.8.7 1.5 1.3 2.1.6.5 1.5.8 2.7.8.8 0 1.6-.2 2.2-.5.7-.3 1.3-.7 1.8-1.3.5-.5 1-1.2 1.4-1.9.4-.7.7-1.4 1-2.2l-2.5-.4c-.2.5-.3 1-.6 1.5-.2.5-.5.9-.8 1.2-.3.3-.6.6-.9.8-.3.2-.7.3-1.2.3-.6 0-1.1-.2-1.4-.6-.3-.4-.5-.9-.6-1.5-.1-.6-.1-1.2-.1-1.9.1-.7.2-1.3.3-2 .1-.6.3-1.2.5-1.9s.5-1.3.8-1.9c.3-.6.7-1.1 1.2-1.5.5-.4 1-.6 1.7-.6s1.2.3 1.4.9c.4.7.5 1.5.5 2.4zM647.9 367.1l.2-1c.2-.8.2-1.7.2-2.7 0-1-.1-1.8-.4-2.6-.3-.8-.7-1.5-1.4-2s-1.5-.8-2.6-.8c-1.2 0-2.2.3-3.1.8-.9.5-1.6 1.2-2.2 2.1-.6.8-1.1 1.7-1.5 2.7-.3 1-.6 1.9-.8 2.8-.2.9-.3 1.8-.3 2.8 0 1 .1 1.9.4 2.7.3.8.8 1.5 1.4 2 .7.5 1.6.8 2.8.8 1.5 0 2.8-.5 3.9-1.4 1.1-.9 2-2.2 2.6-3.8l-2.6-.3c-.5.9-1 1.7-1.5 2.2-.5.5-1.2.8-2 .8-.6 0-1-.2-1.3-.5-.3-.3-.6-.7-.7-1.2-.2-.5-.2-1-.3-1.6 0-.6 0-1.2.1-1.7h9.1v-.1zm-4.4-6.7c.5 0 .9.1 1.2.4.3.3.5.6.7 1 .2.4.2.8.3 1.3v1.5h-6.1c.1-.5.3-1 .6-1.5s.5-1 .9-1.3c.3-.4.7-.7 1.1-1 .4-.3.8-.4 1.3-.4zM656.7 361.7l1.3-2.7c-.3-.3-.7-.6-1.1-.8-.3-.2-.7-.3-1.2-.3-.4 0-.9.2-1.3.5s-.8.7-1.1 1l.2-1.2H651l-3.1 16h2.7l1.7-8.6c.1-.3.1-.8.3-1.3.1-.5.3-1.1.5-1.6s.5-.9.8-1.3c.3-.4.7-.6 1.3-.6.2 0 .4.1.6.2.2.2.5.4.9.7zM667 374.2l1.9-10c.1-.7.2-1.4.3-2.2.1-.8 0-1.4-.2-2.1s-.6-1.1-1.1-1.5c-.5-.4-1.3-.6-2.2-.6-.7 0-1.4.1-2 .4-.6.3-1.2.7-1.7 1.2l.2-1.3h-2.4l-3.1 16h2.7l1.7-8.9c.1-.5.3-1.1.4-1.7.2-.6.4-1.1.7-1.6.3-.5.7-.8 1.1-1.1.4-.3.9-.5 1.5-.5.5 0 .8.1 1 .3.2.2.4.5.5.9.1.3.1.7 0 1.2 0 .4-.1.9-.2 1.4l-2 10h2.9v.1z"/></svg>