<?xml version="1.0" encoding="UTF-8" standalone="no"?>
<svg
   xmlns:dc="http://purl.org/dc/elements/1.1/"
   xmlns:cc="http://creativecommons.org/ns#"
   xmlns:rdf="http://www.w3.org/1999/02/22-rdf-syntax-ns#"
   xmlns:svg="http://www.w3.org/2000/svg"
   xmlns="http://www.w3.org/2000/svg"
   xmlns:sodipodi="http://sodipodi.sourceforge.net/DTD/sodipodi-0.dtd"
   xmlns:inkscape="http://www.inkscape.org/namespaces/inkscape"
   width="272.58334mm"
   height="282.93124mm"
   viewBox="0 0 772.67721 802.00984"
   version="1.1"
   id="svg2"
   inkscape:version="0.92.1 r15371"
   sodipodi:docname="OKB.svg"
   inkscape:export-filename="C:\OKB.png"
   inkscape:export-xdpi="233.31732"
   inkscape:export-ydpi="233.31732">
  <title
     id="title4845">OKB Logo</title>
  <metadata
     id="metadata34">
    <rdf:RDF>
      <cc:Work
         rdf:about="">
        <dc:format>image/svg+xml</dc:format>
        <dc:type
           rdf:resource="http://purl.org/dc/dcmitype/StillImage" />
        <dc:title>OKB Logo</dc:title>
        <dc:creator>
          <cc:Agent>
            <dc:title>CIG</dc:title>
          </cc:Agent>
        </dc:creator>
        <dc:contributor>
          <cc:Agent>
            <dc:title>SVG trace by King Phoenix</dc:title>
          </cc:Agent>
        </dc:contributor>
      </cc:Work>
    </rdf:RDF>
  </metadata>
  <defs
     id="defs32" />
  <sodipodi:namedview
     pagecolor="#ffffff"
     bordercolor="#666666"
     borderopacity="1"
     objecttolerance="10"
     gridtolerance="10"
     guidetolerance="10"
     inkscape:pageopacity="0"
     inkscape:pageshadow="2"
     inkscape:window-width="1920"
     inkscape:window-height="1017"
     id="namedview30"
     showgrid="false"
     showguides="true"
     inkscape:zoom="0.50000001"
     inkscape:cx="1006.0931"
     inkscape:cy="487.49032"
     inkscape:window-x="-8"
     inkscape:window-y="-8"
     inkscape:window-maximized="1"
     inkscape:current-layer="svg2"
     fit-margin-top="4"
     fit-margin-left="4"
     fit-margin-right="4"
     fit-margin-bottom="4"
     units="mm" />
  <g
     id="g4813"
     transform="matrix(3.7997794,0,0,3.7997794,-4680.0207,9143.047)">
    <path
       inkscape:transform-center-y="-1.4997124"
       d="m 1333.3301,-2403.2207 4.697,15.9203 16.5926,-0.4525 -13.6897,9.3868 5.5578,15.6407 -13.1577,-10.119 -13.1577,10.119 5.5577,-15.6407 -13.6896,-9.3868 16.5925,0.4525 z"
       inkscape:randomized="0"
       inkscape:rounded="0"
       inkscape:flatsided="false"
       sodipodi:arg2="-0.94247777"
       sodipodi:arg1="-1.5707963"
       sodipodi:r2="7.9910622"
       sodipodi:r1="22.385214"
       sodipodi:cy="-2380.8354"
       sodipodi:cx="1333.3301"
       sodipodi:sides="5"
       id="path4283"
       style="opacity:1;fill:#aa0000;fill-opacity:1;stroke:none;stroke-width:1;stroke-miterlimit:4;stroke-dasharray:none;stroke-opacity:0.43452382"
       sodipodi:type="star" />
    <g
       transform="matrix(2.5463214,0,0,2.5463214,-1886.1036,3567.5305)"
       id="g4707">
      <path
         inkscape:connector-curvature="0"
         style="opacity:1;fill:#d19600;fill-opacity:1"
         d="m 1232.285,-2304.5283 c 0.5415,2.4043 0.1684,5.3408 -1.7174,7.22 -2.0017,-1.7913 -2.5246,-4.6864 -1.8718,-7.2104 0.6535,1.0266 1.1269,2.1527 1.7805,3.1748 0.6719,-1.0235 1.1799,-2.1932 1.8087,-3.1844 z"
         id="path217"
         sodipodi:nodetypes="ccccc" />
      <path
         inkscape:connector-curvature="0"
         style="opacity:1;fill:#d19600;fill-opacity:1"
         d="m 1233.643,-2311.3229 c -0.01,2.4645 -1.0233,5.2446 -3.2796,6.6575 -1.5533,-2.1914 -1.4195,-5.1303 -0.2219,-7.446 0.4089,1.1462 0.6201,2.3493 1.0301,3.4911 0.8826,-0.8484 1.638,-1.8759 2.4714,-2.7026 z"
         id="path217-9"
         sodipodi:nodetypes="ccccc" />
      <path
         inkscape:connector-curvature="0"
         style="opacity:1;fill:#d19600;fill-opacity:1"
         d="m 1236.4121,-2317.4857 c -0.5861,2.3938 -2.2217,4.8598 -4.7458,5.7057 -0.9978,-2.4939 -0.1802,-5.3199 1.5259,-7.2913 0.1295,1.21 0.054,2.4292 0.1849,3.6353 1.0566,-0.6185 2.0314,-1.4408 3.035,-2.0497 z"
         id="path217-9-9"
         sodipodi:nodetypes="ccccc" />
      <path
         inkscape:connector-curvature="0"
         style="opacity:1;fill:#d19600;fill-opacity:1"
         d="m 1232.1732,-2297.8372 c 1.0556,2.227 1.3356,5.1738 -0.093,7.4208 -2.3458,-1.3087 -3.4908,-4.0187 -3.4074,-6.6244 0.8626,0.8583 1.5715,1.8532 2.4334,2.7071 0.4311,-1.146 0.6702,-2.3986 1.0663,-3.5035 z"
         id="path217-7"
         sodipodi:nodetypes="ccccc" />
      <path
         inkscape:connector-curvature="0"
         style="opacity:1;fill:#d19600;fill-opacity:1"
         d="m 1233.7285,-2290.8617 c 1.478,1.9722 2.3395,4.8041 1.3871,7.2907 -2.5595,-0.8152 -4.2214,-3.2429 -4.6587,-5.813 1.0163,0.6694 1.9091,1.503 2.9239,2.1682 0.1941,-1.2089 0.1794,-2.4842 0.3471,-3.6457 z"
         id="path217-7-6"
         sodipodi:nodetypes="ccccc" />
      <path
         inkscape:connector-curvature="0"
         style="opacity:1;fill:#d19600;fill-opacity:1"
         d="m 1236.6208,-2284.6456 c 1.8663,1.6098 3.3145,4.1914 2.9169,6.8243 -2.6747,-0.2478 -4.8181,-2.2632 -5.7959,-4.6798 1.1362,0.4361 2.1868,1.0589 3.3205,1.4913 -0.07,-1.2223 -0.357,-2.4649 -0.4421,-3.6354 z"
         id="path217-7-6-1"
         sodipodi:nodetypes="ccccc" />
      <path
         inkscape:connector-curvature="0"
         style="opacity:1;fill:#d19600;fill-opacity:1"
         d="m 1240.7685,-2279.0168 c 2.1961,1.1188 4.2177,3.2812 4.4587,5.9329 -2.6567,0.3965 -5.2185,-1.0503 -6.7439,-3.1643 1.2074,0.1526 2.3761,0.5074 3.5802,0.6573 -0.3592,-1.1704 -0.9339,-2.3089 -1.2954,-3.4254 z"
         id="path217-7-6-1-8"
         sodipodi:nodetypes="ccccc" />
      <path
         inkscape:connector-curvature="0"
         style="opacity:1;fill:#d19600;fill-opacity:1"
         d="m 1246.1035,-2274.5159 c 2.3699,0.677 4.7685,2.4117 5.5134,4.9681 -2.5313,0.8984 -5.3231,-0.03 -7.2254,-1.8128 1.2142,-0.082 2.4293,0.043 3.6398,-0.041 -0.577,-1.0798 -1.3593,-2.0871 -1.9281,-3.1135 z"
         id="path217-7-6-1-8-8"
         sodipodi:nodetypes="ccccc" />
      <path
         sodipodi:nodetypes="ccccccccccccccscccsccccsccccccccccccccscccsccccccccccccccccccccccccccccccccccccccccccccccccccccccccc"
         inkscape:connector-curvature="0"
         id="path4160-7-0-8-6"
         d="m 1248.689,-2336.2016 c -13.5852,5.8772 -23.0996,19.397 -23.1,35.136 0,21.1302 15.5444,32.2468 23.2969,35.2203 0.5667,0.2174 2.3107,0.2149 3.2859,0.044 2.0487,-0.3588 3.3792,-1.4719 5.2688,-1.6171 1.5364,-0.1027 2.9563,0.5854 4.3812,1.0515 -0.9705,0.6539 -1.9851,1.2429 -2.9234,1.9438 1.1018,0.2567 2.8764,0.031 3.375,-0.1156 0.4648,-0.1369 1.3117,-0.7927 2.0735,-1.1251 0.7615,0.3325 1.6088,0.9883 2.0734,1.1251 0.4986,0.1468 2.2732,0.3723 3.375,0.1156 -0.9383,-0.7009 -1.9528,-1.2899 -2.9235,-1.9438 1.4251,-0.4661 2.8449,-1.1542 4.3813,-1.0515 1.8896,0.1452 3.2186,1.2583 5.2672,1.6171 0.9752,0.1712 2.7192,0.1737 3.2859,-0.044 7.7527,-2.9735 23.2985,-14.0901 23.2985,-35.2203 -4e-4,-15.739 -9.5147,-29.2588 -23.1,-35.136 l -1.0157,0.6969 c 13.541,5.5703 23.0718,18.8849 23.072,34.4391 2e-4,15.0492 -8.9476,27.9355 -21.7672,33.8687 -0.3111,0.1439 -1.8877,0.5652 -3.3735,0.35 -2.411,-0.3491 -2.8239,-2.2353 -2.8859,-2.5687 -0.4179,-2.257 0.6772,-3.065 0.9531,-3.161 11.4747,-4.0035 20.0893,-15.3552 20.0891,-28.489 -2e-4,-12.3732 -7.4432,-23.0095 -18.0907,-27.6922 l 0.4797,1.3531 c 9.8048,4.709 16.5716,14.7305 16.5719,26.3391 -0.325,15.7849 -10.8696,24.2148 -18.5313,27.1797 -1.8237,0.6073 -2.4197,0.8564 -3.6375,2.2312 -0.42,0.5542 -0.778,1.1661 -1.3734,1.5531 -1.6243,1.123 -4.2423,1.7673 -5.4063,2.2578 -0.481,0.1862 -1.0511,0.1896 -1.4843,0 -1.164,-0.4905 -3.782,-1.1348 -5.4063,-2.2578 -0.5954,-0.387 -0.9534,-0.9989 -1.3734,-1.5531 -1.2177,-1.3748 -1.8152,-1.6239 -3.6391,-2.2312 -7.6617,-2.9649 -18.2046,-11.3948 -18.5297,-27.1797 4e-4,-11.6086 6.7656,-21.6301 16.5704,-26.3391 l 0.4812,-1.3531 c -10.6474,4.6827 -18.0904,15.319 -18.0906,27.6922 -2e-4,13.1338 8.6143,24.4855 20.089,28.489 0.276,0.096 1.3711,0.904 0.9532,3.161 -0.062,0.3334 -0.475,2.2196 -2.886,2.5687 -1.4858,0.2152 -3.0624,-0.2061 -3.3734,-0.35 -12.8196,-5.9332 -21.769,-18.8195 -21.7687,-33.8687 10e-5,-15.5542 9.5325,-28.8688 23.0734,-34.4391 z m 1.5594,1.0688 c -7.4934,2.9979 -13.7656,8.3957 -17.8718,15.2406 h 0.9328 c 4.1108,-6.6526 10.3297,-11.8644 17.7312,-14.6953 z m 28.1969,0 -0.7922,0.5453 c 7.4015,2.8309 13.6203,8.0427 17.7313,14.6953 h 0.9312 c -4.1062,-6.8449 -10.3769,-12.2427 -17.8703,-15.2406 z m -26.9187,0.8766 c -7.3396,2.73 -13.5249,7.8281 -17.6391,14.3609 h 0.9453 c 4.1214,-6.337 10.2588,-11.2416 17.5078,-13.8 z m 25.639,0 -0.8125,0.5609 c 7.2491,2.5584 13.3864,7.463 17.5079,13.8 h 0.9452 c -4.1141,-6.5328 -10.301,-11.6309 -17.6406,-14.3609 z m -24.3218,0.9046 c -7.188,2.4538 -13.2952,7.2394 -17.422,13.4532 h 0.4766 l 0.1969,0.4234 c 4.0233,-6.0515 9.9717,-10.7117 16.9734,-13.1078 l 0.1751,-0.4938 z m 23.0046,0 -0.4,0.275 0.1766,0.4938 c 7.0017,2.3961 12.9501,7.0563 16.9734,13.1078 l 0.1969,-0.4234 h 0.4765 c -4.1268,-6.2138 -10.2354,-10.9994 -17.4234,-13.4532 z m -22.989,1.3532 c -6.8354,2.4322 -12.6253,7.068 -16.5219,13.0484 l 0.3938,0.861 c 3.6865,-5.86 9.2167,-10.4427 15.7812,-12.9297 z m 22.9734,0 0.3469,0.9797 c 6.5645,2.487 12.0947,7.0697 15.7813,12.9297 l 0.3937,-0.861 c -3.8966,-5.9804 -9.6865,-10.6162 -16.5219,-13.0484 z m -23.5375,1.5906 c -6.3914,2.5229 -11.7593,7.074 -15.3171,12.8562 l 0.4,0.8703 c 3.3438,-5.6589 8.447,-10.1545 14.5608,-12.7281 z m 24.1016,0 0.3562,0.9984 c 6.1139,2.5736 11.2171,7.0692 14.561,12.7281 l 0.4,-0.8703 c -3.5579,-5.7822 -8.9259,-10.3333 -15.3172,-12.8562 z"
         style="color:#000000;font-style:normal;font-variant:normal;font-weight:normal;font-stretch:normal;font-size:medium;line-height:normal;font-family:sans-serif;text-indent:0;text-align:start;text-decoration:none;text-decoration-line:none;text-decoration-style:solid;text-decoration-color:#000000;letter-spacing:normal;word-spacing:normal;text-transform:none;writing-mode:lr-tb;direction:ltr;baseline-shift:baseline;text-anchor:start;white-space:normal;clip-rule:nonzero;display:inline;overflow:visible;visibility:visible;opacity:1;isolation:auto;mix-blend-mode:normal;color-interpolation:sRGB;color-interpolation-filters:linearRGB;solid-color:#000000;solid-opacity:1;fill:#d19600;fill-opacity:1;fill-rule:nonzero;stroke:none;stroke-width:1.03999996;stroke-linecap:butt;stroke-linejoin:miter;stroke-miterlimit:4;stroke-dasharray:none;stroke-dashoffset:0;stroke-opacity:1;color-rendering:auto;image-rendering:auto;shape-rendering:auto;text-rendering:auto;enable-background:accumulate" />
      <path
         inkscape:connector-curvature="0"
         style="opacity:1;fill:#d19600;fill-opacity:1"
         d="m 1296.408,-2304.5283 c -0.5415,2.4043 -0.1684,5.3408 1.7174,7.22 2.0017,-1.7913 2.5246,-4.6864 1.8718,-7.2104 -0.6535,1.0266 -1.1269,2.1527 -1.7805,3.1748 -0.6719,-1.0235 -1.1799,-2.1932 -1.8087,-3.1844 z"
         id="path217-0"
         sodipodi:nodetypes="ccccc" />
      <path
         inkscape:connector-curvature="0"
         style="opacity:1;fill:#d19600;fill-opacity:1"
         d="m 1295.05,-2311.3229 c 0.01,2.4645 1.0233,5.2446 3.2796,6.6575 1.5533,-2.1914 1.4195,-5.1303 0.2219,-7.446 -0.4089,1.1462 -0.6201,2.3493 -1.0301,3.4911 -0.8826,-0.8484 -1.638,-1.8759 -2.4714,-2.7026 z"
         id="path217-9-0"
         sodipodi:nodetypes="ccccc" />
      <path
         inkscape:connector-curvature="0"
         style="opacity:1;fill:#d19600;fill-opacity:1"
         d="m 1292.2809,-2317.4857 c 0.5861,2.3938 2.2217,4.8598 4.7458,5.7057 0.9978,-2.4939 0.1802,-5.3199 -1.5259,-7.2913 -0.1295,1.21 -0.054,2.4292 -0.1849,3.6353 -1.0566,-0.6185 -2.0314,-1.4408 -3.035,-2.0497 z"
         id="path217-9-9-2"
         sodipodi:nodetypes="ccccc" />
      <path
         inkscape:connector-curvature="0"
         style="opacity:1;fill:#d19600;fill-opacity:1"
         d="m 1296.5198,-2297.8372 c -1.0556,2.227 -1.3356,5.1738 0.093,7.4208 2.3458,-1.3087 3.4908,-4.0187 3.4074,-6.6244 -0.8626,0.8583 -1.5715,1.8532 -2.4334,2.7071 -0.4311,-1.146 -0.6702,-2.3986 -1.0663,-3.5035 z"
         id="path217-7-0"
         sodipodi:nodetypes="ccccc" />
      <path
         inkscape:connector-curvature="0"
         style="opacity:1;fill:#d19600;fill-opacity:1"
         d="m 1294.9645,-2290.8617 c -1.478,1.9722 -2.3395,4.8041 -1.3871,7.2907 2.5595,-0.8152 4.2214,-3.2429 4.6587,-5.813 -1.0163,0.6694 -1.9091,1.503 -2.9239,2.1682 -0.1941,-1.2089 -0.1794,-2.4842 -0.3471,-3.6457 z"
         id="path217-7-6-4"
         sodipodi:nodetypes="ccccc" />
      <path
         inkscape:connector-curvature="0"
         style="opacity:1;fill:#d19600;fill-opacity:1"
         d="m 1292.0722,-2284.6456 c -1.8663,1.6098 -3.3145,4.1914 -2.9169,6.8243 2.6747,-0.2478 4.8181,-2.2632 5.7959,-4.6798 -1.1362,0.4361 -2.1868,1.0589 -3.3205,1.4913 0.07,-1.2223 0.357,-2.4649 0.4421,-3.6354 z"
         id="path217-7-6-1-3"
         sodipodi:nodetypes="ccccc" />
      <path
         inkscape:connector-curvature="0"
         style="opacity:1;fill:#d19600;fill-opacity:1"
         d="m 1287.9245,-2279.0168 c -2.1961,1.1188 -4.2177,3.2812 -4.4587,5.9329 2.6567,0.3965 5.2185,-1.0503 6.7439,-3.1643 -1.2074,0.1526 -2.3761,0.5074 -3.5802,0.6573 0.3592,-1.1704 0.9339,-2.3089 1.2954,-3.4254 z"
         id="path217-7-6-1-8-2"
         sodipodi:nodetypes="ccccc" />
      <path
         inkscape:connector-curvature="0"
         style="opacity:1;fill:#d19600;fill-opacity:1"
         d="m 1282.5895,-2274.5159 c -2.3699,0.677 -4.7685,2.4117 -5.5134,4.9681 2.5313,0.8984 5.3231,-0.03 7.2254,-1.8128 -1.2142,-0.082 -2.4293,0.043 -3.6398,-0.041 0.577,-1.0798 1.3593,-2.0871 1.9281,-3.1135 z"
         id="path217-7-6-1-8-8-3"
         sodipodi:nodetypes="ccccc" />
    </g>
    <g
       style="fill:#aa0000;fill-opacity:1"
       transform="matrix(0.09639797,0,0,0.09639797,1043.0145,-2159.727)"
       id="#000000ff">
      <path
         style="opacity:1;fill:#aa0000;fill-opacity:1"
         inkscape:connector-curvature="0"
         id="path16"
         d="m 3436.8113,-1154.4441 c 1.0206,-0.3141 2.1127,-0.1796 3.181,-0.2034 30.3154,0 60.6337,0 90.949,0 3.3185,-0.021 6.6579,0.027 9.9406,0.5834 5.7332,0.9247 11.269,3.1809 15.943,6.64 4.6741,3.3664 8.6479,7.7112 11.5745,12.6756 3.5906,6.0145 5.1198,13.0735 5.1228,20.0337 0,62.3453 0,124.69047 0,187.03277 -0.018,3.8032 0.1143,7.6334 -0.5027,11.3978 -0.8379,5.8589 -3.1689,11.4756 -6.6281,16.2693 -3.4651,4.7757 -7.8309,8.9471 -12.9268,11.9454 -5.862,3.5011 -12.7205,5.096 -19.5102,5.1229 -31.4223,0.013 -62.8448,0 -94.2673,0 -1.1043,-0.048 -2.3071,0.1705 -3.3005,-0.3951 -0.8349,-0.5116 -0.9099,-1.5828 -0.9217,-2.4566 0,-88.4774 0,-176.95467 0,-265.43197 0,-1.164 0.081,-2.702 1.3496,-3.2198 m 42.9399,44.4572 c 0,60.7683 0,121.53957 0,182.30787 12.5799,0 25.1597,0 37.7425,0 1.4992,-0.013 3.0431,0.094 4.5064,-0.3531 4.0336,-1.1132 7.3311,-4.9464 7.2234,-9.2374 0.027,-54.248 0.013,-108.50187 0.013,-162.74997 0.1765,-3.7075 -2.1336,-7.1996 -5.3953,-8.8364 -1.6607,-0.9186 -3.5877,-1.1281 -5.4429,-1.1341 -12.8822,0 -25.7641,0 -38.6432,0 z" />
      <path
         style="opacity:1;fill:#aa0000;fill-opacity:1"
         inkscape:connector-curvature="0"
         id="path18"
         d="m 3106.1252,-1153.9302 c 0.5087,-0.6074 1.3435,-0.7032 2.0975,-0.7182 12.4721,0 24.9443,0 37.4163,0 0.9576,0.018 1.9569,-0.092 2.8906,0.2304 1.1041,0.4936 1.2747,1.8374 1.2537,2.9085 0,36.8566 0,73.7132 0,110.5727 16.4938,0 32.9876,0 49.4843,0 0,-36.659 0,-73.3151 0,-109.9712 0,-1.0473 -0.033,-2.2114 0.6702,-3.0731 0.5508,-0.6345 1.4513,-0.6464 2.2383,-0.6673 12.8701,0 25.74,0 38.6101,0 0.8109,0 1.7805,0.1143 2.2592,0.8798 0.7392,1.2059 0.4458,2.6961 0.5117,4.0397 0,87.4839 0,174.96457 0,262.44847 -0.055,1.0864 0.1496,2.2562 -0.3113,3.2768 -0.4369,0.9095 -1.553,1.0591 -2.4446,1.0591 -12.7773,0 -25.5516,0 -38.3289,0 -0.8857,-0.018 -1.8882,0.027 -2.5763,-0.6073 -0.5686,-0.5956 -0.6254,-1.4513 -0.6284,-2.2234 0,-36.9612 0,-73.9226 0,-110.8839 -16.4967,0 -32.9905,0 -49.4873,0 0,37.06 0,74.1201 0,111.1802 0.033,0.9156 -0.2992,1.9899 -1.2447,2.3191 -0.9397,0.2903 -1.9301,0.1945 -2.8876,0.2124 -12.6606,-0.027 -25.3241,0.039 -37.9847,-0.033 -1.5232,0.081 -2.3371,-1.4574 -2.1636,-2.8009 0,-88.4773 0,-176.95767 0,-265.43797 0.037,-0.9247 0.014,-1.957 0.6315,-2.717 z" />
      <path
         style="opacity:1;fill:#aa0000;fill-opacity:1"
         inkscape:connector-curvature="0"
         id="path20"
         d="m 2816.3448,-1154.3259 c 3.8211,-0.4248 7.6723,-0.3171 11.5145,-0.3291 17.3525,0 34.7082,0 52.0607,0 3.4321,0.089 6.9032,0.2782 10.2306,1.191 5.9579,1.4183 11.4547,4.4884 16.0271,8.5341 4.4137,3.872 8.184,8.5581 10.6198,13.9233 2.4267,5.1409 3.4203,10.8562 3.4143,16.5176 -0.016,14.4321 0.018,28.8642 -0.018,43.2962 0.12,1.5649 -1.4422,2.4656 -2.8398,2.337 -12.1758,0.021 -24.3545,0 -36.5302,0.014 -1.3617,-0.057 -2.7591,0.1675 -4.0758,-0.2186 -0.9515,-0.3351 -1.2387,-1.4153 -1.2297,-2.319 -0.016,-8.7825 0,-17.5681 0,-26.3506 -0.013,-2.0946 0.138,-4.2879 -0.7452,-6.2449 -1.6097,-3.6446 -5.5058,-6.0565 -9.4766,-5.9907 -8.1871,-0.05 -16.3741,0 -24.5612,-0.021 -2.8398,0.078 -5.8111,-0.3142 -8.5042,0.7901 -2.8127,1.1879 -5.1946,3.6267 -5.9099,6.643 -0.2813,1.2926 -0.3051,2.6242 -0.2902,3.9407 0.014,15.9582 -0.018,31.9164 0.016,47.8744 -0.1646,5.6436 5.1557,10.7216 10.8054,10.1771 13.8633,-0.014 27.7298,0 41.5963,0 6.2749,-0.05 12.6846,0.7212 18.4208,3.4113 5.3264,2.3698 9.9944,6.0714 13.8216,10.4462 4.0876,4.6651 7.1038,10.3086 8.4565,16.3801 0.8556,3.5129 1.0621,7.1426 1.0712,10.74837 -0.013,25.737 0.014,51.4712 -0.013,77.2082 -0.042,6.7297 -1.6309,13.5224 -5.0929,19.3305 -2.6424,4.5513 -6.275,8.4742 -10.3626,11.7598 -5.3025,4.2402 -11.7448,7.0859 -18.4896,7.9358 -2.8906,0.4458 -5.826,0.4009 -8.7407,0.4009 -17.6548,0 -35.3094,0 -52.9641,0 -3.0763,0 -6.1704,0.055 -9.2134,-0.434 -5.901,-0.7481 -11.5714,-3.0341 -16.437,-6.4423 -4.8417,-3.4982 -9.0638,-7.9238 -12.0591,-13.1065 -3.4681,-5.859 -5.0331,-12.6875 -5.081,-19.4591 -0.055,-14.2525 0,-28.5021 -0.023,-42.7546 0.013,-1.1759 0.036,-2.7021 1.2507,-3.3095 0.9366,-0.3949 1.996,-0.2813 3.0013,-0.3021 9.4678,0 18.9355,0 28.4033,0 3.106,0.054 6.2211,-0.1144 9.3241,0.089 1.3466,0 2.3729,1.2538 2.304,2.5675 0.2155,9.8865 0.2125,19.7823 0.4729,29.6659 0.1705,3.525 2.6153,6.7088 5.8141,8.0942 1.3316,0.5716 2.7948,0.7121 4.2372,0.7272 9.1714,0 18.3459,0 27.5205,0 1.9569,0.033 3.9947,-0.068 5.7751,-0.9814 3.3006,-1.568 5.7723,-4.9852 5.6616,-8.7196 0,-16.3563 0.027,-32.7094 -0.015,-49.0624 0.084,-3.7524 -2.2473,-7.3193 -5.6316,-8.8783 -1.7925,-0.9096 -3.8363,-1.0382 -5.8051,-1.0382 -13.8605,0.014 -27.721,0 -41.5816,0 -6.8135,0.1765 -13.7199,-1.2149 -19.7464,-4.46147 -9.6682,-5.3953 -17.4094,-14.6805 -19.878,-25.5875 -0.8678,-3.4801 -1.0653,-7.0799 -1.1132,-10.6528 0,-24.935 0,-49.8672 0,-74.8023 -0.021,-4.0128 0.072,-8.0673 0.9756,-11.9934 1.2118,-5.6705 3.881,-10.9818 7.4777,-15.5121 3.6656,-4.5364 8.1452,-8.4803 13.3489,-11.1614 3.9737,-2.0768 8.3516,-3.3574 12.8041,-3.8692 z" />
      <path
         style="opacity:1;fill:#aa0000;fill-opacity:1"
         inkscape:connector-curvature="0"
         id="path22"
         d="m 2450.3236,-1153.8986 c 0.6225,-0.7779 1.6997,-0.7361 2.6065,-0.7659 12.8699,0.023 25.7399,-0.023 38.6069,0.027 1.4004,-0.1465 2.4987,1.0922 2.4418,2.4448 1.6458,21.7304 3.2377,43.4666 4.8746,65.1969 0.087,2.2653 0.8856,4.4077 1.3194,6.6131 7.6307,32.9935 15.273,65.984 22.9035,98.97737 0.087,0.5058 0.4607,0.8678 0.799,1.233 0.6642,-0.9517 0.7031,-2.1486 1.0114,-3.2319 7.6063,-32.90357 15.2158,-65.80737 22.8255,-98.71097 0.8318,-3.7614 1.176,-7.5976 1.3764,-11.4397 1.3346,-19.4562 2.6512,-38.9124 3.9978,-58.3656 0.018,-0.9934 0.4068,-2.1066 1.4242,-2.4686 1.4066,-0.4369 2.9147,-0.2185 4.3719,-0.2694 10.9699,0 21.9399,0 32.9127,0 1.4065,0.037 2.8248,-0.096 4.2282,0.1047 0.769,0.055 1.4901,0.6793 1.4693,1.4962 -1.3706,18.4208 -2.5406,36.8626 -3.8304,55.2893 -0.38,4.7038 -0.4487,9.4468 -1.2985,14.0969 -15.4047,66.3011 -30.8092,132.60227 -46.2016,198.90337 -0.3472,1.0384 -1.4873,1.6758 -2.5166,1.8074 -13.1753,0.018 -26.3505,-0.014 -39.5258,0.014 -1.6399,0.1975 -3.1449,-1.2029 -3.4083,-2.7679 -14.7731,-63.623 -29.5582,-127.24307 -44.3343,-190.86607 -0.6314,-2.9354 -1.5472,-5.823 -1.7028,-8.8392 -1.6008,-21.5599 -3.2078,-43.1256 -4.8175,-64.6854 -0.096,-1.2627 -0.3411,-2.6931 0.4667,-3.7913 z" />
      <path
         style="opacity:1;fill:#aa0000;fill-opacity:1"
         inkscape:connector-curvature="0"
         id="path24"
         d="m 2945.6786,-1153.8246 c 0.5776,-0.7599 1.592,-0.8138 2.4688,-0.8287 12.7743,0 25.5484,0 38.3228,0 0.8258,0.023 1.7804,0.062 2.3669,0.745 0.5954,0.7331 0.5716,1.7266 0.5865,2.6213 -0.027,28.2357 0.029,56.4714 -0.031,84.707 0.9844,-2.2502 2.3011,-4.3419 3.4262,-6.5232 13.8903,-25.6174 27.7779,-51.2378 41.6713,-76.8553 0.754,-1.3794 1.4063,-2.8936 2.6871,-3.8809 0.7839,-0.6643 1.8461,-0.8229 2.8456,-0.8139 13.3729,0 26.7455,0 40.1184,0 0.739,0.055 1.6336,-0.042 2.1844,0.5686 0.4367,0.6582 0.2094,1.526 -0.1069,2.1873 -21.4791,39.6573 -42.9731,79.3089 -64.446,118.9693 20.2042,46.11487 40.4264,92.22667 60.6128,138.35337 1.2688,2.9056 2.5224,5.8232 3.7972,8.7287 0.2873,0.7092 0.5685,1.547 0.2125,2.2891 -0.4579,0.6105 -1.2718,0.5956 -1.9541,0.6134 -13.4655,0 -26.931,0 -40.3966,0 -0.9216,0 -1.924,0 -2.69,-0.5775 -0.9156,-0.6673 -1.2029,-1.8103 -1.6697,-2.7768 -15.4195,-34.9116 -30.812,-69.8322 -46.2555,-104.7287 -0.027,35.1569 0,70.3167 -0.015,105.4768 0,0.766 -0.1014,1.6697 -0.781,2.1515 -0.5327,0.4038 -1.221,0.4458 -1.8581,0.4547 -12.978,0 -25.9586,0 -38.9364,0 -0.7272,0 -1.5111,-0.068 -2.0648,-0.5896 -0.6134,-0.6103 -0.6074,-1.5289 -0.6432,-2.3279 0,-88.0793 0,-176.15567 0,-264.23497 0.036,-1.2449 -0.1527,-2.6213 0.5475,-3.7256 z" />
      <path
         style="opacity:1;fill:#aa0000;fill-opacity:1"
         inkscape:connector-curvature="0"
         id="path28"
         d="m 2652.0554,-1154.3325 c 1.8223,-0.2305 3.6626,-0.2336 5.494,-0.3233 18.8457,0 37.6913,0 56.5371,0 5.057,-0.016 10.1888,0.4518 14.9765,2.1754 5.2727,1.7744 10.0513,4.8625 14.0641,8.6958 5.428,5.1438 9.5904,11.7688 11.2242,19.115 1.2419,4.8893 1.1402,9.9704 1.1252,14.9795 0,60.2476 0,120.49527 0,180.74287 -0.037,4.3719 0.1765,8.7796 -0.5476,13.1125 -1.0413,7.1905 -4.3628,13.9773 -9.2165,19.3665 -4.2401,4.8056 -9.5604,8.7405 -15.5811,11.0028 -3.4051,1.3255 -7.0199,2.0526 -10.6527,2.3698 -3.7793,0.2514 -7.5675,0.1103 -11.3528,0.1467 -14.7642,0 -29.5285,0 -44.2926,0 -5.2934,-0.037 -10.6646,0.2663 -15.8564,-0.9695 -5.5029,-1.182 -10.7005,-3.6956 -15.0993,-7.1965 -6.9003,-5.4372 -12.3135,-13.0226 -14.2823,-21.6586 -0.8978,-3.4201 -1.1012,-6.9662 -1.176,-10.4851 0,-63.3418 0,-126.68347 0,-190.02817 -0.016,-4.9583 0.4398,-9.9825 2.0885,-14.6894 2.1785,-6.5682 6.3439,-12.3762 11.5234,-16.9186 5.7903,-5.2515 13.2532,-8.612 21.0273,-9.4348 m 17.6337,44.5828 c -3.0671,0.6314 -5.8051,2.7618 -7.1456,5.5956 -0.9006,1.9091 -0.8528,4.0636 -0.8408,6.1254 0,52.7728 0,105.54257 0,158.31537 0,2.1305 -0.087,4.3718 0.8618,6.3437 1.3465,2.7589 3.9977,4.8894 7.011,5.5268 1.0653,0.1915 2.1544,0.2393 3.2376,0.2334 9.4829,-0.015 18.9654,0.016 28.4482,-0.015 4.3897,0.039 8.6538,-3.1599 9.6743,-7.457 0.3021,-1.4243 0.2572,-2.8906 0.2543,-4.3359 0,-53.5657 0,-107.12847 0,-160.69427 0.1825,-4.2342 -2.9296,-8.1032 -6.8853,-9.342 -1.2687,-0.452 -2.6304,-0.4818 -3.959,-0.5417 -9.1774,0 -18.3548,0 -27.5325,0 -1.0412,0.015 -2.0885,0.084 -3.118,0.2484 z" />
      <path
         style="opacity:1;fill:#aa0000;fill-opacity:1"
         inkscape:connector-curvature="0"
         id="path24-7"
         d="m 2857.1435,-1850.3926 c 1.3817,-1.8489 3.809,-1.9799 5.9067,-2.0162 30.5652,0.01 61.1303,0.01 91.6955,0 1.976,0.057 4.26,0.1529 5.6632,1.8123 1.4249,1.7833 1.3676,4.1999 1.4034,6.3763 -0.065,68.6825 0.072,137.3648 -0.072,206.0474 2.3555,-5.4738 5.506,-10.5616 8.198,-15.8678 33.2356,-62.3135 66.4643,-124.6343 99.7071,-186.9478 1.8043,-3.3556 3.3652,-7.0386 6.4295,-9.4407 1.8758,-1.6158 4.4176,-2.0015 6.809,-1.9797 31.9971,0.015 63.9942,0.01 95.9911,0 1.7684,0.1309 3.9094,-0.1019 5.2268,1.3829 1.0453,1.6014 0.5012,3.7122 -0.2578,5.3208 -51.3937,96.4655 -102.8224,192.9164 -154.201,289.3892 48.3428,112.1732 96.7287,224.3391 145.0286,336.5413 3.0357,7.0676 6.0358,14.1644 9.0858,21.2321 0.6874,1.7251 1.3604,3.7631 0.5083,5.5683 -1.0954,1.4848 -3.0429,1.4484 -4.6755,1.4921 -32.2188,-0.015 -64.4379,-0.015 -96.657,0 -2.2051,0.015 -4.6037,0 -6.4366,-1.4048 -2.191,-1.6231 -2.8782,-4.4036 -3.9951,-6.7547 -36.8944,-84.9214 -73.7243,-169.8646 -110.6761,-254.7497 -0.065,85.5184 -0.01,171.0438 -0.028,256.5695 0,1.8633 -0.2434,4.0615 -1.8686,5.2334 -1.2745,0.9825 -2.9212,1.0845 -4.4462,1.1063 -31.052,-0.015 -62.1112,-0.01 -93.1632,-0.01 -1.7399,0.015 -3.6157,-0.1675 -4.9403,-1.434 -1.4676,-1.4848 -1.4534,-3.7194 -1.5393,-5.6628 -0.01,-214.2506 0.01,-428.494 -0.01,-642.7444 0.087,-3.028 -0.3653,-6.3762 1.3101,-9.0621 z" />
      <path
         style="opacity:1;fill:#aa0000;fill-opacity:1"
         inkscape:connector-curvature="0"
         id="path28-6"
         d="m 2532.6625,-1851.6182 c 4.3603,-0.5605 8.7635,-0.5678 13.1454,-0.7861 45.0924,-0.01 90.1847,0.01 135.2769,-0.01 12.1002,-0.036 24.3791,1.0992 35.8348,5.2917 12.6156,4.3163 24.0498,11.828 33.651,21.152 12.9879,12.5123 22.9472,28.6275 26.8563,46.4969 2.9713,11.8935 2.728,24.2527 2.6922,36.4374 0,146.5508 0,293.1015 0,439.6522 -0.087,10.6343 0.4223,21.356 -1.3104,31.8956 -2.4915,17.4909 -10.4388,33.9992 -22.052,47.1082 -10.1454,11.6897 -22.8755,21.2613 -37.2811,26.764 -8.1477,3.2246 -16.7968,4.9933 -25.4888,5.7648 -9.0428,0.6115 -18.1071,0.2694 -27.1641,0.3567 -35.3265,0 -70.6529,0 -105.9792,0 -12.6658,-0.087 -25.5176,0.6478 -37.9397,-2.3583 -13.1669,-2.8752 -25.6034,-8.9893 -36.1283,-17.5055 -16.5105,-13.2256 -29.4626,-31.6772 -34.1736,-52.6838 -2.148,-8.3196 -2.6349,-16.9449 -2.8139,-25.5048 -0.01,-154.0769 0,-308.1539 -0.01,-462.2381 -0.035,-12.061 1.0524,-24.282 4.9975,-35.7315 5.2124,-15.977 15.1787,-30.105 27.5723,-41.1542 13.8542,-12.7742 31.7107,-20.9483 50.3118,-22.9498 m 42.1927,108.4462 c -7.3388,1.5359 -13.8899,6.7183 -17.0977,13.6113 -2.1549,4.6439 -2.0404,9.8846 -2.0118,14.8997 0.01,128.3684 0.01,256.7294 0,385.0978 -0.01,5.1824 -0.2076,10.6343 2.0621,15.4311 3.2219,6.711 9.5655,11.8934 16.7754,13.4438 2.5488,0.4658 5.1549,0.5823 7.7468,0.5677 22.6894,-0.035 45.3788,0.036 68.0682,-0.035 10.5033,0.095 20.706,-7.6865 23.1475,-18.1387 0.7232,-3.4647 0.6157,-7.0313 0.6086,-10.547 -0.01,-130.2973 0.015,-260.5872 -0.015,-390.8845 0.4367,-10.2994 -7.0094,-19.7108 -16.4746,-22.7242 -3.0358,-1.0992 -6.2936,-1.1719 -9.4725,-1.3175 -21.9591,-0.01 -43.9181,0.01 -65.8771,-0.01 -2.4916,0.036 -4.9976,0.2039 -7.4606,0.6041 z" />
      <path
         style="opacity:1;fill:#aa0000;fill-opacity:1"
         inkscape:connector-curvature="0"
         id="path26-5"
         d="m 3242.3598,-1850.6353 c 1.2101,-1.463 3.1718,-1.7104 4.9475,-1.7468 61.5957,-0.01 123.1912,0 184.7868,0 16.6466,-0.036 33.7942,-0.8007 49.7033,5.0951 13.0164,4.3309 24.7154,12.1337 34.5673,21.727 9.673,9.5353 17.6562,20.9702 22.6322,33.7445 2.6491,7.0895 4.5607,14.4774 5.4557,22.0182 1.1815,8.4579 0.9165,17.0323 0.9523,25.5485 0,43.1776 -0.01,86.348 0.01,129.5257 0.2578,18.983 -6.3007,37.1435 -13.3458,54.4379 11.3625,8.3414 21.4578,18.7137 28.3885,31.1748 8.1693,14.3685 11.742,31.1024 11.7062,47.6033 0.01,60.421 0,120.8422 0,181.2632 -0.028,8.2687 0.2148,16.581 -0.7947,24.8133 -1.7469,15.1252 -7.4891,29.7046 -16.2742,42.0203 -7.8328,10.7945 -17.4555,20.3516 -28.5819,27.5938 -14.3482,9.5279 -31.4887,14.2445 -48.5648,14.332 -76.1372,0.043 -152.2814,-0.01 -228.4186,0.028 -2.3556,-0.066 -5.062,0.2694 -7.0094,-1.361 -1.5322,-1.4267 -1.6038,-3.6613 -1.6682,-5.6047 -0.015,-215.2041 0,-430.4009 -0.01,-645.6049 0.1002,-2.2492 0.027,-4.7676 1.5178,-6.6092 m 104.4541,106.8887 c 0,55.3186 -0.01,110.6373 0,165.9559 22.9544,-0.015 45.9015,0.022 68.8557,-0.015 12.6872,0.123 24.0354,-11.6898 23.7561,-24.5659 0.035,-37.3546 0,-74.7165 0.015,-112.0711 0,-3.6177 0.1209,-7.2717 -0.5514,-10.8382 -1.6396,-7.6426 -7.5535,-13.8733 -14.5844,-16.7557 -4.3389,-1.7832 -9.1074,-1.725 -13.704,-1.7178 -21.2645,0.015 -42.5289,0 -63.7863,0.01 m 0,273.6818 c -0.01,56.5924 -0.01,113.1848 0,169.7772 30.3288,0 60.6576,-0.01 90.9865,0 4.1169,0.08 8.3555,0.05 12.2361,-1.5576 8.1263,-3.2682 14.792,-11.1583 15.0641,-20.2786 0.2649,-7.2715 0.035,-14.5503 0.1153,-21.8218 -0.01,-33.7297 0.015,-67.4596 -0.015,-101.1821 0.027,-5.8886 -1.6252,-11.981 -5.6204,-16.3773 -4.6467,-5.5537 -11.7636,-8.6762 -18.9161,-8.538 -31.2882,-0.05 -62.5695,-0.01 -93.8505,-0.022 z" />
      <path
         style="opacity:1;fill:#aa0000;fill-opacity:1"
         inkscape:connector-curvature="0"
         id="path28-4"
         d="m 3305.4696,-1154.3325 c 1.8224,-0.2305 3.6627,-0.2336 5.4939,-0.3233 18.8458,0 37.6916,0 56.5372,0 5.0571,-0.016 10.189,0.4518 14.9767,2.1754 5.2725,1.7744 10.0512,4.8625 14.0639,8.6958 5.4282,5.1438 9.5905,11.7688 11.2242,19.115 1.2419,4.8893 1.1402,9.9704 1.1252,14.9795 0,60.2476 0,120.49527 0,180.74287 -0.037,4.3719 0.1766,8.7796 -0.5476,13.1125 -1.0413,7.1905 -4.3627,13.9773 -9.2164,19.3665 -4.2402,4.8056 -9.5604,8.7406 -15.5811,11.0028 -3.4052,1.3255 -7.02,2.0526 -10.6527,2.3698 -3.7792,0.2515 -7.5676,0.1103 -11.353,0.1467 -14.764,0 -29.5282,0 -44.2924,0 -5.2934,-0.037 -10.6647,0.2664 -15.8564,-0.9695 -5.503,-1.182 -10.7006,-3.6956 -15.0993,-7.1965 -6.9004,-5.4372 -12.3135,-13.0226 -14.2825,-21.6587 -0.8976,-3.42 -1.1012,-6.9661 -1.176,-10.485 0,-63.3418 0,-126.68347 0,-190.02817 -0.016,-4.9583 0.4399,-9.9825 2.0887,-14.6894 2.1784,-6.5682 6.3437,-12.3762 11.5234,-16.9186 5.7903,-5.2515 13.2531,-8.612 21.0271,-9.4348 m 17.6339,44.5828 c -3.0671,0.6314 -5.8051,2.7618 -7.1457,5.5956 -0.9007,1.9091 -0.8528,4.0636 -0.8408,6.1254 0,52.7728 0,105.54257 0,158.31537 0,2.1305 -0.087,4.3718 0.8617,6.3437 1.3465,2.7589 3.9979,4.8894 7.011,5.5268 1.0654,0.1915 2.1546,0.2393 3.2378,0.2334 9.4827,-0.015 18.9653,0.016 28.4481,-0.015 4.3897,0.039 8.6539,-3.1599 9.6742,-7.457 0.3023,-1.4243 0.2574,-2.8906 0.2545,-4.3359 0,-53.5657 0,-107.12847 0,-160.69427 0.1824,-4.2342 -2.9296,-8.1032 -6.8855,-9.342 -1.2688,-0.452 -2.6302,-0.4818 -3.9588,-0.5417 -9.1775,0 -18.355,0 -27.5325,0 -1.0414,0.015 -2.0887,0.084 -3.118,0.2484 z" />
    </g>
  </g>
</svg>
