<svg xmlns="http://www.w3.org/2000/svg" viewBox="0 0 800 600"><g transform="translate(38.842787 261.88161)"><path d="M255.4-78.4C162.5-77.8 81 3.5 55.3 116.1 96.5 10.6 175.5-54.4 284.6-76c-9.8-1.7-19.5-2.5-29.2-2.4zm37.1 11.5C233-67.6 166.6-24.2 138.6 3 197-38.6 281.1-81.3 350.7-44.4c1.7.9 3.3 2 5.2 2.6-.8-1.7-2.3-2.9-3.6-4.1-17.7-14.7-38.3-20.7-59.8-21zm143.6 6.6c-11.2 31-25.2 55-44.2 80.2H405c14.1-25.3 24-51.9 31.1-80.2zm-156.4 9.2c37.6 1 88.1 16.2 69.4 71h11.3c24.7-57.7-35.1-70.4-80.7-71zm-14.8 15.2c-13.6-.1-27.8 2.9-41 8.8-40.7 18-62.7 57.6-49.1 88.5 13.6 30.9 57.7 41.4 98.4 23.5 7.1-3.1 13.8-7 19.9-11.6l4.2-23.7c-8.2 9.7-19.2 17.8-31.7 23.3-35.6 15.7-74 6.8-85.7-19.8-11.7-26.6 7.6-61 43.2-76.7 35.6-15.7 74-6.8 85.7 19.8 3.6 8.1 4.3 17.2 2.3 26.5l.2-.2c2.5-1.8 4.8-2.7 6.9-2.7h7.8c.7-8.3-.6-16.3-3.8-23.6-8.4-19.1-29-31.2-54.7-32.2-.7.1-1.6.1-2.6.1zM170.7-13c-54.1 49.4-78.3 110.9 28.6 118.7-79.2-11.6-73-60.9-28.6-118.7zm95.8 2.3c-5.4 0-9.7 4.3-9.7 9.7 0 5.4 4.3 9.7 9.7 9.7 5.4 0 9.7-4.3 9.7-9.7 0-5.3-4.4-9.7-9.7-9.7zm10 21.8c-2.5 0-4.5 2-4.5 4.5s2 4.5 4.5 4.5 4.5-2 4.5-4.5c.1-2.4-2-4.5-4.5-4.5zm46.3 16.8c-2.2 0-4.5.9-6.9 2.7l-3.7 2.7c-2.5 1.8-3.9 4-4.4 6.7l-12.4 69.6c-.5 2.7.2 4.9 2 6.7l2.8 2.7c1.8 1.8 3.8 2.7 6 2.7h49.3c2.2 0 4.5-.9 6.9-2.7l3.7-2.7c2.5-1.8 3.9-4 4.4-6.7L382.9 40c.5-2.7-.2-4.9-2-6.7l-2.8-2.7c-1.8-1.8-3.8-2.7-6-2.7h-49.3zm75.1 0l-16.7 93.7h11.3l6.7-37.5h19.4l12.9 28.5c.9 2.1 2.2 3.9 3.9 5.2l2.3 1.7c1.3 1 2.1 1.6 2.7 1.7.6.2 1.7.3 3.3.3h3.4l.9-5.2c.4-2.1.5-3.3.3-3.9-.2-.5-1-1.2-2.5-2.1l-1.3-.8c-1.3-.8-2.1-1.4-2.5-1.7-.3-.4-.8-1.4-1.5-2.9l-10.1-21.4h7.5c2.2 0 4.4-.8 6.6-2.4l3.9-2.8c2.6-1.9 4.1-4.2 4.6-7l5.6-31.3c.5-2.7-.2-4.9-2-6.7l-2.8-2.7c-1.8-1.8-3.8-2.7-6-2.7h-49.9zm76.7 0l-16.7 93.7h11.3l16.7-93.7h-11.3zm36.9 0c-2.2 0-4.5.9-6.9 2.7l-3.7 2.7c-2.5 1.8-3.9 4-4.4 6.7l-12.4 69.6c-.5 2.7.2 4.9 2 6.7l2.8 2.7c1.8 1.8 3.8 2.7 6 2.7H538c2.2 0 4.5-.9 6.9-2.7l3.7-2.7c2.5-1.8 3.9-4 4.4-6.7l6.4-36.1h-31.8l-1.7 9.4h20.5l-4.3 24c-.2 1.3-.5 2.2-.7 2.7-.2.4-.7.8-1.6 1.5-.9.6-1.6 1-2.1 1.2-.5.1-1.5.1-3.1.1h-33.1c-1.6 0-2.6 0-3.1-.1-.4-.2-1-.6-1.7-1.2s-1.1-1.1-1.2-1.5c0-.4.1-1.3.3-2.7l11.4-64c.2-1.3.4-2.2.6-2.5.3-.4.8-1 1.8-1.6.9-.6 1.6-1 2.1-1.1.5-.2 1.5-.3 3.1-.3H548c1.6 0 2.6.1 3.1.3.4.1 1 .4 1.7 1.1.7.6 1.1 1.2 1.1 1.6.1.4.1 1.2-.2 2.5l-.5 2.5h11.3l1-5.4c.5-2.7-.2-4.9-2-6.7l-2.8-2.7c-1.8-1.8-3.8-2.7-6-2.7h-43.2zm65.6 0l-16.7 93.7h11.3l16.7-93.7h-11.3zm24.1 0l-16.7 93.7h11.3L608 52.9c.4-2.1.4-4.3.2-6.4l.4-.1 35.9 75.2H656l16.7-93.7h-11.3L649 97.7c-.4 2.1-.4 4.3-.2 6.4l-.4.1-35.8-76.3h-11.4zm-275.1 9.3h39.3c1.6 0 2.6.1 3.1.3.4.1 1 .4 1.7 1.1.7.6 1.1 1.2 1.1 1.6.1.4.1 1.2-.2 2.5l-11.4 64c-.2 1.3-.5 2.2-.7 2.7-.2.4-.7.8-1.6 1.5-.9.6-1.6 1-2.1 1.2-.5.1-1.5.1-3.1.1h-39.3c-1.6 0-2.6 0-3.1-.1-.4-.2-1-.6-1.7-1.2s-1.1-1.1-1.2-1.5c0-.4.1-1.3.3-2.7l11.4-64c.2-1.3.4-2.2.6-2.5.3-.4.8-1 1.8-1.6.9-.6 1.6-1 2.1-1.1.4-.2 1.4-.3 3-.3zm81.4 0h33.6c1.6 0 2.6.1 3.1.3.4.1 1 .4 1.7 1.1.7.6 1.1 1.2 1.1 1.6.1.4.1 1.2-.2 2.5L442 69.2c-.2 1.3-.5 2.2-.7 2.7-.2.4-.7.8-1.6 1.5-.9.6-1.6 1-2.1 1.2-.5.1-1.5.1-3.1.1h-33.6l6.6-37.5zm-117 53.3c-49.3 24.2-108.5 35.3-155.2 6.8 42.1 44.2 111.7 22.7 153.9.6l1.3-7.4zm-2.5 14.2c-24.9 13.6-41.8 18.9-81.6 27.6 23.4 5.5 59.8 1.4 85.2-8.7-.1-.1-.3-.2-.4-.4l-2.8-2.7c-1.8-1.8-2.5-4-2-6.7l1.6-9.1zm327.3 28.7h-1.5c-.7 0-1.4.3-2.1.5-.5.2-1 .3-1.5.6-.6.3-1.1.6-1.6 1-1.4 1-2.8 2-4.1 3-1.2.9-2.4 1.8-3.6 2.6h-3.2c.6-2.6 1.2-5.2 1.8-7.7h-6.1c-1.4 6.2-2.9 12.5-4.3 18.7h6.1c.6-2.7 1.2-5.3 1.8-8h3l.6.6c1.6 1.8 3.2 3.6 4.9 5.4.2.3.5.5.7.7.3.2.6.3 1 .5.5.2 1 .4 1.6.6.4.1.8.2 1.2.2h3.1c.1-.6.3-1.2.4-1.8 0-.3.1-.6-.1-.9-.2-.3-.6-.4-.9-.5-.5-.2-1-.3-1.4-.5-.3-.1-.4-.3-.6-.5-1.5-1.6-3-3.2-4.4-4.8l-.6-.6c.1-.1.3-.2.4-.3l5.7-4.2c.6-.4 1.1-.8 1.7-1.2.8-.3 1.6-.4 2.4-.8.2-.1.5-.3.7-.5.2-.2.2-.5.3-.8l.3-1.5c-.7.2-1.2.2-1.7.2zm-312.9 0c-1.2 5.1-2.3 10.1-3.5 15.2 0 .1-.1.3-.1.4-.2.1-.4.2-.6.2h-6.1c-.2 0-.4-.1-.5-.2.1-.7.3-1.4.5-2.1H286c-.2.8-.4 1.6-.5 2.4-.1.4 0 .8.3 1 .4.5 1 .7 1.6 1 .7.4 1.4.6 2.1.7.5.1 1.1.1 1.6.1h6.9c.6 0 1.2 0 1.8-.1.8-.1 1.6-.4 2.4-.7.7-.3 1.4-.5 1.9-.9.4-.3.7-.7.8-1.2 1.2-5.3 2.4-10.5 3.6-15.8h-6.1zm22.4 0l-3.6 15.9c-.1.3 0 .7.2 1 .3.4.7.6 1.1.8.3.2.6.3 1 .5.6.3 1.2.4 1.9.5h16.4c.6 0 1.3-.1 1.9-.3.8-.2 1.6-.6 2.3-.9.6-.3 1.3-.6 1.7-1.2.2-.2.2-.5.3-.8l3.6-15.6h-6.1c-1.1 4.9-2.2 9.7-3.3 14.6-.1.3-.1.7-.3 1-.1.1-.3.1-.4.1H328c-.2 0-.4-.1-.5-.2.3-1.2.5-2.4.8-3.5.9-4 1.8-8 2.8-12-2.3.1-4.3.1-6.3.1zm42.7 0c-1.4 6.2-2.9 12.5-4.3 18.7h6.1l3-12.9c.1.1.1.2.2.3.4.8.7 1.5 1.1 2.3.5 1 1 2.1 1.5 3.1 1.1 2.4 2.4 4.8 3.6 7.2h4.4c1.9-2 3.7-4 5.6-5.9 2.2-2.4 4.5-4.8 6.7-7.2-1 4.4-2 8.7-3 13.1h6.1c.6-2.5 1.1-5 1.7-7.5.9-3.7 1.7-7.5 2.6-11.2h-8c-.2.1-.3.3-.5.5-4 4.3-8.1 8.6-12.1 12.9-2.1-4.5-4.2-8.9-6.4-13.4h-8.3zm51 0c-1.4 6.2-2.9 12.5-4.3 18.7h6.1c.5-2.3 1.1-4.7 1.6-7h12.2c.6 0 1.2-.1 1.8-.3.8-.2 1.5-.5 2.2-.8.7-.3 1.3-.6 1.7-1.2.2-.3.3-.7.3-1 .4-1.9.8-3.7 1.3-5.6.1-.4 0-.7-.2-1-.3-.3-.6-.5-1-.7-.4-.2-.7-.4-1.1-.5-.8-.4-1.7-.6-2.6-.6h-18zm34.4 0c1.6 6.2 3.3 12.5 5 18.7h7.1c2.2-3.4 4.5-6.7 6.7-10.1.8-1.2 1.6-2.5 2.5-3.7l3 13.8h7c4.5-6.2 9-12.5 13.5-18.7h-6.3c-.1 0-.1.1-.2.2-3.1 4.7-6.2 9.3-9.2 14-.3-1.2-.5-2.4-.8-3.6-.8-3.5-1.6-7-2.4-10.6H472c-3.2 4.7-6.3 9.4-9.5 14.2-.1-.1-.1-.3-.1-.5-1-4.6-2-9.1-3-13.7h-6.5zm62 0h-.9c-.8.1-1.6.3-2.4.6l-1.5.6c-.5.3-1 .6-1.3 1.1-.2.3-.2.6-.3.9-1 4.2-1.9 8.4-2.9 12.6-.1.3 0 .7.2 1 .3.5.9.7 1.4 1 .6.3 1.3.6 2 .8.8.2 1.6.1 2.4.1h15.8c1.1 0 2.2-.3 3.3-.7.7-.3 1.5-.5 2.1-1 .4-.3.7-.7.8-1.1l3-12.9c.1-.3.1-.6 0-.8-.2-.4-.6-.7-1-.9l-1.2-.6c-.8-.4-1.8-.6-2.7-.6H516c-.5-.1-.8-.1-1.1-.1zm54.9 0h-16.7c-1.4 6.2-2.9 12.5-4.3 18.7h6.1c.5-2.3 1.1-4.7 1.6-7h4.9c1.6 1.7 3.2 3.4 4.7 5.2.2.2.5.4.7.6.6.4 1.3.6 1.9.9.4.1.8.3 1.2.3.6.1 1.1 0 1.7.1h1.8l.3-1.2c.1-.4.2-.7.2-1.1 0-.3-.3-.5-.5-.6-.5-.2-1.1-.4-1.6-.6-.2-.1-.4-.1-.5-.2-1.1-1.1-2.2-2.3-3.3-3.4.8 0 1.7 0 2.5-.3.8-.2 1.5-.6 2.3-.9.6-.3 1.3-.6 1.7-1.2.2-.2.3-.6.3-.8.4-1.9.8-3.7 1.3-5.6.1-.3 0-.7-.2-1-.2-.4-.6-.6-1-.8-.7-.3-1.4-.7-2.1-.9-.9-.3-2-.2-3-.2zm66.4 0c-1.2 0-2.4.2-3.5.7l-1.5.6c-.5.3-1.1.6-1.4 1.1-.2.3-.2.7-.3 1.1-.3 1.4-.7 2.8-1 4.3-.1.2-.1.5 0 .7.1.4.5.7.8.9.4.2.9.4 1.3.7.7.4 1.4.6 2.2.6h11.9c.3 0 .6 0 .8.2 0 .2-.1.5-.1.7-.2 1-.4 1.9-.7 2.9-.1.4-.1.7-.3 1.1-.1.1-.3.1-.4.2h-11.2c-.1 0-.3-.1-.4-.2.1-.4.2-.9.3-1.3h-6.1c-.1.5-.3 1.1-.4 1.6-.1.3 0 .6.2.9.2.4.6.6 1 .8.4.2.7.4 1.1.5.8.4 1.7.6 2.6.6h13.1c.5 0 1 0 1.5-.1.7-.1 1.5-.4 2.1-.7.5-.2 1-.4 1.4-.6.5-.3 1.1-.8 1.2-1.4.4-1.7.8-3.5 1.2-5.2.1-.3 0-.7-.1-.9-.2-.4-.6-.6-1-.8-.7-.3-1.3-.7-2.1-.9-.9-.3-1.9-.2-2.8-.2h-10.4c-.1 0-.3-.1-.4-.2.1-.6.3-1.2.4-1.8l.6-2.7c.4-.2.8-.2 1.2-.2h9.3c.2 0 .4.1.6.2-.1.4-.2.9-.3 1.3h6.1c.1-.4.2-.8.3-1.3.1-.3.1-.5.1-.8 0-.3-.2-.6-.5-.8-.3-.3-.7-.5-1.1-.6-.6-.3-1.2-.6-1.8-.8-1-.3-2-.2-3-.2h-10.5zm-202.2 3h.9c.2 0 .3.1.5.2-.1.4-.2.8-.2 1.1-.3 1.4-.6 2.8-1 4.2 0 .2-.2.2-.3.2-.2.1-.4.1-.7.1h-10.6c.4-1.9.9-3.9 1.3-5.8H434zm93.1 0h2.6c.2 0 .4.1.6.2l-.3 1.2c-.8 3.6-1.6 7.1-2.4 10.7 0 .2-.1.4-.2.6-.2.1-.4.2-.6.2h-14.7c-.1 0-.3-.1-.4-.2.3-1.2.6-2.5.8-3.7.6-2.5 1.2-5.1 1.7-7.6.1-.4.2-.7.3-1.1.3-.1.6-.2.9-.2 3.9-.1 7.8-.1 11.7-.1zm41.5 0h.9c.2 0 .3.1.5.2l-.3 1.2c-.3 1.3-.6 2.6-.9 4 0 .1 0 .2-.1.3-.2.1-.4.2-.6.2h-10.9c.4-1.9.9-3.9 1.3-5.8 3.4-.1 6.7-.1 10.1-.1z" fill-opacity=".119"/><linearGradient id="a" gradientUnits="userSpaceOnUse" x1="397.6318" y1="156.4321" x2="397.6318" y2="-143.5679" gradientTransform="matrix(.8 0 0 -.8 44.4947 40.9746)"><stop offset="0" stop-color="#24c2ff"/><stop offset="1" stop-color="#00b7ff"/></linearGradient><path d="M254.1-80.1C161.1-79.5 79.6 1.8 54 114.4 95.1 8.9 174.2-56.1 283.2-77.7c-9.8-1.7-19.5-2.5-29.1-2.4zm37.1 11.5c-59.5-.7-125.9 42.7-154 69.9C195.6-40.3 279.7-83 349.3-46.1c1.7.9 3.3 2 5.2 2.6-.8-1.7-2.3-2.9-3.6-4.1-17.6-14.7-38.2-20.7-59.7-21zM434.8-62c-11.2 31-25.2 55-44.2 80.2h13.1c14-25.3 23.9-51.9 31.1-80.2zm-156.5 9.2c37.6 1 88.1 16.2 69.4 71H359c24.8-57.7-35.1-70.4-80.7-71zm-14.7 15.2c-13.6-.1-27.8 2.9-41 8.8-40.7 18-62.7 57.6-49.1 88.5 13.6 30.9 57.7 41.4 98.4 23.5 7.1-3.1 13.8-7 19.9-11.6l4.2-23.7c-8.2 9.7-19.2 17.8-31.7 23.3-35.6 15.7-74 6.8-85.7-19.8-11.7-26.6 7.6-61 43.2-76.7 35.6-15.7 74-6.8 85.7 19.8 3.6 8.1 4.3 17.2 2.3 26.5l.2-.2c2.5-1.8 4.8-2.7 6.9-2.7h7.8c.7-8.3-.6-16.3-3.8-23.6-8.4-19.1-29-31.2-54.7-32.1-.8.1-1.7 0-2.6 0zm-94.3 23C115.2 34.8 91 96.3 197.9 104c-79.2-11.6-73-60.9-28.6-118.6zm95.8 2.2c-5.4 0-9.7 4.3-9.7 9.7 0 5.4 4.3 9.7 9.7 9.7 5.4 0 9.7-4.3 9.7-9.7 0-5.3-4.3-9.7-9.7-9.7zm10.1 21.8c-2.5 0-4.5 2-4.5 4.5s2 4.5 4.5 4.5 4.5-2 4.5-4.5c0-2.4-2-4.5-4.5-4.5zm46.2 16.8c-2.2 0-4.5.9-6.9 2.7l-3.7 2.7c-2.5 1.8-3.9 4-4.4 6.7L294 107.8c-.5 2.7.2 4.9 2 6.7l2.8 2.7c1.8 1.8 3.8 2.7 6 2.7h49.3c2.2 0 4.5-.9 6.9-2.7l3.7-2.7c2.5-1.8 3.9-4 4.4-6.7l12.4-69.6c.5-2.7-.2-4.9-2-6.7l-2.8-2.7c-1.8-1.8-3.8-2.7-6-2.7h-49.3zm75.1 0l-16.7 93.7h11.3l6.7-37.5h19.4l12.9 28.5c.9 2.1 2.2 3.9 3.9 5.2l2.3 1.7c1.3 1 2.1 1.6 2.7 1.7.6.2 1.7.3 3.3.3h3.4l.9-5.2c.4-2.1.5-3.3.3-3.9-.2-.5-1-1.2-2.5-2.1l-1.3-.8c-1.3-.8-2.1-1.4-2.5-1.7-.3-.4-.8-1.4-1.5-2.9L429 81.8h7.5c2.2 0 4.4-.8 6.6-2.4l3.9-2.8c2.6-1.9 4.1-4.2 4.6-7l5.6-31.3c.5-2.7-.2-4.9-2-6.7l-2.8-2.7c-1.8-1.8-3.8-2.7-6-2.7h-49.9zm76.7 0l-16.7 93.7h11.3l16.7-93.7h-11.3zm37 0c-2.2 0-4.5.9-6.9 2.7l-3.7 2.7c-2.5 1.8-3.9 4-4.4 6.7l-12.4 69.6c-.5 2.7.2 4.9 2 6.7l2.8 2.7c1.8 1.8 3.8 2.7 6 2.7h43.1c2.2 0 4.5-.9 6.9-2.7l3.7-2.7c2.5-1.8 3.9-4 4.4-6.7l6.4-36.1h-31.8l-1.7 9.4h20.5l-4.3 24c-.2 1.3-.5 2.2-.7 2.7-.2.4-.7.8-1.6 1.5-.9.6-1.6 1-2.1 1.2-.5.1-1.5.1-3.1.1h-33.1c-1.6 0-2.6 0-3.1-.1-.4-.2-1-.6-1.7-1.2s-1.1-1.1-1.2-1.5c0-.4.1-1.3.3-2.7l11.4-64c.2-1.3.4-2.2.6-2.5.3-.4.8-1 1.8-1.6.9-.6 1.6-1 2.1-1.1.5-.2 1.5-.3 3.1-.3h33.1c1.6 0 2.6.1 3.1.3.4.1 1 .4 1.7 1.1.7.6 1.1 1.2 1.1 1.6.1.4.1 1.2-.2 2.5l-.5 2.5h11.3l1-5.4c.5-2.7-.2-4.9-2-6.7l-2.8-2.7c-1.8-1.8-3.8-2.7-6-2.7h-43.1zm65.6 0l-16.7 93.7h11.3l16.7-93.7h-11.3zm24 0l-16.7 93.7h11.3l12.2-68.7c.4-2.1.4-4.3.2-6.4l.4-.1 35.9 75.2h11.3l16.7-93.7h-11.3L647.4 96c-.4 2.1-.4 4.3-.2 6.4l-.4.1L611 26.2h-11.2zm-275 9.3h39.3c1.6 0 2.6.1 3.1.3.4.1 1 .4 1.7 1.1.7.6 1.1 1.2 1.1 1.6.1.4.1 1.2-.2 2.5l-11.4 64c-.2 1.3-.5 2.2-.7 2.7-.2.4-.7.8-1.6 1.5-.9.6-1.6 1-2.1 1.2-.5.1-1.5.1-3.1.1h-39.3c-1.6 0-2.6 0-3.1-.1-.4-.2-1-.6-1.7-1.2s-1.1-1.1-1.2-1.5c0-.4.1-1.3.3-2.7l11.4-64c.2-1.3.4-2.2.6-2.5.3-.4.8-1 1.8-1.6.9-.6 1.6-1 2.1-1.1.3-.2 1.3-.3 3-.3zm81.4 0h33.6c1.6 0 2.6.1 3.1.3.4.1 1 .4 1.7 1.1.7.6 1.1 1.2 1.1 1.6.1.4.1 1.2-.2 2.5l-4.7 26.5c-.2 1.3-.5 2.2-.7 2.7-.2.4-.7.8-1.6 1.5-.9.6-1.6 1-2.1 1.2-.5.1-1.5.1-3.1.1h-33.6c-.2 0 6.5-37.5 6.5-37.5zM289.1 88.8c-49.3 24.2-108.5 35.3-155.2 6.8 42.1 44.2 111.7 22.7 153.9.6l1.3-7.4zm-2.5 14.2c-24.9 13.6-41.8 18.9-81.6 27.6 23.4 5.5 59.8 1.4 85.2-8.7-.1-.1-.3-.2-.4-.4l-2.8-2.7c-1.8-1.8-2.5-4-2-6.7l1.6-9.1zm327.3 28.7h-1.5c-.7 0-1.4.3-2.1.5-.5.2-1 .3-1.5.6-.6.3-1.1.6-1.6 1-1.4 1-2.8 2-4.1 3-1.2.9-2.4 1.8-3.6 2.6h-3.2c.6-2.6 1.2-5.2 1.8-7.7H592c-1.4 6.2-2.9 12.5-4.3 18.7h6.1c.6-2.7 1.2-5.3 1.8-8h3l.6.6c1.6 1.8 3.2 3.6 4.9 5.4.2.3.5.5.7.7.3.2.6.3 1 .5.5.2 1 .4 1.6.6.4.1.8.2 1.2.2h3.1c.1-.6.3-1.2.4-1.8 0-.3.1-.6-.1-.9-.2-.3-.6-.4-.9-.5-.5-.2-1-.3-1.4-.5-.3-.1-.4-.3-.6-.5-1.5-1.6-3-3.2-4.4-4.8l-.6-.6c.1-.1.3-.2.4-.3l5.7-4.2c.6-.4 1.1-.8 1.7-1.2.8-.3 1.6-.4 2.4-.8.2-.1.5-.3.7-.5.2-.2.2-.5.3-.8l.3-1.5c-.6.2-1.2.2-1.7.2zm-312.9 0c-1.2 5.1-2.3 10.1-3.5 15.2 0 .1-.1.3-.1.4-.2.1-.4.2-.6.2h-6.1c-.2 0-.4-.1-.5-.2.1-.7.3-1.4.5-2.1h-6.1c-.2.8-.4 1.6-.5 2.4-.1.4 0 .8.3 1 .4.5 1 .7 1.6 1 .7.4 1.4.6 2.1.7.5.1 1.1.1 1.6.1h6.9c.6 0 1.2 0 1.8-.1.8-.1 1.6-.4 2.4-.7.7-.3 1.4-.5 1.9-.9.4-.3.7-.7.8-1.2 1.2-5.3 2.4-10.5 3.6-15.8H301zm22.4 0l-3.6 15.9c-.1.3 0 .7.2 1 .3.4.7.6 1.1.8.3.2.6.3 1 .5.6.3 1.2.4 1.9.5h16.4c.6 0 1.3-.1 1.9-.3.8-.2 1.6-.6 2.3-.9.6-.3 1.3-.6 1.7-1.2.2-.2.2-.5.3-.8l3.6-15.6h-6.1c-1.1 4.9-2.2 9.7-3.3 14.6-.1.3-.1.7-.3 1-.1.1-.3.1-.4.1h-13.5c-.2 0-.4-.1-.5-.2.3-1.2.5-2.4.8-3.5.9-4 1.8-8 2.8-12-2.2.1-4.2.1-6.3.1zm42.8 0c-1.4 6.2-2.9 12.5-4.3 18.7h6.1l3-12.9c.1.1.1.2.2.3.4.8.7 1.5 1.1 2.3.5 1 1 2.1 1.5 3.1 1.1 2.4 2.4 4.8 3.6 7.2h4.5c1.9-2 3.7-4 5.6-5.9 2.2-2.4 4.5-4.8 6.7-7.2-1 4.4-2 8.7-3 13.1h6.1c.6-2.5 1.1-5 1.7-7.5.9-3.7 1.7-7.5 2.6-11.2h-8c-.2.1-.3.3-.5.5-4 4.3-8.1 8.6-12.1 12.9-2.1-4.5-4.2-8.9-6.4-13.4h-8.4zm50.9 0c-1.4 6.2-2.9 12.5-4.3 18.7h6.1c.5-2.3 1.1-4.7 1.6-7h12.2c.6 0 1.2-.1 1.8-.3.8-.2 1.5-.5 2.2-.8.7-.3 1.3-.6 1.7-1.2.2-.3.3-.7.3-1 .4-1.9.8-3.7 1.3-5.6.1-.4 0-.7-.2-1-.3-.3-.6-.5-1-.7-.4-.2-.7-.4-1.1-.5-.8-.4-1.7-.6-2.6-.6h-18zm34.5 0c1.6 6.2 3.3 12.5 5 18.7h7.1c2.2-3.4 4.5-6.7 6.7-10.1.8-1.2 1.6-2.5 2.5-3.7l3 13.8h7c4.5-6.2 9-12.5 13.5-18.7h-6.3c-.1 0-.1.1-.2.2-3.1 4.7-6.2 9.3-9.2 14-.3-1.2-.5-2.4-.8-3.6-.8-3.5-1.6-7-2.4-10.6h-6.8c-3.2 4.7-6.3 9.4-9.5 14.2-.1-.1-.1-.3-.1-.5-1-4.6-2-9.1-3-13.7h-6.5zm61.9 0h-.9c-.8.1-1.6.3-2.4.6-.5.2-1 .4-1.5.7-.5.3-1 .6-1.3 1.1-.2.3-.2.6-.3.9-1 4.2-1.9 8.4-2.9 12.6-.1.3 0 .7.2 1 .3.5.9.7 1.4 1 .6.3 1.3.6 2 .8.8.2 1.6.1 2.4.1H526c1.1 0 2.2-.3 3.3-.7.7-.3 1.5-.5 2.1-1 .4-.3.7-.7.8-1.1l3-12.9c.1-.3.1-.6 0-.8-.2-.4-.6-.7-1-.9l-1.2-.6c-.8-.4-1.8-.6-2.7-.6h-15.7c-.5-.2-.8-.2-1.1-.2zm55 0h-16.7c-1.4 6.2-2.9 12.5-4.3 18.7h6.1c.5-2.3 1.1-4.7 1.6-7h4.9c1.6 1.7 3.2 3.4 4.7 5.2.2.2.5.4.7.6.6.4 1.3.6 1.9.9.4.1.8.3 1.2.3.6.1 1.1 0 1.7.1h1.8l.3-1.2c.1-.4.2-.7.2-1.1 0-.3-.3-.5-.5-.6-.5-.2-1.1-.4-1.6-.6-.2-.1-.4-.1-.5-.2-1.1-1.1-2.2-2.3-3.3-3.4.8 0 1.7 0 2.5-.3.8-.2 1.5-.6 2.3-.9.6-.3 1.3-.6 1.7-1.2.2-.2.3-.6.3-.8.4-1.9.8-3.7 1.3-5.6.1-.3 0-.7-.2-1-.2-.4-.6-.6-1-.8-.7-.3-1.4-.7-2.1-.9-1-.3-2-.2-3-.2zm66.3 0c-1.2 0-2.4.2-3.5.7l-1.5.6c-.5.3-1.1.6-1.4 1.1-.2.3-.2.7-.3 1.1-.3 1.4-.7 2.8-1 4.3-.1.2-.1.5 0 .7.1.4.5.7.8.9.4.2.9.4 1.3.7.7.4 1.4.6 2.2.6h11.9c.3 0 .6 0 .8.2 0 .2-.1.5-.1.7-.2 1-.4 1.9-.7 2.9-.1.4-.1.7-.3 1.1-.1.1-.3.1-.4.2h-11.2c-.1 0-.3-.1-.4-.2.1-.4.2-.9.3-1.3h-6.1c-.1.5-.3 1.1-.4 1.6-.1.3 0 .6.2.9.2.4.6.6 1 .8.4.2.7.4 1.1.5.8.4 1.7.6 2.6.6h13.1c.5 0 1 0 1.5-.1.7-.1 1.5-.4 2.1-.7.5-.2 1-.4 1.4-.6.5-.3 1.1-.8 1.2-1.4.4-1.7.8-3.5 1.2-5.2.1-.3 0-.7-.1-.9-.2-.4-.6-.6-1-.8-.7-.3-1.3-.7-2.1-.9-.9-.3-1.9-.2-2.8-.2h-10.5c-.1 0-.3-.1-.4-.2.1-.6.3-1.2.4-1.8l.6-2.7c.4-.2.8-.2 1.2-.2h9.3c.2 0 .4.1.6.2-.1.4-.2.9-.3 1.3h6.1c.1-.4.2-.8.3-1.3.1-.3.1-.5.1-.8 0-.3-.2-.6-.5-.8-.3-.3-.7-.5-1.1-.7-.6-.3-1.2-.6-1.8-.8-1-.3-2-.2-3-.2l-10.4.1zm-202.2 3h.9c.2 0 .3.1.5.2-.1.4-.2.8-.2 1.1-.3 1.4-.6 2.8-1 4.2 0 .2-.2.2-.3.2-.2.1-.4.1-.7.1h-10.6c.4-1.9.9-3.9 1.3-5.8h10.1zm93.1 0h2.6c.2 0 .4.1.6.2l-.3 1.2c-.8 3.6-1.6 7.1-2.4 10.7 0 .2-.1.4-.2.6-.2.1-.4.2-.6.2h-14.7c-.1 0-.3-.1-.4-.2.3-1.2.6-2.5.8-3.7.6-2.5 1.2-5.1 1.7-7.6.1-.4.2-.7.3-1.1.3-.1.6-.2.9-.2 3.9-.1 7.8-.1 11.7-.1zm41.5 0h.9c.2 0 .3.1.5.2l-.3 1.2c-.3 1.3-.6 2.6-.9 4 0 .1 0 .2-.1.3-.2.1-.4.2-.6.2h-10.9c.4-1.9.9-3.9 1.3-5.8 3.4-.1 6.8-.1 10.1-.1z" fill="url(#a)"/></g></svg>