<svg xmlns="http://www.w3.org/2000/svg" viewBox="0 0 850 400"><defs><style>.a,.c{fill:#437300;}.b,.c{isolation:isolate;}.c{font-size:25.56px;font-family:ArialMT, Arial;}</style></defs><title>Preacher Armament</title><path class="a" d="M93,98.59l334.16.5,11,10.9-19.05,37.72H397.37l13.12-26.82-299.76.23-6.22,19c21.83,11.2,30.16,38,17.42,58.58q-22.71,35.43-45.69,70.68c12.75,10.61,31.7,10.12,49.14,6.59l60.07-122.61,67.36-.07,6.69,8.59-10.07,21.3-12.19,8.55-43.63.16s-34.91,68.86-52,103.46C110,307.66,64.11,301.88,50,272.26q24.16-38.88,48.55-77.63c18.87-28-3.07-33.19-21.46-45.18L93,98.59m111.42,71.83-3.59,7.24,27.82.05,3.6-7.31-27.83,0Z"/><path class="a" d="M360.73,153.32h55.11l-7.71,16.57-45.48-.08-3.12,6.43h45.94l-6.46,14-45.81,0-3,6.35,45.64,0-7.45,17.15h-56.9l-6.45-8.6,20.23-43.7Z"/><path class="a" d="M434,153.32h49.09l7,8.48-23.88,51.86H445l7.59-16.36H424.45L417,213.66H395.75l24-52.39m17.41,8.55-6.55,13.87,28.22,0L465,169.85l-27.83,0Z"/><path class="a" d="M512.94,153.32h48.71l7.06,8.45-6.89,14.37-21.07.23,2.74-6.43-28-.09-12.6,26.67h28.45l2.9-6h21.16l-7.06,15-14,8.12H484.45l-6.73-8.6L498,161.29Z"/><path class="a" d="M580.07,153.28l21.27,0-10.77,23.41,28,0,10.68-23.43h21.25l-27.46,60.34H601.78l9-19.75-28.06,0-8.86,19.73H552.55l27.52-60.34Z"/><path class="a" d="M669.51,153.32h55.74l-7.46,16.44-45.74.08-3,6.39,45.92.25-6.49,13.77-45.81-.06-3,6.32h45.92l-7.76,17.16H641.51l-7-8.62,20.16-43.58Z"/><path class="a" d="M733,153.11l60.29.21,6.75,8.46-9.94,21.13L776,192.08H761.14l17.28,21.58H750.76l-14.19-22-10,22H705.26L733,153.32m14,16.46-3.66,7.31h28.3l3.29-7.23Z"/><g class="b"><text class="c" transform="translate(297.9 286.97)"> </text></g><path class="a" d="M232.12,230.16l-8.47,16.76h2.52l2-4h11.67l2,4h2.45l-8.5-16.76Zm2,1.23,4.84,9.76h-9.81l4.84-9.76Z"/><path class="a" d="M288.91,237.26v-5.41h8.95a4.88,4.88,0,0,1,2.87.65,2.24,2.24,0,0,1,.89,2,2.6,2.6,0,0,1-.82,2.17,5,5,0,0,1-2.94.63Zm12.71,9.66h2.55v-6.28a2.07,2.07,0,0,0-.85-1.81,3.82,3.82,0,0,0-1.92-.77,3.14,3.14,0,0,0,2.77-3.55,3.6,3.6,0,0,0-1.67-3.21,8.63,8.63,0,0,0-4.93-1.14H286.36v16.76h2.55v-8h9.73a3.48,3.48,0,0,1,2.27.58,1.78,1.78,0,0,1,.71,1.47Z"/><path class="a" d="M346.94,230.16v16.76h2.43V231.66l9.55,15.26h1.74l9.52-15.26v15.26h2.5V230.16h-4.13l-8.65,14.13-8.79-14.13Z"/><path class="a" d="M422.86,230.16l-8.47,16.76h2.52l2-4h11.67l2,4h2.45l-8.5-16.76Zm2,1.23,4.84,9.76h-9.81l4.84-9.76Z"/><path class="a" d="M546.41,230.16v16.76h15.9v-1.69H549V239.1H561.7v-1.69H549v-5.56h13.34v-1.69Z"/><path class="a" d="M604.61,230.16v16.76H607V231.49l13.93,15.43h3.41V230.16h-2.36v15l-13.44-15Z"/><path class="a" d="M685.05,230.16H666.38v1.69h8.17v15.07h2.36V231.85h8.14Z"/><path class="a" d="M727.17,234.39v.75a3.12,3.12,0,0,0,1.63,3,10.7,10.7,0,0,0,4.68,1l4.77.12a6.7,6.7,0,0,1,3.41.75,2.45,2.45,0,0,1,1,2.2,4.18,4.18,0,0,1-.2,1.33,1.78,1.78,0,0,1-.68.94,3.75,3.75,0,0,1-1.51.58,13.53,13.53,0,0,1-2.55.19h-3.66a7.92,7.92,0,0,1-3.27-.53,2.09,2.09,0,0,1-1.08-2.05v-.44h-2.36v.49a3.56,3.56,0,0,0,1.7,3.26,10.12,10.12,0,0,0,5,1h3.66c2.55,0,4.41-.35,5.56-1.06a3.62,3.62,0,0,0,1.74-3.29v-.82a4,4,0,0,0-.36-1.71,3.25,3.25,0,0,0-1.21-1.33,7.14,7.14,0,0,0-2.26-.89,16,16,0,0,0-3.47-.39l-4.44-.1a5.83,5.83,0,0,1-3.05-.62,2.07,2.07,0,0,1-.75-1.7v-.53a2.59,2.59,0,0,1,.2-1,1.93,1.93,0,0,1,.65-.83,3.45,3.45,0,0,1,1.31-.53,9.08,9.08,0,0,1,2.06-.19h4.38a11.93,11.93,0,0,1,1.93.14,3.51,3.51,0,0,1,1.34.46,1.89,1.89,0,0,1,.82.92,4,4,0,0,1,.3,1.47h2.35a6.35,6.35,0,0,0-.29-2,3,3,0,0,0-1.12-1.49,5.32,5.32,0,0,0-2.22-.95,18.76,18.76,0,0,0-3.73-.31H734q-3.69,0-5.27,1.14a3.6,3.6,0,0,0-1.53,3.09Z"/><path class="a" d="M477.23,230.16v16.76h2.43V231.66l9.56,15.26H491l9.52-15.26v15.26H503V230.16h-4.13l-8.65,14.13-8.79-14.13Z"/><path class="a" d="M271.4,153.1l60.28.22,6.75,8.46-9.93,21.13-14.09,9.17H299.58l17.27,21.58H289.19l-14.18-22-9.95,22H243.69l27.71-60.34m14,16.45-3.67,7.32h28.31l3.28-7.23Z"/></svg>