<svg xmlns="http://www.w3.org/2000/svg" viewBox="0 0 640 411"><defs><style>.a{fill:#969696;}.b{fill:none;}.c{fill:#03155f;}.d{fill:#020518;}</style></defs><title>Spar Van Miles</title><path class="a" d="M284.09,263.43a31.31,31.31,0,0,1-12.9,5.68,88.76,88.76,0,0,1-18.9,1.75h-64q-19.41,0-30.15-8.88-12.6-9.9-12.6-28.91,0-1.86,1.65-1.86h13a1.64,1.64,0,0,1,1.86,1.86,26.59,26.59,0,0,0,2.27,10.53,13.85,13.85,0,0,0,6.82,6.61,33.73,33.73,0,0,0,8.67,2.69,67.36,67.36,0,0,0,12.6,1h59.27a56.49,56.49,0,0,0,11.77-1,26.32,26.32,0,0,0,7.85-2.89,13.35,13.35,0,0,0,5.78-6.82,29,29,0,0,0,1.66-10.33q0-12.59-11.36-17.14a40.4,40.4,0,0,0-12-2.89A159.65,159.65,0,0,0,238,212h-5q-2.69,0-6.4.2h-7a6.36,6.36,0,0,0-1,.11,8.92,8.92,0,0,1-1.45.1H214.5q-4.33.21-7.64.21h-5.37q-26.44,0-39.45-6.2-17.55-8.27-17.55-30.57,0-35.72,40.27-35.72H250q44.19,0,44.19,37.79,0,1.65-1.44,1.65H279.34a1.46,1.46,0,0,1-1.65-1.65,26.74,26.74,0,0,0-2.27-10.43,13.81,13.81,0,0,0-6.81-6.71q-7-3.51-21.07-3.51H184.35a45.81,45.81,0,0,0-10.64,1A21.31,21.31,0,0,0,167,161q-5.79,3.72-5.79,15.08T172.57,192q9.5,3.93,29.12,3.93h6.4q4.35,0,10.33-.21a9.31,9.31,0,0,0,1.34-.1,10.77,10.77,0,0,1,1.55-.11H224q3.72-.19,6.61-.2h4.54a156.69,156.69,0,0,1,24.37,1.65,71.11,71.11,0,0,1,17.35,4.75q18.38,9.09,18.38,31.6Q295.25,254.13,284.09,263.43Z"/><path class="a" d="M398.71,216.34H328.08V269c0,1.24-.69,1.86-2.06,1.86H312.18a1.64,1.64,0,0,1-1.86-1.86V142.2c0-1.37.62-2.06,1.86-2.06h86.53a77.77,77.77,0,0,1,20,2.27q8.46,2.26,13.42,7a32.07,32.07,0,0,1,7.43,12.91,63.5,63.5,0,0,1,2.69,19.72Q442.29,216.35,398.71,216.34Zm26-41.3a20.31,20.31,0,0,0-1.85-9.09,12.89,12.89,0,0,0-6-5.78,29.13,29.13,0,0,0-7.64-2.17,72.92,72.92,0,0,0-11.16-.72h-70V199.2h70q12.81,0,18.8-2.68v.2a12.62,12.62,0,0,0,6-6,21.62,21.62,0,0,0,1.85-9.29Z"/><path class="a" d="M530.26,270.45a1.66,1.66,0,0,1-1.24.41H510.64a1.63,1.63,0,0,1-1.23-.41L444.56,142.82v.41a1.64,1.64,0,0,1-.42-1.23,2,2,0,0,1,.52-1.24,1.64,1.64,0,0,1,1.34-.62h14.87c.69,0,1,.07.93.2a.35.35,0,0,0,.1.42L519.11,252.9h1L578,140.55c0-.28.27-.41.83-.41h14.87a1.87,1.87,0,0,1,1.54.62,1.9,1.9,0,0,1,.52,1.24,1.67,1.67,0,0,1-.41,1.23v-.41ZM461.9,140.55l.21.21h-.21Z"/><polygon class="b" points="91.05 241.6 97.36 235.3 44.27 182.21 44.27 194.81 91.05 241.6"/><polygon class="c" points="64.17 140.14 126.89 202.86 126.89 140.14 64.17 140.14"/><polygon class="d" points="44.27 140.14 44.27 182.21 97.36 235.3 91.05 241.6 44.27 194.81 44.27 270.86 126.89 270.86 126.89 215.46 51.56 140.14 44.27 140.14"/></svg>