<?xml version="1.0" encoding="utf-8"?>
<!-- Generator: Adobe Illustrator 21.0.0, SVG Export Plug-In . SVG Version: 6.00 Build 0)  -->
<svg version="1.1"
	 id="svg2" inkscape:export-filename="C:\Users\Andrew\Desktop\Takuetsu Starships2.png" inkscape:export-xdpi="57.81356" inkscape:export-ydpi="57.81356" inkscape:version="0.91 r13725" sodipodi:docname="Takuetsu Starships.svg" xmlns:cc="http://creativecommons.org/ns#" xmlns:dc="http://purl.org/dc/elements/1.1/" xmlns:inkscape="http://www.inkscape.org/namespaces/inkscape" xmlns:rdf="http://www.w3.org/1999/02/22-rdf-syntax-ns#" xmlns:sodipodi="http://sodipodi.sourceforge.net/DTD/sodipodi-0.dtd" xmlns:svg="http://www.w3.org/2000/svg"
	 xmlns="http://www.w3.org/2000/svg" xmlns:xlink="http://www.w3.org/1999/xlink" x="0px" y="0px" viewBox="0 0 802.3 454.9"
	 style="enable-background:new 0 0 802.3 454.9;" xml:space="preserve">
<style type="text/css">
	.st0{fill:#2C2C2C;}
	.st1{fill:#E6E6E6;}
	.st2{fill:#4D4D4D;}
	.st3{fill:#666666;}
</style>
<title  id="title4199">Takuetsu Starships Logo</title>
<sodipodi:namedview  bordercolor="#666666" borderopacity="1.0" fit-margin-bottom="2" fit-margin-left="2" fit-margin-right="2" fit-margin-top="2" id="base" inkscape:current-layer="text3336" inkscape:cx="293.23189" inkscape:cy="296.37306" inkscape:document-units="px" inkscape:pageopacity="0.0" inkscape:pageshadow="2" inkscape:window-height="1018" inkscape:window-maximized="1" inkscape:window-width="1920" inkscape:window-x="-8" inkscape:window-y="-8" inkscape:zoom="0.7" pagecolor="#ffffff" showgrid="false">
	</sodipodi:namedview>
<g id="layer1" transform="translate(162.38248,1166.5224)" inkscape:groupmode="layer" inkscape:label="Layer 1">
	<g id="text3336">
		
			<path id="path3349" inkscape:flatsided="true" inkscape:randomized="0" inkscape:rounded="0" inkscape:transform-center-x="-7.0832161e-005" inkscape:transform-center-y="15.43169" sodipodi:arg1="1.5707963" sodipodi:arg2="2.1991149" sodipodi:cx="335.01758" sodipodi:cy="-1028.6964" sodipodi:r1="161.60278" sodipodi:r2="130.7394" sodipodi:sides="5" sodipodi:type="star" class="st0" d="
			M236.1-929.2l-100.6-73.1l38.4-118.3h124.4l38.4,118.3L236.1-929.2z"/>
		
			<path id="path3349-4" inkscape:flatsided="true" inkscape:randomized="0" inkscape:rounded="0" inkscape:transform-center-x="-5.1687489e-005" inkscape:transform-center-y="13.20917" sodipodi:arg1="1.5707963" sodipodi:arg2="2.1991149" sodipodi:cx="335.01758" sodipodi:cy="-1028.6084" sodipodi:r1="138.32861" sodipodi:r2="111.91016" sodipodi:sides="5" sodipodi:type="star" class="st1" d="
			M236.1-944.4L150-1007l32.9-101.3h106.5l32.9,101.3L236.1-944.4z"/>
		
			<path id="path3349-4-5" inkscape:flatsided="true" inkscape:randomized="0" inkscape:rounded="0" inkscape:transform-center-x="-2.4867434e-005" inkscape:transform-center-y="11.518758" sodipodi:arg1="1.5707963" sodipodi:arg2="2.1991149" sodipodi:cx="335.8797" sodipodi:cy="-958.83539" sodipodi:r1="43.376301" sodipodi:r2="35.092155" sodipodi:sides="5" sodipodi:type="star" class="st2" d="
			M236.1-955.8l-76.1-54.6l29.1-88.3h94.1l29.1,88.3L236.1-955.8z"/>
		<g id="g3381" transform="matrix(2.817192,0,0,2.817192,-609.95488,1682.1981)">
			<path id="path3341" inkscape:connector-curvature="0" class="st1" d="M290.5-957.9h5.9l1.1-1.1l1.4,1.1c0.3,0.3,0.3,0.4,0,0.5
				h-8.5v3.4c-0.7,0.6-1,0.6-1,0.1v-3.5h-8.2v-0.5h8.2v-2.4H285v1.1c-0.7,0.6-1,0.6-1,0.1v-8.1l1.1,0.8h4.4v-5.1l1.3,0.2
				c0.4,0.3,0.3,0.4-0.3,0.5v1.7h4.5l1.1-1.1l1.4,1.1c0.3,0.3,0.3,0.4,0,0.5h-7.1v2.1h4l0.5-0.6l1.1,0.8c0.3,0.3,0.2,0.4-0.3,0.5
				v5.9c-0.7,0.6-1,0.6-1,0.1v-0.5h-4.2L290.5-957.9L290.5-957.9z M285-960.7h9.8v-2.6H285V-960.7z M285-966v2.2h9.8v-2.2H285z"/>
			<path id="path3343" inkscape:connector-curvature="0" class="st1" d="M313-961c0.3,0,0.3,0.1,0.2,0.3l-4.9,2.8
				c-0.1,0.7-0.2,0.8-0.5,0.5l-0.8-1.1l2.3-0.8v-8.9l1.1,0.6h2.2c-0.1-1.2-0.1-2.5-0.2-3.7l1.3,0.2c0.4,0.3,0.3,0.4-0.3,0.5
				c0.1,1,0.1,2,0.2,3h2.5l1-1l1.2,0.9c0.3,0.3,0.3,0.4,0,0.5h-4.6c0.1,1.9,0.4,3.8,1,5.8c0.9-1.5,1.5-2.9,1.9-4.3l1.2,0.6
				c0.4,0.4,0.2,0.5-0.5,0.5c-0.5,1.3-1.2,2.6-2.3,4.1c0.4,0.8,0.8,1.5,1.3,2c0.3,0.1,0.4,0,0.5-0.2l1-2c0.2-0.2,0.3-0.1,0.3,0.2
				l-0.8,2.3c-0.1,0.3-0.1,0.6,0.1,0.8c0.2,0.4,0.1,0.6-0.3,0.7c-0.4,0-0.8-0.2-1.1-0.5c-0.6-0.5-1.1-1.3-1.7-2.4
				c-1.3,1.5-2.6,2.6-4,3.3c-0.3,0-0.3-0.1-0.2-0.3c1.4-1,2.7-2.2,3.9-3.8c-0.6-2-1-4.3-1.2-6.7h-2.4v7.5L313-961L313-961z
				 M300.3-954.8c1.1-2,1.5-4.5,1.4-7.5l1.3,0.2c0.5,0.2,0.3,0.4-0.4,0.6c-0.1,0.8-0.2,1.7-0.3,2.8c0.4,0.6,0.9,1.2,1.6,1.7v-6.9
				h-3.2v-0.5h3.2v-3.1H301v-0.5h2.9v-3.4l1.3,0.2c0.4,0.3,0.3,0.4-0.3,0.5v2.7h1.4l0.8-0.8l1.1,0.8c0.3,0.3,0.3,0.4,0,0.5h-3.3v3.1
				h1.7l0.8-0.8l1.1,0.8c0.3,0.3,0.3,0.4,0,0.5h-3.6v3h1.7l0.8-0.8l1.1,0.8c0.3,0.3,0.3,0.4,0,0.5h-3.6v4.1c1.3,0.7,2.8,1,4.4,1h8.6
				c-0.5,0.2-0.8,0.5-0.8,0.9H309c-2.9,0-5.2-1.2-6.8-3.7c-0.4,1.4-0.9,2.5-1.6,3.5C300.4-954.5,300.3-954.6,300.3-954.8
				L300.3-954.8z M315.7-969c-0.3-0.6-0.6-0.9-1.1-1.1c-0.2-0.2-0.1-0.2,0.1-0.2c1.2,0.2,1.8,0.6,1.8,1.2c0,0.3-0.2,0.5-0.5,0.5
				C315.9-968.7,315.8-968.8,315.7-969L315.7-969z"/>
		</g>
		<g id="text3385" transform="matrix(2.5377365,0,0,2.0043301,-425.28625,856.70983)">
			<path id="path3344" inkscape:connector-curvature="0" class="st3" d="M222.5-805.4c-1.3,0-2.4-0.5-3.3-1.4s-1.4-2-1.4-3.3v-2.5h3
				v2.5c0,0.5,0.2,0.9,0.5,1.2c0.3,0.3,0.7,0.5,1.2,0.5c0.5,0,0.9-0.2,1.2-0.5c0.3-0.3,0.5-0.7,0.5-1.2v-2.5c0-1.1-0.5-2.3-1.6-3.6
				c-1-1.2-2-2.3-3-3.5c-1.1-1.4-1.6-2.7-1.6-3.9v-3.4c0-1.3,0.5-2.4,1.4-3.3c0.9-0.9,2-1.4,3.3-1.4c1.3,0,2.4,0.5,3.3,1.4
				c0.9,0.9,1.4,2,1.4,3.3v2.5h-3v-2.5c0-0.5-0.2-0.9-0.5-1.2c-0.3-0.3-0.7-0.5-1.2-0.5s-0.9,0.2-1.2,0.5c-0.3,0.3-0.5,0.7-0.5,1.2
				v2.5c0,1.1,0.5,2.3,1.6,3.6c1,1.2,2,2.3,3,3.5c1.1,1.4,1.6,2.7,1.6,3.9v3.4c0,1.3-0.5,2.4-1.4,3.3
				C224.9-805.8,223.8-805.4,222.5-805.4L222.5-805.4z"/>
			<path id="path3346" inkscape:connector-curvature="0" sodipodi:nodetypes="ccccccccc" class="st3" d="M234.8-827.5v22.2h-3v-22.2
				h-3.2v-4h9.3v4H234.8z"/>
			<path id="path3348" inkscape:connector-curvature="0" sodipodi:nodetypes="ccccccccccccc" class="st3" d="M246-805.4l-1.1-5.4
				h-3.5l-1.1,5.4h-3l4.4-26.2h2.8l4.4,26.2H246z M243.1-822.2l-1.3,8.1h2.5L243.1-822.2z"/>
			<path id="path3350" inkscape:connector-curvature="0" class="st3" d="M256.5-805.4v-9.9c0-0.5-0.2-0.9-0.5-1.2
				c-0.3-0.3-0.7-0.5-1.2-0.5h-1.7v11.6h-3v-26.2h4.6c1.3,0,2.4,0.5,3.3,1.4c0.9,0.9,1.4,2,1.4,3.3v5.3c0,1.2-0.4,2.3-1.3,3.2
				c0.8,0.9,1.3,2,1.3,3.2v9.9L256.5-805.4L256.5-805.4z M256.5-826.9c0-0.5-0.2-0.9-0.5-1.2c-0.3-0.3-0.7-0.5-1.2-0.5h-1.7v8.6h1.7
				c0.5,0,0.9-0.2,1.2-0.5c0.3-0.3,0.5-0.7,0.5-1.2V-826.9z"/>
			<path id="path3352" inkscape:connector-curvature="0" class="st3" d="M266.1-805.4c-1.3,0-2.4-0.5-3.3-1.4s-1.4-2-1.4-3.3v-2.5h3
				v2.5c0,0.5,0.2,0.9,0.5,1.2c0.3,0.3,0.7,0.5,1.2,0.5s0.9-0.2,1.2-0.5c0.3-0.3,0.5-0.7,0.5-1.2v-2.5c0-1.1-0.5-2.3-1.6-3.6
				c-1-1.2-2-2.3-3-3.5c-1.1-1.4-1.6-2.7-1.6-3.9v-3.4c0-1.3,0.5-2.4,1.4-3.3s2-1.4,3.3-1.4c1.3,0,2.4,0.5,3.3,1.4s1.4,2,1.4,3.3
				v2.5h-3v-2.5c0-0.5-0.2-0.9-0.5-1.2c-0.3-0.3-0.7-0.5-1.2-0.5c-0.5,0-0.9,0.2-1.2,0.5c-0.3,0.3-0.5,0.7-0.5,1.2v2.5
				c0,1.1,0.5,2.3,1.6,3.6c1,1.2,2,2.3,3,3.5c1.1,1.4,1.6,2.7,1.6,3.9v3.4c0,1.3-0.5,2.4-1.4,3.3S267.4-805.4,266.1-805.4z"/>
			<path id="path3354" inkscape:connector-curvature="0" class="st3" d="M279.4-805.4V-817h-3.5v11.6h-3v-26.2h3v11.6h3.5v-11.6h3
				v26.2H279.4z"/>
			<path id="path3356" inkscape:connector-curvature="0" class="st3" d="M285.2-805.4v-26.2h3v26.2H285.2z"/>
			<path id="path3358" inkscape:connector-curvature="0" class="st3" d="M295.5-817h-1.7v11.6h-3v-26.2h4.6c1.3,0,2.4,0.5,3.3,1.4
				c0.9,0.9,1.4,2,1.4,3.3v5.3c0,1.3-0.5,2.4-1.4,3.3C297.8-817.4,296.7-817,295.5-817L295.5-817z M297.1-826.9
				c0-0.5-0.2-0.9-0.5-1.2c-0.3-0.3-0.7-0.5-1.2-0.5h-1.7v8.6h1.7c0.5,0,0.9-0.2,1.2-0.5c0.3-0.3,0.5-0.7,0.5-1.2V-826.9z"/>
			<path id="path3360" inkscape:connector-curvature="0" class="st3" d="M306-805.4c-1.3,0-2.4-0.5-3.3-1.4c-0.9-0.9-1.4-2-1.4-3.3
				v-2.5h3v2.5c0,0.5,0.2,0.9,0.5,1.2c0.3,0.3,0.7,0.5,1.2,0.5c0.5,0,0.9-0.2,1.2-0.5c0.3-0.3,0.5-0.7,0.5-1.2v-2.5
				c0-1.1-0.5-2.3-1.6-3.6c-1-1.2-2-2.3-3-3.5c-1.1-1.4-1.6-2.7-1.6-3.9v-3.4c0-1.3,0.4-2.4,1.4-3.3c0.9-0.9,2-1.4,3.3-1.4
				s2.4,0.5,3.3,1.4s1.4,2,1.4,3.3v2.5h-3v-2.5c0-0.5-0.2-0.9-0.5-1.2c-0.3-0.3-0.7-0.5-1.2-0.5c-0.5,0-0.9,0.2-1.2,0.5
				c-0.3,0.3-0.5,0.7-0.5,1.2v2.5c0,1.1,0.5,2.3,1.6,3.6c1,1.2,2,2.3,3,3.5c1.1,1.4,1.6,2.7,1.6,3.9v3.4c0,1.3-0.5,2.4-1.4,3.3
				S307.3-805.4,306-805.4L306-805.4z"/>
		</g>
		<g id="text3362">
			<path id="path3367" inkscape:connector-curvature="0" class="st3" d="M-85-903.4h63.2v2.7h-30.1v60.3h-2.7v-60.3H-85V-903.4z"/>
			<path id="path3369" inkscape:connector-curvature="0" class="st3" d="M-2.5-903.4h68.8v2.7H-2.5C-2.5-900.7-2.5-903.4-2.5-903.4z
				 M-2.5-873.2h68.8v32.8h-2.7v-30.1H0.2v30.1h-2.7C-2.5-840.4-2.5-873.2-2.5-873.2z"/>
			<path id="path3371" inkscape:connector-curvature="0" class="st3" d="M85.8-903.4v62.9h2.7v-30.9c41,20.6,61.8,30.9,62.1,30.9
				h5.1v-0.3l-61.9-30.9v-0.5c40.9-20.6,61.6-30.9,61.9-30.9v-0.3h-4.8c-0.4,0-21.2,10.3-62.4,30.8v-30.8H85.8z"/>
			<path id="path3373" inkscape:connector-curvature="0" class="st3" d="M173-903.4h2.9v60.3h57.6v-60.3h2.7v62.9H173L173-903.4
				L173-903.4z"/>
			<path id="path3375" inkscape:connector-curvature="0" class="st3" d="M252.7-903.4h68.8v2.7h-68.8V-903.4z M252.7-873.2h68.8v2.7
				h-68.8V-873.2z M252.7-843.1h68.8v2.7h-68.8V-843.1z"/>
			<path id="path3377" inkscape:connector-curvature="0" class="st3" d="M340-903.4h63.2v2.7h-30.1v60.3h-2.7v-60.3H340V-903.4z"/>
			<path id="path3379" inkscape:connector-curvature="0" class="st3" d="M419.7-903.4h63.2v2.7h-60.3v27.5h60.3v2.7h-63.2V-903.4z
				 M419.7-843.1h63.2v2.7h-63.2V-843.1z"/>
			<path id="path3381" inkscape:connector-curvature="0" class="st3" d="M499.3-903.4h2.9v60.3h57.6v-60.3h2.7v62.9h-63.2V-903.4z"
				/>
		</g>
	</g>
</g>
</svg>
