<svg xmlns="http://www.w3.org/2000/svg" viewBox="0 0 285.68 374.13"><defs><style>.a{fill:#bfad3f;}.b{fill:#fd3d19;}</style></defs><title>TWS</title><path class="a" d="M56.27,77.94,51.83,89.55H49.48l-3.54-8.73c0-.15,0-.38-.08-.68a4.58,4.58,0,0,1-.08.68l-3.54,8.73H39.89L35.45,77.94h2.87l2.77,8.36c0,.18,0,.46.09.82a3.06,3.06,0,0,1,.08-.82l3.37-8.36h2.48l3.35,8.36c0,.18,0,.46.08.82a4.88,4.88,0,0,1,.11-.82l2.76-8.36Z"/><path class="a" d="M69,89.52H58.11V77.94H68.88v2.15H61v2.49h6.14v2H61v3h8Z"/><path class="a" d="M84.77,89.52H81.89l-1.14-2.25H74.28l-1.15,2.25H70.34v0l5.81-11.58H79Zm-4.72-4.07-2.53-5.69L75,85.45Z"/><path class="a" d="M98,84.91a.86.86,0,0,1-.8.8h-8v3.81H86.25V77.94h10.9a.74.74,0,0,1,.8.82Zm-2.28-1V80H88.82v4Z"/><path class="a" d="M112.74,88.7a.72.72,0,0,1-.8.82H101.19c-.54,0-.86-.3-.84-.82V78.76a.79.79,0,0,1,.84-.82H112a.7.7,0,0,1,.72.82Zm-2.37-1.59v-7H103v7Z"/><path class="a" d="M128,89.65h-2l-7.26-7.93v7.8H116V77.94h2.17l7.09,7.72V78.07H128Z"/><path class="a" d="M142.5,88.7c0,.24-.22.44-.65.59a4.65,4.65,0,0,1-1.64.23h-6.76a5.11,5.11,0,0,1-1.69-.23c-.43-.15-.64-.35-.64-.59V85.76H134v1.53h5.6V85.85L132.05,83c-.62-.27-.93-.56-.93-.89V78.76c0-.24.21-.44.64-.59a5.39,5.39,0,0,1,1.69-.23h6.76a4.89,4.89,0,0,1,1.64.23c.43.15.65.35.65.59v2.7h-2.89V80.15H134v1.14l7.59,2.78c.6.26.9.54.9.87Z"/><path class="a" d="M162.14,88.7c0,.24-.22.44-.65.59a4.65,4.65,0,0,1-1.64.23h-6.76a5.07,5.07,0,0,1-1.69-.23c-.43-.15-.65-.35-.65-.59V85.76h2.9v1.53h5.59V85.85L151.69,83c-.62-.27-.94-.56-.94-.89V78.76c0-.24.22-.44.65-.59a5.34,5.34,0,0,1,1.69-.23h6.76a4.89,4.89,0,0,1,1.64.23c.43.15.65.35.65.59v2.7h-2.9V80.15h-5.59v1.14l7.59,2.78c.6.26.9.54.9.87Z"/><path class="a" d="M191.29,88.7c0,.24-.21.44-.64.59a4.74,4.74,0,0,1-1.65.23h-6.76a5.11,5.11,0,0,1-1.69-.23c-.43-.15-.64-.35-.64-.59V85.76h2.89v1.53h5.6V85.85L180.85,83c-.63-.27-.94-.56-.94-.89V78.76c0-.24.21-.44.64-.59a5.39,5.39,0,0,1,1.69-.23H189a5,5,0,0,1,1.65.23c.43.15.64.35.64.59v2.7H188.4V80.15h-5.6v1.14l7.6,2.78c.59.26.89.54.89.87Z"/><path class="a" d="M218.85,89.52H208V77.94h10.77v2.15h-7.88v2.49H217v2h-6.15v3h8Z"/><path class="a" d="M250.23,88.7c0,.24-.22.44-.65.59a4.65,4.65,0,0,1-1.64.23h-6.76a5.07,5.07,0,0,1-1.69-.23c-.43-.15-.65-.35-.65-.59V85.76h2.9v1.53h5.59V85.85L239.78,83c-.62-.27-.94-.56-.94-.89V78.76c0-.24.22-.44.65-.59a5.34,5.34,0,0,1,1.69-.23h6.76a4.89,4.89,0,0,1,1.64.23c.43.15.65.35.65.59v2.7h-2.9V80.15h-5.59v1.14l7.59,2.78c.6.26.9.54.9.87Z"/><path class="a" d="M177.92,78.1c-1.85,2.37-3.85,4.91-5.44,7v4.48h-2.9V85.13c-1.9-2.4-3-4.56-5.08-7V78h2.94l3.62,5.8L175,78h2.91Z"/><path class="a" d="M205.64,80.13h-4.58v9.39h-2.89V80.13h-4.66V77.94h12.13Z"/><path class="a" d="M235.74,89.52H233V82.19l-3.63,7.16h-1.79l-3.9-7.16v7.33H221V77.94h2.68l4.85,8.78,4.55-8.78h2.69V89.52Z"/><path class="b" d="M35.69,43.56H76v6.77H58.53l0,20.78H51.85l0-20.78H35.69Z"/><path class="b" d="M79,43.56c37.9,0,0,0,37.9,0,1.66,0,2.72.47,2.81,2.63V68.71c.18,1.66-.88,2.4-2.35,2.4H81.51c-1.42,0-2.48-.37-2.44-1.89l0-12.53c0-1.2.5-2.12,2.3-2.12l31.78,0v-4.2H79V43.56m6.54,16.86v4h27.54v-4Z"/><path class="b" d="M122.83,43.56h6.4l0,20.87,27.18,0,0-2.9,6.68,0v7.46c.05,1.43-.92,2-2.35,2H125.36a2.41,2.41,0,0,1-2.53-2.4V43.56Z"/><path class="b" d="M203.38,43.56c2.3,0,3.31,1.11,3.22,3.09V68.34c.05,2.12-.65,2.81-2.44,2.77h-35.1a2.38,2.38,0,0,1-2.67-2.45V46.42c0-2,1.15-2.81,2.44-2.86M173,50.33c0,4.7,0,9.45,0,14.14H200V50.33c-9,0-18,0-27,0Z"/><path class="b" d="M216.27,44.3,243.4,62l.09-18.47h6.68c0,8.57.09,17.14,0,25.7-.09,1.71-1.38,2.17-3.45,2.26a11.64,11.64,0,0,1-5.39-1.75L216.13,53.28c-.14,5.94,0,17.83,0,17.83H209.5V47.25c-.09-1.43.55-3.64,3.92-3.69a5.53,5.53,0,0,1,2.85.74Z"/><path class="b" d="M73.08,98h64.19l-.05,87.66-32.74,105.4L44.39,199.8,73.08,98m10,12.44L58.33,196l42.48,68.73,24-81.48V110.45Z"/><path class="b" d="M149,98h64.14L241.62,199.8l-60.14,91.27-32.42-105.4L149,98m12.55,12.44v72.78l23.8,81.48L227.64,196,203,110.45Z"/><path class="b" d="M143.11,199.89l29.14,101.53-29.14,29.14-29-29.14Z"/></svg>